<svg width="29" height="24" fill="none" xmlns="http://www.w3.org/2000/svg"><path d="M11.781 0c-.72 0-1.412.292-1.922.811a2.796 2.796 0 00-.796 1.958v.923H2.718c-.721 0-1.413.292-1.923.811A2.796 2.796 0 000 6.462V21.23c0 .734.286 1.439.796 1.958.51.52 1.202.811 1.923.811H26.28c.721 0 1.413-.292 1.923-.811.51-.52.796-1.224.796-1.958V6.46c0-.734-.286-1.438-.796-1.958a2.694 2.694 0 00-1.923-.81h-6.343v-.924c0-.734-.287-1.439-.797-1.958A2.694 2.694 0 0017.22 0h-5.44zm0 1.846h5.438c.24 0 .47.097.64.27.17.174.266.408.266.653v.923h-7.25V2.77c0-.245.095-.48.265-.652.17-.174.4-.27.641-.27zM15.2 14.61l11.988-3.254v9.875c0 .245-.096.48-.266.652-.17.174-.4.27-.64.27H2.718a.898.898 0 01-.641-.27.932.932 0 01-.265-.652v-9.877L13.8 14.61a2.68 2.68 0 001.4 0zM2.719 5.539H26.28c.24 0 .471.098.641.27.17.174.265.409.265.654v2.983l-12.453 3.382a.892.892 0 01-.468 0L1.812 9.445V6.462c0-.245.096-.48.266-.653.17-.173.4-.27.64-.27z" fill="#fff"/></svg>