<svg width="27" height="29" fill="none" xmlns="http://www.w3.org/2000/svg"><path d="M13.5 0c-.693 0-1.386.238-1.977.662L9.68 1.952l-2.115.279h-.033l-.036.033A3.76 3.76 0 005.66 3.28a3.785 3.785 0 00-1.01 1.843l-.033.034v.036l-.278 2.161-1.284 1.673-.035.033v.036c-.776 1.247-.811 2.855.035 4.043l1.316 1.85.349 1.916-3.576 5.473L0 24.084h5.31l1.283 2.998.8 1.918 1.144-1.743 3.507-5.298c.94.39 2.006.424 2.914 0l3.506 5.298 1.144 1.74.8-1.919 1.282-2.995H27l-1.144-1.709-3.472-5.296.278-2.091 1.284-1.847.035-.034v-.033c.776-1.25.811-2.82-.035-4.01l-1.284-1.847-.416-2.093h.033c0-.027-.03-.044-.033-.07-.2-1.457-1.352-2.643-2.81-2.821H19.4l-2.082-.28-1.84-1.288A3.409 3.409 0 0013.5 0zm0 2.264c.255 0 .509.078.694.212l1.977 1.427.244.174.278.036 2.43.348h.033a.988.988 0 01.903.907v.069l.452 2.476.033.242.175.21 1.421 1.985c.267.373.3.997-.033 1.534l-1.388 1.952-.174.245-.035.279-.347 2.438v.033a1.08 1.08 0 01-.173.489l-.07.036v.035a.98.98 0 01-.658.348h-.07l-2.531.454-.278.034-.211.175-1.977 1.427c-.37.268-1.026.301-1.561-.033l-1.806-1.394-.209-.174-.31-.036-2.432-.348h-.035a.965.965 0 01-.763-.488 1.096 1.096 0 01-.14-.419v-.069l-.451-2.542-.036-.28-.173-.211-1.421-1.985c-.267-.372-.3-1.03.033-1.569l1.388-1.813.173-.21.034-.312L6.8 5.61c.002-.016.029-.017.033-.034a1.56 1.56 0 011.11-1.115c.018-.004.019-.031.034-.033l2.327-.315.277-.036.245-.174 1.977-1.427a1.21 1.21 0 01.694-.212h.003zm7.67 16.974l1.7 2.614h-2.673l-.278.697-.762 1.777-2.36-3.625.52-.383 2.186-.385v.033c.027 0 .044-.03.07-.033a3.296 3.296 0 001.594-.697l.002.002zm-15.34.034a3.179 3.179 0 001.735.803h.033l2.12.278.485.384-2.36 3.589-.762-1.777-.278-.698H4.127l1.701-2.58h.002z" fill="#fff"/></svg>