<svg width="29" height="24" fill="none" xmlns="http://www.w3.org/2000/svg"><path d="M27.5 13.47v4.677c0 2.027-4.886 4.677-10.912 4.677-6.027 0-10.912-2.65-10.912-4.677V14.25" stroke="#fff" stroke-width="1.5" stroke-linecap="round" stroke-linejoin="round"/><path d="M6.135 14.653c1.348 1.79 5.518 3.468 10.453 3.468 6.027 0 10.912-2.503 10.912-4.654 0-1.209-1.538-2.532-3.953-3.461" stroke="#fff" stroke-width="1.5" stroke-linecap="round" stroke-linejoin="round"/><path d="M22.824 5.676v4.676c0 2.027-4.886 4.677-10.912 4.677C5.885 15.029 1 12.379 1 10.352V5.676" stroke="#fff" stroke-width="1.5" stroke-linecap="round" stroke-linejoin="round"/><path clip-rule="evenodd" d="M11.912 10.328c6.026 0 10.912-2.503 10.912-4.655S17.938 1 11.912 1C5.885 1 1 3.52 1 5.673c0 2.152 4.885 4.655 10.912 4.655z" stroke="#fff" stroke-width="1.5" stroke-linecap="round" stroke-linejoin="round"/></svg>