<svg width="29" height="28" fill="none" xmlns="http://www.w3.org/2000/svg"><path d="M14.437 7.717a.847.847 0 10-1.695 0v7.39l5 3.389a.847.847 0 10.94-1.407l-4.236-2.873-.009-6.5z" fill="#fff"/><path d="M26.472 9.463a6.306 6.306 0 01-1.618.492 11.906 11.906 0 11-7.288-7.288c.09-.56.256-1.104.491-1.619a13.61 13.61 0 108.415 8.415z" fill="#fff"/><path d="M13.659 4.012a9.796 9.796 0 00-1.924 19.397l.229-1.33A8.474 8.474 0 1118.226 6.74a6.317 6.317 0 01-.66-1.89 9.703 9.703 0 00-3.907-.838zm10.106 4.462a4.237 4.237 0 100-8.474 4.237 4.237 0 000 8.474z" fill="#fff"/></svg>