<svg width="134" height="134" fill="none" xmlns="http://www.w3.org/2000/svg"><path fill-rule="evenodd" clip-rule="evenodd" d="M24.602 17.796c0-1.717 1.381-3.534 2.794-4.011 1.778-.6 6.66.12 8.155-5.454.373-1.393-.161-3.883 3.184-3.883H54.96c4.952 0 1.323 4.64 5.863 7.747 2.073 1.418 2.93.805 5.276 1.528 4.84 1.492 4.335 10.878-5.12 10.878-5.4 0-27.606.38-31.304-.364-2.916-.585-5.074-3.426-5.074-6.441zM0 21.198V123.53c0 5.24 5.23 10.469 10.47 10.469h73.28c2.552 0 5.848-2.026 7.518-3.999 1.864-2.202 2.69-5.118 2.69-9.087V94.479c0-3.605-3.613-3.559-4.475-1.595-.881 2.007.61 28.952-.68 32.297-1.153 2.994-3.608 4.369-7.67 4.369H12.302c-5.107 0-7.851-2.744-7.851-7.852V23.816c0-10.173 8.532-8.114 15.965-8.114-.515.916-.262 3.305-.262 4.45h-5.235c-3.073 0-6.02 3.173-6.02 6.28v92.388c0 3.121 3.16 6.281 6.282 6.281h63.336c4.294 0 6.543-3.789 6.543-8.375V103.64c0-3.814-3.757-3.964-4.55-1.671-.411 1.191-.056 13.402-.151 15.813-.093 2.349-1.314 2.869-3.674 2.869H17.012c-2.832 0-3.664-.831-3.664-3.664V28.264c0-4.557 2.28-3.664 8.636-3.664.748 0 3.292 4.45 8.637 4.45h32.191c6.093 0 7.93-4.45 9.16-4.45 9.409 0 8.376-.645 8.376 7.59 0 2.897-.321 27.806.236 29.076.92 2.095 4.475 1.855 4.475-1.857V28.788c0-9.473-5.812-8.637-11.516-8.637 0-2.369.594-.092-.045-4.441 7.014-.006 13.341-1.32 15.406 4.522.76 2.147.343 18.272.343 21.904 0 6.668-.87 9.16 2.878 9.16 1.114 0 1.832-1.62 1.832-2.88v-24.6c0-4.409-1.339-8.216-4.82-10.62-3.696-2.553-7.305-2.204-13.238-2.204-3.943 0-4.45.453-6.72-.87-.691-.401-1.918-.936-2.81-1.115-3.496-.702-3.24.282-3.923-3.669-.49-2.838-3.133-5.339-6.438-5.339H37.426c-2.081 0-3.74 1.372-4.781 2.547-2.921 3.297.688 5.803-4.598 6.395a9.013 9.013 0 00-2.843.82c-.523.248-.745.4-1.15.682-1.426.991-1.666.549-4.948.549-6.66 0-12.745-.992-17.094 4.89C1.251 16.911 0 19.57 0 21.197v.001z" fill="#fff"/><path fill-rule="evenodd" clip-rule="evenodd" d="M62.813 101.547l7.851-13.086c.992.264 4.865 4.291 5.496 5.234l-9.831 5.872c-.88.526-2.69 1.759-3.516 1.98zm17.012-10.73l-6.081-6.22 25.121-25.252 6.149 6.02c-.384 1.259-11.26 11.651-12.43 12.823-1.903 1.903-11.577 11.837-12.76 12.628zm30.097-26.958l-9.486-9.357c1.462-.998 14.289-14.25 17.267-17.148 6.226-6.058 14.817 1.785 10.321 8.228-.762 1.093-1.525 1.831-2.464 2.77-2.082 2.08-14.51 14.751-15.638 15.507zm-54.438 42.66a2.365 2.365 0 002.356 2.356c1.71 0 2.173-1.636 3.208-2.305 1.293-.836 1.04.788 4.207-1.011 3.129-1.777 15.591-9.062 17.647-11.142 4.283-4.334 8.806-8.524 12.824-13.087.473-.537.92-.923 1.438-1.441 1.74-1.738 10.7-10.461 11.45-11.581 2.935.683 3.92-.383 6.346-2.814l12.236-12.366c4.738 3.172 1.071 5.079-4.384 10.534l-4.842 4.842c-.82.82-1.906 1.589-2.282 2.701-.312.922-.156 2.86 2.348 2.86 1.279 0 1.85-.924 2.552-1.635 2.485-2.515 11.027-10.746 12.412-12.713.951-1.35 1.001-2.456 1.001-4.234 0-2.967-2.21-3.977-3.403-5.758.422-.63.664-.736 1.161-1.457.42-.609.639-1.058.942-1.674 3.086-6.269-.766-14.603-8.626-15.736-6.641-.957-9.989 3.58-13.302 6.893L97.946 50.573c-.94.928-1.776 1.698-1.88 3.354-.139 2.192.519 1.16-1.781 3.453L68.564 83.218l-9.772 16.139c-1.544 2.947.068 2.634-1.128 4.105-.623.766-2.179 1.736-2.179 3.056v.001zM37.95 49.203h33.5c2.917 0 3.54-4.71-.786-4.71h-31.93c-4.245 0-3.606 4.71-.785 4.71zm.263-8.9h32.976c2.268 0 3.52-2.664 1.73-4.084-.47-.373-1.47-.627-2.253-.627h-31.93c-4.32 0-3.612 4.71-.523 4.71v.001zm-.263 26.695h34.023c2.232 0 2.352-4.45 0-4.45H37.426c-2 0-2.72 4.45.523 4.45zm0-8.898h33.5c3.166 0 2.757-4.45.523-4.45H37.426c-2 0-2.72 4.45.523 4.45zm-.524 17.798h34.547c2.321 0 2.469-4.449-.523-4.449h-33.5a2.262 2.262 0 00-2.265 1.922c-.153 1.02.767 2.528 1.741 2.528zM20.152 89.246c0 2.2 2.371 3.17 3.403 4.71-4.513 3.022-4.466 6.544-1.047 6.544 1.716 0 3.197-2.564 4.45-3.403.695 1.039 2.851 3.403 4.187 3.403 1.875 0 3.741-1.952.984-4.648-.714-.699-1.24-1.365-2.031-1.895 1.145-1.71 3.402-2.636 3.402-4.711 0-1.478-.953-2.094-2.355-2.094-1.716 0-3.198 2.564-4.45 3.403-.498-.744-1.103-1.226-1.765-1.899-.923-.937-1.155-1.504-2.684-1.504-1.265 0-2.093.828-2.093 2.094z" fill="#EBA707"/><path fill-rule="evenodd" clip-rule="evenodd" d="M37.95 20.152h17.797c3.053 0 3.562-4.71-.786-4.71H39.258c-1.762 0-2.99.42-3.47 1.79-.476 1.36.528 2.92 2.161 2.92z" fill="#fff"/><path fill-rule="evenodd" clip-rule="evenodd" d="M37.95 93.695c0 1.559 1.15 2.356 1.831 2.356H56.27c2.286 0 2.666-4.45-.262-4.45H40.043c-1.266 0-2.094.828-2.094 2.094z" fill="#EBA707"/><path fill-rule="evenodd" clip-rule="evenodd" d="M71.45 106.781v7.59c0 2.253 4.448 2.374 4.448 0v-7.328c0-3.111-4.449-2.407-4.449-.262z" fill="#fff"/><path fill-rule="evenodd" clip-rule="evenodd" d="M20.152 46.323c0 3.52 1.922 2.88 6.543 2.88 2.994 0 3.618-4.712-.785-4.712-1.616 0-5.758-.285-5.758 1.833v-.001zm0-8.898c0 3.413 1.956 2.879 6.02 2.879 3.882 0 3.882-4.711 0-4.711-1.525 0-6.02-.404-6.02 1.832zm.001 17.797c0 3.582 1.768 2.879 7.066 2.879 2.145 0 2.848-4.45-.262-4.45-2.497 0-6.805-.643-6.805 1.57zm-.001 18.319c0 3.066 2.653 2.356 6.805 2.356 3.11 0 2.407-4.45.262-4.45-3.654 0-7.066-.719-7.066 2.094zm.001-8.897c0 3.09 2.72 2.355 7.066 2.355 2.286 0 2.666-4.45-.262-4.45-3.486 0-6.805-.694-6.805 2.094z" fill="#EBA707"/></svg>