<svg width="35" height="35" fill="none" xmlns="http://www.w3.org/2000/svg"><path d="M8.52 23.384a1.688 1.688 0 01.483 1.351 18.512 18.512 0 01-.671 3.375c2.354-.545 3.792-1.176 4.445-1.507.37-.187.797-.232 1.198-.125 1.15.307 2.335.461 3.525.46 6.743 0 11.813-4.737 11.813-10.125 0-5.387-5.07-10.125-11.813-10.125S5.687 11.425 5.687 16.813c0 2.477 1.042 4.775 2.832 6.57zm-.833 6.59c-.4.079-.8.151-1.203.217-.338.054-.594-.297-.46-.61.15-.354.286-.713.411-1.076l.005-.017c.419-1.215.76-2.612.884-3.913C5.254 22.499 4 19.782 4 16.813 4 10.288 10.045 5 17.5 5S31 10.289 31 16.813c0 6.523-6.045 11.812-13.5 11.812a15.288 15.288 0 01-3.96-.516c-.878.443-2.766 1.252-5.853 1.864z" fill="#fff"/><path d="M10.75 12.594a.844.844 0 01.844-.844h11.812a.844.844 0 010 1.688H11.594a.844.844 0 01-.844-.844zm0 4.219a.844.844 0 01.844-.844h11.812a.844.844 0 110 1.687H11.594a.844.844 0 01-.844-.843zm0 4.218a.844.844 0 01.844-.843h6.75a.844.844 0 010 1.687h-6.75a.844.844 0 01-.844-.844z" fill="#fff"/></svg>