<svg width="27" height="22" fill="none" xmlns="http://www.w3.org/2000/svg"><path d="M19.82 4.82c.19.181.293.428.293.685v3.233a.954.954 0 01-.293.686 1.02 1.02 0 01-.709.284 1.02 1.02 0 01-.708-.284.954.954 0 01-.294-.686v-.892l-2.298 2.224a1.031 1.031 0 01-1.43.011.967.967 0 01-.293-.694.943.943 0 01.307-.689l2.298-2.223h-.922a1.02 1.02 0 01-.709-.284.954.954 0 01-.293-.686.95.95 0 01.293-.685 1.02 1.02 0 01.709-.284h3.34c.266 0 .52.102.709.284zM6.75 16.497c0 .257.106.504.294.686.188.181.443.284.708.284h3.342c.266 0 .521-.103.709-.284a.954.954 0 00.293-.686.954.954 0 00-.293-.686 1.02 1.02 0 00-.709-.284h-.922l2.299-2.224a.953.953 0 00.28-.683.954.954 0 00-.293-.677 1.02 1.02 0 00-.7-.283 1.02 1.02 0 00-.705.272l-2.298 2.222v-.893a.954.954 0 00-.294-.685 1.02 1.02 0 00-.708-.284c-.266 0-.521.102-.71.284a.954.954 0 00-.293.685v3.236zM.071 4.212c0-.943.386-1.847 1.076-2.514A3.738 3.738 0 013.745.656H23.12c.974 0 1.91.375 2.598 1.042a3.499 3.499 0 011.076 2.514V17.79c0 .467-.095.93-.28 1.36a3.55 3.55 0 01-.796 1.154c-.341.33-.746.593-1.192.771-.446.179-.924.27-1.406.27H3.745c-.483 0-.96-.091-1.406-.27a3.685 3.685 0 01-1.192-.77A3.551 3.551 0 01.35 19.15a3.456 3.456 0 01-.28-1.361V4.212zm3.674-1.616c-.922 0-1.67.724-1.67 1.616V17.79c0 .892.748 1.616 1.67 1.616H23.12c.922 0 1.67-.724 1.67-1.616V4.212c0-.892-.748-1.616-1.67-1.616H3.745z" fill="#fff"/></svg>