<svg width="32" height="32" fill="none" xmlns="http://www.w3.org/2000/svg"><path d="M.894 18.314l2.088.342a12.86 12.86 0 001.86 4.483l-1.236 1.726a.976.976 0 00.01 1.17c.312.382.644.747.993 1.093.353.354.716.679 1.09.994a.976.976 0 001.172.01l1.725-1.237c1.361.9 2.882 1.532 4.48 1.862l.342 2.09c.065.427.406.76.835.813.297.034.597.054.902.07a.546.546 0 00.573-.542v-4.346a.546.546 0 00-.527-.543 10.314 10.314 0 010-20.6.546.546 0 00.527-.542V.814a.546.546 0 00-.571-.542 15.69 15.69 0 00-.904.064.979.979 0 00-.835.82l-.342 2.09a12.85 12.85 0 00-4.48 1.862L6.87 3.87a.976.976 0 00-1.172.011c-.38.312-.744.644-1.09.993-.352.345-.683.71-.992 1.093a.976.976 0 00-.011 1.173l1.236 1.726a12.86 12.86 0 00-1.86 4.482l-2.088.341a.967.967 0 00-.814.836 13.43 13.43 0 000 2.929.98.98 0 00.814.86z" fill="#EBA707"/><path d="M15.21 7.881a8.136 8.136 0 000 16.24.498.498 0 00.518-.503V8.384a.498.498 0 00-.519-.503zm4.314.526h-2.712v1.085h2.712a1.632 1.632 0 001.628-1.627V4.511a1.627 1.627 0 10-1.085 0v3.354c0 .3-.243.542-.543.542zm-2.711 3.256h5.423a.542.542 0 100-1.085h-5.424v1.085zm0 11.932h2.711c.3 0 .543.242.543.542v3.354a1.627 1.627 0 101.085 0v-3.354a1.632 1.632 0 00-1.628-1.627h-2.711v1.084zm8.135-5.425h-8.136v1.085h8.136c.3 0 .543.242.543.542v2.812a1.627 1.627 0 101.085 0v-2.812a1.632 1.632 0 00-1.628-1.627zm5.424-3.795a1.627 1.627 0 00-1.527 1.085H16.813v1.084h12.032a1.624 1.624 0 101.527-2.169z" fill="#EBA707"/><path d="M22.779 20.882c0-.3-.243-.542-.543-.542h-5.424v1.085h5.424c.3 0 .543-.243.543-.543zm3.797-8.676V9.394a1.627 1.627 0 10-1.085 0v2.812a.543.543 0 01-.543.542h-8.136v1.085h8.136a1.632 1.632 0 001.628-1.627z" fill="#EBA707"/></svg>