<svg width="28" height="28" fill="none" xmlns="http://www.w3.org/2000/svg"><path d="M8.525 8.67L14 23.45l5.476-14.78H8.526zM14 3.076L9.594 7.028h8.813L14 3.076zM6.775 8.67H0c.03.477.202.945.511 1.337l11.6 14.693c.234.295.526.526.854.682L6.775 8.67zM4.598 2.617c-.832 0-1.593.42-2.036 1.125L.493 7.029h6.642l4.92-4.412H4.597zm20.841 1.125a2.393 2.393 0 00-2.037-1.125h-7.456l4.92 4.412h6.641L25.44 3.742zM21.226 8.67l-6.19 16.712c.327-.156.62-.387.853-.682l11.6-14.693c.31-.392.48-.86.511-1.337h-6.774z" fill="#EBA707"/></svg>