<svg width="28" height="28" fill="none" xmlns="http://www.w3.org/2000/svg"><g clip-path="url(#clip0_2761_3221)" fill="#EBA707"><path d="M16.167 15.74a4.002 4.002 0 01-3.998 3.998 4.002 4.002 0 01-3.998-3.997 4.002 4.002 0 013.998-3.998c.814 0 1.571.245 2.203.664l1.716-1.716a6.363 6.363 0 00-3.919-1.345 6.402 6.402 0 00-6.395 6.395 6.402 6.402 0 006.395 6.394 6.402 6.402 0 006.395-6.395 6.363 6.363 0 00-1.346-3.919l-1.716 1.716c.42.632.665 1.39.665 2.204z"/><path d="M11.604 15.175l1.6-1.6A2.402 2.402 0 009.77 15.74c0 1.323 1.076 2.4 2.399 2.4a2.402 2.402 0 002.165-3.435l-1.6 1.6-1.13-1.13z"/><path d="M20.114 8.987l-.05-.012-1.71 1.709a7.955 7.955 0 011.808 5.056c0 4.407-3.586 7.992-7.993 7.992s-7.992-3.585-7.992-7.992c0-4.408 3.585-7.993 7.992-7.993 1.917 0 3.678.678 5.056 1.807l1.708-1.709-.012-.05-.538-2.304a11.916 11.916 0 00-6.214-1.739C5.56 3.752.182 9.129.182 15.739s5.377 11.988 11.987 11.988S24.157 22.35 24.157 15.74c0-2.273-.636-4.4-1.74-6.213l-2.303-.539zm2.808-.984l4.532-4.532-2.261-.754-.754-2.262-4.533 4.533.572 2.444 2.444.571z"/></g><defs><clipPath id="clip0_2761_3221"><path fill="#fff" transform="translate(.182 .455)" d="M0 0h27.273v27.273H0z"/></clipPath></defs></svg>