<svg width="106" height="121" fill="none" xmlns="http://www.w3.org/2000/svg"><g clip-path="url(#clip0_2761_11668)" fill-rule="evenodd" clip-rule="evenodd"><path d="M16.82 111.861a4.557 4.557 0 014.562 4.568 4.557 4.557 0 01-4.562 4.568 4.557 4.557 0 01-4.562-4.568 4.557 4.557 0 014.562-4.568zm36.258 0a4.557 4.557 0 014.561 4.568 4.557 4.557 0 01-4.562 4.568 4.557 4.557 0 01-4.561-4.568 4.557 4.557 0 014.562-4.568zm12.082 0a4.557 4.557 0 014.561 4.568 4.557 4.557 0 01-4.562 4.568 4.557 4.557 0 01-4.561-4.568 4.557 4.557 0 014.561-4.568zm12.097 0a4.557 4.557 0 014.562 4.568 4.557 4.557 0 01-4.562 4.568 4.557 4.557 0 01-4.562-4.568 4.557 4.557 0 014.562-4.568zM16.82 99.453a4.557 4.557 0 014.562 4.568 4.557 4.557 0 01-4.562 4.568 4.557 4.557 0 01-4.562-4.568 4.557 4.557 0 014.562-4.568zm36.258 0a4.557 4.557 0 014.561 4.568 4.557 4.557 0 01-4.562 4.568 4.557 4.557 0 01-4.561-4.568 4.557 4.557 0 014.562-4.568zm12.082 0a4.557 4.557 0 014.561 4.568 4.557 4.557 0 01-4.562 4.568 4.557 4.557 0 01-4.561-4.568 4.557 4.557 0 014.561-4.568zm12.097 0a4.557 4.557 0 014.562 4.568 4.557 4.557 0 01-4.562 4.568 4.557 4.557 0 01-4.562-4.568 4.557 4.557 0 014.562-4.568zM16.82 87.023a4.557 4.557 0 014.562 4.568 4.557 4.557 0 01-4.562 4.568 4.557 4.557 0 01-4.562-4.568 4.557 4.557 0 014.562-4.568zm36.258 0a4.557 4.557 0 014.561 4.568 4.557 4.557 0 01-4.562 4.568 4.557 4.557 0 01-4.561-4.568 4.557 4.557 0 014.562-4.568zm12.082 0a4.557 4.557 0 014.561 4.568 4.557 4.557 0 01-4.562 4.568 4.557 4.557 0 01-4.561-4.568 4.557 4.557 0 014.561-4.568zm12.097 0a4.557 4.557 0 014.562 4.568 4.557 4.557 0 01-4.562 4.568 4.557 4.557 0 01-4.562-4.568 4.557 4.557 0 014.562-4.568zM16.82 74.613a4.557 4.557 0 014.562 4.568 4.557 4.557 0 01-4.562 4.568 4.557 4.557 0 01-4.562-4.568 4.557 4.557 0 014.562-4.568zm0-12.41a4.557 4.557 0 014.562 4.568 4.557 4.557 0 01-4.562 4.568 4.557 4.557 0 01-4.562-4.568 4.557 4.557 0 014.562-4.568zm0-12.428a4.557 4.557 0 014.562 4.568 4.557 4.557 0 01-4.562 4.568 4.557 4.557 0 01-4.562-4.568 4.557 4.557 0 014.562-4.568zm36.258 0a4.557 4.557 0 014.561 4.568 4.557 4.557 0 01-4.562 4.568 4.557 4.557 0 01-4.561-4.568 4.557 4.557 0 014.562-4.568zm12.082 0a4.557 4.557 0 014.561 4.568 4.557 4.557 0 01-4.562 4.568 4.557 4.557 0 01-4.561-4.568 4.557 4.557 0 014.561-4.568zm12.097 0a4.557 4.557 0 014.562 4.568 4.557 4.557 0 01-4.562 4.568 4.557 4.557 0 01-4.562-4.568 4.557 4.557 0 014.562-4.568zM16.82 37.365a4.557 4.557 0 014.562 4.568 4.557 4.557 0 01-4.562 4.568 4.557 4.557 0 01-4.562-4.568 4.557 4.557 0 014.562-4.568zm36.258 0a4.557 4.557 0 014.561 4.568 4.557 4.557 0 01-4.562 4.568 4.557 4.557 0 01-4.561-4.568 4.557 4.557 0 014.562-4.568zm12.082 0a4.557 4.557 0 014.561 4.568 4.557 4.557 0 01-4.562 4.568 4.557 4.557 0 01-4.561-4.568 4.557 4.557 0 014.561-4.568zm12.097 0a4.557 4.557 0 014.562 4.568 4.557 4.557 0 01-4.562 4.568 4.557 4.557 0 01-4.562-4.568 4.557 4.557 0 014.562-4.568zM16.82 24.957a4.557 4.557 0 014.562 4.568 4.557 4.557 0 01-4.562 4.568 4.557 4.557 0 01-4.562-4.568 4.557 4.557 0 014.562-4.568zm36.258 0a4.557 4.557 0 014.561 4.568 4.557 4.557 0 01-4.562 4.568 4.557 4.557 0 01-4.561-4.568 4.557 4.557 0 014.562-4.568zm12.082 0a4.557 4.557 0 014.561 4.568 4.557 4.557 0 01-4.562 4.568 4.557 4.557 0 01-4.561-4.568 4.557 4.557 0 014.561-4.568zm12.097 0a4.557 4.557 0 014.562 4.568 4.557 4.557 0 01-4.562 4.568 4.557 4.557 0 01-4.562-4.568 4.557 4.557 0 014.562-4.568zM16.82 12.527a4.557 4.557 0 014.562 4.568 4.557 4.557 0 01-4.562 4.568 4.557 4.557 0 01-4.562-4.568 4.557 4.557 0 014.562-4.568zm12.078 0a4.557 4.557 0 014.562 4.568 4.557 4.557 0 01-4.562 4.568 4.557 4.557 0 01-4.562-4.568 4.557 4.557 0 014.562-4.568zm12.102 0a4.557 4.557 0 014.561 4.568A4.557 4.557 0 0141 21.663a4.557 4.557 0 01-4.562-4.568A4.557 4.557 0 0141 12.527zm12.078 0a4.557 4.557 0 014.561 4.568 4.557 4.557 0 01-4.562 4.568 4.557 4.557 0 01-4.561-4.568 4.557 4.557 0 014.562-4.568zm12.082 0a4.557 4.557 0 014.561 4.568 4.557 4.557 0 01-4.562 4.568 4.557 4.557 0 01-4.561-4.568 4.557 4.557 0 014.561-4.568zm12.097 0a4.557 4.557 0 014.562 4.568 4.557 4.557 0 01-4.562 4.568 4.557 4.557 0 01-4.562-4.568 4.557 4.557 0 014.562-4.568zm12.083 0a4.557 4.557 0 014.561 4.568 4.557 4.557 0 01-4.562 4.568 4.557 4.557 0 01-4.562-4.568 4.557 4.557 0 014.562-4.568zm12.097 0a4.557 4.557 0 014.562 4.568 4.557 4.557 0 01-4.562 4.568 4.557 4.557 0 01-4.562-4.568 4.557 4.557 0 014.562-4.568zM4.562 111.861a4.557 4.557 0 014.562 4.568 4.557 4.557 0 01-4.562 4.568A4.557 4.557 0 010 116.429a4.557 4.557 0 014.562-4.568zm0-12.41a4.557 4.557 0 014.562 4.568 4.557 4.557 0 01-4.562 4.568A4.557 4.557 0 010 104.019a4.557 4.557 0 014.562-4.568zm0-12.428a4.557 4.557 0 014.562 4.568 4.557 4.557 0 01-4.562 4.568A4.557 4.557 0 010 91.591a4.557 4.557 0 014.562-4.568zm0-12.41a4.557 4.557 0 014.562 4.568 4.557 4.557 0 01-4.562 4.568A4.557 4.557 0 010 79.18a4.557 4.557 0 014.562-4.568zm0-12.408a4.557 4.557 0 014.562 4.568 4.557 4.557 0 01-4.562 4.568A4.557 4.557 0 010 66.773a4.557 4.557 0 014.562-4.568zm0-12.43a4.557 4.557 0 014.562 4.568 4.557 4.557 0 01-4.562 4.568A4.557 4.557 0 010 54.343a4.557 4.557 0 014.562-4.568zm0-12.41a4.557 4.557 0 014.562 4.568 4.557 4.557 0 01-4.562 4.568A4.557 4.557 0 010 41.933a4.557 4.557 0 014.562-4.568zm0-12.408a4.557 4.557 0 014.562 4.568 4.557 4.557 0 01-4.562 4.568A4.557 4.557 0 010 29.525a4.557 4.557 0 014.562-4.568zm0-12.43a4.557 4.557 0 014.562 4.568 4.557 4.557 0 01-4.562 4.568A4.557 4.557 0 010 17.095a4.557 4.557 0 014.562-4.568zM16.82 0a4.557 4.557 0 014.562 4.568 4.557 4.557 0 01-4.562 4.568 4.557 4.557 0 01-4.562-4.568A4.557 4.557 0 0116.82 0zm12.078 0a4.557 4.557 0 014.562 4.568 4.557 4.557 0 01-4.562 4.568 4.557 4.557 0 01-4.562-4.568A4.557 4.557 0 0128.898 0zM41 0a4.557 4.557 0 014.561 4.568A4.557 4.557 0 0141 9.136a4.557 4.557 0 01-4.562-4.568A4.557 4.557 0 0141 0zm12.078 0a4.557 4.557 0 014.561 4.568 4.557 4.557 0 01-4.562 4.568 4.557 4.557 0 01-4.561-4.568A4.557 4.557 0 0153.078 0zM65.16 0a4.557 4.557 0 014.561 4.568 4.557 4.557 0 01-4.562 4.568 4.557 4.557 0 01-4.561-4.568A4.557 4.557 0 0165.159 0zm12.097 0a4.557 4.557 0 014.562 4.568 4.557 4.557 0 01-4.562 4.568 4.557 4.557 0 01-4.562-4.568A4.557 4.557 0 0177.257 0zM89.34 0a4.557 4.557 0 014.56 4.568 4.557 4.557 0 01-4.562 4.568 4.557 4.557 0 01-4.562-4.568A4.557 4.557 0 0189.34 0zm12.097 0a4.557 4.557 0 014.562 4.568 4.557 4.557 0 01-4.562 4.568 4.557 4.557 0 01-4.562-4.568A4.557 4.557 0 01101.437 0zM4.562 0a4.557 4.557 0 014.562 4.568 4.557 4.557 0 01-4.562 4.568A4.557 4.557 0 010 4.568 4.557 4.557 0 014.562 0z" fill="#EBA707"/><path d="M90.278 27.582h11.473a2.308 2.308 0 012.291 2.294v87.238a2.308 2.308 0 01-2.291 2.294H90.278a2.308 2.308 0 01-2.29-2.294V81.533H43.425v35.581a2.308 2.308 0 01-2.291 2.294H29.662a2.308 2.308 0 01-2.29-2.294V29.876a2.308 2.308 0 012.29-2.294h11.473c1.253 0 2.29 1.04 2.29 2.294v35.581h44.562V29.876a2.308 2.308 0 012.291-2.294z" fill="#fff"/></g><defs><clipPath id="clip0_2761_11668"><path fill="#fff" d="M0 0h106v121H0z"/></clipPath></defs></svg>