<svg width="51" height="33" fill="none" xmlns="http://www.w3.org/2000/svg"><g clip-path="url(#clip0_2761_11570)" fill-rule="evenodd" clip-rule="evenodd"><path d="M36.915 26.428c0-.497.213-1.31.378-1.697.38-.887 1.18-1.696 2.058-2.08 4.115-1.795 7.688 3.27 4.635 6.66-1.055 1.172-2.947 1.583-4.562.923-.892-.364-1.697-1.16-2.099-2.037-.171-.373-.41-1.23-.41-1.769zm-31.28 0c0-.497.213-1.31.378-1.697 1.717-4.018 7.853-2.744 7.853 1.697 0 4.356-5.996 5.745-7.822 1.77-.171-.374-.41-1.231-.41-1.77zm-2.573-5.822h-.72V17.28c1.818 0 1.646.292 1.646 2.391a.934.934 0 01-.926.936zm42.085-4.574c1.23.596 3.293.17 3.293 3.742-2.784 0-3.293-1.027-3.293-3.742zM8.824 5.635h16.978c2.204 0 3.54.576 5.102 1.81l6.034 6.068c.738.756 3.968 1.368 5.204 1.709.278.076 1.117.277 1.359.394 0 1.976-.134 2.858.717 4.058 1.223 1.725 2.48 1.764 4.222 1.764v4.159c-2.147 0-1.59.13-1.864-.82-.083-.287-.214-.7-.365-.983-2.556-4.777-9.198-3.982-10.7.905-.132.427-.058.898-.448.898H15.718c-.648 0 .047-1.371-1.928-3.355-2.912-2.925-8.233-1.86-9.56 2.457-.319 1.038.277.898-1.889.898V22.27c1.263 0 2.467.044 3.116-1.53.19-.462.096-.46.523-.72 1.884-1.148 4.267-1.397 6.344-.56.863.349 1.279.625 1.955 1.145.85.651 1.547 1.651 2.019 2.638.189.395.326.69.86.69h5.762V22.27h-5.248c-.11-.477-.88-1.557-1.207-1.9-2.53-2.646-5.537-3.748-9.187-2.78-.707.187-1.254.534-1.644.626 0-1.658-1.022-2.6-2.676-2.6l4.983-8.793c.177-.3.534-1.187.883-1.187v-.001zm-5.145 0h2.984c-.195.294-.948 1.565-1.03 1.872-.41-.278-1.686-1.468-1.954-1.872zm18.625-3.742c.155.674 1.186 1.503 1.337 2.079H2.856c-1.035 0-2.16-.23-2.16.831 0 .64 1.44 1.805 1.924 2.214.679.574 1.424 1.6 2.088 2.049l-3.067 5.426c-.214.36-.946 1.542-.946 1.955v9.98c0 1.184 1.622.81 2.79.82.826.008.523.213.77.99 1.72 5.374 9.342 5.364 11.015-.079.132-.428.059-.899.449-.899h19.344c.501 0 .219.738.788 1.803.33.618.67 1.08 1.14 1.552 2.896 2.909 8.141 1.85 9.51-2.3.082-.251.195-.849.293-1.055 1.706 0 3.293.318 3.293-.832V18.63c0-1.342-.918-2.558-1.718-3.152-1.334-.988-7.134-2.249-9.201-2.866-1.133-.338-.841-.09-1.609-.87-.981-.997-5.19-5.36-6.08-6.02-1.704-1.263-3.281-1.752-5.676-1.752-.35-.527-.694-.97-1.088-1.5-.365-.492-.807-1.006-1.074-1.515-.472.253-.885.63-1.337.936v.002z" fill="#EBA707"/><path d="M31.13 12.68l1.285 1.248-2.494.025 1.21-1.273zM10.306 8.982l6.857-.02v4.99H7.9l2.405-4.97zm17.043 4.97h-8.54v-4.99h7.923c.905 0 1.302.534 1.775 1.014.423.428 1.114 1.027 1.415 1.481-.154.233-2.267 2.496-2.573 2.496zm-21.711.832c0 .779.543.842 1.335.834 8.563-.08 17.336.023 25.933-.003 1.196-.003 1.038-.17 1.673.493 1.346 1.405 1.516 1.35 1.516 3.665h1.646c0-1.485.121-2.07-.658-3.39-.337-.57-.818-.96-1.27-1.418L30.46 9.558c-.75-.759-1.86-2.261-3.215-2.261H9.753c-.777 0-1.056.989-1.338 1.56-.513 1.037-2.778 5.381-2.778 5.925v.002zm3.289 11.644c0-1.05 1.646-1.05 1.646 0s-1.646 1.05-1.646 0zm-1.646-.207c0 3.624 4.94 3.624 4.94 0 0-1.273-1.082-2.287-2.676-2.287-1.132 0-2.264 1.143-2.264 2.287zm32.928.207c0-1.05 1.646-1.05 1.646 0s-1.646 1.05-1.646 0zm-1.647-.207c0 3.624 4.94 3.624 4.94 0 0-1.273-1.082-2.287-2.676-2.287-1.132 0-2.264 1.143-2.264 2.287z" fill="#565656"/><path d="M24.566 23.935h9.878v-1.663h-9.878v1.663z" fill="#EBA707"/><path d="M19.629 18.943h3.293V17.28h-3.293v1.664z" fill="#565656"/><path d="M16.332 18.943h1.646V17.28h-1.646v1.664zm23.055 0h1.646V17.28h-1.646v1.664z" fill="#EBA707"/></g><defs><clipPath id="clip0_2761_11570"><path fill="#fff" transform="translate(.695 .957)" d="M0 0h49.391v31.304H0z"/></clipPath></defs></svg>