<svg width="136" height="63" fill="none" xmlns="http://www.w3.org/2000/svg"><path d="M3.679 33.836c-5.915 6.057-2.887 0-3.026 10.701-.12 9.284 5.446 9.455 6.927 9.338-.29-1.14-.462-2.33-.462-3.562 0-7.782 6.183-14.114 13.784-14.114 7.599 0 13.782 6.333 13.782 14.114 0 1.238-.17 2.436-.466 3.58 20.57.015 49.176-.04 70.576-.375a14.398 14.398 0 01-.372-3.205c0-7.782 6.183-14.114 13.782-14.114 7.601 0 13.785 6.333 13.785 14.114 0 .785-.08 1.549-.2 2.301 1.53-.14 2.463-.296 2.676-.47 2.751-2.253 1.65-16.334-2.065-19.29-3.713-2.955-1.651-4.505-1.786-9.997-.075-2.96-2.462-7.172-4.65-10.44 1.74-.518 3.444-1.12 5.074-1.977.205-.108.333-.254.476-.392.675-.642.74-1.53.396-2.302-.009-.032-.024-.06-.036-.093-.038-.08-.074-.16-.123-.237-.318-.677-.909-1.232-1.826-1.317-2.648-.244-5.256-.338-7.805-1.187a2.117 2.117 0 00-.81-.094l-.045-.13S101.324-.52 76.157.044c-25.17.563-25.856 16.05-47.585 17.6C6.844 19.193 3.679 33.836 3.679 33.836zm37.734 7.53H83.63c.812 0 1.476.679 1.476 1.51s-.664 1.51-1.476 1.51H41.413c-.811 0-1.475-.679-1.475-1.51s.663-1.51 1.475-1.51zm20.045-5.87c0 .187-.007.349-.022.479-.016.13-.041.236-.07.32a.39.39 0 01-.116.184.246.246 0 01-.162.058h-5.487a.746.746 0 01-.511-.184c-.14-.123-.21-.323-.21-.602V24.613c0-.062.02-.12.061-.171a.457.457 0 01.199-.123c.091-.033.218-.055.376-.075.158-.02.354-.029.587-.029.24 0 .439.01.594.03.151.019.278.041.37.074a.458.458 0 01.198.123.27.27 0 01.06.171v9.868h3.763c.06 0 .117.016.161.051a.386.386 0 01.117.172c.032.078.054.181.07.314.015.13.021.287.021.479zm13.003-5.234c0 1.016-.124 1.925-.37 2.727-.246.802-.613 1.485-1.102 2.04a4.75 4.75 0 01-1.807 1.282c-.72.294-1.552.44-2.496.44-.932 0-1.744-.126-2.435-.376a4.2 4.2 0 01-1.738-1.142c-.46-.51-.808-1.16-1.039-1.95-.23-.79-.347-1.724-.347-2.804 0-.99.123-1.883.37-2.675.246-.793.612-1.465 1.102-2.022a4.764 4.764 0 011.807-1.277c.72-.298 1.554-.447 2.505-.447.907 0 1.706.124 2.4.37a4.182 4.182 0 011.738 1.138c.468.51.818 1.154 1.055 1.934.237.782.357 1.701.357 2.762zm-2.559.127c0-.644-.05-1.23-.148-1.757-.098-.527-.266-.98-.503-1.355a2.44 2.44 0 00-.948-.873c-.394-.204-.887-.307-1.478-.307-.597 0-1.096.116-1.494.346-.401.23-.727.54-.973.925a3.86 3.86 0 00-.521 1.349 8.505 8.505 0 00-.151 1.636c0 .67.05 1.271.148 1.805.098.533.265.99.499 1.371.234.378.546.667.941.867.395.197.891.298 1.488.298s1.096-.114 1.494-.343c.401-.226.727-.537.973-.928a3.96 3.96 0 00.522-1.369 8.735 8.735 0 00.151-1.665zm15.353-4.208c0 .18-.006.34-.022.472-.015.133-.038.24-.066.317-.029.081-.06.136-.101.165a.223.223 0 01-.143.049c-.082 0-.211-.058-.388-.172a5.808 5.808 0 00-.714-.371 7.451 7.451 0 00-1.058-.372 5.408 5.408 0 00-1.431-.172c-.578 0-1.103.104-1.57.307a3.44 3.44 0 00-1.204.874 3.963 3.963 0 00-.768 1.358 5.392 5.392 0 00-.268 1.75c0 .702.091 1.32.272 1.857.183.534.439.98.764 1.342.328.358.723.63 1.181.815.462.184.97.275 1.523.275.271 0 .54-.033.805-.094.268-.064.515-.162.743-.288v-2.859h-2.266c-.11 0-.196-.07-.259-.214-.06-.142-.091-.381-.091-.724 0-.175.006-.323.022-.443a1.22 1.22 0 01.07-.288.43.43 0 01.11-.161.23.23 0 01.148-.052h4.043a.565.565 0 01.467.21.693.693 0 01.133.25c.032.1.047.213.047.34v4.89c0 .19-.031.356-.097.498-.063.142-.196.255-.398.336a7.98 7.98 0 01-.745.259 9.876 9.876 0 01-.923.226 8.673 8.673 0 01-.963.142 9.69 9.69 0 01-.976.049c-.957 0-1.813-.142-2.571-.424a5.194 5.194 0 01-1.92-1.222 5.321 5.321 0 01-1.205-1.954c-.278-.77-.416-1.64-.416-2.614 0-1.005.148-1.908.445-2.707a5.708 5.708 0 011.257-2.04 5.425 5.425 0 011.968-1.285c.768-.298 1.624-.446 2.565-.446a8.216 8.216 0 012.533.378c.316.104.581.217.79.336.212.123.357.227.439.317a.754.754 0 01.18.376c.038.159.056.398.056.714h.002zm14.365 4.081c0 1.016-.124 1.925-.37 2.727-.246.802-.613 1.485-1.102 2.04a4.75 4.75 0 01-1.807 1.282c-.72.294-1.551.44-2.496.44-.932 0-1.743-.126-2.435-.376a4.2 4.2 0 01-1.737-1.142c-.462-.51-.81-1.16-1.04-1.95-.23-.79-.347-1.724-.347-2.804 0-.99.123-1.883.37-2.675.246-.793.612-1.465 1.102-2.022a4.765 4.765 0 011.807-1.277c.72-.298 1.554-.447 2.505-.447.907 0 1.706.124 2.4.37a4.18 4.18 0 011.738 1.138c.468.51.818 1.154 1.055 1.934.238.782.357 1.701.357 2.762zm-2.559.127c0-.644-.05-1.23-.148-1.757-.098-.527-.266-.98-.503-1.355a2.438 2.438 0 00-.947-.873c-.395-.204-.888-.307-1.479-.307-.597 0-1.096.116-1.494.346-.401.23-.727.54-.973.925a3.86 3.86 0 00-.521 1.349 8.497 8.497 0 00-.151 1.636c0 .67.05 1.271.148 1.805.098.533.266.99.5 1.371.233.378.546.667.94.867.395.197.891.298 1.488.298s1.096-.114 1.494-.343c.401-.226.727-.537.973-.928a3.96 3.96 0 00.522-1.369 8.735 8.735 0 00.151-1.665z" fill="#fff"/><path d="M20.903 38.45c-6.397 0-11.583 5.31-11.583 11.86 0 1.236.238 2.404.581 3.527 1.474 4.815 5.812 8.332 11.004 8.332 5.172 0 9.5-3.491 10.989-8.281.354-1.136.596-2.324.596-3.578-.002-6.55-5.188-11.86-11.587-11.86zm97.308 0c-6.395 0-11.582 5.31-11.582 11.86 0 1.107.195 2.155.471 3.171 1.36 5 5.792 8.69 11.111 8.69 5.568 0 10.211-4.025 11.325-9.386.165-.798.26-1.623.26-2.473 0-6.551-5.188-11.863-11.585-11.863z" fill="#EBA707"/></svg>