<svg width="42" height="42" fill="none" xmlns="http://www.w3.org/2000/svg"><path fill-rule="evenodd" clip-rule="evenodd" d="M3.93 14.427c.267-.072 1.799-1.145 2.148-1.38l14.925-9.842c.148 0 1.891 1.207 2.148 1.379l13.788 9.138c.276.183.854.629 1.137.705v.16c-.282.076-.81.488-1.09.673L21.003 25.807l-8.513-5.594c-1.428-.952-2.818-1.88-4.232-2.82l-1.057-.705c-.373-.25-.692-.434-1.075-.69-.367-.243-1.93-1.339-2.198-1.41v-.161h.002zm-3.446-.08c0 .848.146.928.947 1.459l18.02 11.959c1.966 1.31 1.526 1.055 5.61-1.669l15.471-10.26c.826-.55.994-.616.994-1.49 0-.734-1.438-1.467-2.245-2.005-.852-.569-1.683-1.122-2.548-1.698L26.425 3.798c-.446-.299-.83-.525-1.266-.818-.578-.386-3.555-2.501-3.991-2.501-.786 0-.877.21-1.669.736L1.48 13.174c-.393.26-.994.574-.994 1.17l-.002.003z" fill="#EBA707"/><path fill-rule="evenodd" clip-rule="evenodd" d="M.484 27.332c0 .848.146.927.947 1.458l18.02 11.96c.693.462 1.09.72 1.456.768h.251c.538-.072 1.143-.597 2.652-1.604L40.53 28.82c.826-.55.994-.615.994-1.49 0-.652-.584-1.043-1.362-1.043-.45 0-4.346 2.73-4.825 3.03l-4.761 3.174c-.934.622-9.425 6.3-9.571 6.3-.151 0-1.001-.613-1.186-.736l-8.336-5.532c-1.598-1.065-3.147-2.14-4.76-3.174-.418-.268-.762-.48-1.172-.751-.553-.369-3.27-2.309-3.703-2.309-.778 0-1.362.391-1.362 1.043H.484z" fill="#EBA707"/><path fill-rule="evenodd" clip-rule="evenodd" d="M11.785 28.375c0 .769.2.926.77 1.315l6.99 4.632c1.743 1.162 1.563.901 4.023-.736l5.836-3.862c.584-.395.816-.55.816-1.347 0-.482-.48-.937-.878-1.052-.607-.174-.973.147-1.366.41-.435.29-6.826 4.568-6.973 4.568l-6.973-4.568c-.393-.263-.76-.584-1.366-.41-.399.113-.879.568-.879 1.052v-.002zm21.645-3.608c0 .618.512 1.202 1.362 1.202.482 0 5.352-3.348 6.174-3.926a1.35 1.35 0 00.559-.91v-.356c-.078-.523-.508-.98-1.362-.98-.414 0-3.097 1.904-3.607 2.244-.578.386-1.154.743-1.747 1.138-.537.357-1.38.748-1.38 1.587v.001zM.482 20.84v.024c0 .52.023.803.56 1.18l5.212 3.443c.638.425.578.482 1.28.482.917 0 1.576-1.48.483-2.246L3.67 20.855c-.9-.6-1.3-1.058-2.148-1.058-.49 0-1.043.55-1.043 1.043h.002z" fill="#565656"/></svg>