<svg width="41" height="41" fill="none" xmlns="http://www.w3.org/2000/svg"><path fill-rule="evenodd" clip-rule="evenodd" d="M.348 2.448v36.407c0 .788.465 1.462 1.125 1.79.23.115.522.18.845.18h27.109c1.014 0 1.892-.953 1.892-2.284v-6.226c0-1.14-1.136-1.14-1.37-.424-.126.389-.05 4.834-.05 5.625 0 1.065.236 1.97-.866 1.97H2.634c-.649 0-.946-.297-.946-.945V2.763c0-.649.297-.946.946-.946h26.241c.868 0 1.035.238 1.027 1.101L29.9 13.795c0 .729-.13 1.606.316 1.895.556.361 1.103-.048 1.103-.792V2.762c0-.684-.167-1.168-.495-1.555-.29-.345-.8-.73-1.397-.73H2.239c-.505 0-1.043.307-1.313.577a1.898 1.898 0 00-.578 1.393v.001z" fill="#565656"/><path fill-rule="evenodd" clip-rule="evenodd" d="M27.38 31.053c-1.32 0-.395-1.495-.395-1.497.404.034.765.454 1.182.552l-.788.945zm1.497-2.128c-.22-.116-.394-.195-.616-.33-.23-.139-.419-.26-.645-.38.356-.741.666-1.94.946-2.52.327.218.624.367.991.585.376.222.69.402 1.059.597-.138.26-1.417 1.836-1.734 2.048h-.001zm2.6-3.152c-.387-.205-.735-.385-1.12-.615-.276-.166-.886-.572-1.165-.646.035-.431 3.533-6.274 3.916-6.96l1.364-2.339c.389.09 1.82 1.014 2.285 1.261l-3.609 6.32c-.126.212-.232.371-.355.591-.245.44-1.24 2.069-1.315 2.389l-.001-.001zm5.989-10.481l-2.285-1.34c.132-.198.197-.335.318-.547l1.02-1.738c.666.446 1.708.953 2.286 1.34l-1.34 2.285zm1.182-5.36c1.209 0 .315 1.496.315 1.498-.29-.069-.942-.47-1.182-.631.22-.33.363-.867.866-.867h.001zm-2.049.159c-.938-.079-.763-.004-1.512 1.245-.199.331-.354.616-.551.946-.196.328-.363.635-.537.961-.392-.091-.546-.395-1.024-.395-.178 0-1.483.667.237 1.576-.043.51-5.189 8.816-5.743 10.176-.597 1.467-.92 2.734-1.587 4.008-.101.192-.18.361-.288.579-.467.93-.612 1.309-.027 2.417-.305.35-1.233 1.556-1.497 1.733-.411-.856-.411-1.812-1.734-1.812-.35 0-.61.127-.802.301-.208.19-.313.48-.537.645 0-.664-.06-2.743-.411-3.214-.247-.332-.647-.64-1.157-.621-1.169.04-1.362 1.235-1.615 1.993l-.453 1.359c-.237.715-.857 2.257-.857 2.926 0 .24.915 1.337 1.488-.403l1.428-4.247c.06.73.158 1.62.234 2.366.19 1.848 2.395 1.62 2.68.392.565.414.258 1.813 1.893 1.813.728 0 1.54-1.237 2.004-1.857.61-.813.243-.465 1.377-.593.456-.052 1-.41 1.238-.732.3-.405.483-.8.754-1.215l2.644-3.265 1.443-2.498c.477-.83.969-1.633 1.442-2.499l2.888-4.991c.182.096.305.167.502.286.766.462.17 1.153-.27 1.917-.374.651-2.202 3.596-2.202 4.102 0 .665.836.923 1.309.205l2.158-3.75c.511-.945.71-.94.71-2.05 0-.432-.268-.931-.488-1.165-.194-.205-.712-.577-1.01-.647.026-.297.046-.255.17-.46l.693-1.199c1.001-1.661 1.033-1.568.556-2.281.406-.768.552-.817.552-1.734 0-1.09-1.568-2.698-3.302-1.41-.37.275-.58.686-.797 1.095l.001-.003zM6.339 5.6c0 1.631-.294 2.995.946 2.995h17.18c.926 0 1.177-1.42-.08-1.42H7.759v-1.26h16.55c.233 0 .499-.07.632-.157.559-.362.3-1.262-.396-1.262H7.128c-.616 0-.788.483-.788 1.103V5.6z" fill="#EBA707"/><path fill-rule="evenodd" clip-rule="evenodd" d="M3.025 32.157v.473c0 2.889 2.628 5.516 5.516 5.516 2.433 0 4.326-1.154 5.306-3.126.272-.546 1.324-3.257-.105-3.257-1.337 0 .26 2.399-2.725 4.368-1.854 1.222-4.932.663-6.128-1.74-.777-1.56-.592-3.516.594-4.818.057-.064.052-.063.111-.126.012-.011.027-.029.038-.04.012-.012.028-.03.04-.04 2.755-2.756 5.84-.284 6.02-.284.606 0 1.298-.728.238-1.42-2.305-1.505-5.27-1.23-7.232.73-.48.48-.816.927-1.124 1.554-.24.485-.55 1.486-.55 2.208v.002z" fill="#565656"/><path fill-rule="evenodd" clip-rule="evenodd" d="M12.01 16.003h14.185c1.537 0 1.203-1.419.315-1.419H11.774c-.85 0-1.042 1.419.236 1.419z" fill="#EBA707"/><path fill-rule="evenodd" clip-rule="evenodd" d="M8.384 10.486c0 .535.324.788.866.788h13.24c.882 0 1.093-1.419-.159-1.419H9.33c-.554 0-.946.344-.946.631h.001zm-3.309 8.668c0 .474.066.866.867.866h13.002c1.301 0 1.088-1.418.158-1.418H5.784c-.325 0-.71.264-.71.55l.001.002zm.475 4.177h6.935c.922 0 .746-1.339.079-1.339H5.707c-.924 0-.762 1.34-.158 1.34h.001zm3.07 9.614c-.619-.414-1.279-1.575-1.97-1.575-.445 0-.63.287-.63.71 0 .394 1.72 2.284 2.521 2.284.9 0 1.98-1.39 2.818-2.225.249-.25.728-.577.728-1.006 0-.351-.319-.71-.631-.71-.548 0-1.185.832-1.518 1.163-.351.352-1.082 1.004-1.32 1.36h.003zm12.532-13.632c0 .37.387.71.788.71.85 0 4.563.12 4.99-.132.511-.301.376-1.287-.42-1.287h-4.57c-.4 0-.788.34-.788.709zM14.453 22.7c0 .289.22.631.631.631h4.807c.937 0 .724-1.339.078-1.339h-4.965c-.287 0-.55.385-.55.71V22.7z" fill="#565656"/></svg>