<svg width="117" height="110" fill="none" xmlns="http://www.w3.org/2000/svg"><path d="M8.512 43.122a2.397 2.397 0 00-2.435.007l-1.255.737C.22 46.58-1.37 52.615 1.29 57.312l3.9 6.898a2.425 2.425 0 002.739 1.158 2.463 2.463 0 001.807-2.383V45.26c0-.882-.466-1.698-1.223-2.138zm28.4-12.879h61.875c.87 0 1.67-.467 2.107-1.228.438-.76.438-1.7.005-2.463L89.048 5.592c-2.563-4.536-8.741-6.236-13.22-3.607L35.684 25.647a2.472 2.472 0 00-1.122 2.774 2.438 2.438 0 002.349 1.822z" fill="#EBA707"/><path d="M107.126 35.21h-82.78c-5.369 0-9.739 4.418-9.739 9.85v54.166c0 5.432 4.37 9.849 9.74 9.849h82.779c5.368 0 9.738-4.417 9.738-9.849V45.059c0-5.431-4.37-9.848-9.738-9.848zm-63.3 19.74c5.368 0 9.739 4.42 9.739 9.856s-4.37 9.856-9.74 9.856c-5.368 0-9.739-4.42-9.739-9.856s4.37-9.856 9.74-9.856zM63.303 89.6c0 2.632-2.183 4.774-4.87 4.774H29.217c-2.687 0-4.87-2.142-4.87-4.774v-1.126c0-3.278 1.888-6.235 4.932-7.717 3.404-1.656 8.688-3.631 14.546-3.631 5.86 0 11.143 1.975 14.547 3.63 3.044 1.483 4.932 4.44 4.932 7.718V89.6zm41.387-5.147H75.473c-1.345 0-2.434-1.101-2.434-2.462 0-1.36 1.089-2.462 2.434-2.462h29.218c1.346 0 2.435 1.101 2.435 2.462 0 1.361-1.089 2.462-2.435 2.462zm.004-14.772H65.739c-1.346 0-2.435-1.102-2.435-2.463 0-1.36 1.089-2.462 2.435-2.462h38.956c1.346 0 2.435 1.101 2.435 2.462 0 1.361-1.089 2.463-2.435 2.463z" fill="#fff"/></svg>