<svg width="105" height="117" fill="none" xmlns="http://www.w3.org/2000/svg"><path d="M81.148 93.14v12.157l12.156-12.156H81.148z" fill="#EBA707"/><path d="M52.5 92.231a8.388 8.388 0 100-16.776 8.388 8.388 0 000 16.776z" fill="#fff"/><path d="M-.01 113.572a3.427 3.427 0 003.428 3.427h67.448a3.427 3.427 0 003.427-3.427v-23.86a3.428 3.428 0 013.428-3.427h23.859a3.428 3.428 0 003.428-3.428V33.91H-.01v79.662zm39.722-51.133c0-7.05 5.736-12.787 12.787-12.787 7.05 0 12.787 5.737 12.787 12.787 0 3.555-1.46 6.775-3.81 9.095 3.795 2.775 6.266 7.258 6.266 12.309 0 8.405-6.838 15.243-15.243 15.243-8.406 0-15.244-6.838-15.244-15.243 0-5.051 2.471-9.534 6.266-12.31a12.748 12.748 0 01-3.809-9.094z" fill="#fff"/><path d="M52.5 68.37a5.931 5.931 0 100-11.862 5.931 5.931 0 000 11.863z" fill="#fff"/><path d="M18.035 0a3.428 3.428 0 00-3.428 3.428v2.95h6.856v-2.95A3.428 3.428 0 0018.035 0zm13.787 0a3.428 3.428 0 00-3.427 3.428v2.95h6.855v-2.95A3.428 3.428 0 0031.822 0zm13.785 0a3.428 3.428 0 00-3.427 3.428v2.95h6.855v-2.95A3.428 3.428 0 0045.607 0zm13.786 0a3.428 3.428 0 00-3.428 3.428v2.95h6.855v-2.95A3.428 3.428 0 0059.393 0zm13.783 0a3.428 3.428 0 00-3.428 3.428v2.95h6.855v-2.95A3.428 3.428 0 0073.176 0zM90.39 3.428a3.428 3.428 0 00-6.855 0v2.95h6.856v-2.95z" fill="#EBA707"/><path d="M101.58 6.377H90.39v10.376a3.428 3.428 0 01-6.856 0V6.377h-6.93v10.376a3.428 3.428 0 01-6.855 0V6.377h-6.93v10.376a3.428 3.428 0 01-6.855 0V6.377h-6.93v10.376a3.428 3.428 0 01-6.855 0V6.377h-6.93v10.376a3.428 3.428 0 01-6.856 0V6.377h-6.93v10.376a3.428 3.428 0 01-6.855 0V6.377H3.418A3.428 3.428 0 00-.01 9.805v17.25h105.018V9.805a3.428 3.428 0 00-3.428-3.428z" fill="#EBA707"/></svg>