<svg width="161" height="157" fill="none" xmlns="http://www.w3.org/2000/svg"><path d="M111.332 62.732H49.999c-4.229 0-7.667 3.435-7.667 7.659v45.951c0 4.224 3.438 7.659 7.667 7.659h61.333c4.228 0 7.667-3.435 7.667-7.659V70.391c0-4.224-3.439-7.659-7.667-7.659zm-25.471 53.61a9.586 9.586 0 01-6.777-2.804 9.567 9.567 0 010-13.538 9.588 9.588 0 016.777-2.804 9.475 9.475 0 015.75 1.96c-2.316 1.747-3.834 4.492-3.834 7.613 0 3.121 1.518 5.866 3.834 7.613a9.48 9.48 0 01-5.75 1.96zm15.333 0a9.586 9.586 0 01-6.776-2.804 9.567 9.567 0 010-13.538 9.588 9.588 0 0113.552 0 9.564 9.564 0 010 13.538 9.584 9.584 0 01-6.776 2.804z" fill="#EBA707"/><path d="M86 31H24.667C20.438 31 17 34.435 17 38.658v7.66h76.667v-7.66C93.667 34.435 90.228 31 86 31zM17 84.61c0 4.223 3.439 7.658 7.667 7.658H86c4.228 0 7.667-3.435 7.667-7.658V61.634H17V84.61z" fill="#282828"/><path d="M80.547 25.104H19.213c-4.228 0-7.666 3.434-7.666 7.658v7.659h76.666v-7.659c0-4.224-3.438-7.659-7.666-7.659zm-69 53.61c0 4.223 3.438 7.658 7.666 7.658h61.334c4.228 0 7.666-3.435 7.666-7.659V55.738H11.547v22.975zm11.5-11.489h23v7.659h-23v-7.659z" fill="#fff"/></svg>