<svg width="65" height="65" fill="none" xmlns="http://www.w3.org/2000/svg"><g clip-path="url(#clip0_2761_10670)" fill-rule="evenodd" clip-rule="evenodd"><path d="M31.229 1.143v6.603c0 2.062 3.34.342 9.524 2.791 2.697 1.067 5.686 2.955 7.584 4.858 1.42 1.425 2.402 2.526 3.607 4.139 2.025 2.71 3.441 6.64 3.923 10.041.734 5.204-.615 10.461-3.285 14.888a22.873 22.873 0 01-2.406 3.307l-2.156 2.159c-1.814 1.853-4.508 3.409-6.905 4.394-.67.275-1.439.588-2.14.779-1.378.377-3.137.846-4.826.888-1.933.047-3.176.1-5.116-.216-6.969-1.133-13.3-5.657-16.887-11.676C9.78 40.13 9.873 38.143 9.33 37.01c-.524-1.091-2.476-.908-2.476.445 0 1.054.915 3.627 1.273 4.441 1.513 3.454 3.277 5.908 5.678 8.667.268.307.412.404.74.657.345.266.479.452.781.742.303.293.452.355.764.633 3.868 3.454 10.328 6.062 15.647 6.062 4.51 0 8.118-.757 11.596-2.497 2.183-1.091 3.928-2.277 5.798-3.724l1.682-1.491c.325-.298.37-.494.695-.829 4.12-4.28 7.142-10.59 7.142-16.725 0-4.626-.662-8.057-2.495-11.724-1.553-3.104-3.469-5.771-5.977-8.116-.29-.27-.471-.504-.764-.76-2.94-2.597-6.47-4.33-10.202-5.54-1.21-.392-3.91-.903-5.443-.903V2.667c4.295 0 8.247 1.27 11.891 3.089 2.687 1.342 5.267 3.07 7.374 5.195 1.523 1.536 2.974 3.144 4.197 4.945.975 1.437 1.906 3.015 2.6 4.638 2.139 4.992 2.982 9.95 2.377 15.4-.134 1.2-.335 2.11-.58 3.229-.876 4.004-2.88 8.275-5.416 11.344-1.434 1.734-2.849 3.342-4.58 4.816-3.558 3.027-7.78 5.287-12.477 6.314-3.475.76-6.517.978-10.085.581-2.974-.332-6.127-1.253-8.718-2.454a30.663 30.663 0 01-8.832-6.148C5.107 47.202 1.428 37.788 2.863 28.64c1.022-6.513 4.148-12.605 8.785-17.242 2.421-2.422 2.342-2.034 1.173-3.776h5.714v5.714c-.829-.553-1.585-1.955-2.89-.606-.511.529-1.104.906-1.553 1.494-.28.367-.464.511-.797.854-2.017 2.086-3.748 5.047-4.92 7.65-.35.778-.605 1.379-.902 2.27-.516 1.54-1.43 3.699 1.032 3.699.62 0 .92-.992 1.066-1.598.794-3.27 3.322-7.99 5.692-10.304.518-.506.808-1.055 1.364-1.427 1.213.325 1.806 2.412 3.3 2.412.628 0 1.144-.516 1.144-1.144V6.225a1.15 1.15 0 00-1.144-1.144H9.516c-.814 0-1.144.69-1.144 1.397 0 .63.501.948.856 1.303.404.401.722.806 1.174 1.111-.345.516-2.672 2.702-3.784 4.342-2.02 2.975-2.307 3.54-3.79 6.491-1.596 3.171-2.834 8.032-2.834 11.64 0 6.116.69 9.475 3.158 14.872.812 1.774 1.811 3.302 2.886 4.86 2.036 2.955 4.875 5.767 7.795 7.821 1.506 1.06 3.165 2.129 4.934 2.938 1.782.814 3.672 1.58 5.63 2.116 7.04 1.928 15.369 1.114 21.64-2.047.933-.471 1.72-.89 2.58-1.354l2.387-1.551c.824-.549 1.474-1.082 2.223-1.712 2.168-1.824 3.982-3.804 5.711-6.097 3.533-4.689 6.056-11.465 6.056-17.559 0-3.382-.179-5.98-1.015-9.143-.387-1.462-.947-2.973-1.505-4.335-.581-1.414-1.26-2.568-1.965-3.875-1.333-2.464-3.25-4.67-5.193-6.615a34.206 34.206 0 00-5.3-4.35C44.77 1.836 38.802.002 32.37.002c-.628 0-1.144.516-1.144 1.144l.003-.003z" fill="#797979"/><path d="M23.612 45.199c0-.338.246-.74.467-.93.277-.244.58-.338 1.056-.338h14.727c1.449 0 1.965 1.41 1.057 2.2-.278.244-.58.338-1.057.338H25.135c-.925 0-1.523-.605-1.523-1.27zm2.538-18.537v-.509h12.695c0 2.995-1.481 4.34-3.858 5.918-.615.409-1.474.769-1.474 1.7 0 1.873 5.332 2.632 5.332 7.11v.509H26.15c0-2.384.58-3.236 2.126-4.603 1.474-1.302 3.206-1.893 3.206-3.017 0-.945-.834-1.253-1.397-1.65-1.923-1.357-3.935-2.779-3.935-5.458zm-2.538-4.318c0-.662.598-1.27 1.524-1.27h14.726c2.005 0 2.005 2.538 0 2.538H25.135c-.925 0-1.523-.605-1.523-1.27v.002zm-2.538-.382v.762c0 1.315 1.4 3.08 2.538 3.173 0 3.75.603 4.673 3.397 7.144.297.263.585.417.793.73-.312.466-1.77 1.285-2.994 2.972-1.1 1.516-1.196 2.394-1.196 4.9-1.141.094-2.538 1.858-2.538 3.174v.761c0 1.638 1.791 3.43 3.429 3.43H40.5c1.637 0 3.428-1.792 3.428-3.43v-.761c0-1.316-1.399-3.08-2.538-3.174 0-4.022-.843-4.885-3.396-7.143-.298-.263-.585-.417-.794-.73.325-.486 1.722-1.216 2.995-2.972 1.064-1.472 1.195-2.45 1.195-4.9 1.142-.095 2.538-1.859 2.538-3.174v-.762c0-1.637-1.79-3.429-3.428-3.429H24.503c-1.638 0-3.429 1.792-3.429 3.43z" fill="#EBA707"/><path d="M6.348 32.377c0 1.898 2.538 1.898 2.538 0 0-1.534-2.538-1.534-2.538 0z" fill="#797979"/></g><defs><clipPath id="clip0_2761_10670"><path fill="#fff" d="M0 0h65v65H0z"/></clipPath></defs></svg>