<svg width="65" height="65" fill="none" xmlns="http://www.w3.org/2000/svg"><g clip-path="url(#clip0_2761_10654)" fill-rule="evenodd" clip-rule="evenodd"><path d="M46.582 21.667h9.345c1.015 0 1.489.475 1.489 1.489V26H46.582v-4.333zm-26-19.5h17.334V6.77c0 .846 1.05 1.896 1.895 1.896h4.605V26H20.582V2.167zm-13 20.989c0-1.016.476-1.49 1.49-1.49h9.344V26H7.582v-2.844zm32.5-20.718c1.106.025 2.08.788 2.677 1.386.635.637.855.912 1.25 1.865.126.303.136.528.271.811h-4.198V2.438zm-21.666-.542V19.5h-4.334v-9.344c0-2.253 2.167-.789 2.167-2.574 0-2.153-4.333-.922-4.333 1.896v10.02h-3.52c-1.49 0-2.98 1.49-2.98 2.98v3.52c-2.136 0-3.935 1.174-4.87 2.986-.178.343-.548 1.39-.548 1.89v19.5c0 2.244 2.63 4.875 4.876 4.875h4.875c.655 0 1.082-.428 1.082-1.082 0-1.883-2.981-.712-5.637-1.134-1.989-.315-3.03-1.51-3.03-3.742V31.958c0-2.451 1.34-3.791 3.792-3.791h53.082c2.451 0 3.792 1.34 3.792 3.79v17.334c0 6.676-8.667 1.884-8.667 4.876 0 .654.427 1.082 1.082 1.082 2.236 0 5.12.304 6.766-.548.99-.511 1.924-1.447 2.437-2.438.178-.343.548-1.39.548-1.89v-19.5c0-.5-.368-1.546-.548-1.89-.511-.99-1.447-1.924-2.437-2.437-.82-.424-1.53-.548-2.433-.548v-3.52c0-1.489-1.489-2.98-2.98-2.98h-3.52V9.478c0-2.818-4.333-4.049-4.333-1.896 0 1.783 2.167.32 2.167 2.574V19.5h-4.334V7.178c0-3.69-3.487-7.178-7.177-7.178H20.307c-.845 0-1.895 1.05-1.895 1.896h.004z" fill="#797979"/><path d="M46.178 50.917c.094.349 2.178 2.521 2.675 3.012.54.535.818.962 1.353 1.49l6.805 7.413H8.938L17.977 52.1c.313-.336.41-.595.731-.893.533-.498 1.485-.29 2.824-.29h24.646zm-40.76 13c0 .654.428 1.082 1.084 1.082h53.083c.654 0 1.082-.428 1.082-1.082 0-.863-1.81-2.316-2.398-3.02L47.764 49.464c-.288-.353-.605-.716-1.18-.716H18.419c-.554 0-.836.311-1.119.642L8.432 59.886c-.628.676-3.014 3.257-3.014 4.028v.002zM5.416 32.23v7.042c0 .845 1.05 1.895 1.896 1.895h50.375c.846 0 1.896-1.05 1.896-1.895 0-2.469.456-4.605-1.085-4.605-1.515 0-1.082 2.026-1.082 4.334H7.583v-6.5h49.833c1.453 0 1.453-2.167 0-2.167H7.312c-.846 0-1.896 1.05-1.896 1.896z" fill="#EBA707"/><path d="M9.749 47.396c0 1.804-.36 3.52 1.082 3.52 2.459 0-.454-4.333 2.573-4.333h38.187c3.028 0 .115 4.333 2.573 4.333 1.444 0 1.083-1.718 1.083-3.52 0-1.49-1.49-2.98-2.98-2.98H12.725c-1.49 0-2.98 1.489-2.98 2.98h.004z" fill="#797979"/><path d="M17.334 59.582c0 .655.428 1.083 1.084 1.083h18.416c1.453 0 1.453-2.167 0-2.167H18.418c-.654 0-1.084.428-1.084 1.084zm13-4.334c0 .655.428 1.085 1.084 1.085h11.916c1.453 0 1.453-2.167 0-2.167H31.418c-.654 0-1.084.428-1.084 1.082z" fill="#EBA707"/><path d="M10.834 35.748c0 .655.428 1.083 1.082 1.083H19.5c1.453 0 1.453-2.167 0-2.167h-7.583c-.654 0-1.082.428-1.082 1.082v.002zm8.666 19.5c0 .655.428 1.085 1.082 1.085h5.416c1.453 0 1.453-2.167 0-2.167h-5.416c-.654 0-1.082.428-1.082 1.082zm22.748 4.334c0 .655.428 1.083 1.082 1.083h4.334c1.453 0 1.453-2.167 0-2.167H43.33c-.654 0-1.082.428-1.082 1.084z" fill="#797979"/><path d="M40.082 35.748c0 .655.428 1.083 1.084 1.083H45.5c1.452 0 1.452-2.167 0-2.167h-4.334c-.654 0-1.084.428-1.084 1.082v.002zm-17.334.002c0 1.515 2.025 1.081 4.333 1.081 1.453 0 1.453-2.166 0-2.166-2.308 0-4.333-.434-4.333 1.082v.002z" fill="#EBA707"/><path d="M48.748 35.748c0 1.533 2.167 1.533 2.167 0 0-1.422-2.167-1.422-2.167 0zm4.334 0c0 1.533 2.167 1.533 2.167 0 0-1.422-2.167-1.422-2.167 0z" fill="#797979"/></g><defs><clipPath id="clip0_2761_10654"><path fill="#fff" d="M0 0h65v65H0z"/></clipPath></defs></svg>