<svg width="514" height="546" fill="none" xmlns="http://www.w3.org/2000/svg"><path d="M342.809 86.321L171.404 68.56 0 88.645v427.282l171.404-10.576 171.405 11.726L514 499.18V76.39l-171.191 9.93zm157.786 403.433l-162.654 16.978-162.856-11.123-162.857 10.033V100.306l162.857-19.055 162.712 16.835h.402l162.396-9.406v401.074z" fill="#91B3FA"/><g opacity=".69"><path d="M385.096 102.193l42.222 32.307-28.778 26.984-33.919-31.557 20.475-27.734z" fill="#fff"/><path d="M108.258 165.61l3.522-35.682 61.465 17.841v45.27l-64.987-27.429z" fill="url(#paint0_linear_2761_11852)"/><path d="M460.207 387.603l34.089-17.021 4.613 34.53-29.795 9.571-8.907-27.08z" fill="url(#paint1_linear_2761_11852)"/><path d="M139.016 415.081l34.227 17.605 34.122-5.641-3.083-23.331-31.039-7.179-34.227 18.546z" fill="url(#paint2_linear_2761_11852)"/><path d="M104.115 166.633l-92.877 32.702 1.984 7.634 13.413-4.723 85.944 27.178 1.437-6.16-77.484-24.501 66.492-23.411 62.031 47.631-8.535 68.736-67.84 5.607-59.657 93.662 5.503 4.752 57.781-90.718 70.204-5.802 9.948-80.109-68.344-52.478z" fill="url(#paint3_linear_2761_11852)"/><path d="M75.128 442.641L4.21 372.656l4.43-6.084 70.917 69.984-4.43 6.085z" fill="url(#paint4_linear_2761_11852)"/><path d="M347.235 372.898l-42.319-121.312-6.349 3.001 22.265 63.823-108.129 38.707 2.015 7.626 108.703-38.912 17.466 50.07 6.348-3.003z" fill="url(#paint5_linear_2761_11852)"/><path d="M437.649 349.297l-20.606 26.092-40.695-92.977-4.883 2.896 41.595 95.038.127-.076-15.869 20.094 5.045 5.4 40.331-51.069-5.045-5.398z" fill="url(#paint6_linear_2761_11852)"/><path d="M412.866 188.085l-3.977-6.496a2.432 2.432 0 00-.287.273c2.176-2.479 31.702-44.075 51.019-71.43l2.412-3.412 43.936 51.66-4.869 5.613-38.597-45.381a16023.204 16023.204 0 01-22.712 32.054c-25.596 36.016-26.303 36.601-26.925 37.119z" fill="url(#paint7_linear_2761_11852)"/><path d="M324.327 230.368l-13.768-54.865-16.826-50.01-75.319 5.213-.406-7.962 80.29-5.558 18.796 55.91 13.811 55.034-6.578 2.238z" fill="url(#paint8_linear_2761_11852)"/><path d="M107.832 167.3l-5.465-.488 2.853-43.437 68.581 16.502-1.109 6.249-62.482-15.033-2.378 36.207z" fill="url(#paint9_linear_2761_11852)"/><path d="M397.68 166.14l-3.42-4.987 28.524-26.521-39.522-33.118 3.202-5.18 45.389 38.034-34.173 31.772z" fill="url(#paint10_linear_2761_11852)"/><path d="M508.285 412.896L462.82 225.262l-6.593 2.165 34.311 141.613-32.096 16.029 2.162 5.865 30.842-15.403 3.694 27.658-24.013 7.714 1.457 6.152 27.452-8.819 1.654 6.825 6.595-2.165z" fill="url(#paint11_linear_2761_11852)"/><path d="M174.415 487.545L73.582 440.846l2.534-7.411 95.847 44.389 27.283-44.421-24.524 6.82-41.776-22.626 2.892-7.232 39.612 21.453 40.03-11.129-41.065 66.856z" fill="url(#paint12_linear_2761_11852)"/><path d="M393.455 401.898l-68.617 86.456-69.714-75.446-39.26-57.687-4.298 3.963 39.39 57.879.129.189 70.034 75.79-10.881 13.71 5.032 5.414 83.218-104.854-5.033-5.414z" fill="url(#paint13_linear_2761_11852)"/></g><path d="M195.42 226.952l-23.946-30.832C117.809 174.097 56.685 151.328 9.27 148.712l.292-7.171c48.431 2.673 110.435 25.82 164.702 48.111l.738.302 24.995 32.182-4.577 4.816z" fill="url(#paint14_linear_2761_11852)"/><path d="M496.605 472.587c-52.278-37.359-111.408-78.483-152.49-94.385l-133.542 57.383-2.135-6.736 135.556-58.247 1.019.386c41.758 15.855 101.809 57.598 154.819 95.48l-3.227 6.119z" fill="url(#paint15_linear_2761_11852)"/><path d="M235.85 201.208L194.852 83.056l5.718-2.689 40.998 118.151-5.718 2.69z" fill="url(#paint16_linear_2761_11852)"/><path d="M421.637 233.913c-10.606-47.892-31.037-80.876-62.461-100.835l2.954-6.303c17.337 11.014 31.714 26.034 42.73 44.646 10.006 16.905 17.446 36.759 22.747 60.7l-5.97 1.792z" fill="url(#paint17_linear_2761_11852)"/><path d="M101.5 430.77l-5.148-4.016 60.584-108.574 5.149 4.018L101.5 430.77z" fill="url(#paint18_linear_2761_11852)"/><path d="M438.652 237.991l-177.984-8.258.244-7.175 176.643 8.198 64.799-30.924 2.339 6.642-66.041 31.517z" fill="url(#paint19_linear_2761_11852)"/><path d="M13.333 472.187l-2.22-6.699 161.697-72.609 31.77 3.674-.612 7.144-30.306-3.504-160.329 71.994zm208.383-145.753c-69.425-.855-134.488-4.963-167.673-45.272l4.453-4.967c31.528 38.296 95.228 42.223 163.285 43.06l-.065 7.179z" fill="#fff"/><path d="M215.621 496.319l-14.512-100.636.223-.82 41.799-155.131 18.735-36.924 74.142-46.646 49.458-63.36 4.565 4.829-50.165 64.265-73.56 46.281-17.504 34.493-41.365 153.521 14.266 98.939-6.082 1.189z" fill="#fff"/><path d="M503.757 488.607l-86.632-182.491-160.153-68.299-28.504-7.915-103.458-9.104-114.236 97.45-3.645-5.791 116.073-99.018 1.137.1 105.083 9.247 29.333 8.145.17.072 162.484 69.294.558 1.174 87.188 183.663-5.398 3.473z" fill="#fff"/><path d="M245.971 241.197c11.424 0 20.685-9.253 20.685-20.668 0-11.414-9.261-20.668-20.685-20.668-11.425 0-20.686 9.254-20.686 20.668 0 11.415 9.261 20.668 20.686 20.668z" fill="url(#paint20_linear_2761_11852)"/><path d="M359.707 453.54c15.012 0 27.183-12.17 27.183-27.183s-12.171-27.183-27.183-27.183c-15.013 0-27.184 12.17-27.184 27.183s12.171 27.183 27.184 27.183z" fill="url(#paint21_linear_2761_11852)"/><path d="M496.687 126.231c0 51.7-77.867 183.593-118.428 248.653-3.147 5.049-9.928 8.114-22.484 8.114-5.949 0-3.61-3.079-6.757-8.128-40.565-65.065-118.42-196.945-118.42-248.639 0-67.412 59.565-122.06 133.045-122.06 73.479 0 133.044 54.648 133.044 122.06z" fill="#EBA707"/><path d="M424.669 197.499c36.258-36.258 36.258-95.044 0-131.303-36.259-36.258-95.045-36.258-131.303 0-36.258 36.259-36.258 95.045 0 131.303 36.258 36.258 95.044 36.258 131.303 0z" fill="#373737"/><path d="M349.977 190.125c37.301 0 67.539-30.238 67.539-67.539 0-37.3-30.238-67.54-67.539-67.54s-67.539 30.24-67.539 67.54c0 37.301 30.238 67.539 67.539 67.539z" fill="#fff"/><path d="M275.256 371.486L95.699 484.834c-7.53 4.754-9.416 14.915-4.092 22.055l.874 1.171c4.712 6.316 13.663 7.589 19.95 2.839L282.72 382.162l-7.464-10.676z" fill="#09005D"/><path opacity=".19" d="M376.143 403.855c53.16-11.555 87.057-63.239 75.71-115.44-11.346-52.2-63.638-85.151-116.798-73.596-53.16 11.554-87.056 63.238-75.71 115.439 11.346 52.201 63.638 85.152 116.798 73.597z" fill="#fff"/><path d="M332.741 204.145c-59.151 12.858-96.869 70.368-84.243 128.451 12.626 58.086 70.813 94.75 129.965 81.891 59.151-12.858 96.869-70.368 84.243-128.451-12.626-58.084-70.813-94.748-129.965-81.891zm42.363 194.895c-50.461 10.969-100.103-20.309-110.872-69.862-10.771-49.552 21.406-98.616 71.868-109.584 50.463-10.969 100.103 20.309 110.874 69.862 10.769 49.552-21.408 98.614-71.87 109.584z" fill="url(#paint22_linear_2761_11852)"/><path d="M95.947 523.703s-1.4 7.507-2.122 14.944c-.283 2.907 1.937 5.453 4.852 5.603 9.908.508 31.103 1.513 38.714 1.246a1.668 1.668 0 001.489-2.271 3.727 3.727 0 00-1.891-2.03l-34.868-16.43-6.174-1.062z" fill="url(#paint23_linear_2761_11852)"/><path d="M94.902 519.275l.982 9.004s6.107 2.915 10.329-.261l-2.445-10.047-8.866 1.304z" fill="url(#paint24_linear_2761_11852)"/><path d="M97.316 350.195c-.484 2.345-3.592 117.183 8.194 168.771a1.746 1.746 0 01-1.044 2.022c-1.89.752-5.594 1.83-10.018 1.937a3.007 3.007 0 01-2.964-2.188c-3.395-11.976-19.64-71.969-21.288-129.147-1.842-63.89.021-2.175.021-2.175l1.814-39.466 25.285.246z" fill="url(#paint25_linear_2761_11852)"/><path d="M55.625 527.24s-2.15 3.776-4.293 13.843a3.13 3.13 0 002.718 3.774c3.27.353 8.305.814 12.34.826 1.861.003 3.33-1.601 3.123-3.45-.413-3.686-1.748-9.741-6.006-14.489l-7.882-.504z" fill="url(#paint26_linear_2761_11852)"/><path d="M53.871 515.656l2.364 13.626s2.449 1.857 7.337.574l-1.05-14.645-8.65.445z" fill="url(#paint27_linear_2761_11852)"/><path d="M48.692 353.256c-10.62 60.504.75 149.797 4.703 167.29a2.719 2.719 0 002.18 2.087c1.836.322 4.862.6 7.856-.238a2.497 2.497 0 001.815-2.28c.688-14.106.52-100.744 10.202-134.891a7.778 7.778 0 013.04-4.262l18.282-12.737 1.59-20.856-49.668 5.887z" fill="url(#paint28_linear_2761_11852)"/><path d="M113.771 239.043c-30.087-.785-63.369 7.298-63.369 7.298-9.47 52.252-2.644 112.69-2.644 112.69 23.238 6.332 49.61-3.262 49.61-3.262 4.081-21.84 22.734-83.233 22.734-83.233 14.719-1.684 26.873-5.81 36.9-11.323-7.524-8.892-11.003-20.147-12.497-26.797-10.672 3.206-21.455 4.869-30.734 4.627z" fill="#EBA707"/><path d="M203.081 195.568c-2.922-3.598-6.679-1.945-6.679-1.945-4.607 18.663-27.97 33.609-51.894 40.794 1.493 6.648 4.975 17.903 12.497 26.796 39.8-21.882 46.076-65.645 46.076-65.645z" fill="url(#paint29_linear_2761_11852)"/><path d="M202.35 196.466c.3.986-3.296 2.451-5.368-1.593-.054-1.929-1.148-10.197.018-11.755 6.214-8.304 18.206-18.675 18.206-18.675 1.992 2.004.316 3.934.316 3.934l-5.826 5.955c1.186 2.193 2.64 4.048 3.306 6.691.504 2.003.164 4.133-.863 5.943-1.031 1.816-2.435 4.174-3.758 6.017-2.505 3.491-6.031 3.483-6.031 3.483z" fill="url(#paint30_linear_2761_11852)"/><path d="M207.138 178.209l-5.301 4.407-1.692 4.422 4.636 5.244s1.66-8.79 2.851-10.684c1.189-1.893.592-2.821-.494-3.389z" fill="url(#paint31_linear_2761_11852)"/><path d="M61.665 275.589l-11.263-29.247s-28.29 18.829-33.144 42.999c5.306.441 14.957 1.916 24.372 6.783 2.188-11.416 20.035-20.535 20.035-20.535z" fill="#EBA707"/><path d="M85.964 303.241s-31.728 17.534-42.23 2.202c-2.18-3.182-2.679-6.331-2.107-9.321-9.414-4.867-19.065-6.339-24.371-6.782-1.463 7.286-.8 15.057 3.415 22.944 18.327 34.298 69.395-1.224 69.395-1.224l-4.102-7.819z" fill="url(#paint32_linear_2761_11852)"/><path d="M83.522 214.322l-9.839 27.599c-.162.457.022.967.444 1.207 2.596 1.468 11.96 5.728 23.36-1.347a4.701 4.701 0 002.195-3.335l3.328-23.936-19.489-.188z" fill="url(#paint33_linear_2761_11852)"/><path d="M104.6 188.877s10.326 19.891 8.901 27.874c-1.423 7.982-14.45 7.285-25.766.682l-7.747-21.447 24.612-7.109z" fill="url(#paint34_linear_2761_11852)"/><path d="M88.337 206.943a.816.816 0 00.367-1.191c-.83-1.294-2.384-3.936-2.866-6.238 0 0-1.878-1.228 4.838-2.768 6.716-1.541 16.732-3.934 18.888-9.618 2.1-5.54-3.146-19.576-11.838-8.516a.814.814 0 01-1.292-.004c-1.39-1.845-5.053-5.681-10.211-3.426-4.827 2.11-5.403 5.628-5.354 7.403a.812.812 0 01-.968.822c-2.425-.486-8.255-.941-11.033 5.016-2.288 4.906-.86 7.71.455 9.086a.813.813 0 01-.361 1.347c-1.603.475-3.677 1.808-3.507 5.553.236 5.176 6.025 4.776 7.673 4.555a.82.82 0 01.722.264c1.398 1.575 7.695 8.27 14.573 9.137.596.074 1.064-.51.873-1.08l-2.898-8.69a.818.818 0 01.453-1.011l1.486-.641z" fill="url(#paint35_linear_2761_11852)"/><path d="M89.52 208.184s-7.436-5.207-8.025-.889c-.588 4.321 6.68 6.33 10.306 4.753l-2.28-3.864z" fill="url(#paint36_linear_2761_11852)"/><path d="M79.476 330.949l17.282-60.356a1.76 1.76 0 011.488-1.268 751.767 751.767 0 0122.681-2.276c12.618-1.068 27.275-1.933 36.031-1.197 1.246.106 1.998 1.421 1.443 2.542-4.98 10.074-25.463 51.057-35.721 64.484a1.769 1.769 0 01-1.425.699l-40.1-.373a1.768 1.768 0 01-1.68-2.255z" fill="url(#paint37_linear_2761_11852)"/><path d="M83.652 316.365s-2.407-9.901-1.437-13.413c.97-3.512 2.852-8.028 9.125-7.025 6.273 1.004 13.671 3.645 13.671 3.645s-.373 4.575-5.14 3.099l2.955 2.288s-.421 3.663-4.45 1.706l2.75 3.035s-1.73 3.008-4.692 1.079-4.381 6.779-12.782 5.586z" fill="url(#paint38_linear_2761_11852)"/><path d="M119.777 285.064a5.075 5.075 0 1010.15 0 5.075 5.075 0 00-10.15 0z" fill="url(#paint39_linear_2761_11852)"/><path d="M98.716 288.411l3.518-11.937c.432-1.466 1.611-2.567 3.076-2.872 11.029-2.302 41.216-2.79 41.519-2.794l-.019-1.349c-1.246.02-30.622.496-41.776 2.823-1.952.408-3.52 1.869-4.094 3.811l-3.518 11.937 1.294.381z" fill="#91B3FA"/><defs><linearGradient id="paint0_linear_2761_11852" x1="217.015" y1="27.269" x2="349.554" y2="-211.496" gradientUnits="userSpaceOnUse"><stop stop-color="#4F52FF"/><stop offset="1" stop-color="#4042E2"/></linearGradient><linearGradient id="paint1_linear_2761_11852" x1="574.334" y1="225.621" x2="706.873" y2="-13.144" gradientUnits="userSpaceOnUse"><stop stop-color="#4F52FF"/><stop offset="1" stop-color="#4042E2"/></linearGradient><linearGradient id="paint2_linear_2761_11852" x1="350.617" y1="101.432" x2="483.156" y2="-137.333" gradientUnits="userSpaceOnUse"><stop stop-color="#4F52FF"/><stop offset="1" stop-color="#4042E2"/></linearGradient><linearGradient id="paint3_linear_2761_11852" x1="11.238" y1="281.186" x2="172.46" y2="281.186" gradientUnits="userSpaceOnUse"><stop stop-color="#DAE3FE"/><stop offset="1" stop-color="#E9EFFD"/></linearGradient><linearGradient id="paint4_linear_2761_11852" x1="4.211" y1="404.606" x2="79.558" y2="404.606" gradientUnits="userSpaceOnUse"><stop stop-color="#DAE3FE"/><stop offset="1" stop-color="#E9EFFD"/></linearGradient><linearGradient id="paint5_linear_2761_11852" x1="212.703" y1="313.743" x2="347.235" y2="313.743" gradientUnits="userSpaceOnUse"><stop stop-color="#DAE3FE"/><stop offset="1" stop-color="#E9EFFD"/></linearGradient><linearGradient id="paint6_linear_2761_11852" x1="371.464" y1="344.087" x2="442.693" y2="344.087" gradientUnits="userSpaceOnUse"><stop stop-color="#DAE3FE"/><stop offset="1" stop-color="#E9EFFD"/></linearGradient><linearGradient id="paint7_linear_2761_11852" x1="408.601" y1="147.55" x2="505.969" y2="147.55" gradientUnits="userSpaceOnUse"><stop stop-color="#DAE3FE"/><stop offset="1" stop-color="#E9EFFD"/></linearGradient><linearGradient id="paint8_linear_2761_11852" x1="218.007" y1="173.777" x2="330.905" y2="173.777" gradientUnits="userSpaceOnUse"><stop stop-color="#DAE3FE"/><stop offset="1" stop-color="#E9EFFD"/></linearGradient><linearGradient id="paint9_linear_2761_11852" x1="102.367" y1="145.337" x2="173.802" y2="145.337" gradientUnits="userSpaceOnUse"><stop stop-color="#DAE3FE"/><stop offset="1" stop-color="#E9EFFD"/></linearGradient><linearGradient id="paint10_linear_2761_11852" x1="383.261" y1="131.237" x2="431.852" y2="131.237" gradientUnits="userSpaceOnUse"><stop stop-color="#DAE3FE"/><stop offset="1" stop-color="#E9EFFD"/></linearGradient><linearGradient id="paint11_linear_2761_11852" x1="456.226" y1="321.158" x2="508.285" y2="321.158" gradientUnits="userSpaceOnUse"><stop stop-color="#DAE3FE"/><stop offset="1" stop-color="#E9EFFD"/></linearGradient><linearGradient id="paint12_linear_2761_11852" x1="73.582" y1="448.955" x2="215.481" y2="448.955" gradientUnits="userSpaceOnUse"><stop stop-color="#DAE3FE"/><stop offset="1" stop-color="#E9EFFD"/></linearGradient><linearGradient id="paint13_linear_2761_11852" x1="211.567" y1="433.693" x2="398.488" y2="433.693" gradientUnits="userSpaceOnUse"><stop stop-color="#DAE3FE"/><stop offset="1" stop-color="#E9EFFD"/></linearGradient><linearGradient id="paint14_linear_2761_11852" x1="196.804" y1="16.056" x2="329.343" y2="-222.708" gradientUnits="userSpaceOnUse"><stop stop-color="#4F52FF"/><stop offset="1" stop-color="#4042E2"/></linearGradient><linearGradient id="paint15_linear_2761_11852" x1="500.288" y1="184.52" x2="632.827" y2="-54.244" gradientUnits="userSpaceOnUse"><stop stop-color="#4F52FF"/><stop offset="1" stop-color="#4042E2"/></linearGradient><linearGradient id="paint16_linear_2761_11852" x1="266.098" y1="54.518" x2="398.637" y2="-184.247" gradientUnits="userSpaceOnUse"><stop stop-color="#4F52FF"/><stop offset="1" stop-color="#4042E2"/></linearGradient><linearGradient id="paint17_linear_2761_11852" x1="417.55" y1="138.59" x2="550.089" y2="-100.175" gradientUnits="userSpaceOnUse"><stop stop-color="#4F52FF"/><stop offset="1" stop-color="#4042E2"/></linearGradient><linearGradient id="paint18_linear_2761_11852" x1="297.233" y1="71.802" x2="429.771" y2="-166.964" gradientUnits="userSpaceOnUse"><stop stop-color="#4F52FF"/><stop offset="1" stop-color="#4042E2"/></linearGradient><linearGradient id="paint19_linear_2761_11852" x1="423.206" y1="141.73" x2="555.745" y2="-97.034" gradientUnits="userSpaceOnUse"><stop stop-color="#4F52FF"/><stop offset="1" stop-color="#4042E2"/></linearGradient><linearGradient id="paint20_linear_2761_11852" x1="225.283" y1="220.53" x2="266.656" y2="220.53" gradientUnits="userSpaceOnUse"><stop stop-color="#DAE3FE"/><stop offset="1" stop-color="#E9EFFD"/></linearGradient><linearGradient id="paint21_linear_2761_11852" x1="446.995" y1="357.69" x2="300.79" y2="472.704" gradientUnits="userSpaceOnUse"><stop stop-color="#EBA707"/><stop offset="1" stop-color="#EBA707"/></linearGradient><linearGradient id="paint22_linear_2761_11852" x1="293.692" y1="369.071" x2="530.818" y2="140.2" gradientUnits="userSpaceOnUse"><stop stop-color="#09005D"/><stop offset="1" stop-color="#1A0F91"/></linearGradient><linearGradient id="paint23_linear_2761_11852" x1="136.584" y1="513.698" x2="7.014" y2="651.975" gradientUnits="userSpaceOnUse"><stop stop-color="#09005D"/><stop offset="1" stop-color="#1A0F91"/></linearGradient><linearGradient id="paint24_linear_2761_11852" x1="94.861" y1="523.661" x2="106.252" y2="523.77" gradientUnits="userSpaceOnUse"><stop stop-color="#FEBBBA"/><stop offset="1" stop-color="#FF928E"/></linearGradient><linearGradient id="paint25_linear_2761_11852" x1="134.239" y1="381.672" x2="47.26" y2="483.703" gradientUnits="userSpaceOnUse"><stop stop-color="#09005D"/><stop offset="1" stop-color="#1A0F91"/></linearGradient><linearGradient id="paint26_linear_2761_11852" x1="108.068" y1="486.97" x2="-21.508" y2="625.252" gradientUnits="userSpaceOnUse"><stop stop-color="#09005D"/><stop offset="1" stop-color="#1A0F91"/></linearGradient><linearGradient id="paint27_linear_2761_11852" x1="53.805" y1="522.687" x2="63.64" y2="522.78" gradientUnits="userSpaceOnUse"><stop stop-color="#FEBBBA"/><stop offset="1" stop-color="#FF928E"/></linearGradient><linearGradient id="paint28_linear_2761_11852" x1="118.683" y1="364.694" x2="13.906" y2="487.602" gradientUnits="userSpaceOnUse"><stop stop-color="#09005D"/><stop offset="1" stop-color="#1A0F91"/></linearGradient><linearGradient id="paint29_linear_2761_11852" x1="144.578" y1="226.912" x2="202.778" y2="227.465" gradientUnits="userSpaceOnUse"><stop stop-color="#FEBBBA"/><stop offset="1" stop-color="#FF928E"/></linearGradient><linearGradient id="paint30_linear_2761_11852" x1="198.529" y1="254.067" x2="203.166" y2="207.701" gradientUnits="userSpaceOnUse"><stop stop-color="#FEBBBA"/><stop offset="1" stop-color="#FF928E"/></linearGradient><linearGradient id="paint31_linear_2761_11852" x1="203.242" y1="148.966" x2="205.408" y2="225.635" gradientUnits="userSpaceOnUse"><stop stop-color="#FEBBBA"/><stop offset="1" stop-color="#FF928E"/></linearGradient><linearGradient id="paint32_linear_2761_11852" x1="16.436" y1="308.134" x2="90.087" y2="308.834" gradientUnits="userSpaceOnUse"><stop stop-color="#FEBBBA"/><stop offset="1" stop-color="#FF928E"/></linearGradient><linearGradient id="paint33_linear_2761_11852" x1="73.74" y1="229.935" x2="102.86" y2="230.212" gradientUnits="userSpaceOnUse"><stop stop-color="#FEBBBA"/><stop offset="1" stop-color="#FF928E"/></linearGradient><linearGradient id="paint34_linear_2761_11852" x1="109.965" y1="211.751" x2="78.133" y2="191.919" gradientUnits="userSpaceOnUse"><stop stop-color="#FEBBBA"/><stop offset="1" stop-color="#FF928E"/></linearGradient><linearGradient id="paint35_linear_2761_11852" x1="61.378" y1="171.174" x2="102.43" y2="204.235" gradientUnits="userSpaceOnUse"><stop stop-color="#09005D"/><stop offset="1" stop-color="#1A0F91"/></linearGradient><linearGradient id="paint36_linear_2761_11852" x1="101.481" y1="218.953" x2="72.842" y2="201.11" gradientUnits="userSpaceOnUse"><stop stop-color="#FEBBBA"/><stop offset="1" stop-color="#FF928E"/></linearGradient><linearGradient id="paint37_linear_2761_11852" x1="109.831" y1="261.336" x2="150.471" y2="430.671" gradientUnits="userSpaceOnUse"><stop stop-color="#09005D"/><stop offset="1" stop-color="#1A0F91"/></linearGradient><linearGradient id="paint38_linear_2761_11852" x1="81.985" y1="306.133" x2="105.011" y2="306.133" gradientUnits="userSpaceOnUse"><stop stop-color="#FEBBBA"/><stop offset="1" stop-color="#FF928E"/></linearGradient><linearGradient id="paint39_linear_2761_11852" x1="119.778" y1="285.064" x2="129.925" y2="285.064" gradientUnits="userSpaceOnUse"><stop stop-color="#4F52FF"/><stop offset="1" stop-color="#4042E2"/></linearGradient></defs></svg>