<svg width="110" height="98" fill="none" xmlns="http://www.w3.org/2000/svg"><path fill-rule="evenodd" clip-rule="evenodd" d="M86.152 91.125c0-1.033.59-2.36 1.504-2.36h7.735c2.242 0 1.718 3.037 1.718 5.363H86.152v-3.003zM110 27.893v5.944c0 3-2.348 5.364-5.371 5.364 0 2.144-.019 3.96-1.443 5.425-2.039 2.098-2.928 1.87-5.862 1.87v38.406c0 1.027 1.351.48 2.629 2.525 1.375 2.203 1.763 10.349-.48 10.349H84.219c-1.04 0-1.719-.679-1.719-1.717v-6.007c0-2.153 1.907-4.315 3.652-4.72v-2.146H18.477v1.716c0 1.213 3.652.756 3.652 6.652 0 1.67.476 6.222-1.504 6.222H5.371c-1.04 0-1.719-.679-1.719-1.717v-6.007c0-2.083 1.97-4.329 3.653-4.72V46.495H4.94C2.542 46.496 0 43.957 0 41.561V5.73C0 3.334 2.542.795 4.941.795h94.532c2.841 0 5.156 2.706 5.156 6.222V22.68c1.537.034 2.912.785 3.746 1.623 1.031 1.035 1.462 2.216 1.625 3.59zM7.305 91.553c0-1.2.419-2.789 1.504-2.789h7.734c2.268 0 1.719 2.646 1.719 5.364H7.305v-2.574zM18.262 42.85h-3.438V4.442h3.438v9.227h58.867V4.442h3.437V42.85H77.13V29.975h-3.867v16.521h12.89V72.03H18.477V46.496h3.652V29.975h-3.867v12.874zm76.914-23.816h-8.809c-.886 0-1.933-.722-1.933-1.502V9.59c0-.912 1.329-1.501 2.363-1.501h7.95c1.34 0 2.362.614 2.362 1.931v7.08a1.94 1.94 0 01-1.933 1.931z" fill="#EBA707"/><path fill-rule="evenodd" clip-rule="evenodd" d="M64.457 61.088h-33.3c-1.04 0-1.72-.678-1.72-1.716v-29.61c0-.78 1.048-1.501 1.934-1.501h32.227c1.34 0 2.363.614 2.363 1.93v28.966c0 .885-.722 1.931-1.504 1.931zM25.57 62.805c0 1.205.942 2.146 2.149 2.146h39.53c1.985 0 2.58-1.032 2.58-3.004V24.612H25.57v38.192z" fill="#fff"/><path fill-rule="evenodd" clip-rule="evenodd" d="M32.875 57.01c0 1.133 2.433.643 5.586.643V47.57c0-4.086 3.652-3.158 3.652-.858v1.716c3.127 0 7.305-.688 7.305 1.717 0 2.592-4.084 1.93-7.305 1.93v5.58H62.31v-5.58c-2.451 0-9.024.662-9.024-1.501 0-1.259.437-2.146 1.934-2.146h7.09v-7.724c-4.054-.09-8.725-5.039-8.809-8.797H42.113v6.866c0 2.896-3.652 3.196-3.652-.644v-6.222h-5.586V57.01zM18.258 26.542h3.222c2.05 0-1.418-5.578 2.793-5.578h47.051c2.506 0 1.934 2.817 1.934 5.578 2.547 0 3.867.364 3.867-.644v-8.153c0-.494-.15-.643-.645-.643H18.258v9.44zm69.609-11.157h5.586v-3.648h-5.586v3.648zM62.305 37.056v-5.15h-5.157c.186 2.223 2.931 4.965 5.157 5.15z" fill="#fff"/></svg>