<svg width="114" height="110" fill="none" xmlns="http://www.w3.org/2000/svg"><g clip-path="url(#clip0_2761_10089)"><path d="M71.493 49.454l11.104-19.41H61.91c-1 0-1.812-.827-1.812-1.848 0-1.021.811-1.849 1.812-1.849h21.736v-5.545c0-1.021-.81-1.849-1.811-1.849H45.608c-1 0-1.811.828-1.811 1.849v5.545h9.057c1 0 1.811.828 1.811 1.849 0 1.02-.81 1.848-1.811 1.848h-8.007l11.104 19.41c.322.569.915.92 1.558.924h12.426a1.805 1.805 0 001.558-.924z" fill="#fff"/><path d="M92.707 2.317c0-1.02-.811-1.848-1.812-1.848h-3.623v5.545c0 1.021-.81 1.849-1.811 1.849-1 0-1.811-.828-1.811-1.849V.47h-3.623v5.545c0 1.021-.811 1.849-1.811 1.849-1 0-1.812-.828-1.812-1.849V.47h-3.623v5.545c0 1.021-.81 1.849-1.811 1.849-1 0-1.811-.828-1.811-1.849V.47h-3.623v5.545c0 1.021-.811 1.849-1.812 1.849-1 0-1.811-.828-1.811-1.849V.47H58.29v5.545c0 1.021-.81 1.849-1.811 1.849-1 0-1.812-.828-1.812-1.849V.47h-3.622v5.545c0 1.021-.811 1.849-1.812 1.849-1 0-1.811-.828-1.811-1.849V.47h-3.623v5.545c0 1.021-.81 1.849-1.811 1.849-1 0-1.812-.828-1.812-1.849V.47h-3.622c-1 0-1.812.827-1.812 1.848v11.091c0 1.021.811 1.85 1.812 1.85h54.341c1 0 1.812-.829 1.812-1.85V2.319z" fill="#EBA707"/><path d="M58.285 87.353l5.434 3.697 5.434-3.697v-7.025c-10.868 7.376-10.107 7.025-10.868 7.025zm10.868-16.271c-10.868 7.394-10.107 7.025-10.868 7.025v5.175c10.724-7.301 10.035-7.024 10.868-7.024v-5.176zm0-9.242c-10.868 7.394-10.107 7.024-10.868 7.024v5.176c10.705-7.283 10.035-7.024 10.868-7.024V61.84zm0-7.766H58.285v10.722c10.742-7.302 10.035-7.025 10.868-7.025v-3.697zM49.758 84.965c.71.725 1.862.725 2.572 0s.71-1.9 0-2.625L37.84 67.552a1.794 1.794 0 00-1.758-.48 1.838 1.838 0 00-1.286 1.312c-.168.64.012 1.323.471 1.792l14.491 14.789zm27.929 0l14.491-14.789c.46-.469.639-1.152.47-1.792a1.838 1.838 0 00-1.285-1.313 1.794 1.794 0 00-1.757.48L75.115 82.34c-.71.725-.71 1.9 0 2.625.71.725 1.862.725 2.572 0zM31.116 65.166c1 0 1.812-.828 1.812-1.849 0-1.02-.811-1.848-1.812-1.848-1 0-1.811.827-1.811 1.848 0 1.021.81 1.849 1.811 1.849zm65.214 0c1.001 0 1.812-.828 1.812-1.849 0-1.02-.81-1.848-1.811-1.848-1 0-1.812.827-1.812 1.848 0 1.021.811 1.849 1.812 1.849zm-44.164 6.99c.777-.635.907-1.79.29-2.588l-7.245-9.243a1.798 1.798 0 00-1.725-.812 1.82 1.82 0 00-1.487 1.206 1.877 1.877 0 00.386 1.898l7.245 9.243a1.787 1.787 0 002.536.296zm30.071-11.833l-7.246 9.243a1.874 1.874 0 00.29 2.588 1.787 1.787 0 002.536-.296l7.245-9.243c.621-.792.5-1.947-.271-2.588a1.786 1.786 0 00-2.554.296zM1.988 26.738c4.58 2.392 6.478 8.057 4.293 12.81-3.679 8.24-.411 17.976 7.444 22.183 4.573 2.398 6.469 8.057 4.293 12.81-.785 1.879.07 4.051 1.911 4.853 1.841.801 3.97-.072 4.755-1.95 3.679-8.24.411-17.976-7.445-22.183-4.544-2.425-6.412-8.07-4.238-12.81 3.662-8.235.407-17.956-7.427-22.183C.967 17.903-.966 12.23 1.21 7.458 2 5.609 1.195 3.454-.603 2.615a3.556 3.556 0 00-2.835-.075 3.66 3.66 0 00-2.02 2.034c-3.656 8.234-.393 17.951 7.446 22.164zm34.309 7.485a3.64 3.64 0 00-2.845-2.293 3.59 3.59 0 00-3.37 1.367 3.762 3.762 0 00-.523 3.662c2.354 5.97-.181 8.263-.526 8.559-1.5 1.205-1.825 3.391-.744 4.997 1.081 1.606 3.197 2.08 4.838 1.084.326-.203 7.825-5.49 3.17-17.376zM6.495 76.686a3.617 3.617 0 003.359-1.457 3.788 3.788 0 00.444-3.697 3.66 3.66 0 00-2.916-2.24C1.115 68.57.318 65.168.318 64.761c-.195-2.041-1.976-3.535-3.976-3.336-2.001.2-3.465 2.016-3.27 4.058 0 .388.978 9.649 13.422 11.202z" fill="#fff"/><path d="M98.135 85.5H82.738a3.624 3.624 0 00-3.242 2.255C76.67 93.818 62.577 98.44 45.604 98.44c-16.972 0-31.065-4.622-33.89-10.685A3.624 3.624 0 008.47 85.5H-6.926v24.031h105.06V85.5zM2.13 103.985H.32c-1 0-1.812-.827-1.812-1.848 0-1.021.811-1.849 1.812-1.849h1.81c1 0 1.812.828 1.812 1.849s-.811 1.848-1.812 1.848zm19.925 0H9.376c-1 0-1.81-.827-1.81-1.848 0-1.021.81-1.849 1.81-1.849h12.68c1 0 1.812.828 1.812 1.849s-.811 1.848-1.812 1.848z" fill="#EBA707"/></g><defs><clipPath id="clip0_2761_10089"><path fill="#fff" d="M0 0h114v110H0z"/></clipPath></defs></svg>