<svg width="120" height="120" fill="none" xmlns="http://www.w3.org/2000/svg"><g clip-path="url(#clip0_2761_13059)" fill-rule="evenodd" clip-rule="evenodd"><path d="M57.89 30h9.844c1.32 0 2.11.728 2.11 2.11 0 2.217-2.267 1.877-4.453 1.875-2.11-.003-4.22 0-6.329 0 2.28 3.402 7.444 12.874 9.947 17.006 3.516 5.808 1.57 5.025 8.803 5.025 0 2.277-.303 11.547.387 12.972.865 1.787 3.832 1.239 3.832-1.02V56.017c6.61 0 5.676 1.06 8.906-4.922l6.563-11.25c.628-1.163 3.077-4.982 3.281-5.86H81.094c-2.793 0-4.922.464-4.922-2.11 0-1.209.976-1.874 2.11-1.874h23.906v-9.375c0-.54-.164-.703-.703-.703H57.891V30z" fill="#fff"/><path d="M47.813 3.281v11.485c0 1.69.419 3.28 2.109 3.28h60c.967 0 2.109-.787 2.109-1.64V1.875c0-1.252-.746-1.72-1.883-1.875h-4.21c0 2.32.391 6.184-.515 7.22-1.346 1.535-3.235.494-3.235-1.126V0h-4.219c0 3.027.742 7.969-1.875 7.969-2.868 0-2.11-4.346-2.11-7.969H90c0 2.855.698 7.969-1.875 7.969-2.907 0-2.109-4.2-2.109-7.969h-3.984c0 2.813.66 7.969-1.875 7.969-2.908 0-2.11-4.2-2.11-7.969H73.83c0 2.14.395 6.608-.524 7.445-1.118 1.017-3.226.503-3.226-1.586V0h-4.22c0 2.14.395 6.608-.524 7.445-1.137 1.034-3.226.401-3.226-1.351V0h-4.219c0 1.996.355 6.48-.432 7.302-1.136 1.184-3.318.716-3.318-1.208V0h-4.16c-1.495.176-2.168.877-2.168 3.281zM0 103.828c0 1.809 1.04 2.344 3.047 2.344h14.765v8.203c0 3.116.92 5.625 3.985 5.625h76.406c1.376 0 2.478-.783 3.096-1.592 1.369-1.796.889-9.339.889-12.236h14.765c2.127 0 2.89-.862 3.047-1.753v-.772c-.072-.448-.254-.833-.429-1.03-.162-.181-.882-.664-1.212-.664h-16.406a3.956 3.956 0 00-3.984 3.985v10.078H22.03v-10.078a3.995 3.995 0 00-3.984-3.985H1.64c-.29 0-.905.381-1.092.549-.396.359-.549.655-.549 1.326z" fill="#EBA707"/><path d="M27.89 77.812c0 6.477 4.652 9.236 6.235 11.344 2.191 2.916 2.435 6.525.236 9.423-.474.626-2.486 2.359-2.486 3.139 0 2.041 2.384 4.617 6.285-1.449 3.009-4.678 2.315-10.733-1.535-14.55-2.79-2.767-4.515-3.952-4.515-8.376 0-4.033 3.984-5.064 3.984-7.5 0-1.944-2.646-3.74-6.285 1.918-.91 1.414-1.918 3.811-1.918 6.051z" fill="#EBA707"/><path d="M33.984 53.203c0 3.957.964 6.728 3.688 9.437 1.742 1.731 4.281 3.887 4.281 7.204 0 4.977-3.984 6.215-3.984 8.203 0 1.235 1.547 3.333 3.814 1.002 4.248-4.37 5.91-9.511 2.532-15.083-2.164-3.57-5.12-4.438-6.012-8.287-1.615-6.975 5.894-7.996 3.322-11.054-2.776-3.3-7.64 5.036-7.64 8.578z" fill="#EBA707"/><path d="M77.814 77.11c0 2.985-.373 20.308.387 21.879.865 1.786 3.832 1.238 3.832-1.02V75.94c0-1.476-1.418-2.146-2.418-1.945-1.42.286-1.8 1.5-1.8 3.116zm-27.892 30.702c0 1.669 1.159 2.344 2.812 2.344h16.64c3.616 0 3.15-4.218.704-4.218H52.031c-1.045 0-2.11.949-2.11 1.874zm3.75-13.828c0 1.688 1.845 2.197 3.707 3.324C59.35 98.501 70.052 105 71.484 105c1.869 0 2.993-2.61.376-4.126a85.934 85.934 0 00-2.25-1.264c-2.051-1.111-13.066-7.735-13.594-7.735-1.288 0-2.344.813-2.344 2.11zm29.297 5.391c0 1.474 2.205 3.625 4.066.55l2.577-4.454c1.111-2.04 6.482-10.684 6.482-11.565 0-1.947-1.318-2.11-2.578-2.11-1.128 0-2.329 2.704-3.06 3.973-1.054 1.832-7.487 12.429-7.487 13.606zM63.984 83.672c0 1.443 2.127 4.356 2.813 5.625l6.016 10.39c.548.945.987 1.7 2.187 1.7 1.002.001 2.11-.896 2.11-2.012 0-.89-4.226-7.855-4.97-9.094-.91-1.52-1.677-2.975-2.543-4.488-.413-.723-.874-1.382-1.311-2.204-.929-1.744-1.065-1.792-2.427-1.792-1.133 0-1.875.741-1.875 1.875zM88.592 105c1.003 0 .933-.098 1.605-.505.486-.295.811-.453 1.342-.767.897-.53 1.617-.965 2.524-1.46l10.394-6.012c3.882-2.268.635-4.381.073-4.381-1.268 0-3.894 1.87-5.472 2.732l-10.549 6.091c-3.699 1.976-1.42 4.302.083 4.302zm21.33-15c0 3.847 6.113 1.61 3.656-1.313-1.361-1.618-3.656-.488-3.656 1.313zm-63.984 0c0 2.614 3.86 2.85 4.113.171.257-2.73-4.114-3.125-4.114-.17zm32.109 17.812c0 3.225 3.984 2.76 3.984.234 0-2.569-3.984-2.947-3.984-.234z" fill="#fff"/></g><defs><clipPath id="clip0_2761_13059"><path fill="#fff" d="M0 0h120v120H0z"/></clipPath></defs></svg>