<svg width="91" height="26" fill="none" xmlns="http://www.w3.org/2000/svg"><path fill-rule="evenodd" clip-rule="evenodd" d="M34.06 10.97c6.2-2.363 5.39 4.017 4.6 5.143-.947 1.347-3.049 1.388-3.95.125-.848-1.187-.734-3.597-.65-5.268zm9.911 2.07c-.354-4.53-3.279-6.412-6.9-5.72-1.544.295-2.02.944-2.765 1.33.148-1.9 1.282-2.855 3.042-3.259 1.753-.402 3.778-.178 5.296-1.064 2.587-1.041.898-5.005-1.06-4.226-.32.126-.59.546-1.303.777-1.499.484-3.194.386-4.95.973-4.037 1.35-5.944 4.835-6.003 10.028-.056 5.04 1.838 9.034 6.772 9.272 5.13.247 8.322-2.91 7.871-8.111zM55.09 15.1c-.97 3.577-5.863 2.4-4.61-2.734.907-3.722 5.915-2.077 4.61 2.733zm-8.636 10.67c1.494.417 3.426.363 3.835-.972.214-.697.098-4.252.098-5.237.51.316.704.611 1.396.961 2.902 1.47 5.561-.309 5.919-.357.156-.244.017-.057.196-.243 1.268-1.319 1.847-2.164 2.146-4.437.478-3.638-.292-8.552-4.697-9.217-2.592-.39-3.824.524-4.92 1.975-.17-1.076-.404-1.734-1.465-1.896-4.411-.676-3.418 2.25-3.418 6.693v10.166c-.005 1.501-.076 1.788.91 2.564zm24.393-5.583c.703.412.175.809 2.184.807 1.028-.001 1.863.044 2.384-.684.837-1.167-.174-4.32.342-5.811-.17-.353-.117-.448-.128-1.587l-.07-4.64c-.084-3.038-3.93-1.791-4.1-1.69-.815.486-3.874 6.32-4.947 7.589-.194-1.4-.045-3.983-.043-5.507.005-2.26-.86-2.463-3.096-2.351-2.063.102-1.745 1.973-1.745 3.64v5.404c0 1.437-.301 4.19.408 5.076.675.844 3.518.803 4.218-.016.904-1.057 3.843-5.966 4.433-6.37.08 2.032-.14 4.188.16 6.14zm-47.622-5.574c.26 3.38-2.753 3.407-3.707 2.529-.867-.8-.409-1.942.374-2.289.902-.4 2.307-.267 3.333-.24zm-7.759-4.532l.008.239.499.593c.808.86.933.14 2.187-.247 1.599-.492 5.274-.468 4.99 1.388-1.95.133-4.227-.187-5.962.609-4.675 2.145-2.95 9.24 3.023 8.418 1.33-.182 1.49-.563 2.415-1.019.072-.208-.043.03.112-.205l.625-.751c.183.383.287.573.321.923.503.297.522.592 1.107.847 1.324.576 3.729.144 3.972-1.916-1.512-1.425-1.107-3.586-1.115-6.305-.008-2.588-.573-4.238-2.12-5.38-2.12-1.563-7.136-1.465-9.037.05-.867.69-1.182 1.275-1.025 2.756zM1.487 5.729l3.91.031c.16 1.284-.033 10.937.035 13.335.049 1.711.98 1.898 2.618 1.896 3.3-.003 2.61-1.232 2.61-6.278l.036-8.94 4.33-.016c.849-.926 1.089-.6 1.07-2.37-.013-1.144-.378-1.855-1.38-2.023-.736-.123-12.846-.11-13.445.02-.975.213-1.27.91-1.271 2.134-.002 1.324.338 1.987 1.487 2.211zm77.944 2.093c-.14.47-.996.716-1.748 2.668-.477 1.236-.626 2.642-.529 4.094.194 2.9 1.606 4.626 3.45 5.687 3.453 1.986 9.365.926 9.418-2.213.022-1.322-1.093-2.024-2.374-2.154-3.158 2.438-5.82.49-5.794-2.222.014-1.597.883-2.65 2.028-3.037.659-.223 1.553-.172 2.151.067.808.322 1.61 1.882 3.265.321 1.89-1.783-.663-5.92-6.356-4.8-1.858.364-2.211.935-3.511 1.59z" fill="#C7C7C7"/></svg>