<svg width="149" height="22" fill="none" xmlns="http://www.w3.org/2000/svg"><path fill-rule="evenodd" clip-rule="evenodd" d="M33.112 3.406l-1.143-.648c.941-.673 2.063-1.226 3.364-1.659 1.66-.528 3.554-.792 5.684-.792 3.297 0 6.055.897 8.275 2.69 1.055.866 1.85 1.82 2.389 2.86.538 1.041.807 2.186.807 3.436 0 2.403-1.06 4.362-3.18 5.876-2.118 1.513-4.882 2.27-8.29 2.27-1.19 0-2.26-.048-3.213-.145a14.932 14.932 0 01-2.607-.48 11.16 11.16 0 01-3.297-1.562l1.11-.72c.763.592 1.738 1.089 2.927 1.49 1.144.336 2.635.504 4.474.504 2.623 0 4.659-.653 6.105-1.958 1.447-1.307 2.17-2.88 2.17-4.722l-1.245.288a5.906 5.906 0 01-1.245.144c-.515 0-.987-.064-1.413-.191l-1.244-.433a7.197 7.197 0 00-1.06-.325 5.737 5.737 0 00-1.329-.156c-.56 0-1.11.057-1.649.168-.358.065-.644.124-.857.18a7.548 7.548 0 00-.857.3v-1.25c1.233-.51 2.32-.768 3.262-.768.516 0 1.015.053 1.497.157.482.103.948.26 1.397.468l1.21.409c.382.08.774.12 1.178.12a7.77 7.77 0 002.354-.385c0-1.954-.672-3.645-2.018-5.07-1.458-1.521-3.544-2.282-6.257-2.282-1.591 0-3.05.224-4.373.672a10.042 10.042 0 00-2.926 1.514zm-6.794-.788l.589 1.803.854-1.794c.417-.246.698-.7.698-1.216C28.459.634 27.825 0 27.047 0a1.41 1.41 0 00-.729 2.618zM.861 17.508c4.93-18.831 20.531-17.324 25.194.14.055.208 1.017-1.215 1.065-1C22.145-5.519 3.424-3.474 0 18.37l.86-.861zm106.186 0c4.931-18.831 20.531-17.324 25.194.14.055.208 1.017-1.215 1.065-1-4.974-22.167-23.695-20.122-27.119 1.722l.86-.861zm35.155-.934c1.236 0 2.18-.265 2.832-.793.653-.528.979-1.201.979-2.018 0-.817-.314-1.49-.944-2.018-.629-.529-1.527-.793-2.692-.793h-4.546v5.623h4.371zm-4.371-11.053v4.71h4.197c2.26 0 3.985.328 5.174.984 1.189.657 1.783 1.506 1.783 2.547 0 1.01-.606 1.85-1.817 2.524-1.213.672-2.926 1.009-5.14 1.009h-7.344V5.52h3.147zm-36.244 11.077v-5.646h-5.062c-1.163 0-2.068.28-2.716.84-.648.56-.972 1.258-.972 2.09 0 .834.285 1.494.855 1.983.57.489 1.424.733 2.564.733h5.331zm0-8.458c0-.769-.274-1.326-.822-1.67-.547-.345-1.603-.517-3.168-.517-1.61 0-2.704.172-3.285.517-.581.344-.872.941-.872 1.79h-2.782c0-1.01.625-1.766 1.877-2.271 1.252-.504 2.94-.756 5.063-.756 2.658 0 4.497.232 5.514.696 1.017.465 1.525 1.305 1.525 2.524v8.841h-9.152c-1.81 0-3.19-.304-4.14-.913-.95-.608-1.424-1.402-1.424-2.378 0-1.105.58-2.01 1.742-2.715 1.163-.706 2.838-1.058 5.03-1.058h4.893V8.14h.001zm-31.42-2.512h3.314l6.893 9.083 6.439-9.083h1.047L76.517 21.726h-1.046l3.35-4.757-8.655-11.341zm-13.993.106h11.489v.721h-4.157V17.51h-3.041V6.455h-4.292v-.72z" fill="#C7C7C7"/></svg>