<svg width="117" height="18" fill="none" xmlns="http://www.w3.org/2000/svg"><path d="M54.494 6.928A.94.94 0 0155.426 6c.504 0 .925.424.925.928a.93.93 0 01-.925.926.936.936 0 01-.932-.926zm2.448 0c0-.504.422-.928.932-.928a.94.94 0 01.93.928.935.935 0 01-.93.926.934.934 0 01-.932-.926zM55.763 8.96c0-.513.337-.93.842-.93.505 0 .93.417.93.93a.937.937 0 01-.93.928c-.505 0-.842-.42-.842-.929zM4.917 10.056L5.9 4.824l.003.006v-.003.003-.008l.986 5.234H4.917zm6.846 5.185c-.058-.06-.254-.175-.541-.396-.432-.325-.957-.81-1.097-1.323L8.068 2.808s-.138-.574-.056-1.014c.138-.688.543-.946.584-.989.052-.056.066-.093-.003-.215 0 0-.506-.896-1.703-.253l-.986.501-.987-.5C3.719-.307 3.214.59 3.214.59c-.069.122-.055.159-.003.215.042.043.446.301.584.99.083.439-.055 1.013-.055 1.013L1.683 13.522c-.14.514-.667.998-1.095 1.323-.291.22-.486.335-.546.396-.064.073-.055.15.027.226 0 0 .414.434.896.512.411.068.903-.107 1.27-.354.32-.234.573-.405.599-.42v-.007s.167.119.507.367c.369.249.81.482 1.22.414.483-.08.897-.512.897-.512.08-.075.09-.15.026-.225-.032-.033-.3-.228-.392-.314-.25-.232-.65-.649-.716-.92a2.156 2.156 0 01-.038-.643c.01-.125.068-.47.068-.47l.156-.81h2.686l.15.81s.063.345.069.47c.014.166.019.415-.037.643-.067.286-.513.736-.756.957-.074.067-.318.244-.352.277-.063.074-.054.15.027.224 0 0 .414.436.899.513.409.068.85-.164 1.215-.414.343-.248.512-.367.512-.367v.006c.026.016.277.187.598.42.367.248.86.423 1.27.355.48-.08.896-.512.896-.512.08-.075.09-.15.024-.226zm25.373-5.185l.987-5.232v.006-.003.003-.008l.986 5.234h-1.973zm6.85 5.185c-.063-.06-.256-.175-.545-.396-.43-.325-.955-.81-1.096-1.323l-2.06-10.714s-.135-.574-.054-1.014c.137-.688.542-.946.584-.989.05-.056.065-.093-.003-.215 0 0-.506-.896-1.703-.253l-.986.501-.987-.5C35.94-.307 35.433.59 35.433.59c-.068.122-.054.159 0 .215.04.043.442.301.58.99.08.439-.054 1.013-.054 1.013l-2.056 10.714c-.14.514-.669.998-1.097 1.323-.29.22-.483.335-.546.396-.063.073-.054.15.029.226 0 0 .412.434.893.512.414.068.905-.107 1.273-.354.321-.234.57-.405.598-.42v-.007s.169.119.51.367c.365.249.807.482 1.218.414.481-.08.895-.512.895-.512.08-.075.091-.15.027-.225-.03-.033-.297-.228-.391-.314-.25-.232-.652-.649-.716-.92a2.127 2.127 0 01-.038-.643c.01-.125.07-.47.07-.47l.153-.81h2.685l.152.81s.061.345.071.47c.012.166.016.415-.038.643-.069.286-.515.736-.758.957-.072.067-.318.244-.351.277-.06.074-.054.15.027.224 0 0 .413.436.895.513.414.068.855-.164 1.218-.414l.51-.367.002.006c.026.016.28.187.6.42.365.248.856.423 1.267.355.483-.08.897-.512.897-.512.082-.075.092-.15.028-.226zM17.889 8.959c1.018.084 1.27.508 1.27 1.61v1.937c0 .767-.419 1.36-1.27 1.442h-.167c-.764 0-1.102-.252-1.102-.93v-4.06h1.269zm4.6-3.533c-.057-.06-.24-.175-.513-.395-.125-.1-.24-.221-.346-.352-.234-.286-.313-.743-.338-1.367-.012-.23 0-.386 0-.386l-.003.001c.028-.425.114-1.046.34-1.324.107-.132.222-.252.347-.352.272-.22.456-.335.512-.394.062-.077.054-.153-.024-.226 0 0-.39-.434-.844-.514-.387-.068-.848.106-1.193.355-.16.122-.343.273-.484.387l-.023-.02c-.593-.42-1.35-.673-2.031-.673h-.167c-.845 0-1.86.171-2.626.761l-.005.005c-.141-.116-.377-.31-.57-.46-.346-.249-.81-.423-1.194-.355-.453.08-.845.514-.845.514-.076.073-.086.151-.027.226.06.06.242.173.516.394.124.1.237.221.347.352.306.369.325 1.042.35 1.454v9.962c0 .568-.099 1.148-.35 1.455a2.122 2.122 0 01-.347.355c-.274.22-.456.332-.516.395-.059.073-.05.15.027.224 0 0 .392.434.845.515.384.066.848-.106 1.194-.355.173-.135.38-.306.523-.425l.2.11c1.019.534 1.678.768 2.645.768h.166c2.792 0 3.978-1.354 3.978-4.65 0-3.129-.932-4.14-4.144-4.228H16.62V3.885c0-.926.258-1.69 1.269-1.69.584 0 1.026.35 1.19.86.264.81-.099 1.468-.227 1.624-.103.13-.221.252-.346.352-.273.22-.456.336-.512.395-.06.074-.053.152.025.225 0 0 .39.433.841.515.388.067.849-.107 1.195-.355l.187-.147c.062.05.123.1.185.147.346.248.808.422 1.193.355.454-.082.845-.515.845-.515.077-.073.085-.15.023-.225zm8.029.098c0 1.102-.253 1.525-1.271 1.608H27.98V3.073c0-.679.337-.928 1.098-.928h.169c.849.082 1.27.673 1.27 1.44v1.94zM29.414.03h-.167c-.965 0-1.628.232-2.643.77a8.86 8.86 0 00-.202.107c-.143-.119-.35-.288-.527-.424-.342-.247-.806-.421-1.192-.354-.454.081-.844.514-.844.514-.074.074-.084.15-.023.224.058.062.238.176.51.395.125.1.244.22.349.354.14.173.24.476.291.785.041.24.056 1.014.056 1.014v9.476c-.014.368-.074 1.239-.352 1.583a2.145 2.145 0 01-.35.355c-.272.22-.454.332-.512.395-.059.072-.05.15.027.224 0 0 .39.434.84.514.387.067.85-.105 1.195-.354.228-.177.509-.41.634-.511.123.101.405.335.631.511.346.249.809.421 1.194.354.454-.08.844-.514.844-.514.075-.073.086-.152.024-.224-.056-.063-.239-.176-.513-.395a2.107 2.107 0 01-.346-.355c-.358-.439-.358-1.752-.358-1.752V8.91h1.267c3.212-.088 4.144-1.1 4.144-4.231 0-3.295-1.186-4.65-3.977-4.65zm63.361 5.494c0 1.102-.253 1.525-1.272 1.608h-1.266V3.073c0-.679.337-.928 1.099-.928h.167c.848.082 1.272.673 1.272 1.44v1.94zM91.67.03h-.167c-.967 0-1.627.232-2.643.77-.026.013-.117.06-.2.107a23.02 23.02 0 00-.526-.424C87.788.236 87.328.062 86.94.13c-.454.081-.843.514-.843.514-.077.074-.084.15-.025.224.056.062.24.176.513.395.125.1.238.222.347.354.199.24.276.627.313.981.042.23.034.744.034.744v9.55c-.012.368-.073 1.239-.354 1.583a2.166 2.166 0 01-.344.355c-.272.22-.46.332-.514.395-.06.072-.05.15.025.224 0 0 .388.434.841.514.388.067.852-.105 1.195-.354.226-.177.507-.41.632-.511.126.101.407.335.635.511.343.249.804.421 1.192.354.455-.08.844-.514.844-.514.075-.073.083-.152.023-.224-.056-.063-.24-.176-.51-.395a1.966 1.966 0 01-.349-.355c-.358-.439-.358-1.752-.358-1.752V8.91h1.266c3.215-.088 4.144-1.1 4.144-4.231 0-3.295-1.186-4.65-3.977-4.65zM54.08.626s-.391-.434-.845-.514c-.384-.067-.848.104-1.193.354a24.22 24.22 0 00-.632.512 26.6 26.6 0 00-.633-.512c-.342-.25-.805-.42-1.192-.354-.454.08-.792.514-.792.514-.075.074-.086.15-.026.225.057.06.19.175.462.394.124.1.238.221.347.353.33.408.335 1.162.354 1.548v3.951c-.42.086-.592.086-.846.086-1.354 0-1.773-.336-1.773-1.69V3.25s-.028-.688.05-1.075c.045-.226.106-.44.218-.576a2.29 2.29 0 01.345-.353c.274-.219.423-.347.481-.407.062-.075.053-.152-.023-.226 0 0-.36-.42-.814-.5-.384-.067-.845.104-1.194.354-.151.118-.326.26-.462.372-.14-.111-.314-.254-.468-.372-.344-.25-.806-.42-1.193-.354-.454.08-.843.514-.843.514-.076.074-.085.15-.025.225.057.06.24.175.512.394.125.1.242.22.347.353.182.223.245.64.27 1.013.004.041.007.256.007.256V4.65c0 3.38 1.01 4.309 4.732 4.309h.679v3.382c0 .932-.252 1.694-1.264 1.694a1.22 1.22 0 01-.856-.327c-.137-.129-.474-.458-.372-1.46.029-.28.156-.556.284-.713.105-.132.223-.25.348-.353.272-.22.456-.333.512-.393.059-.076.05-.151-.024-.224 0 0-.39-.435-.844-.516-.385-.066-.85.108-1.194.354-.059.047-.125.098-.185.147l-.185-.147c-.347-.246-.807-.42-1.195-.354-.453.08-.845.516-.845.516-.075.073-.081.148-.024.224.058.06.24.174.513.393.125.102.245.22.346.353.136.163.22.453.271.747.079.931.136 1.301.173 1.443.444 1.646 2.133 2.337 3.442 2.337 1.69 0 4.058-.767 4.058-3.72V3.224c.008-.341-.01-1.18.356-1.627.108-.132.223-.253.345-.353.276-.219.46-.334.515-.394.059-.074.05-.151-.026-.225zM65.472 3.79v7.587s-.023 1.62-.02 1.866c.001.245-.023.628-.686.628h-2.514s.25-.202.45-.96c.08-.305.115-.91.135-1.15.197-2.29.122-4.35.223-6.685.02-.45.031-1.416.108-1.802.106-.617.464-1.032 1.162-1.104h.046c.568 0 .901.19 1.032.571.092.255.064 1.05.064 1.05zm3.011-1.35c.046-.324.128-.654.277-.836.103-.133.221-.253.347-.353.273-.219.454-.335.51-.394.063-.077.053-.153-.022-.225 0 0-.39-.435-.845-.514-.386-.069-.848.106-1.194.352-.212.169-.472.383-.61.495L66.4.65c-.663-.333-1.061-.46-1.576-.54-.136-.02-.723-.093-1.242 0-1.523.268-2.62 1.253-2.924 3.435-.126.903-.155 3.757-.159 5.344-.002 1.356.004 2.723-.21 3.63-.043.18-.207.865-.606 1.24-.201.192-.557.287-.781.343-.466.091-.458.548-.465.602-.018.146-.029.267-.153.939-.171.92-.531 1.142-.45 1.282.085.14.698.306 1.42-.11.72-.417.694-1.172.694-1.172h7.745s.048.421.444.893c.447.527 1.336.446 1.446.334.05-.052-.096-.561-.167-1.055-.087-.6-.113-1.206-.138-1.294-.064-.256-.307-.447-.635-.514-.066-.014-.213-.026-.213-.026l-.004-.591V3.814s-.022-.778.057-1.373zm13.606 10.15c0 .767-.593 1.36-1.351 1.36-.674 0-1.267-.593-1.267-1.36V3.46c0-.757.593-1.348 1.267-1.348.758 0 1.35.591 1.35 1.349v9.13zM80.738 0c-2.448 0-4.055 1.179-4.055 3.548v3.55H74.82V3.2c.013-.352.07-1.254.356-1.606a2.26 2.26 0 01.348-.354c.272-.218.456-.333.512-.392.06-.077.05-.153-.025-.228 0 0-.39-.433-.844-.512-.386-.067-.847.106-1.195.353-.225.177-.507.41-.63.514a31.675 31.675 0 00-.632-.514c-.345-.247-.81-.42-1.195-.353-.452.079-.841.512-.841.512-.08.075-.086.151-.026.228.057.059.239.174.513.392.123.1.24.22.345.354.273.335.337 1.168.355 1.552v9.776c-.018.383-.082 1.22-.355 1.552a2.078 2.078 0 01-.346.355c-.273.219-.455.332-.512.395-.06.073-.053.15.026.224 0 0 .39.433.841.515.384.066.85-.106 1.195-.355.226-.176.508-.41.633-.511.122.101.404.335.63.511.347.249.808.42 1.194.355.454-.082.844-.515.844-.515.076-.073.085-.151.025-.224-.056-.063-.24-.176-.512-.395a2.117 2.117 0 01-.348-.355c-.285-.35-.343-1.25-.356-1.604V8.959h1.862v3.632c0 2.286 1.607 3.47 4.055 3.47 2.454 0 4.145-1.184 4.145-3.47V3.548C84.883 1.18 83.193 0 80.738 0zm24.204 9.27c-.384-.062-.846.117-1.189.37l-.182.148-.187-.143c-.349-.245-.813-.41-1.198-.338-.452.085-.837.522-.837.522-.074.076-.081.154-.022.227.058.06.241.171.515.387.128.1.247.217.356.348.18.218.287.653.344 1.037.048.314.035.84.035.877-.035.707-.387 1.243-1.348 1.243-.676 0-1.343-.591-1.343-1.357v-9.13c0-1.094.59-1.349 1.266-1.349.872 0 1.244.504 1.33 1.075.035.24.033 1.247-.019 1.498a1.37 1.37 0 01-.249.563 2.365 2.365 0 01-.339.36c-.271.222-.455.337-.509.4-.058.075-.049.152.027.226 0 0 .397.427.851.5.387.062.847-.115 1.189-.368.057-.046.122-.098.184-.15.064.05.127.101.186.145.348.244.813.41 1.197.337.456-.084.837-.522.837-.522.077-.076.084-.15.024-.226-.059-.059-.243-.17-.519-.388a2.262 2.262 0 01-.35-.347c-.181-.219-.302-.651-.346-1.037a17.214 17.214 0 01-.036-.946v-.865c0-.337.176-.675.512-1.016l.589-.513c0-.074 0-.16-.082-.16l-.417-.43c-.09-.082-.51-.248-1.193.172l-.761.507C102.585.25 101.651 0 100.896 0c-2.112 0-3.803 1.18-3.803 3.55v9.041c0 2.286 1.69 3.47 3.803 3.47 1.391 0 3.628-.79 3.782-3.201.018-.2.009-.808.011-1.01a2.91 2.91 0 01.036-.53 1.43 1.43 0 01.246-.563 2.29 2.29 0 01.343-.36c.271-.22.451-.336.508-.398.057-.077.049-.153-.03-.227 0 0-.396-.427-.85-.501zm7.92 3.32c0 .767-.589 1.36-1.347 1.36-.679 0-1.268-.593-1.268-1.36V3.46c0-.757.589-1.348 1.268-1.348.758 0 1.347.591 1.347 1.349v9.13zM116.851.62s-.389-.433-.844-.512c-.386-.067-.848.106-1.193.353-.137.107-.29.232-.42.338-.723-.534-1.716-.799-2.879-.799-2.45 0-4.058 1.179-4.058 3.548v9.043c0 2.286 1.608 3.47 4.058 3.47 2.45 0 4.141-1.184 4.141-3.47l.002-8.778s-.002-.605.013-.811c.023-.419.103-1.113.346-1.408.105-.134.22-.254.346-.354.274-.218.456-.333.514-.392.06-.077.052-.153-.026-.228z" fill="#C7C7C7"/></svg>