<svg width="105" height="21" fill="none" xmlns="http://www.w3.org/2000/svg"><path fill-rule="evenodd" clip-rule="evenodd" d="M80.265.175c1.776-.41 3.707-.096 5.254.892 1.686 1.033 2.875 2.841 3.234 4.811.293 1.686.02 3.488-.85 4.961a7.04 7.04 0 01-4.856 3.444c-2.127.39-4.427-.272-5.996-1.802-1.694-1.55-2.53-3.984-2.207-6.278.356-2.9 2.622-5.419 5.421-6.028zm.453 3.211c-1.914.538-3.194 2.73-2.687 4.703.39 1.928 2.35 3.334 4.258 3.053 2.097-.202 3.746-2.38 3.387-4.506-.257-2.321-2.778-3.998-4.958-3.25zM19.508.299c1.938.029 3.877-.01 5.815.018 2.346.1 4.474 1.938 4.976 4.276.373 1.617-.012 3.4-1.03 4.697-.944 1.224-2.41 2.014-3.935 2.101-.93.046-1.862.002-2.793.023-.015.737.145 1.615-.42 2.196-.672.73-1.73.407-2.595.476-.062-1.05-.022-2.103-.032-3.153.01-3.544-.021-7.09.014-10.634zm3.031 7.994c.837.009 1.676.012 2.515.006.909.001 1.773-.599 2.138-1.443.63-1.304-.184-3.04-1.567-3.369-1.012-.177-2.048-.02-3.07-.092-.03 1.633-.004 3.265-.016 4.898zm9.258-6.383c-.043-.771.573-1.517 1.33-1.58.566-.051 1.136-.013 1.704-.02.012 2.856.001 5.713.004 8.569 2.004-2.733 4.11-5.387 6.136-8.105.162-.158.268-.458.526-.457.91-.024 1.825.002 2.736-.006-.019 4.095.005 8.19-.011 12.285.01.759-.645 1.44-1.379 1.478-.555.029-1.11.004-1.667.009.027-2.834.06-5.673-.016-8.505-2.128 2.855-4.32 5.659-6.46 8.503-.968.007-1.936.002-2.904.002.004-4.057.003-8.116.001-12.173zM46.328.314C49.1.3 51.87.316 54.64.305c1.157-.027 2.306.496 3.077 1.376 1.055 1.134 1.359 2.898.81 4.35-.136.426-.464.764-.585 1.191.483.796.899 1.677.852 2.642.06 2.156-1.767 4.11-3.867 4.202-2.34.038-4.681.008-7.021.018-.8.046-1.557-.645-1.569-1.468-.015-4.1.005-8.202-.01-12.302zm3.045 3.095c.01.746.01 1.49.002 2.236 1.809-.002 3.62 0 5.428-.034.437-.013.775-.395.923-.79.19-.676-.373-1.453-1.074-1.409-1.76-.007-3.52-.003-5.279-.003zm.002 5.339c.004.742.006 1.484.003 2.225 1.753.021 3.507.007 5.26-.005.488.034.934-.344 1.071-.808.23-.68-.365-1.475-1.069-1.42-1.755-.018-3.51.023-5.265.008zM64.739.314C68.137.307 71.536.31 74.935.313c-.12.875.26 1.959-.447 2.647-.329.37-.834.478-1.305.452-1.782-.02-3.564.023-5.345-.024-.103.779-.034 1.564-.054 2.345.014 2.192-.013 4.383.015 6.573.003.487-.093 1.018-.48 1.345-.69.68-1.724.365-2.58.427.012-4.587.013-9.177 0-13.764zM90.22.302c1.02.016 2.04 0 3.06.012-.01 3.56-.027 7.119.007 10.678.912-.023 1.823.002 2.735-.02-.006-3.551.003-7.105-.006-10.657 1.021-.007 2.044-.02 3.065.008-.036 3.55-.003 7.1-.018 10.65.918.017 1.835.007 2.753.008.009-3.556.015-7.112-.003-10.669.623.016 1.254-.058 1.875.046.687.15 1.203.838 1.166 1.558l.001 12.171c-4.333-.008-8.666-.005-12.997-.003-.498.02-1.002-.186-1.308-.594-.348-.41-.326-.986-.343-1.493.014-3.899-.008-7.797.014-11.695zM.007 7.903c2.018.005 4.036-.003 6.055.003.007 2.06.007 4.118 0 6.177-1.054-.003-2.107.009-3.16-.003-1.48-.023-2.822-1.33-2.89-2.847-.025-1.108-.004-2.22-.005-3.33zm33.495 8.711l.326-.015c.01.434.008.867-.016 1.3.342-.38.883-.59 1.365-.353 1.02.43.95 2.22-.123 2.537-.457.185-.91-.085-1.236-.397.013.426.015.85.01 1.277l-.327-.017c-.002-.417 0-.834.018-1.25-.311.291-.72.552-1.159.403-1.16-.23-1.247-2.22-.132-2.576.462-.197.951.012 1.286.35a27.83 27.83 0 01-.012-1.259zm-1.236 1.246c-.588.286-.634 1.19-.251 1.663.45.54 1.468.206 1.475-.524.202-.714-.522-1.517-1.224-1.139zm2.078-.018c-.78.37-.66 1.878.263 1.959.66.092 1.087-.64.948-1.237-.05-.576-.692-.977-1.211-.722zm-14.85-.318a86.6 86.6 0 012.357.005c0 .848.006 1.697-.007 2.544a25.695 25.695 0 01-.338-.02c-.001-.74-.006-1.483.006-2.223-.553-.002-1.108 0-1.66.01.005.747.005 1.494 0 2.24l-.358-.028v-2.528zm3.908.81c.12-.368.316-.78.74-.837.509-.095 1.277-.134 1.513.452.068.56.02 1.127.038 1.692l.389.343c-.292.084-.664.162-.767-.223-.436.353-1.044.477-1.567.268-.477-.185-.57-.953-.13-1.23.56-.328 1.288-.119 1.82-.526-.252-.762-1.52-.674-1.708.097l-.328-.036zm.348.777c-.293.62.558.841.981.637.485-.077.639-.58.67-1.013-.552.113-1.138.126-1.65.376zm3.637-1.533c.074-.027.224-.085.299-.114l.012.447c.55-.675 1.723-.6 2.15.172.366.682.12 1.712-.655 1.96-.527.233-1.107.024-1.501-.36.013.428.014.86.014 1.288l-.337-.02c.025-1.123-.018-2.249.018-3.373zm.844.296c-.749.332-.684 1.675.132 1.879.646.247 1.422-.332 1.283-1.054.025-.718-.83-1.129-1.415-.825zm9.341-.322l.313-.06c-.003.352-.01.701-.02 1.051l.51.037c.214-.524.54-1.112 1.17-1.141.83-.192 1.678.545 1.572 1.42.053 1.022-1.148 1.599-1.975 1.164-.451-.188-.632-.678-.728-1.127-.18.001-.359.004-.537.006-.001.39-.001.783-.003 1.174-.08-.003-.24-.01-.321-.012.015-.837-.033-1.677.02-2.512zm1.726.322c-.706.347-.672 1.617.095 1.876.597.26 1.383-.174 1.371-.872.133-.8-.797-1.393-1.466-1.004zm3.213-.344c.166-.002.334-.004.501-.004.308.657.618 1.312.953 1.955.034-.01.101-.026.134-.034.33-.629.613-1.284.93-1.922.155.003.311.004.466.006-.008.844-.007 1.689-.002 2.535l-.343-.002c-.004-.7-.001-1.403.017-2.104-.337.678-.613 1.388-.995 2.041l-.305.005c-.385-.657-.671-1.37-.979-2.066-.024.708-.016 1.418-.015 2.129l-.36-.006c.003-.845.003-1.69-.002-2.534zm5.06.062c.556-.296 1.34-.224 1.752.29.23.28.248.66.313 1.003-.791.005-1.58-.006-2.372.019.12.403.33.855.796.902.49.142.854-.252 1.178-.554l.311.01c-.259.826-1.28 1.138-1.985.72-.848-.47-.838-1.921.007-2.39zm-.275.982c.644.01 1.289.006 1.933.004-.072-1.088-1.845-1.084-1.933-.004zm3.732-1.089c.245.01.377.145.392.41.519-.719 1.768-.535 2.12.263.33.686.048 1.688-.72 1.9-.518.197-1.09.018-1.46-.38.01.429.01.86.01 1.29l-.348.001c.008-1.162-.007-2.322.006-3.484zm.957.357c-.816.248-.825 1.65-.002 1.89.652.285 1.452-.291 1.331-1.027.008-.677-.74-1.112-1.33-.863zm3.109-.319c.088.002.263.003.351.003-.004.7-.009 1.397-.003 2.095.511-.693 1.033-1.379 1.53-2.084l.456-.015c-.012.845-.012 1.693-.005 2.54h-.348c-.003-.708-.005-1.418 0-2.127-.513.71-1.035 1.411-1.555 2.115-.103.008-.311.02-.416.028-.007-.852.002-1.703-.01-2.555zm4.143.081c.6-.158 1.23-.06 1.843-.078.005.846.005 1.692-.001 2.537l-.329-.006c-.002-.354-.004-.707-.008-1.06-.282 0-.565 0-.844.002-.22.357-.441.713-.667 1.066l-.383.006c.21-.352.423-.698.649-1.039-.667-.105-.9-1.123-.26-1.427zm.15.283c-.243.162-.249.566-.007.73.445.122.912.06 1.367.076l.005-.844c-.457.003-.916-.039-1.366.038zm5.678-.369l.36.014c-.043.695-.04 1.391.008 2.084.503-.687.97-1.406 1.525-2.049l.435-.075a79.91 79.91 0 00.003 2.544l-.323.054c-.058-.72-.038-1.445-.004-2.166-.498.634-.961 1.294-1.44 1.943-.108.217-.366.175-.56.23-.007-.86 0-1.719-.004-2.579zm6.292.054l.383-.076c-.003.374-.005.748.001 1.12.667-.322 1.089-1.184 1.905-1.111-.351.337-.734.64-1.115.94.44.543.882 1.081 1.326 1.622l-.486-.017c-.365-.467-.75-.918-1.12-1.379-.19.194-.546.32-.51.648-.013.25-.007.502-.006.752l-.332-.007c-.018-.83.032-1.663-.046-2.492zm4.257-.022c.89-.473 2.107.26 1.963 1.323.04 1.006-1.136 1.579-1.958 1.162-.96-.427-.957-2.05-.005-2.484zm.16.318c-.74.324-.695 1.666.105 1.888.723.335 1.567-.439 1.314-1.21-.075-.658-.878-.97-1.419-.678zm3.746-.29c.697-.395 1.711-.056 1.896.779l-.34.004c-.222-.426-.68-.745-1.164-.574-.686.162-.898 1.083-.543 1.64.26.332.729.489 1.125.342.433-.082.465-.733.957-.685-.106.956-1.276 1.368-2.017.87-.817-.508-.773-1.938.086-2.376zm3.246-.052c.16.002.321.002.484.003.329.701.667 1.397 1.006 2.094.332-.701.679-1.393 1.01-2.092l.457-.012c0 .853.004 1.707-.001 2.56-.086-.007-.256-.024-.341-.032.007-.696.018-1.39 0-2.086-.308.688-.591 1.391-.975 2.039l-.302.006c-.384-.652-.661-1.365-.995-2.045-.001.706.005 1.411-.003 2.115l-.337-.018c-.002-.845.004-1.689-.003-2.532zm4.64 2.097c-.548-.778-.122-2.132.89-2.19.857-.18 1.635.582 1.553 1.458-.78-.007-1.561-.01-2.34.006.1.35.233.767.63.861.487.214.965-.087 1.272-.46l.366-.08c-.232 1.073-1.8 1.264-2.371.404zm.106-1.077c.656.052 1.316.05 1.972.002-.15-1.053-1.81-1.046-1.972-.002zm3.444-1.026c.817.02 1.64-.053 2.455.058-.208.437-.75.199-1.117.261.007.737 0 1.474.004 2.212l-.326.024c-.004-.748-.006-1.497-.004-2.245h-1.006l-.006-.31zm3.634 0l.336.005c.003.705-.003 1.41.005 2.116.504-.702 1.039-1.379 1.525-2.093.154-.012.308-.025.465-.035-.006.85-.005 1.702-.002 2.553l-.348-.008c.002-.705.005-1.412-.001-2.12-.486.66-.96 1.33-1.457 1.98-.113.18-.35.128-.521.177.003-.858.005-1.716-.002-2.575zm3.915.008a18.6 18.6 0 01.334-.005c.001.386.001.774.004 1.164.62-.402 1.09-1.242 1.905-1.17-.347.33-.721.626-1.104.909.423.574.911 1.096 1.323 1.68-.227-.043-.503-.018-.641-.245-.327-.388-.632-.793-.966-1.174l-.507.374c-.01.336-.012.672-.012 1.008a22.236 22.236 0 01-.336-.01c.003-.844.006-1.687 0-2.531zm3.655.819c.115-1.01 1.545-1.177 2.158-.57.26.6.085 1.296.125 1.935.09.013.271.039.361.05-.051.33-.329.308-.585.296a22.348 22.348 0 00-.151-.314c-.44.396-1.105.504-1.634.245-.441-.228-.467-.955-.035-1.205.48-.26 1.055-.182 1.566-.348.202-.104.076-.365.099-.542-.552-.2-1.37-.243-1.572.462a25.273 25.273 0 00-.332-.009zm.479.657c-.065.078-.195.23-.259.308.169.646.97.585 1.413.284.314-.164.28-.561.339-.864-.497.092-.995.184-1.493.272zM.008.31C2.027.307 4.045.307 6.064.307c.005 2.057.004 4.114 0 6.169l-6.051.001C.003 4.422.013 2.365.008.31zM7.436.304c2.013.005 4.027.007 6.04 0 .012 2.057.01 4.114.002 6.171-2.015.01-4.03.008-6.046.002.006-2.059 0-4.116.004-6.173zm.003 7.601c2.015 0 4.03-.008 6.046.003-.014 2.058-.005 4.118-.006 6.176-2.014.005-4.028-.003-6.042.003-.012-2.061-.015-4.123.002-6.182z" fill="#C7C7C7"/></svg>