<svg width="80" height="19" fill="none" xmlns="http://www.w3.org/2000/svg"><path d="M46.417 16.688c0 .152.041.235.138.235.07 0 .124-.028.193-.07L71.67.65c.442-.29.843-.442 1.436-.442h5.485c.843 0 1.409.567 1.409 1.41v10.457c0 1.257-.276 1.99-1.41 2.666l-6.644 3.993a.44.44 0 01-.22.082c-.084 0-.153-.055-.153-.29V6.313c0-.138-.041-.235-.138-.235a.367.367 0 00-.193.07L53.02 17.987c-.511.331-.925.428-1.395.428H39.537c-.843 0-1.409-.567-1.409-1.41V1.949c0-.11-.055-.207-.138-.207a.367.367 0 00-.194.069L25.779 9.035c-.124.069-.152.138-.152.193 0 .055.014.097.11.18l8.58 8.578c.11.11.193.208.193.29 0 .097-.125.152-.277.152H26.47c-.608 0-1.078-.096-1.41-.428l-5.207-5.208c-.056-.055-.097-.083-.152-.083a.467.467 0 00-.166.056L10.83 18c-.525.318-.885.415-1.41.415H1.41c-.843 0-1.409-.567-1.409-1.41V6.742c0-1.27.276-1.989 1.41-2.666L8.094.055A.334.334 0 018.275 0c.097 0 .152.11.152.332v13.731c0 .138.041.207.138.207.055 0 .124-.041.193-.082L31.345.607c.539-.318.87-.415 1.492-.415h12.157c.843 0 1.41.567 1.41 1.41l.013 15.085z" fill="#C7C7C7"/></svg>