<svg width="98" height="24" fill="none" xmlns="http://www.w3.org/2000/svg"><path d="M78.004 20.488c7.088-3.73 8.79-8.457 6.606-9.779-3.222-1.805-12.056 1.423-11.055 10.258-.438.262-1.308.734-1.308.734l.588 1.787s1.232-.738 1.565-.967c1.04.839 1.575 1.3 3.182 1.331 3.413.071 6.36-3.715 6.36-3.715l-.868-1.332s-3.752 3.601-5.07 1.683zm.942-5.414c1.013-1.798 2.665-3.203 3.466-2.642.803.558-.823 3.402-4.643 6.428-.153-.266.157-1.982 1.177-3.786zm-67.043 7.99c-1.705-1.777-.094-7.787.239-9.082a.19.19 0 00-.185-.238.19.19 0 00-.17.105c-.72 1.45-4.613 10.001-8.061 10.001-.064 0-.131 0-.197-.004-3.33-.312-2.895-4.914-1.86-7.702h5.37c-.437 1.205-.588 1.963-.573 2.358.01.286.25.432.48.31.556-.29 1.473-1.492 2.27-2.877 1.454-2.526 3.32-6.33 6.545-15.935h5.897c-1.748 5.35-3.17 10.19-3.945 15.723-.039.276.278.507.53.27C19.926 14.413 26.056 1.153 26.44 0h5.904s-5.854 16.212-5.363 18.91c.066.367.445.464.754.112.359-.41.917-1.137 1.246-1.519l.913.911c-1.68 2.072-4.406 5.822-7.13 5.371-.422-.07-.831-.31-1.136-.622-2.835-2.463 1.12-10.692 1.813-12.625.154-.428.304-.819.4-1.063a.191.191 0 00-.35-.151l-.63 1.338c-1.756 3.616-5.784 13.188-9.093 13.188-.52 0-1.295-.194-1.866-.785zm57.06-19c-2.62.034-3.955 1.4-3.955 1.4l.068 1.604s1.668-1.662 3.566-.961c1.29.476 2.57 2.118 1.693 5.754-.788-2.02-3.841-2.467-6.297.174-1.96 2.107-4.608 9.14-.698 11.306 4.86 2.691 9.125-5.192 10.109-10.568.62-3.389.99-8.78-4.486-8.71zm-2.038 16.298c-.524.373-1.45.564-1.627-1.085-.255-2.369 1.384-5.226 1.893-5.89.869-1.134 2.081-1.22 2.106.499.029 1.977-1.065 5.544-2.372 6.476zM52.256 2.732c-2.832-.987-12.866 2.193-16.151 13.285-.403.112-2.332.608-2.332.608l-.84 2.271 2.984-.912s-.327 5.7 4.683 5.866c3.94-.146 6.049-5.9 4.822-9.6-.25.123-3.463 1.486-3.463 1.486s.642 3.74-.76 4.607a.491.491 0 01-.684-.139c-.407-.566-.667-2.034-.211-3.988 7.214-3.75 12.137-10.35 12.437-12.621a.796.796 0 00-.485-.863zm-8.97 9.82c-1.338 1.024-2.375 1.534-2.375 1.534s.37-.87.668-1.371c.77-1.3 4.503-6.307 7.616-7.236.12-.037.21.051.207.174-.03 1.092-3.98 5.267-6.115 6.9zm15.07 8.37a15.499 15.499 0 001.121-.809l.4 1.223c-.237.251-2.166 1.78-3.363 2.339-1.293.603-2.485-.192-2.647-1.165-.187-1.114.389-2.57.389-2.57s-2.062 2.348-4.163 3.492c-.583.318-1.028.445-1.384.437-1.414-.035-1.858-1.404-1.703-2.137.185-.874 2.098-6.766 2.34-7.734.024-.096-.071-.208-.2-.173-.58.16-2.1 1.151-2.1 1.151V13.34s4.181-2.839 5.286-3.152c1.02-.29 1.893.294 1.637 1.454-.118.805-2.608 7.616-2.764 8.44-.031.164.14.177.188.163.812-.248 2.309-1.518 3.454-3.327 1.07-1.69 1.804-3.837 2.692-6.486h3.815s-2.884 8.843-3.21 10.31c-.035.16.13.233.212.181zm30.523 2.94c-2.04-.014-2.987-1.71-3.22-2.257-2.33-5.786 4.5-11.163 4.5-11.163h3.957s-6.024 4.818-5.19 9.088c.561 2.073 2.357 1.529 3.53-.104 1.426-1.984 2.71-5.897 1.743-6.003-.9-.099-2.094 1.845-2.094 1.845l-.007-.006-.836-1.276c.65-.842 2.5-3.042 4.559-3.73.31-.097 2.179-.587 2.179 2.17 0 2.949-3.287 11.472-9.121 11.435zm-55.595-1.593a1.58 1.58 0 11-3.161 0 1.58 1.58 0 013.162 0z" fill="#C7C7C7"/></svg>