<svg width="107" height="16" fill="none" xmlns="http://www.w3.org/2000/svg"><path d="M47.777.1c.308.03.666-.086.945.067 3.004 2.812 5.995 5.645 9.003 8.453.007-2.815.014-5.63-.002-8.445 1.204-.013 2.409.007 3.612-.008-.001 5.251.016 10.503-.008 15.752-.313-.039-.705.082-.94-.192-2.989-2.928-5.99-5.845-8.959-8.794-.03 2.966-.012 5.93-.01 8.896-1.207.022-2.414.002-3.62.009-.047-5.245-.004-10.491-.021-15.737zM0 15.783l4.872-.01c.617-.002 1.34-.121 1.967-.718a271.672 271.672 0 004.48-4.403c1.288-1.287 2.397-2.427 3.366-3.321.736-.68 1.089-1.393 1.089-1.958V.002h-5.177c-.667-.03-1.254.532-1.984 1.176-1.027.906-2.063 2.012-3.174 3.118C4.212 5.52 2.91 6.748 1.841 7.852.796 8.931 0 9.797 0 10.458v5.324zm15.774 0l-4.872-.01c-.617-.002-1.264-.153-1.89-.75a4.017 4.017 0 01-.67-.88 341.959 341.959 0 003.25-3.218c.897-.896 1.787-1.816 2.703-2.696 1.217.822 1.479 1.567 1.479 2.23v5.324zM1.629 7.516C.716 6.932 0 6.214 0 5.231V.001h5.177c.601-.026 1.291.25 1.774.806.215.246.42.52.618.808-.818.783-1.602 1.611-2.402 2.408C3.993 5.19 2.783 6.328 1.629 7.516zM93.465.094h.84c3.023 2.853 6.072 5.68 9.081 8.548.019-2.825.002-5.651.009-8.477 1.201.017 2.403 0 3.605.012-.027 5.247.009 10.495-.019 15.74-.328-.033-.737.086-.97-.215-2.967-2.942-5.987-5.829-8.94-8.784-.009 2.972-.005 5.946 0 8.918-1.204.005-2.406 0-3.607.002.003-5.248-.002-10.496.001-15.744zM20.25.175C24.157.174 28.063.167 31.968.18a8.894 8.894 0 01-.527 1.04c-2.13 3.833-4.24 7.68-6.387 11.505 2.318.02 4.637-.015 6.955.02a123.47 123.47 0 00.002 3.078c-3.817.041-7.633 0-11.45.02-.321.003-.643-.013-.963-.04 2.324-4.2 4.623-8.412 6.955-12.607-2.1-.012-4.2 0-6.3-.003.002-1.006.01-2.012-.003-3.017zm14.513 15.666L34.762.167c3.191.008 6.383.01 9.573 0 0 1.01.002 2.017-.002 3.025-1.991-.004-3.985.003-5.976-.004.003 1.018.003 2.036.003 3.054 1.832-.003 3.663-.001 5.495-.001.003 1.012.003 2.027 0 3.04-1.832.003-3.663.01-5.495-.004 0 1.117-.002 2.234 0 3.35 2.06-.017 4.118.002 6.176-.01.027 1.074.002 2.147.017 3.22-3.263.004-6.526-.003-9.79.004zM64.593.187c2.062.017 4.123-.003 6.185.01 1.888.03 3.794.695 5.161 2.023 3.098 2.953 3.166 8.453.152 11.488-1.376 1.403-3.356 2.123-5.303 2.127-2.068.008-4.135.005-6.201 0 .01-5.216 0-10.432.007-15.648zM68.19 3.35c.014 3.115.002 6.229.005 9.344 1.517-.06 3.202.265 4.539-.642 2.633-1.797 2.626-6.35-.053-8.106-1.331-.884-2.991-.55-4.49-.596zm12.365 12.49c-.005-5.223-.001-10.447-.001-15.67 3.192.002 6.385.01 9.578-.005.012 1.013.012 2.024-.003 3.037-1.99-.024-3.982-.007-5.973-.008.008 1.016-.004 2.032.005 3.048 1.832-.001 3.663-.005 5.495.004-.012 1.01-.002 2.022-.009 3.035-1.83.005-3.658.005-5.488 0-.007 1.113.004 2.226 0 3.34 2.056.003 4.111-.004 6.167.001.016 1.071-.005 2.142.014 3.214-3.261.007-6.523 0-9.785.004z" fill="#C7C7C7"/></svg>