<svg width="130" height="32" fill="none" xmlns="http://www.w3.org/2000/svg"><path fill-rule="evenodd" clip-rule="evenodd" d="M125.064 15.072c.003.61-.005 1.22.004 1.83.556.015 1.114-.002 1.671.006.256.003.54-.025.733-.214.22-.203.273-.525.256-.81-.015-.28-.141-.572-.397-.709-.262-.143-.57-.102-.856-.108-.47.003-.941-.007-1.411.005zm-2.286-3.474a.41.41 0 01.436-.429h1.436a.406.406 0 01.356.19c.081.127.052.284.058.427.004.592-.008 1.185.006 1.777.455-.003.911 0 1.366-.002.494.002.991-.014 1.481.058.526.076 1.063.244 1.458.614.383.345.567.856.625 1.358v.81c-.067.49-.243.988-.616 1.329-.5.469-1.205.617-1.868.664-.548.026-1.098.008-1.647.013-.897 0-1.796.002-2.694-.001a.4.4 0 01-.395-.401c-.004-2.136-.001-4.271-.002-6.407zm-8.264-.035a.397.397 0 01.397-.393c2.172-.002 4.345 0 6.518 0a.4.4 0 01.401.386c.003.241-.001.483.002.724.007.13-.017.27-.114.364-.091.1-.232.125-.361.12-.596-.002-1.192 0-1.788-.002-.085.002-.172-.01-.254.014.003 1.743.002 3.485.001 5.227a.4.4 0 01-.383.402c-.483.005-.966 0-1.449.003-.136.007-.282-.038-.366-.15-.111-.134-.088-.318-.09-.479-.001-1.671.002-3.343-.002-5.014-.705-.006-1.411.001-2.116-.004a.392.392 0 01-.394-.367c-.007-.277-.003-.554-.002-.83zm-27.51-.005c-.002-.215.198-.396.41-.389.493-.002.986-.001 1.478 0a.4.4 0 01.397.391c.002.793.003 1.585 0 2.378.965.005 1.931.001 2.897.002 0-.793-.002-1.585.001-2.378a.4.4 0 01.39-.392c.503-.003 1.006-.004 1.509 0 .223-.002.404.211.388.43-.002 2.135.001 4.27-.002 6.405a.398.398 0 01-.38.4c-.507.004-1.015.003-1.522 0a.402.402 0 01-.383-.403 402.13 402.13 0 010-2.456c-.604-.018-1.209-.003-1.813-.008-.363.008-.727-.017-1.088.014.01.817.003 1.635.004 2.453a.4.4 0 01-.394.401c-.495.001-.99.003-1.484 0a.402.402 0 01-.39-.28c-.021-.074-.018-.153-.019-.23.001-2.113-.002-4.226.002-6.338zm-17.494.04a.404.404 0 01.387-.427c.493-.006.986-.002 1.479-.003.215-.012.42.17.42.389.005.794 0 1.59.003 2.384.962 0 1.924-.003 2.886.002.018-.794 0-1.589.009-2.383a.4.4 0 01.4-.39c.49-.004.983-.002 1.475 0 .229-.012.43.2.409.428 0 2.137.002 4.275-.001 6.413a.395.395 0 01-.405.395c-.496.002-.992.003-1.487 0a.399.399 0 01-.392-.398c-.005-.822.006-1.644-.005-2.466-.963-.007-1.926-.004-2.889-.002-.004.821.001 1.643-.002 2.463a.4.4 0 01-.242.37c-.093.043-.198.032-.297.034-.455-.002-.91.003-1.365-.002a.4.4 0 01-.382-.4c-.003-2.136 0-4.271-.001-6.407zm29.872.942c-.377.024-.767.163-1.013.463-.25.299-.338.694-.367 1.073l.067.014c1 0 1.999-.002 2.998 0 .002-.46-.135-.966-.51-1.263-.33-.257-.77-.311-1.175-.287zm-1.549-1.22c.81-.303 1.698-.334 2.549-.23.801.115 1.603.436 2.157 1.045.475.516.736 1.197.819 1.887.051.353.047.71.045 1.067a.397.397 0 01-.399.394c-1.661.005-3.321-.003-4.982.005.03.394.125.81.396 1.111.204.23.502.354.801.404.386.06.788.053 1.167-.048.235-.068.47-.175.629-.367a.94.94 0 01.693-.343c.342-.004.686-.001 1.029-.002a.403.403 0 01.413.316c.024.166-.005.336-.038.5-.093.421-.4.767-.771.972-.561.315-1.212.417-1.845.475-.906.067-1.85.073-2.71-.26a3.024 3.024 0 01-1.592-1.324c-.385-.666-.51-1.452-.498-2.213.01-.764.17-1.55.598-2.194a3.075 3.075 0 011.54-1.196zm-16.24-.265c.818-.048 1.65-.01 2.444.207.475.137.946.35 1.293.712.366.368.544.897.52 1.412a.399.399 0 01-.407.352h-.984a.758.758 0 01-.508-.192c-.184-.15-.271-.383-.455-.532-.3-.253-.696-.365-1.083-.38-.36-.014-.735.015-1.063.177a1.26 1.26 0 00-.606.685c-.18.457-.194.957-.188 1.442.008.429.05.873.244 1.263.137.28.384.5.676.61.362.134.759.153 1.141.12.413-.04.842-.198 1.102-.536.124-.174.248-.363.444-.464a.85.85 0 01.446-.093c.303.002.606-.002.909.002a.399.399 0 01.36.217c.06.11.04.237.036.356a1.866 1.866 0 01-.564 1.239c-.528.499-1.255.704-1.956.811-.867.112-1.76.125-2.615-.075-.665-.16-1.31-.482-1.76-1.008-.535-.606-.762-1.423-.806-2.217-.046-.835.045-1.709.453-2.453a2.965 2.965 0 011.57-1.354c.431-.175.895-.26 1.357-.301zm-18.795 4.63c-.324.293-.293.88.063 1.135.253.192.585.23.893.218a3.7 3.7 0 001.845-.592c-.005-.344.017-.69-.01-1.033-.664.01-1.327.002-1.99.005-.285.003-.59.062-.801.267zm-.034-4.526a9.363 9.363 0 011.746-.123c.712.01 1.44.129 2.07.473.404.223.754.552.972.961.262.459.33.998.337 1.518v3.981c.017.217-.157.43-.377.436-.432.005-.865.002-1.297.002a.399.399 0 01-.402-.32c-.013-.092-.007-.184-.012-.275-.347.217-.706.425-1.102.542-.633.2-1.31.225-1.967.147-.571-.075-1.145-.246-1.613-.594a2.01 2.01 0 01-.767-1.121c-.15-.605-.066-1.289.31-1.797.334-.454.85-.74 1.384-.892.565-.172 1.16-.188 1.747-.18h1.8c.015-.4-.053-.859-.38-1.13-.303-.238-.71-.252-1.08-.25-.432.027-.912.125-1.2.478a.917.917 0 01-.699.317c-.342.002-.685.002-1.027 0a.4.4 0 01-.39-.336c-.028-.435.123-.892.45-1.19.406-.383.96-.547 1.497-.647zm-8.74 2.058c-.013 1.151 0 2.303-.006 3.455.5.154 1.019.283 1.546.272.387-.011.8-.11 1.075-.4.316-.326.412-.795.455-1.231.032-.47.035-.943-.047-1.407-.068-.365-.204-.744-.5-.987-.312-.258-.743-.315-1.135-.277-.503.07-.954.325-1.388.575zm-.008-1.573a3.826 3.826 0 011.964-.605c.584-.023 1.18.075 1.708.334.473.229.88.59 1.163 1.032.355.538.528 1.177.592 1.813a5.74 5.74 0 01-.106 1.778c-.153.635-.454 1.254-.95 1.692-.424.397-.97.646-1.537.761-.941.198-1.923.068-2.826-.242-.013.678 0 1.357-.006 2.035.002.193-.157.385-.356.388-.504-.012-1.009-.003-1.513-.004-.235.043-.438-.194-.414-.42-.003-2.87 0-5.739 0-8.608a.398.398 0 01.375-.427c.43-.006.86-.002 1.29-.002.148-.003.3.077.367.212.064.115.04.252.05.378.072-.028.136-.072.199-.115zm56.314.983c.006 1.446 0 2.891.004 4.336.475-.005.991-.134 1.306-.515.3-.358.401-.835.437-1.289.027-.469.019-.948-.111-1.403-.093-.325-.267-.64-.549-.839-.312-.22-.708-.309-1.087-.29zm-3.115.185c-.262.13-.472.356-.598.62-.183.371-.233.791-.248 1.2-.008.368.013.74.101 1.097.083.331.242.656.51.877.317.264.742.354 1.145.354.003-1.445.001-2.89.001-4.334a1.865 1.865 0 00-.911.186zm.875-3.495c0-.213.197-.39.408-.382.493 0 .986-.003 1.479.001a.398.398 0 01.395.383c.006.616-.001 1.231.003 1.847.493.025.988.068 1.466.197.653.167 1.287.482 1.738.993.466.517.701 1.204.768 1.888.064.711.018 1.449-.248 2.118a2.904 2.904 0 01-1.422 1.535c-.709.363-1.513.482-2.301.511-.008.623.006 1.248-.006 1.871-.008.201-.188.328-.364.382h-1.558c-.095-.049-.206-.079-.272-.168a.418.418 0 01-.088-.289c-.003-.599.001-1.198-.002-1.797a6.97 6.97 0 01-1.375-.171c-.682-.167-1.353-.481-1.824-1.015-.454-.501-.694-1.162-.768-1.827-.081-.72-.035-1.47.222-2.152a2.897 2.897 0 011.429-1.563c.712-.363 1.519-.482 2.31-.51.019-.617-.002-1.235.01-1.852zm-65.852.198c.004-.32.302-.588.619-.58 2.782-.002 5.565 0 8.347 0a.634.634 0 01.547.255c.146.19.115.44.117.664-.007.192.027.395-.052.577a.62.62 0 01-.577.371c-.982.008-1.965-.003-2.947.005.008 2.272.001 4.545.004 6.818 0 .14.006.286-.055.416a.631.631 0 01-.603.366c-.413 0-.826.003-1.24-.002a.623.623 0 01-.593-.63c.001-2.322-.002-4.644.002-6.967-.996-.012-1.992.005-2.988-.009a.622.622 0 01-.587-.569c.013-.238.023-.477.006-.715zm-10.778.935c1.482-.14 2.975.01 4.438.254l-.032.093a223.008 223.008 0 01-3.786 5.055c-.21.28-.433.55-.635.834-.676.094-1.369.246-1.942.636-.203.142-.45.213-.637.378-.05.047-.12.06-.181.083-.401.306-.85.545-1.242.863-.41.233-.734.58-1.113.855-.3.273-.59.559-.883.84-.237.248-.534.429-.774.674-.367.36-.793.65-1.172.997-.233.19-.45.4-.708.558-.3.288-.681.463-1.006.719-1.013.617-2.107 1.139-3.28 1.357-.252.092-.522.036-.78.082-.385.085-.782.015-1.17.045l-.11.058c-.847-.322-1.631-.823-2.413-1.287-.345-.22-.689-.443-1.027-.673 1.515.329 3.115.324 4.605-.123.965-.298 1.775-.946 2.461-1.668.735-.768 1.41-1.59 2.108-2.392.738-.86 1.488-1.71 2.201-2.59 1.352-1.618 2.614-3.35 4.288-4.658.776-.653 1.804-.889 2.79-.99zM1.563 9.13A3.488 3.488 0 013.71 7.925c1.145-.184 2.32.058 3.384.491l.004.038a2.23 2.23 0 00-1.174.869c-.794 1.117-1.25 2.48-1.227 3.855.002.953.247 1.883.564 2.775.904 2.573 2.576 4.837 4.64 6.604a19.004 19.004 0 006.046 3.466c2.465.866 5.121 1.223 7.723.933a14.357 14.357 0 003.944-1.007c.17-.074.335-.162.515-.213-.566.745-1.246 1.401-1.944 2.023-.827.718-1.75 1.315-2.703 1.85-1.12.608-2.3 1.113-3.53 1.45-2.614.736-5.418.72-8.044.049-1.873-.452-3.644-1.291-5.218-2.396-.393-.266-.745-.587-1.104-.896a17.264 17.264 0 01-3.192-3.758c-2.172-3.482-2.94-7.83-2-11.833.192-.863.466-1.706.8-2.524.072-.218.227-.392.366-.57zM32.306 0h1.643c.602.053 1.205.13 1.792.278.143.04.304.046.427.139-.139.182-.255.38-.38.572l-3.589 5.573c.034-.149.135-.269.205-.402.83-1.474 1.68-2.936 2.502-4.413a11.096 11.096 0 00-3.668.2c-1.047.242-2.061.66-2.936 1.29-.76.54-1.292 1.323-1.823 2.074a59.948 59.948 0 00-1.735 2.761c-1.195 1.994-2.355 4.01-3.584 5.984-1.118 1.776-2.272 3.542-3.662 5.12-.714.79-1.49 1.558-2.44 2.059-.547.295-1.173.369-1.78.442.002-.09.098-.07.158-.087.714-.085 1.348-.47 1.892-.917.773-.635 1.42-1.405 2.027-2.196.746-.998 1.43-2.04 2.066-3.111 1.138-1.891 2.18-3.837 3.212-5.788 1.036-1.936 2.031-3.898 3.187-5.768.035-.056.02-.1-.041-.13a14.844 14.844 0 00-6.167-2.421c-3.374-.518-6.924.18-9.835 1.966a15.282 15.282 0 00-4.06 3.588 5.643 5.643 0 00-3.12.401 15.874 15.874 0 018.218-6.34A15.932 15.932 0 0120.23.675 15.717 15.717 0 0125.9 3.67c.387-.55.746-1.13 1.25-1.582C28.568.829 30.428.14 32.306 0z" fill="#C7C7C7"/><path fill-rule="evenodd" clip-rule="evenodd" d="M31.445 16.686c1.737-.177 3.478.331 5.015 1.116-.711.797-1.494 1.533-2.237 2.302-1.433 1.443-2.878 2.877-4.415 4.209-.916.815-2.064 1.324-3.239 1.639-2.5.642-5.152.446-7.625-.223a18.948 18.948 0 01-1.996-.663c-.167-.08-.355-.121-.502-.235l.11-.058c.389-.03.786.04 1.17-.045.259-.047.529.01.78-.082 1.174-.218 2.268-.74 3.28-1.357.325-.256.707-.431 1.007-.719.258-.158.474-.368.708-.558.38-.348.804-.637 1.171-.997.24-.245.538-.426.774-.675.294-.28.583-.567.884-.84.38-.274.703-.621 1.113-.854.392-.318.84-.557 1.242-.863.06-.023.13-.036.181-.083.187-.166.434-.236.637-.378.573-.39 1.266-.542 1.942-.636z" fill="#C7C7C7"/></svg>