<svg width="81" height="18" fill="none" xmlns="http://www.w3.org/2000/svg"><path fill-rule="evenodd" clip-rule="evenodd" d="M9.785.05a8.74 8.74 0 00-5.251 1.095A8.943 8.943 0 00.866 5.118a9.13 9.13 0 00-.74 5.395 9.05 9.05 0 002.459 4.841 8.81 8.81 0 004.756 2.513 8.73 8.73 0 005.312-.735 8.915 8.915 0 003.92-3.715 9.12 9.12 0 001.095-5.332 9.049 9.049 0 00-2.536-5.441A8.79 8.79 0 009.785.05zm-.287 13.713a4.66 4.66 0 01-2.846-.52 4.766 4.766 0 01-2.015-2.106 4.87 4.87 0 01-.43-2.906c.16-.99.62-1.905 1.317-2.615a4.7 4.7 0 012.57-1.347 4.658 4.658 0 012.86.428 4.76 4.76 0 012.08 2.041 4.867 4.867 0 01-.818 5.656 4.695 4.695 0 01-2.718 1.369zM22.406.406c-.307 0-.61.07-.888.205a2.08 2.08 0 00-.714.574 2.114 2.114 0 00-.415 1.754c.194.99 1.103 1.666 2.094 1.666h5.75l-8.948 12.032a.605.605 0 00.158.871c.093.06.2.09.31.091H33.79c.99 0 1.9-.676 2.095-1.665a2.132 2.132 0 00-.415-1.755 2.072 2.072 0 00-.714-.573 2.04 2.04 0 00-.887-.206h-7.006l8.941-12.024a.611.611 0 00-.16-.879.589.589 0 00-.313-.091H22.406zm56.087.048a2.095 2.095 0 00-1.171.766 2.154 2.154 0 00-.442 1.341v6.992L65.731.538a.588.588 0 00-.871.152.61.61 0 00-.09.321v14.436c-.008.485.148.959.441 1.342.293.383.706.653 1.171.765a2.03 2.03 0 001.738-.414 2.125 2.125 0 00.77-1.637V8.451l11.149 9.016a.588.588 0 00.87-.153.61.61 0 00.091-.32V2.503c0-.313-.069-.623-.202-.906a2.093 2.093 0 00-.568-.73 2.051 2.051 0 00-1.737-.414zm-29.03 3.749c4.716 0 8.24 2.532 8.24 4.797 0 2.265-3.524 4.798-8.24 4.798-4.715 0-8.239-2.533-8.239-4.798s3.524-4.797 8.24-4.797zm0-4.2C42.639.004 37.106 4.033 37.106 9c0 4.969 5.533 8.997 12.359 8.997 6.825 0 12.358-4.028 12.358-8.997 0-4.968-5.533-8.996-12.358-8.996z" fill="#C7C7C7"/></svg>