<svg width="91" height="32" fill="none" xmlns="http://www.w3.org/2000/svg"><path fill-rule="evenodd" clip-rule="evenodd" d="M13.086 22.706l-.389 1.748h33.671l.376-1.748H13.086zm74.47 0l-.39 1.748h-31.31l.389-1.748h31.31zm-3.64-4.334c.208.352.61.528 1.194.528 1 0 1.695-.718 2.07-2.209.223-.867 0-1.625-.667-2.276l-.472-.474c-1.166-1.151-1.556-2.48-1.166-4.01.277-1.084.763-1.95 1.458-2.6.707-.651 1.5-.977 2.403-.977.695 0 1.458.19 2.264.57l-.584 2.289h-.736c.348-1.355.042-2.046-.903-2.046-.93 0-1.555.664-1.889 1.978-.194.759.029 1.463.68 2.14l.473.488c1.195 1.22 1.584 2.588 1.208 4.092-.305 1.179-.847 2.114-1.625 2.804-.778.705-1.68 1.057-2.708 1.057-.32 0-.653-.04-1-.095a9.44 9.44 0 01-1.431-.379l.666-2.587h.736c-.194.772-.18 1.34.029 1.707zm0-9.755l.111-.407c.124-.473.486-.718 1.111-.718l.208-.812h-2.973l-.208.812c.625 0 .876.244.765.718l-1.792 7.195-2.945-8.725h-2.015l-.208.812c.486 0 .736.109.764.325.028.203-.042.678-.236 1.41l-1.945 7.668c-.18.745-.347 1.22-.486 1.422-.139.217-.444.298-.917.298l-.208.813h2.972l.208-.813c-.624 0-.874-.23-.763-.704l1.778-7.086 2.945 8.712h1.027l2.807-10.92zM68.76 15.052h1.125l-.055-4.362-1.07 2.127-1.138 2.235h1.138zm0-3.63l2.417-4.742h.806l.166 11.217c.014.488.195.718.529.718l-.209.827H68.83l.208-.827c.5 0 .778-.108.833-.352.042-.176.056-.61.056-1.327l-.014-1.057h-2.709l-.542 1.07c-.36.705-.57 1.138-.611 1.314-.07.244.097.352.5.352l-.195.827H64.33l.208-.827.25-.027c.208-.027.458-.31.75-.853l.069-.136 3.154-6.177zM66.9 6.68l-.571 2.248h-.666l.195-.772c.069-.284-.014-.474-.25-.582a1.467 1.467 0 00-.486-.068h-1.904l-1.208 4.796 1.64-.027c.25 0 .43-.19.528-.556l.069-.311h.667l-.654 2.547h-.653l.07-.312c.097-.366.014-.555-.236-.555l-1.626-.014-.972 3.82c-.181.705-.264 1.166-.264 1.396.014.23.334.325.986.325h.515l.777-.027c.236 0 .389-.054.473-.203.082-.149.18-.5.319-1.03l.069-.257h.736l-.596 2.344h-6.696l.194-.827c.625 0 1-.217 1.125-.704l2.459-9.7c.125-.474-.124-.705-.75-.705l.209-.827h6.5zM61.58 0l-.431 1.694c-.792 0-1.376.176-1.779.555-.25.23-.416.529-.513.908l-5.584 20.728c-.764 3.007-1.779 5.12-3.043 6.313C48.968 31.39 47.12 32 44.703 32c-.208 0-.417-.014-.625-.027a8.598 8.598 0 01-1.903-.38c-.084-.027-.153-.054-.236-.068l.236-.61 1.18-3.088h1.348c-.459 1.816-.625 2.642.417 2.642.903 0 1.583-.326 2.042-1.003.472-.65.959-1.991 1.472-3.997l5.835-22.313c.25-.975-.277-1.463-1.57-1.463L53.33 0h8.25zM44.076 15.88h1.138l.014 1.057c.014.718 0 1.151-.042 1.327-.055.244-.347.352-.833.352l-.209.827h3.612l.208-.827c-.32 0-.5-.23-.528-.718l-.041-.948-.112-10.27h-.819l-2.39 4.743-1.903 3.725-1.32 2.588c-.29.542-.54.826-.75.853l-.25.027-.208.827h2.015l.208-.827c-.403 0-.57-.108-.5-.352.042-.176.236-.61.611-1.314l.194-.393.348-.677h1.557zm0-3.062l1.069-2.127.055 4.362h-2.264l1.14-2.235zM42.41 6.68l-.208.826h-.028c-.611 0-.973.244-1.097.705l-2.46 9.7c-.125.488.126.705.75.705l-.207.827h-4l.208-.827c.166 0 .319-.013.444-.04.361-.082.583-.312.68-.664l2.46-9.7c.124-.474-.14-.705-.765-.705l.209-.827h4.014zm-6.598 4.39a7.35 7.35 0 00.486-1.342c.333-1.328.18-2.236-.486-2.71-.362-.257-.875-.392-1.542-.392l-4.57.054-.208.826c.625 0 .875.23.764.705l-2.473 9.7a.833.833 0 01-.402.57c-.181.094-.417.135-.709.135l-.208.827h3.862l.194-.827c-.375-.04-.597-.081-.639-.163-.041-.095-.027-.27.043-.541l1.055-4.281h.653l.611 5.812h2.445l.208-.827c-.36 0-.68-.61-.777-1.545l-.417-3.888c.929-.434 1.623-1.152 2.11-2.114zm-3.056 1.354c.639-.447 1.11-1.287 1.43-2.52.403-1.599.042-2.398-1.11-2.398h-.542l-1.348 5.311h.32c.472 0 .888-.135 1.25-.393zm-4.654-4.16c.347 1.193.264 2.819-.264 4.865a17.305 17.305 0 01-.458 1.544c-.473 1.396-1.07 2.52-1.764 3.4-.445.542-.904.963-1.39 1.26-.555.34-1.139.516-1.75.516-1.098 0-1.82-.61-2.153-1.802-.333-1.206-.236-2.831.278-4.877.528-2.073 1.264-3.699 2.209-4.905.458-.568.93-1.002 1.416-1.3.542-.325 1.098-.488 1.681-.488.611 0 1.098.176 1.473.528.32.284.57.718.722 1.26zm-3.876 9.105c.459-.989.917-2.425 1.404-4.322.972-3.807.986-5.703.069-5.703-.486 0-.973.528-1.473 1.585-.458.976-.917 2.385-1.389 4.227-.986 3.889-1.014 5.826-.07 5.826.473-.001.96-.53 1.46-1.613zm-10.778-.582l2.18-8.576c.112-.474-.138-.718-.763-.718l.208-.813h4l-.208.813c-.625 0-1 .244-1.111.718l-2.237 8.684c-.153.623-.222 1.03-.208 1.233.027.19.36.298 1.014.298h.875l.43-.028c.431 0 .709-.23.834-.704l.125-.488.083-.311h.833l-.638 2.547-7.03-.014.209-.813c.625 0 1-.23 1.11-.704l.293-1.124zm0-7.75l.75-2.94c-.25-.108-.5-.217-.75-.298a9.878 9.878 0 00-3.279-.569C5.557 5.23 2.391 8.671.64 15.567c-.82 3.184-.847 5.704-.11 7.56.75 1.857 2.166 2.778 4.25 2.778 1.097 0 2.639-.299 4.612-.895.736-2.818 1.458-5.636 2.18-8.454H6.85l-.32 1.26c.848 0 1.403.312 1.18 1.139l-1.347 5.364c-.347.163-.68.244-.986.244-2.348 0-2.764-2.994-1.236-8.982.82-3.238 1.68-5.541 2.584-6.936.903-1.383 1.986-2.073 3.278-2.073 1.945 0 2.681.935 2.208 2.831l-.069.257h1.153l.152-.623z" fill="#C7C7C7"/></svg>