<svg width="92" height="17" fill="none" xmlns="http://www.w3.org/2000/svg"><path d="M86.735 12.895c-.024.191-.095.694-.745.76h-5.7c-.65-.066-.768-.569-.793-.76v-8.88c.025-.191.115-.599.764-.664h5.733c.65.065.718.473.742.664v8.88zM88.71.005H77.522c-1.68.137-3.1.997-3.29 2.921V13.92c.19 1.924 1.61 2.943 3.29 3.08H88.71c1.68-.137 3.1-1.156 3.29-3.08V2.926c-.19-1.924-1.61-2.784-3.29-2.92zM43.433 3.351h-5.001V.005H53.7v3.346h-5.002V17h-5.265V3.351zm-6.58 0V.005H23.164V17l13.87-.004.006-3.342h-8.598l.001-3.64h8.41V6.678h-8.41V3.351h8.41zm30.535 2.634c0 .368-.09.69-.745.69h-6.1V3.34h6.108c.743 0 .737.49.737.796v1.85zm1.458 4.408c1.642-.132 3.28-1.26 3.28-3.112V3.086C71.936 1.17 70.51.136 68.823 0H55.279v17h5.265v-6.607h2.095L66.061 17h6.054l-4.075-6.607h.806zM12.266 17l3.528-10.675V17h5.264V.005h-7.107L10.53 8.503 7.107.005H0V17h5.265V6.325L8.818 17h3.449z" fill="#C7C7C7"/></svg>