<svg width="82" height="24" fill="none" xmlns="http://www.w3.org/2000/svg"><path d="M77.595 20.469c1.597 0 2.728-.289 3.57-.91v-2.816c-.864.599-1.906.976-3.37.976-2.462 0-3.482-1.907-3.482-4.923 0-3.172 1.242-4.79 3.504-4.79 1.33 0 2.64.465 3.327.909V5.988c-.732-.4-1.996-.688-3.726-.688-4.413 0-6.697 3.171-6.697 7.607.022 4.856 2.262 7.562 6.874 7.562zm-21.577-1.287v-2.816c-1.065.732-2.883 1.375-4.546 1.375-2.529 0-3.482-1.197-3.637-3.637h8.338v-1.818c0-5.079-2.24-6.986-5.677-6.986-4.214 0-6.21 3.216-6.21 7.629 0 5.078 2.506 7.54 6.897 7.54 2.196 0 3.815-.599 4.835-1.287zM24.372 5.567v5.766h-4.613V5.566H16.3V20.18h3.46v-6.098h4.613v6.098h3.46V5.566h-3.46zm19.05 11.865h-1.53V5.566h-10.07v1.242c0 3.57-.221 8.183-1.441 10.623h-1.109v6.076h3.193V20.18h7.74v3.327h3.193V17.43h.023zm23.618 2.75h3.925l-5.544-7.873 4.878-6.742h-3.481l-4.88 6.742V5.566H58.48V20.18h3.46v-7.185l5.1 7.185zM50.407 8.005c1.708 0 2.24 1.419 2.24 3.26v.288h-4.812c.088-2.329.931-3.548 2.572-3.548zM38.432 17.43h-4.879c.954-2.196 1.22-6.188 1.22-8.716v-.443h3.659v9.159zm-25.015 2.75H9.89V2.728H8.316c-2.883 0-4.39 1.441-4.39 3.592 0 2.44 1.042 3.57 3.193 5.012l1.774 1.198-5.1 7.65H0l4.59-6.83C1.953 11.465.467 9.625.467 6.52.466 2.639 3.17 0 8.294 0h5.1v20.18h.023z" fill="#C7C7C7"/></svg>