<svg width="115" height="22" fill="none" xmlns="http://www.w3.org/2000/svg"><path d="M60.893 17.856V3.598h8.857V6.91h-5.164v10.946h-3.693zm20.001 0v-5.584h-5.487v5.584h-3.693V3.598h3.693V8.92h5.487V3.6h3.694v14.257h-3.694zm25.128 0V6.91h-4.314V3.598h12.344V6.91h-4.335v10.946h-3.695zm-9.75-.002V9.731l-5.879 8.123h-3.088V3.6h3.693v8.04l5.78-8.04h3.19v14.254h-3.696zm-56.605.002V9.383l-3.687 4.476-3.688-4.476v8.473H28.6V3.598h3.645l3.736 4.903 3.736-4.903h3.645v14.258h-3.694zm10.705-5.014h3.432l-1.716-4.47-1.716 4.47zm5.358 5.012l-.773-1.997h-5.743l-.773 1.997h-3.713l5.68-14.256h3.416l5.682 14.256H55.73zM0 6.495a6.563 6.563 0 011.877-4.59A6.354 6.354 0 016.393 0h14.76v3.302H6.398a3.133 3.133 0 00-2.219.94 3.236 3.236 0 00-.925 2.253l-.02 5.543a3.254 3.254 0 01-.844 1.899c-.48.52-1.116.865-1.81.979l-.579.09v-8.51zm.001 14.96v-3.302h14.76a3.135 3.135 0 002.22-.94 3.238 3.238 0 00.925-2.256v-5.26a3.25 3.25 0 01.764-2.079 3.153 3.153 0 011.907-1.081l.58-.089v8.51a6.565 6.565 0 01-1.877 4.59 6.356 6.356 0 01-4.517 1.907H.001z" fill="#C7C7C7"/><path d="M12.505 15.018V10.75l-1.925 2.335-1.923-2.335v4.268h-2.55V6.619h2.414l2.059 2.7 2.058-2.7h2.414v8.399h-2.547z" fill="#C7C7C7"/></svg>