<svg width="97" height="29" fill="none" xmlns="http://www.w3.org/2000/svg"><path d="M38.398 13.102a1.444 1.444 0 01-.939.332h-1.28v-2.876h1.264c.422 0 .754.107.998.324.244.217.367.574.367 1.073 0 .543-.136.924-.408 1.147h-.002zM17.523 4.744a1.91 1.91 0 011.723 1.177l5.402-1.282A14.114 14.114 0 0015.05.005L17.044 4.8c.155-.037.314-.062.48-.059v.002zm-1.242.434L13.319 0a14.11 14.11 0 00-9.71 4.686l12.04 1.441c.11-.38.333-.706.632-.949zm1.806 3.287l2.9 18.048a14.173 14.173 0 006.734-8.388l-9.18-9.877a1.86 1.86 0 01-.454.217zm-1.083.041L8.766 27.21a14.09 14.09 0 005.384 1.063c1.866 0 3.647-.365 5.279-1.022L17.38 8.563a2.104 2.104 0 01-.376-.057zm-.927-.554L.588 18.156a14.187 14.187 0 006.684 8.333L16.364 8.21a1.924 1.924 0 01-.287-.256v-.002zm2.987-.223l9.065 8.592c.111-.716.17-1.45.17-2.198 0-3.037-.96-5.847-2.587-8.15l-6.322.763a1.916 1.916 0 01-.326.993zm-3.476-.866l-13.144-.69A14.093 14.093 0 000 14.123c0 .795.07 1.575.195 2.335l15.503-9.113a1.935 1.935 0 01-.11-.48v-.002zm79.233 1.464l-3.308 6.718h-.033V8.327h-2.394v11.57h2.26l3.226-6.3h.017v6.3H97V8.328h-2.18zM79.774 10.52h2.477v9.378h2.394V10.52h2.477V8.327h-7.35v2.193h.002zm-8.064 9.378h6.734V17.62h-4.322v-2.46h3.724v-2.213h-3.724v-2.393h4.322V8.327H71.71v11.57zm-7.165-8.47a1.163 1.163 0 01.615-.732c.166-.083.371-.124.615-.124.233 0 .433.044.598.134.167.088.305.193.415.314.11.123.192.258.24.408.051.15.086.28.11.39l2.278-.681a3.934 3.934 0 00-.4-1.089 3.378 3.378 0 00-.731-.924 3.494 3.494 0 00-1.081-.638 3.998 3.998 0 00-1.43-.241c-.677 0-1.252.112-1.722.34a3.33 3.33 0 00-1.147.873c-.294.354-.507.75-.64 1.188a4.45 4.45 0 00-.2 1.306v4.122c0 .523.069 1.021.207 1.497.139.476.354.893.649 1.255.294.36.675.645 1.147.858.47.21 1.038.316 1.704.316.94 0 1.74-.255 2.394-.765.655-.51 1.064-1.213 1.231-2.111l-2.294-.666c-.044.378-.194.674-.448.89-.255.216-.55.323-.882.323-.476 0-.812-.143-1.005-.43-.194-.289-.291-.657-.291-1.097v-4.291a1.5 1.5 0 01.066-.423l.001-.002zm-9.378 0a1.161 1.161 0 01.615-.732 1.37 1.37 0 01.615-.124c.233 0 .433.044.598.134.167.088.305.193.415.314.11.123.192.258.241.408.05.15.085.28.109.39l2.278-.681a3.934 3.934 0 00-.4-1.089 3.378 3.378 0 00-.731-.924 3.456 3.456 0 00-1.081-.638 3.997 3.997 0 00-1.43-.241c-.677 0-1.251.112-1.722.34a3.329 3.329 0 00-1.147.873 3.36 3.36 0 00-.64 1.188c-.134.437-.2.873-.2 1.306v4.122c0 .523.07 1.021.208 1.497.138.476.354.893.648 1.255.294.36.676.645 1.147.858.47.21 1.038.316 1.704.316.943 0 1.74-.255 2.395-.765.654-.51 1.063-1.213 1.23-2.111l-2.294-.666c-.044.378-.193.674-.448.89-.255.216-.55.323-.881.323-.477 0-.812-.143-1.006-.43-.193-.289-.291-.657-.291-1.097v-4.291a1.5 1.5 0 01.066-.423l.002-.002zm-7.233 4.996c0 .388-.125.692-.375.914a1.284 1.284 0 01-.889.332c-.477 0-.818-.143-1.023-.431-.204-.288-.308-.656-.308-1.097v-4.29c0-.133.025-.275.075-.424a1.259 1.259 0 01.64-.732c.168-.083.372-.124.616-.124s.445.047.606.142a1.272 1.272 0 01.598.755c.04.145.058.274.058.382v4.573h.002zm1.53-7.008a3.3 3.3 0 00-1.148-.847c-.466-.217-1.015-.324-1.646-.324-.677 0-1.25.112-1.721.34a3.407 3.407 0 00-1.155.873 3.31 3.31 0 00-.648 1.188 4.5 4.5 0 00-.2 1.306v4.122c0 .523.069 1.021.207 1.497.139.476.358.893.657 1.255.298.36.684.645 1.154.858.47.21 1.039.316 1.705.316.542 0 1.038-.086 1.486-.258.45-.171.837-.422 1.165-.747a3.46 3.46 0 00.764-1.182 4.18 4.18 0 00.274-1.555v-4.306c0-.455-.075-.903-.225-1.347a3.548 3.548 0 00-.673-1.19h.005zm-9.336-.208a3.079 3.079 0 00-1.182-.664 4.986 4.986 0 00-1.504-.217h-3.674v11.57h2.412v-4.22h1.395c.554 0 1.053-.089 1.497-.267.442-.177.82-.426 1.13-.747.31-.321.549-.71.714-1.164.165-.455.25-.959.25-1.514 0-.634-.091-1.179-.274-1.638a3.036 3.036 0 00-.764-1.14z" fill="#C7C7C7"/></svg>