<svg width="93" height="59" fill="none" xmlns="http://www.w3.org/2000/svg"><path fill-rule="evenodd" clip-rule="evenodd" d="M2.55 28.685c.213.043.394 1.39.523 1.536.126.147 1.545.18 1.568.442.023.224-1.213.677-1.308.965-.14.316.278 1.497.063 1.617-.307.12-1.079-.905-1.331-.934-.31-.03-1.349.749-1.532.558-.147-.2.515-1.392.486-1.546-.03-.155-1.14-1.079-1.008-1.27.126-.196 1.444.075 1.631-.02.187-.094.696-1.39.908-1.348zm50.807-5.178c-.937-1.953-2.87-5.439-3.202-6.356-.19-.773.569-.84.821-.536.441.387 1.951 4.166 2.381 6.892zm2.57.161s-2.393-6.022-2.972-7.09c-.25-.462-.85-1.616-2.245-1.054s-1 1.407-1.177 2.05c-.31 1.125-4.566 2.972-7.196 3.93-2.63.96-7.875 1.332-9.118 1.362-.984.024-7.7-.3-13.76 2.664-.12-.222-.45-.71-1.015-.63-.358.051-.957.243-1.586.57a8.596 8.596 0 00-.454-.66l-.063.025c-.295.13-.652.35-.993.725.173.245.306.466.397.636-.39.32-.74.7-.986 1.134-.334.591.198 1.052.293 1.175-.04.037-.081.073-.12.111-6.201 5.816-3.413 12-3.413 12s1.101 3.363 4.93 5.304l.167.008h.028a7.2 7.2 0 00.143.005l.066.001c.035.002.07.002.103.002l.17.002.153-.002h.07l.066-.002.068-.001c.24-7.043 6.067-12.679 13.224-12.679a13.24 13.24 0 0110.356 4.959c1.702-1.29 4.367-3.159 6.236-3.903 2.6-1.036 7.005-2.496 7.996-1.866.565.358.844 1.249 2.259.738 1.415-.51 1.08-1.766.955-2.276-.294-1.178-2.583-7.238-2.583-7.238zM16.904 26.04c-.401.436-.666.805-1.384 1.657-.112.164-.584.22-.334-.254.424-.802 1.59-1.374 1.718-1.403zM73.126 6.43c-.052.064-.568.17-.582.26-.017.089.53.25.562.3.034.051-.016.581.067.63.098.04.347-.4.462-.437.097-.03.536.22.626.129.057-.077-.278-.437-.276-.572-.011-.117.36-.471.318-.548-.051-.092-.564.117-.634.085-.068-.033-.345-.49-.429-.472-.083.019-.06.562-.114.625zm.025-.038c.003.065-.029.078-.064.07l.015-.007c-1.963-2.197-4.572-1.342-5.642.332 1.292-.352 3.321.843 2.013 2.257-1.475 1.47-2.704-.486-2.684-1.454-.535.045-1.716.604-.977 3.236-1.89-2.647.713-3.814 1.128-3.93.132-.498.766-1.93 3.047-2.27 1.436-.214 2.542.89 3.16 1.729 0 .012.002.023.004.036v.001zm-5.77.934c.027.176.362 2.886 1.78 1.377 1.02-1.374-1.78-1.377-1.78-1.377zm10.905 21.309c.064.03.38-.284.442-.297.064-.012.436.259.495.194.052-.054-.177-.415-.148-.508.029-.108.373-.333.341-.408-.055-.091-.462.023-.532-.019-.088-.053-.201-.459-.288-.446-.078.024-.143.463-.181.498-.039.035-.512.056-.517.131-.007.076.391.264.421.326.03.062-.098.498-.033.53v-.001zm.034-.464c-.669.557-1.787 1.235-2.907.776-1.782-.726-2.007-2.012-2.016-2.442-.312-.176-2.188-1.637-.124-3.408-1.13 1.986-.284 2.674.142 2.815.178-.788 1.566-2.13 2.467-.646.777 1.405-1.109 1.972-2.085 1.431.53 1.57 2.472 2.777 4.506 1.384l-.011-.007c.03.001.055.016.037.067l-.01.03zm-2.76-2.692c-.845-1.503-1.661.628-1.718.764 0 0 2.273.552 1.719-.764zM61.987 11.486c.016.043.061.687.5 1.125.478.483-.25.97-.25.97s-.245.206-1.09-.072c-.44-.146-.46-.054-.366.107.094.158.77.94.768 1.022 0 .08-.345.585-.345.585s-1.361-.44-1.473-.218c-.106.207.979.632.892 1.088-.025.137-.291.434-.291.434l-1.213-.268-.083-.343 1.11.213s-.664-.496-.698-.792c-.03-.294.265-.715.265-.715s.608-.376 1.097.005c.316.246-.618-.543-.508-.895.112-.35.394-.67.394-.67s.265-.375 1.216-.07c.195.062-.47-.583-.324-.883.147-.299.399-.622.399-.622zm1.685 14.426c.017.03-.137.194-.144.225-.005.033.138.214.107.244-.026.026-.213-.082-.26-.065-.055.016-.163.192-.202.177-.048-.026.006-.232-.019-.266-.027-.042-.237-.093-.231-.136.011-.04.235-.079.251-.1.016-.018.018-.256.06-.258.035-.006.139.19.17.204.032.013.251-.057.268-.025zm-.503.36c-.652.504-1.579.698-2.546-.332-.7-.81-.964-1.617-2.857-1.527 2.194-.566 2.266.009 3.362 1.247.533.762 1.372.77 1.97.53.092.013.087.052.07.082zm29.346-13.58c.06.027.022.44.047.492.03.05.448.155.438.235-.01.069-.407.12-.455.198-.063.085-.022.463-.093.484-.1.015-.259-.342-.33-.367-.09-.03-.452.131-.494.062-.03-.07.249-.378.25-.427.003-.046-.263-.396-.21-.444.05-.05.422.12.486.104.061-.014.298-.364.36-.338h.001zm-.325 1.093c-.373 1.467-1.502 2.795-4.089 2.38-1.947-.396-3.255-1.272-5.913.987 2.553-3.292 3.316-2.536 6.328-1.96 1.648.507 2.882-.423 3.483-1.447.146-.086.184-.022.193.04h-.002zM77.738.316c.076-.073.677.216.772.204.094-.012.49-.575.603-.514.099.051-.047.672.043.788.09.142.688.292.681.412-.033.157-.663.19-.743.284-.094.118-.058.747-.185.77-.122.006-.43-.583-.502-.613-.07-.03-.75.169-.793.063-.046-.103.422-.562.433-.663.011-.101-.383-.657-.309-.73V.315zM58.143 18.659c.179-.036.76.95.907 1.02.145.072 1.254-.36 1.357-.164.09.167-.715.915-.695 1.169-.005.29.706 1.069.578 1.23-.2.192-1.133-.352-1.336-.293-.252.077-.798 1.014-1.002.926-.181-.108-.056-1.245-.13-1.355-.073-.109-1.235-.466-1.196-.657.033-.192 1.14-.407 1.255-.54.114-.135.084-1.3.262-1.336zm6.037-7.24c.258-.12 1.507 1.16 1.755 1.214.25.055 1.767-1.005 1.995-.748.2.218-.743 1.65-.619 2.027.103.44 1.465 1.359 1.334 1.653-.23.364-1.845-.12-2.132.045-.349.209-.834 1.83-1.173 1.771-.312-.096-.549-1.864-.701-2.004-.152-.141-2.046-.255-2.058-.558-.02-.301 1.577-1.035 1.7-1.279.125-.245-.357-2-.101-2.12zm8.147 2.733c.288-.103 1.491 1.37 1.748 1.45.258.082 1.967-.902 2.185-.609.192.251-.94 1.683-.844 2.093.065.476 1.426 1.578 1.259 1.877-.279.364-1.948-.299-2.268-.15-.39.189-1.056 1.863-1.413 1.77-.323-.131-.406-2.028-.554-2.19-.147-.163-2.146-.462-2.13-.784.007-.322 1.772-.95 1.925-1.2.153-.247-.194-2.154.092-2.256zm6.958 5.471c.414-.235 2.664 1.708 3.083 1.765.42.055 2.782-1.917 3.199-1.522.365.334-.992 2.84-.733 3.445.23.716 2.624 2.047 2.448 2.551-.327.637-3.077.064-3.528.377-.55.394-1.12 3.15-1.694 3.1-.532-.115-1.177-3.011-1.45-3.221-.268-.21-3.424-.133-3.488-.635-.075-.498 2.468-1.939 2.636-2.362.168-.422-.883-3.264-.473-3.498zm-4.489-16.47c.49-.373 3.71 1.728 4.258 1.73.55-.003 3.227-2.934 3.827-2.5.526.365-.771 3.807-.335 4.537.42.877 3.719 2.17 3.582 2.845-.31.872-3.928.612-4.451 1.09-.637.6-.884 4.226-1.627 4.261-.702-.056-2.034-3.654-2.42-3.875-.382-.223-4.41.42-4.58-.213-.183-.624 2.822-2.907 2.965-3.477.141-.57-1.702-4.028-1.218-4.4v.001zm-10.14 15.73c.373-.13 1.94 1.8 2.278 1.909.338.105 2.577-1.175 2.863-.79.25.331-1.238 2.199-1.118 2.733.084.625 1.863 2.073 1.64 2.464-.362.477-2.545-.397-2.964-.208-.512.244-1.387 2.435-1.859 2.31-.417-.173-.518-2.655-.714-2.87-.187-.211-2.803-.61-2.784-1.034.015-.418 2.325-1.236 2.528-1.558.2-.326-.244-2.821.13-2.957v.001zM42.57 41.858c-2.52-6.502-9.874-9.745-16.425-7.246-6.552 2.5-9.82 9.798-7.3 16.3 2.52 6.5 9.873 9.744 16.424 7.245 6.55-2.501 9.82-9.798 7.3-16.3zm-6.939-4c.2.024.291-.075.299-.166a10.107 10.107 0 013.791 3.957c-.086.002-.185.079-.185.253v.037c.033.313-.054.703-1.298.988-1.245.286-1.683-.258-3.936.619l-.054.021-.033.014-.02.008-.052.022-.04.017-.01.004-.044.02-.006.002-.048.022-.047.022-.047.023c-.848.418-1.126.892-1.189 1.269a2.505 2.505 0 00-.503-.525c.437-.047 1.018-.37 1.534-1.501.998-2.188.474-2.65.825-3.871.35-1.217.748-1.282 1.062-1.234h.001zm-5.887 8.894c-.204-.528.06-1.12.592-1.324a1.036 1.036 0 011.333.59 1.02 1.02 0 01-.592 1.32 1.034 1.034 0 01-1.333-.586zm-1.63-9.854c.157-.122.15-.257.092-.327a10.23 10.23 0 015.502.14c-.063.068-.076.202.075.333.247.199.463.535-.213 1.609-.677 1.076-1.309 1.028-2.342 3.201-.531 1.117-.363 1.774-.092 2.138a2.45 2.45 0 00-.735-.02c.275-.34.457-.975.016-2.138-.853-2.25-1.553-2.207-2.174-3.316-.62-1.107-.386-1.432-.13-1.62zm-2.176.538c.002.092.089.196.29.183.315-.034.707.053.995 1.287.288 1.236-.194 1.646.625 3.907.42 1.163 1.007 1.508 1.458 1.575a2.372 2.372 0 00-.533.503c-.05-.434-.373-1.01-1.514-1.524-2.204-.991-2.67-.47-3.9-.818-1.226-.348-1.293-.742-1.244-1.053.025-.199-.076-.29-.167-.297a10.12 10.12 0 013.99-3.763zm-5.12 11.426a10.008 10.008 0 01.142-5.458c.066.061.201.074.334-.076.2-.244.54-.46 1.621.212 1.085.672 1.037 1.3 3.226 2.323 1.125.527 1.786.362 2.153.092a2.42 2.42 0 00-.019.728 1.187 1.187 0 00-.204-.13l-.02-.01h-.001c-.332-.157-.84-.216-1.608.017l-.006.002-.05.016-.007.002-.045.014-.006.002-.046.016-.053.018-.02.007-.005.002-.084.03c-2.264.846-2.223 1.54-3.34 2.157-1.116.615-1.443.384-1.63.13l-.006-.008-.003-.003-.003-.004-.006-.006-.006-.007-.003-.003-.002-.003-.006-.006v-.001l-.006-.005-.004-.004-.002-.002-.006-.006-.006-.005-.004-.004-.002-.001-.006-.005-.005-.004-.005-.003-.002-.001-.006-.005-.005-.004-.005-.003-.012-.007-.005-.003h-.001c-.086-.046-.166-.031-.214.01h-.002zm4.963 6.047c-.2-.025-.291.077-.299.167a10.098 10.098 0 01-3.791-3.96.172.172 0 00.13-.07l.004-.005.002-.002.002-.003.009-.014.003-.005.002-.006.002-.003v-.002l.003-.006.002-.006.002-.003v-.003l.003-.006.002-.006.002-.005v-.002l.002-.007.002-.006.002-.005v-.002l.002-.007v-.002l.001-.006.001-.006v-.001l.001-.008v-.008l.002-.006v-.026l.001-.009v-.045c-.031-.314.054-.704 1.298-.988 1.245-.285 1.658.191 3.937-.62l.085-.032h.001l.072-.029.01-.004.04-.016.014-.005.036-.015.049-.02.044-.02.003-.001.047-.022.044-.021.044-.022.043-.021.034-.018.009-.004.032-.018.008-.004.04-.023.016-.008.022-.014c.038-.023.075-.045.11-.068l.035-.022.007-.005.027-.019.033-.023.032-.023.028-.021.007-.005c.029-.022.057-.045.083-.067l.028-.024.005-.005.021-.019.025-.023.025-.024c.023-.022.046-.045.066-.068l.003-.003.014-.014.008-.01.02-.023.005-.005.016-.019.005-.006.014-.018.018-.024.008-.01.01-.014.017-.023.017-.024v-.001l.015-.023.015-.023.011-.02.004-.004.01-.02.003-.004.013-.023.005-.01.008-.013.011-.024.011-.023.01-.023.011-.023.002-.006.007-.017.008-.02v-.003l.009-.022.003-.01.004-.012.003-.008.017-.06.006-.02a.905.905 0 00.02-.107c.145.203.316.38.509.528-.453.046-1.056.363-1.536 1.5-.933 2.216-.474 2.65-.825 3.87-.35 1.217-.746 1.284-1.06 1.236v.003zm7.517.958c-.159.123-.151.26-.09.329a10.22 10.22 0 01-5.505-.14c.063-.065.078-.2-.075-.333-.246-.199-.463-.535.213-1.609.677-1.076 1.375-.999 2.343-3.201.498-1.136.352-1.78.095-2.135.238.043.484.05.732.02-.29.35-.488.996-.017 2.136.92 2.222 1.553 2.207 2.173 3.315.62 1.106.388 1.43.13 1.617h.001zm2.177-.536c0-.092-.087-.2-.29-.185-.316.033-.709-.054-.996-1.287-.288-1.236.26-1.672-.625-3.906-.456-1.154-1.02-1.507-1.453-1.578.205-.14.382-.312.53-.5.046.45.364 1.047 1.51 1.522 2.233.928 2.671.471 3.9.818 1.227.35 1.293.742 1.245 1.054-.024.2.078.29.17.296a10.113 10.113 0 01-3.992 3.766h.001zm4.977-5.969c-.066-.063-.202-.078-.334.073-.2.246-.54.46-1.622-.21-1.085-.672-1.007-1.365-3.225-2.324-1.146-.496-1.795-.35-2.152-.094.042-.239.05-.483.018-.728l.027.02.007.007.018.013.003.002.015.01.014.01.005.003.02.013.006.004.032.02.02.013.012.006.01.005.02.012.004.002.018.009.018.008.005.003c.022.01.043.02.066.028l.004.002.024.01.014.005.011.004.025.008.005.002.022.007.02.007.006.002.027.007.01.003.017.004.027.006.03.007.016.004.013.002.03.006h.005l.025.005.024.003.006.001a1.4 1.4 0 00.096.01l.048.003h.019l.034.001h.071c.036 0 .072-.001.11-.004l.038-.002.023-.002.016-.002.04-.004h.007l.032-.005.032-.004h.009l.041-.007.016-.003.011-.002.057-.01.068-.014h.001l.018-.004.045-.01.009-.002.036-.008.036-.01.01-.002.046-.012.019-.005.028-.008.048-.014.048-.015.014-.005.036-.011.05-.017.01-.004.007-.002.066-.024.008-.003.01-.004.053-.02.02-.007.012-.005.074-.03c2.24-.912 2.224-1.54 3.34-2.157 1.117-.616 1.445-.383 1.63-.13l.006.008.003.004.003.003.006.007.006.007.004.003.008.01.006.005.004.004.002.002.006.006.006.005.004.002.002.002.006.005.001.001.005.004.004.003.002.001.006.005h.001l.005.004.004.003h.001l.006.004.002.001.004.002.005.003h.001l.006.004h.002l.004.003.005.002.006.003h.002l.003.002.006.002.006.002h.003l.003.002.005.001a.177.177 0 00.162-.03 9.983 9.983 0 01-.14 5.46zm-6.633-3.001l.096.01-.096-.01zm.268.015c.035 0 .072-.002.11-.004l-.11.004zm16.734 1.877l-.699-1.918c-.157-.44-.52-.791-1.004-.791v2.709H47.72v-5.908h1.398v2.611h.016l1.604-2.61h1.595l-1.817 2.66c.501.236.828.644 1.043 1.183l.823 2.064H50.82zm3.961-2.17c-.164 0-.36-.017-.469-.032v2.202h-1.369v-5.687c.475-.204 1.091-.318 1.808-.318 1.545 0 2.383.758 2.383 1.933 0 1.094-.782 1.902-2.353 1.902zm-.014-2.8c-.174 0-.346.034-.454.066v1.665c.092.017.248.033.404.033.7 0 1.044-.31 1.044-.866 0-.612-.335-.897-.994-.897zm6.157 4.97l-.345-1.2h-1.89l-.347 1.2h-1.462l1.923-5.908h1.662l1.922 5.908h-1.463zM59.79 44.23a5.869 5.869 0 01-.146-.742h-.019s-.05.4-.147.742l-.526 1.82h1.364l-.526-1.82zm5.189 4.12c-1.332 0-2.384-1.002-2.384-3.05 0-2.05 1.052-3.052 2.384-3.052.527 0 1.012.13 1.3.318l-.43 1.102a1.184 1.184 0 00-.689-.213c-.684 0-1.127.653-1.127 1.828s.443 1.836 1.127 1.836c.288 0 .533-.106.689-.22l.43 1.134c-.288.187-.75.317-1.3.317zm4.87-.097v-2.407h-1.457v2.407h-1.398v-5.908h1.397v2.368h1.457v-2.368h1.396v5.908H69.85zm5.925 0l-.344-1.2h-1.89l-.345 1.2h-1.463l1.922-5.908h1.662l1.923 5.908h-1.464zM74.64 44.23c-.096-.343-.146-.742-.146-.742h-.016s-.05.4-.15.742l-.526 1.82h1.365l-.526-1.82zm5.922 4.023V45.96h-.378c-.363 0-.593.219-.708.538l-.65 1.754h-1.463l.707-1.812c.148-.391.362-.725.675-.906v-.016c-.526-.196-1.036-.628-1.036-1.436 0-1.167.796-1.836 2.343-1.836.707 0 1.39.114 1.883.318v5.687h-1.373zm0-4.904a2.04 2.04 0 00-.544-.065c-.658 0-.938.302-.938.88 0 .549.306.817.922.817h.56v-1.632zM50.573 56.705v-4.782H49.12v4.782h-1.4v-5.91h4.25v5.91h-1.398zm5.788 0l-.467-4.782h-.79l-.15 1.543c-.145 1.542-.664 2.938-2.053 3.402l-.387-1.208c.732-.383.978-1.207 1.093-2.341l.264-2.523h3.273l.65 5.91h-1.432v-.001zm4.286.097c-1.589 0-2.32-1.314-2.32-3.052 0-1.736.731-3.05 2.32-3.05 1.585 0 2.317 1.313 2.317 3.05 0 1.738-.732 3.052-2.317 3.052zm0-4.888c-.61 0-.921.695-.921 1.836 0 1.143.31 1.837.921 1.837.61 0 .92-.695.92-1.837 0-1.141-.31-1.836-.92-1.836zm9.988 5.981h-.945l-.033-1.19h-5.87v-5.91h1.33v4.75h1.241v-4.75h1.334v4.75h1.242v-4.75h1.333v4.75l.441.206-.074 2.145h.001zm4.417-1.19l-.346-1.2h-1.891l-.345 1.2h-1.463l1.922-5.91h1.664l1.923 5.91h-1.464zm-1.135-4.023c-.1-.343-.148-.743-.148-.743h-.016s-.05.4-.149.743l-.524 1.82h1.362l-.525-1.82zm8.617 5.213h-.945l-.033-1.19H77.88l-.032 1.19h-.954l-.066-2.144c.995-.729 1.308-2.131 1.472-3.47l.181-1.485h3.156l.52 4.75.452.205-.074 2.145zm-2.099-5.972h-.786l-.059.506c-.131 1.15-.41 2.53-1.027 3.19h2.245l-.373-3.697zm4.32 4.879c-.715 0-1.316-.114-1.792-.318v-5.688h1.356V53c.107-.024.32-.05.492-.05 1.556 0 2.329.817 2.329 1.911 0 1.175-.84 1.941-2.386 1.941zm-.01-2.815c-.156 0-.337.024-.425.048v1.666c.106.032.279.065.451.065.659 0 .994-.286.994-.897 0-.564-.336-.882-1.02-.882zM50.511 40.098l-.242-1.92c-.02-.161-.029-.353-.029-.353h-.01s-.039.195-.094.353l-.661 1.92h-.33l-.663-1.92c-.054-.157-.093-.353-.093-.353h-.01s-.004.191-.025.353l-.245 1.92h-.389l.373-2.629h.497l.634 1.843c.049.147.084.328.084.328h.01s.033-.18.083-.328l.629-1.843h.5l.368 2.63h-.388zm3.066-1.38l-1.81.259c.045.56.385.844.89.844.266 0 .548-.064.725-.16l.127.305c-.192.11-.523.186-.87.186-.793 0-1.268-.508-1.268-1.37 0-.81.437-1.366 1.154-1.366.653 0 1.056.425 1.056 1.127 0 .053 0 .112-.004.175zm-1.057-.99c-.468 0-.767.37-.777.965l1.444-.204c-.004-.517-.269-.76-.667-.76v-.001zm2.102.068v2.302h-.407v-2.63h1.487v.328h-1.08zm2.503 2.355c-.729 0-1.092-.307-1.092-.805 0-.75.816-.862 1.617-.906v-.2c0-.39-.26-.513-.63-.513-.246 0-.55.078-.722.161l-.107-.288c.202-.092.535-.185.864-.185.596 0 .983.235.983.858v1.692c-.187.103-.565.185-.913.185zm.526-1.428c-.59.033-1.23.068-1.23.614 0 .306.23.506.693.506.202 0 .443-.039.537-.083v-1.038zm3.252 2.086h-.3l-.02-.711h-1.828v-2.63h.414v2.302h1.148v-2.302h.413v2.298l.197.083-.023.96zm2.736-2.092l-1.808.259c.044.56.382.844.887.844.266 0 .548-.063.724-.16l.127.306c-.192.109-.52.185-.87.185-.79 0-1.267-.507-1.267-1.369 0-.81.437-1.366 1.156-1.366.653 0 1.054.425 1.054 1.127 0 .053 0 .112-.004.175zm-1.056-.99c-.466 0-.767.371-.778.966l1.445-.204c-.003-.517-.27-.761-.668-.761zm3.247 2.37v-1.195h-1.16v1.196h-.407v-2.63h.406v1.142h1.16v-1.142h.41v2.63h-.41zm2.073-2.296v2.297h-.408V37.8h-.749v-.332h1.904v.332h-.748zm2.137 2.326c-.18 0-.372-.033-.471-.069v1.087h-.412V37.6c.17-.092.52-.185.853-.185.806 0 1.257.527 1.257 1.341 0 .804-.436 1.37-1.228 1.37v.001zm-.024-2.385c-.176 0-.363.044-.447.089v1.906c.08.034.28.068.442.068.556 0 .845-.444.845-1.048 0-.609-.294-1.014-.84-1.014zm-52.398 8.713v-.03a14.416 14.416 0 01-1.075-.003c-.915.325-1.72.805-2.282 1.508-.278.388-6.024 7.488-7.697 7.528-.626.023-1.626-.017-4.01 0-2.298.25-2.473 2.545-2.473 2.545s7.487.032 8.825 0c2.465-.032 7.519-4.554 8.64-5.384.356-.35.812-.572 1.319-.702a12.842 12.842 0 01-1.248-5.462h.001zM8.742 22.731c.094.35.275.775.617 1.207a3.45 3.45 0 00-.461.348 2.955 2.955 0 01-.926-.993c.224-.2.478-.388.77-.563zm2.734-.737a3.098 3.098 0 00-.088.742c0 .181.017.377.053.585-.235.007-.48.035-.734.089a2.876 2.876 0 01-.279-1.212l.002-.096a5.285 5.285 0 011.047-.108zm-3.548 6.47c.01.218.011.423.009.622a3.253 3.253 0 01-.394.026 2.8 2.8 0 01-1.02-.185 24.892 24.892 0 00-.014-.604c.226.061.51.11.841.11.177 0 .37-.014.574-.049l.005.08zm4.963-6.265a3.264 3.264 0 00-.442 1.218 3.839 3.839 0 00-.605-.09 2.983 2.983 0 01-.06-.592c0-.288.043-.532.097-.725.353.029.69.093 1.01.188zm-5.542 5.84c-.36 0-.65-.065-.862-.137a16.824 16.824 0 01-.022-.75 3.264 3.264 0 001.421.127c0 .23.008.466.018.71-.199.035-.385.05-.555.05zm8.798-3.55a3.326 3.326 0 00-1.042.75 6.504 6.504 0 00-.492-.55 2.92 2.92 0 01.771-.777c.051-.033.1-.063.148-.091.232.228.437.454.615.668zm-1.827-.072a4.948 4.948 0 00-.55-.417 2.919 2.919 0 01.745-1.017c.26.176.5.366.718.56-.284.18-.616.456-.913.874zm-.89-.622a4.091 4.091 0 00-.596-.263c.071-.512.245-.898.42-1.173l.022-.03c.317.12.616.268.895.433a3.27 3.27 0 00-.74 1.033zM10.033 22.2c0 .352.067.81.289 1.312-.195.06-.394.132-.598.222l-.016.008a2.878 2.878 0 01-.604-1.203c.318-.143.627-.255.929-.338zm-2.82 9.683a2.356 2.356 0 01-.85.742 2.909 2.909 0 01-.541-1.341c.08-.057.149-.124.213-.198.245.265.626.575 1.177.797zm-1.766-.422c.063.37.211.833.538 1.315a2.69 2.69 0 01-.967.107 2.997 2.997 0 01-.03-.413c0-.402.08-.727.168-.958.104-.008.202-.025.29-.05h.001zm-.706.04a3.172 3.172 0 00-.129 1.325 1.848 1.848 0 01-.454-.157c-.382-.225-.14-1.296.36-1.203.078.016.151.027.223.035zm3.88-6.925c-.101.122-.19.249-.266.38a3.003 3.003 0 01-1.295-.52c.161-.296.365-.586.62-.858.19.314.485.675.94.998zm-1.078 4.929c.121 0 .25-.009.38-.023-.018.314-.052.6-.1.861a2.881 2.881 0 01-1.234-.273 3.529 3.529 0 01-.128-.067c.034-.218.05-.441.058-.66.269.09.613.161 1.025.161zm.333-3.255l.07-.003a6.51 6.51 0 00-.052.637 3.03 3.03 0 01-.424.03 2.81 2.81 0 01-.995-.176c.011-.243.033-.494.074-.75a3.36 3.36 0 001.327.262zm-.99-1.457a3.36 3.36 0 001.292.533c-.067.169-.12.342-.161.526-.048.001-.096.005-.142.005-.533 0-.95-.125-1.25-.265.061-.267.145-.535.26-.8v.001zm-.511 5.61c.31.156.77.314 1.36.33-.083.31-.188.578-.311.81a2.93 2.93 0 01-.985-.607 2.475 2.475 0 01-.186-.198 2.09 2.09 0 00.122-.336z" fill="#C7C7C7"/></svg>