<svg width="109" height="15" fill="none" xmlns="http://www.w3.org/2000/svg"><path fill-rule="evenodd" clip-rule="evenodd" d="M70.048 6.305c-.855-1.047-1.118-4.956-2.802-5.14-1.256-.136-1.704 1.004-1.864 2.033l-.937 6.89c-.137 1.04-.572 2.365.23 3.141.76.737 2.2.414 2.472-.64.32-1.245.453-3.25.49-3.38.873.772.504 3.25 2.414 3.286 1.96.037 1.713-2.88 2.418-3.218.282.82.164 2.306.544 3.346.391 1.07 1.706 1.398 2.491.598.79-.806.353-2.212.194-3.265-.173-1.15-.3-2.306-.487-3.451-.23-1.404-.12-5.864-2.437-5.318-1.552.367-1.972 4.559-2.726 5.119v-.001zm15.595 6.114c.34 1.962 3.35 1.374 3.027-.527-.344-2.032-3.376-1.485-3.027.527zM22.518 4.332c.576-.593 1.412-.517 1.212-1.829-.308-2.023-3.012-1.7-3.122.173-.072 1.2.889 1.12 1.25 1.798-1.154.324-1.251.49-1.272 1.809-.017 1.015.002 2.05-.002 3.07-.008 1.48-.55 4.585 1.697 4.51 2.021-.069 1.488-3.215 1.507-4.697.015-1.194.228-3.342-.357-4.22-.357-.534-.589-.294-.913-.614zm57.681 1.004c-.402-2.146 2.635-.167 3.935-1.82.467-.594.208-1.586-.34-2.03-.597-.485-1.733-.34-2.478-.34-1.653 0-3 .427-3.831 1.966-.679 1.256-.405 3.69-.418 5.218-.016 1.883-.231 3.131 1.273 4.459 1.182 1.043 3.196 1.057 4.708.874 2.128-.258 1.934-2.505.516-3.016-.506-.183-2.124-.057-2.81-.104-.623-.042-.502-.172-.576-.767-.049-.393-.138-.894.022-1.252.73-.392 3.714.61 3.653-1.586-.058-2.103-2.363-1.48-3.656-1.603l.002.001zm20.064 4.902c.512 4.538 7.311 5.18 8.517.316.227-.914.108-6.424.072-7.714-.032-1.101-.949-2.002-2.075-1.54-1.258.516-.976 1.7-.975 2.847v3.905c-.002.942.213 2.684-1.108 2.822-1.581.166-1.353-1.654-1.35-2.636.004-1.271.017-2.54.017-3.813 0-1.044.21-2.415-.843-3.041-.968-.577-2.173.085-2.277 1.185-.107 1.139.013 2.705.003 3.902-.008 1.13-.103 2.68.019 3.767zm-59.04-3.935c.122-.365 1.266-2.138 1.578-2.678.612-1.062-.042-2.413-1.255-2.45-1.593-.051-2.929 4.125-3.673 4.506-.118-.884.171-2.69-.099-3.428-.334-.91-1.447-1.313-2.26-.79-.96.619-.773 1.787-.765 2.777v6.972c0 1-.067 2.02 1.087 2.368 1.182.357 1.915-.268 2.014-1.436.062-.722-.163-2.81.139-3.29.571-.168 1.588-.099 1.962.426.768 1.08-.354 3.151.855 4.08.49.378 1.403.407 1.908.031.842-.626.747-3.217.53-4.222-.391-1.814-1.66-2.336-2.02-2.868l-.001.002zM4.624 3.024c2.134-.702 3.327 2.717.77 3.42-.277.076-1.454.126-1.74.094-.587-.063-.496-.793-.485-1.278.026-1.175.336-1.868 1.455-2.236zM3.245 9.51c1.954-.226 3.02.372 4.792-1.17C9.272 7.264 9.9 5.84 9.71 4.16 9.333.844 5.575-.965 2.637.53-.69 2.223.082 6.676.067 9.817c-.005 1.302-.437 4.516 1.787 4.17 2.156-.338 1.026-3.262 1.391-4.476zm25.199-4.436c-.087-.68.007-.867.63-1.096.547.291.92 1.082 1.465 1.625-.442-.02-.652-.174-1.19-.188-.804-.019-.462-.136-.905-.342zm2.538.743c.585-.35 2.23-.336 1.741-2.064a3.94 3.94 0 00-1.738-2.262c-1.971-1.163-4.3-.377-5.325 1.572-1.066 2.025.055 4.38 2.014 5.181.962.394 2.427-.068 2.757 1.245.26 1.034-1.109 1.926-2.041 1.103-.708-.626.066-2.054-1.386-2.623-1.129-.443-2.084.53-2.102 1.658-.033 2.081 1.504 3.957 3.574 4.295 2.16.353 4.25-.911 4.9-2.978a3.938 3.938 0 00-.384-3.273c-.964-1.619-1.705-1.499-2.01-1.853v-.001zm17.072-.451c-.065-.958.153-2.465-.246-3.28-.42-.858-1.455-1.291-2.259-.556-.898.82-.64 1.772-.646 2.893l-.022 6.973c-.01 1.003.078 2.101 1.335 2.243 2.8.317 1.465-3.616 1.83-5.16l1.846-.014c.375 1.179-.795 5.762 1.851 5.208 1.286-.268 1.327-1.026 1.341-2.184V4.423c.002-1.022.246-2.257-.62-2.9-.833-.619-1.844-.32-2.302.525-.491.906.057 2.445-.276 3.319l-1.832-.002zm9.552 4.336c-.078-.981-.105-3.644.02-4.579.208-1.54 2.36-1.378 2.428.132.051 1.163.11 3.536-.03 4.632-.176 1.372-2.284 1.477-2.417-.184zm-3.075.393c.275 3.004 3.893 4.981 6.52 3.291 1.136-.729 1.974-1.931 2.057-3.302.089-1.458.108-3.923.012-5.372-.196-2.95-3.811-4.72-6.425-3.207-1.094.633-2.026 1.952-2.16 3.22-.12 1.135-.11 4.218-.004 5.37zm-40.709-.186c-.117-.73-.098-3.857-.019-4.645.16-1.593 2.143-1.575 2.408-.172.12.643.072 3.876.01 4.636-.14 1.69-2.196 1.447-2.399.181zm5.478.372c.165-.998.109-4.182.05-5.297-.07-1.342-.88-2.64-1.996-3.365-2.574-1.671-6.189-.09-6.61 2.903-.177 1.258-.084 4.031-.038 5.39.046 1.367.882 2.662 2.016 3.402 2.632 1.72 6.072.026 6.578-3.034zm73.887-2.825c.094-2.532-.383-3.284.681-3.202 1.72.131 1.365 1.627.76 2.021-.285.186-.537.25-.818.49-.362.31-.238.456-.624.692v-.001zm.025.959c.336.246.417.606.862.848.48.26.638.191 1.071.601.674.637.106 2.013.48 2.87.383.876 1.383 1.123 2.213.661.858-.477.723-1.781.708-2.654-.018-1.181-.115-1.576-.772-2.578-.526-.8.415-.837.452-2.621.111-5.299-7.259-5.23-7.997-3.384-.32.798-.159 5.35-.157 6.544.002 1.105-.032 2.254-.008 3.352.02.93.808 1.754 1.758 1.588 2.034-.355 1.334-3.686 1.39-5.226v-.001z" fill="#C7C7C7"/></svg>