<svg width="113" height="22" fill="none" xmlns="http://www.w3.org/2000/svg"><path d="M9.095.157a.703.703 0 01.89.004c1.267.842 2.523 1.7 3.786 2.544.201.085.429.381.136.52-4.264 2.86-8.537 5.71-12.808 8.56-.243-.227-.155-.575-.178-.867C.935 9.31.916 7.7.93 6.093c-.043-.376.227-.657.524-.834C4.002 3.562 6.545 1.853 9.094.157zm14.782 1.086c3.501-.033 7.002-.005 10.503-.014.002.918.002 1.838 0 2.757l-7.395.001c0 1.076.002 2.15 0 3.227 1.362.028 2.728-.06 4.085.064 1.606.133 3.16 1.113 3.829 2.602.739 1.636.637 3.66-.355 5.17-.968 1.471-2.815 2.073-4.509 2.028-2.048.007-4.097.002-6.145.002-.01-5.28.015-10.558-.013-15.837zM26.98 9.98c.012 1.448.002 2.895.007 4.342 1.072-.009 2.144.014 3.215-.01.725-.026 1.489-.369 1.825-1.043.386-.808.36-1.852-.202-2.574-.365-.503-1.011-.739-1.618-.727-1.075.009-2.152-.003-3.227.012zM14.834 4.16c.248-.17.59-.368.879-.162.618.363 1.192.797 1.797 1.183.253.188.6.369.62.729.038.813.036 1.631.002 2.446.02.28-.223.436-.417.58-3.789 2.527-7.58 5.047-11.364 7.577-.395.251-.784.6-1.284.565-1.356-.004-2.71.027-4.064-.023C.844 16.053.96 15.03.927 14.018c-.054-.38.169-.712.489-.893 4.47-2.989 8.947-5.973 13.418-8.966zm24.238 1.345c1.385-.19 2.822-.233 4.18.157.968.269 1.87.93 2.27 1.873.336.735.391 1.557.398 2.355-.003 2.396.002 4.793-.002 7.19l-2.829.001a96.555 96.555 0 010-.992c-.654.7-1.585 1.128-2.551 1.114-1.32.01-2.83-.294-3.622-1.459-.968-1.502-.816-3.892.815-4.88 1.599-.993 3.539-.58 5.313-.695-.013-.765-.034-1.776-.88-2.109-1.165-.443-2.724-.363-3.542.698-.614-.601-1.225-1.203-1.837-1.804.638-.646 1.392-1.227 2.286-1.449zm.976 6.759c-.958.176-1.26 1.533-.578 2.173.773.594 1.855.456 2.72.158.906-.436.837-1.576.832-2.426-.99.041-1.995-.095-2.974.095zm14.087-6.757c1.022-.033 2.045-.007 3.068-.014-1.654 4.49-3.306 8.98-4.963 13.468-.342.999-1.077 1.954-2.135 2.233-.775.184-1.578.15-2.367.15 0-.877-.002-1.753.002-2.628.623-.022 1.448.146 1.843-.476.353-.616.51-1.317.76-1.977L46.377 5.495c1.013-.007 2.026.005 3.039-.009.818 2.38 1.61 4.766 2.412 7.152a740.183 740.183 0 002.307-7.131zm16.591 2.498c.6-1.297 1.847-2.257 3.243-2.54 1.17-.167 2.427-.137 3.5.417 1.217.586 2.065 1.773 2.413 3.06.296 1.048.296 2.147.279 3.227-2.423.002-4.845 0-7.266 0 .06.832.307 1.764 1.076 2.217 1.324.666 3.099.438 4.091-.71.602.566 1.18 1.153 1.771 1.727-.794.798-1.769 1.468-2.9 1.658-1.562.261-3.304.261-4.682-.62-1.246-.773-1.892-2.222-2.081-3.63-.212-1.608-.186-3.326.556-4.806zm3.176.084c-.695.452-.958 1.311-1.012 2.099 1.472.002 2.943-.005 4.414.003-.079-.78-.324-1.642-1.014-2.1a2.563 2.563 0 00-2.388-.002zM92.42 5.493c3.223.007 6.447-.016 9.672.01-.015.844-.001 1.687-.008 2.531-1.112.002-2.225 0-3.336 0-.003 3.015 0 6.03-.002 9.045-.973.002-1.947.002-2.918 0-.004-3.015 0-6.03-.002-9.045h-3.408c0-.848-.002-1.695.002-2.541zm13.592 1.058c1.411-1.572 4.057-1.544 5.627-.228.882.817 1.17 2.056 1.225 3.214.067 1.374.093 2.76-.074 4.128-.126.885-.364 1.831-1.027 2.475-1.521 1.442-4.218 1.479-5.672-.08.017 1.76.003 3.52.009 5.282-.967.003-1.932.003-2.898 0 .002-5.283 0-10.565.002-15.85.935 0 1.871 0 2.806.003 0 .351 0 .704.002 1.056zm1.276 1.525c-.99.367-1.166 1.56-1.195 2.486.024 1.13-.092 2.363.501 3.382.732.928 2.59.952 3.07-.247.409-1.045.369-2.198.314-3.299-.066-.718-.15-1.525-.684-2.062-.552-.436-1.36-.486-2.006-.26zM58.242 5.493c.972-.002 1.942 0 2.914-.002.006 3.015.001 6.032.003 9.047h3.72c-.002-3.015.001-6.03 0-9.043.971-.004 1.945-.002 2.918-.002 0 3.015.002 6.03 0 9.043.519.002 1.037.002 1.558.002v5.384c-.92 0-1.842.002-2.762 0-.002-.948 0-1.893-.002-2.84-2.782-.003-5.565 0-8.347 0-.005-3.864-.002-7.726-.002-11.59zm23.514 0c.972-.002 1.944-.002 2.917 0 .004 1.464 0 2.929.002 4.393h3.72c0-1.464-.004-2.929 0-4.393.971-.002 1.943.002 2.915-.002.005 3.863 0 7.726.003 11.588-.975 0-1.948.007-2.922-.005-.005-1.554.024-3.108-.016-4.66-1.233.033-2.467.007-3.7.015 0 1.55-.002 3.1 0 4.65-.972.002-1.945 0-2.917.002-.004-3.863 0-7.725-.002-11.588zm-64.14 5.053c.157-.126.474-.324.517.02.042 1.78-.002 3.565.02 5.349a6.21 6.21 0 01-.07 1.13c-3.02.082-6.044.008-9.066.038-.334-.009-.689.048-.997-.112 3.173-2.18 6.404-4.273 9.596-6.425z" fill="#C7C7C7"/></svg>