<svg width="148" height="16" fill="none" xmlns="http://www.w3.org/2000/svg"><path d="M15.405 3.029c.337-1.778-.201-2.963-2.354-2.963H6.39l-.606 3.029h5.651c.337 0 .471.197.404.592l-.74 3.687H7.602l.538-2.567L0 8.626h6.055l-.539 2.567 5.315-2.502-.673 3.622c-.067.395-.269.526-.673.526h-5.65l-.606 3.095h6.66c2.153 0 3.162-1.25 3.498-2.963l2.018-9.942zm10.966 12.905L29.533 0h-7.4c-2.153 0-3.23 1.251-3.566 2.963L14.8 15.934h3.633l3.43-12.247c.068-.395.27-.592.606-.592h2.96l-2.556 12.84h3.498zM38.144 8.56l-.74 3.884c-.068.395-.337.593-.673.593h-2.96l1.009-5.07h2.96c.404.066.538.198.404.593zm3.565-.395c.336-1.778-.202-3.03-2.355-3.03h-3.968l1.008-5.07h-3.498L29.734 16h7.468c2.22 0 3.162-1.251 3.565-2.963l.942-4.872zm11.504-5.07l-1.951 9.744h-3.7l2.556-9.152c.067-.395.27-.592.606-.592h2.489zm1.547 9.744L57.316 0H50.32c-2.153 0-3.23 1.251-3.566 2.963l-2.825 9.81h-1.48l-.673 3.095h13.388l.605-3.094H54.76v.066zm12.11-9.152l-1.683 8.626c-.134.395-.336.526-.672.526h-2.49c-.336 0-.47-.131-.403-.526l1.749-8.626c.067-.395.202-.592.605-.592h2.49c.336 0 .47.197.403.592zm3.564-.658c.338-1.779-.2-2.963-2.354-2.963h-4.44c-2.153 0-3.23 1.25-3.633 2.963l-1.95 9.942c-.337 1.778.201 2.963 2.354 2.963h4.507c2.22 0 3.23-1.25 3.566-2.963l1.95-9.942zm9.89.658l-.808 3.95c-.067.462-.269.593-.672.593h-2.96l1.076-5.135h2.96c.336 0 .47.197.404.592zm3.565-.658c.404-1.778-.202-2.963-2.355-2.963h-7.4L70.974 16h3.363l.942-4.61h4.036c2.153 0 3.028-1.25 3.432-3.028l1.143-5.333zm7.131 1.185l-.538 6.19H88.06l2.758-6.19h.202zm2.893 11.72L94.316 0h-4.709l-7.803 15.934h3.767l1.278-2.963h3.364l-.27 2.963h3.97zm12.849-12.84l-1.951 9.745h-3.7l2.556-9.152c.068-.395.269-.592.606-.592h2.489zm1.547 9.745L110.865 0h-6.996c-2.153 0-3.229 1.251-3.565 2.963l-2.826 9.81h-1.48l-.672 3.095h13.387l.605-3.094h-1.009v.066zm12.513-9.152l-1.749 8.626c-.068.395-.269.526-.606.526h-2.489c-.336 0-.471-.131-.403-.526l1.681-8.626c.135-.395.337-.592.606-.592h2.489c.336 0 .538.197.471.592zm1.143-3.621h-4.507c-2.153 0-3.162 1.25-3.498 2.963l-1.951 9.942c-.336 1.778.202 2.963 2.355 2.963h4.507c2.153 0 3.162-1.25 3.498-2.963l2.018-9.942c.269-1.778-.269-2.963-2.422-2.963zm5.786 12.247l-.74 3.687h-3.431l.74-3.687h3.431zm18.5 1.382c-.269 1.317-1.009 2.24-2.624 2.24h-2.892c-1.615 0-2.019-.923-1.75-2.24l1.75-8.888h2.489l-1.682 8.493c-.067.198 0 .33.134.33h1.817c.202 0 .269-.066.336-.33l1.682-8.493H148l-1.749 8.888zm-10.629-6.32l-.606 2.765c-.067.33-.201.395-.471.395h-2.018l.74-3.556h2.086c.202 0 .336.132.269.395zm.807-2.568h-5.18l-2.22 11.127h2.355l.672-3.226h1.144l.538 3.226h2.624l-.673-3.292c.942-.263 1.413-1.053 1.615-2.041l.74-3.687c.336-1.251-.068-2.107-1.615-2.107z" fill="#C7C7C7"/></svg>