<svg width="76" height="22" fill="none" xmlns="http://www.w3.org/2000/svg"><path d="M30.956 1.146l-.338 1.34s-1.039-.13-2.499 1.089L21.7 8.705l-2.252 1.806s1.068 1.663 2.252 3.478c1.306 2.002 2.751 4.184 3.036 4.49.543.584 1.436 1.571 2.799 1.562l-.354 1.432c-2.335 0-4.077.069-5.48.003-4.147-.186-5.33-1.518-10.088-9.142 0 0-1.35 4.884-1.677 6.103-.33 1.23 1.386 1.572 1.386 1.572l-.362 1.453H.193l.024-.098.332-1.335c.544-.035 2.057.146 2.998-3.436.231-.682-.166.554 3.27-11.862.487-1.844-.917-2.117-1.406-2.242l.329-1.325 10.298-.006-.333 1.334s-1.386.152-1.768 1.439l-1.84 6.669s8.559-6.533 8.665-6.628c.837-.774-.187-1.426-.92-1.48l.333-1.325 1.528-.003 9.253-.018zm34.057-.18a25.65 25.65 0 00-3.288.162c-8.624 1.009-13.844 6.441-13.83 11.88.016 4.557 3.698 8.949 12.251 8.913a27.263 27.263 0 001.582-.05c2.069-.107 3.897-.395 5.562-.73l.988-4.243c-1.653.552-3.748 1.014-5.422 1.017-.386 0-.763-.018-1.128-.056-3.92-.395-6.478-2.927-6.487-6.156-.01-3.348 2.424-5.978 6.487-6.663a13.29 13.29 0 012.172-.175c2.62 0 3.95.868 4.823 2.01h.71l1.397-5.011c-1.442-.466-3.576-.866-5.817-.899zm-22.685.195H32.173l-.332 1.325s2.027.22 1.403 2.24l-4.608 16.736 9.214.014.344-1.438s-1.72-.415-1.273-2.004c.033-.143 1.354-4.967 1.354-4.967l4.053-.003h.17c2.104.006 2.798 1.097 2.798 1.097l1.226-4.967h-7.12l1.06-3.905h1.866l4.315-.003c1.14 0 1.935.756 1.935 1.313h.7l1.363-5.438h-8.313zm32.574 2.657c.273-.276.415-.617.415-1.011 0-.392-.142-.727-.412-1.003a1.37 1.37 0 00-1.01-.42c-.391 0-.727.136-1.005.42a1.369 1.369 0 00-.416 1.003c0 .394.136.732.412 1.01a1.34 1.34 0 001.007.419c.397 0 .73-.14 1.009-.418zm.163-2.177c.323.324.484.712.484 1.166 0 .46-.16.845-.484 1.171a1.585 1.585 0 01-1.172.486c-.457 0-.846-.163-1.17-.486a1.6 1.6 0 01-.48-1.171c0-.454.16-.842.483-1.166.324-.32.713-.48 1.167-.477.46-.003.845.154 1.172.477zm-.926 1.089a.284.284 0 00.187-.282c0-.134-.042-.22-.119-.267-.083-.047-.21-.068-.392-.065h-.267v.655h.288a.869.869 0 00.303-.041zm.475.86c.003.05.009.08.017.094l.01.024h-.297l-.006-.02c-.003-.007-.003-.01-.003-.021l-.01-.06v-.145c0-.208-.056-.347-.168-.412-.069-.039-.19-.062-.356-.062h-.25v.717h-.323V1.89h.638c.225 0 .389.024.496.069.186.077.284.23.284.46 0 .16-.059.278-.18.355a.707.707 0 01-.262.086c.14.02.247.08.312.175.062.1.098.193.098.282v.133c-.006.05-.003.095 0 .14z" fill="#C7C7C7"/></svg>