<svg width="159" height="103" fill="none" xmlns="http://www.w3.org/2000/svg"><path fill-rule="evenodd" clip-rule="evenodd" d="M104.406 50.193c3.572 2.733 7.729 3.72 13.152 2.822 1.95-.323 1.599-.403 2.88-.701-.576-2.473-5.108-7.31-7.119-9.324-2.606-2.61-4.981-4.347-7.857-6.468-1.757-1.296-.264-2.775.495-2.775 1.785 0 7.394 5.218 9.234 7.044 2.717 2.694 5.121 6.226 7.269 9.175 3.038 4.17 2.697 6.98 2.697 12.12h-16.609l3.63 10.424h34.62c1.124 0 1.952-.522 1.952-1.628v-7.33a1.47 1.47 0 00-1.464-1.465h-19.199c0-8.41 7.425-13.571 13.839-17.419.791-.474 4.206-2.46 5.134-2.354 1.071.124 2.342 1.93-.4 3.02-2.919 1.16-7.834 4.614-10.153 6.938-1.077 1.08-2.333 2.429-3.051 3.788 1.046.243 2.048.682 3.123.946 3.965.977 9.081.73 12.469-1.466 3.394-2.198 5.771-5.028 7.485-8.632.153-.322.215-.502.354-.785.757-1.537 2.116-4.964 2.116-7.003 0-1.041-1.956-1.494-2.664-1.73-5.311-1.773-14.043-3-19.36-.283-4.282 2.188-6.908 7.095-7.103 11.946-.075 1.879-.598 1.659-1.441 2.792-.304.408-.647 1.023-.998 1.282-.638-1.333-.804-2.268-1.828-3.88-.761-1.198-.08-.678.724-4.066.764-3.221.338-7.011-.798-9.694-2.292-5.411-8.131-8.745-14.043-8.745-4.459 0-6.242.093-10.59.964-1.525.305-2.706.567-3.992.948l7.499 21.539h-.003z" fill="#fff"/><path fill-rule="evenodd" clip-rule="evenodd" d="M119.832 94.496h20.131c1.59 0 1.571-2.074 2.016-4.008.403-1.75.746-3.393 1.091-5.097l2.099-10.114h-32.028l6.691 19.219z" fill="#EBA707"/><path d="M83.74 5.322l31.457 90.346c.784 2.133.711 3.898-.221 5.272-.93 1.373-2.572 2.06-4.924 2.06H98.488c-3.724 0-6.174-1.766-7.35-5.297l-4.95-15.89H48.656l-5.023 15.89c-1.225 3.532-3.7 5.297-7.472 5.297H24.13c-2.45 0-4.14-.712-5.096-2.159-.955-1.422-1.029-3.261-.245-5.517L50.247 4.979C51.447 1.668 53.947 0 57.768 0h18.424c3.822 0 6.346 1.766 7.546 5.321l.001.001zm-29.204 57.95h25.872l-12.936-41.2-12.935 41.2h-.001z" fill="#fff"/><path fill-rule="evenodd" clip-rule="evenodd" d="M13.985 95.326L45.443 4.98c1.229-3.53.76-4.3-1.67-4.979h-4.259c-3.821 0-6.321 1.668-7.521 4.979L.535 95.326c-.784 2.256-.71 4.095.245 5.517.955 1.447 2.646 2.159 5.096 2.159 5.231 0 6.562-3.232 8.11-7.676z" fill="#EBA707"/></svg>