<svg width="120" height="120" fill="none" xmlns="http://www.w3.org/2000/svg"><g clip-path="url(#clip0_2761_8914)"><path d="M58.906 18.516h34.845v12.888H58.906V18.516z" fill="#EBA707"/><path d="M103.508 0H49.149c-4.96 0-8.993 4.034-8.993 8.993v83.948a3.514 3.514 0 003.516 3.516h59.836c4.957 0 8.993-4.034 8.993-8.99V8.992c0-4.96-4.036-8.993-8.993-8.993zM65.844 87.654H55.39a3.515 3.515 0 110-7.031h10.453a3.515 3.515 0 110 7.031zm26.114-11.719H55.39a3.515 3.515 0 110-7.031h36.567a3.517 3.517 0 010 7.031zM51.875 60.701a3.515 3.515 0 013.516-3.516h32.5a3.515 3.515 0 110 7.031h-32.5a3.514 3.514 0 01-3.516-3.515zm45.391-8.203H55.391a3.515 3.515 0 110-7.031h41.875a3.517 3.517 0 010 7.03zm3.516-17.578a3.515 3.515 0 01-3.516 3.515H55.391a3.514 3.514 0 01-3.516-3.516V15a3.515 3.515 0 013.516-3.516h41.875A3.517 3.517 0 01100.782 15v19.92z" fill="#fff"/><path d="M36.15 93.033V18.947H19.507c-4.953 0-8.982 4.034-8.982 8.99V111.1c0 4.959 4.03 8.993 8.982 8.993h53.29l-30.832-17.635c-3.446-1.736-5.815-5.308-5.815-9.424z" fill="#fff"/><path d="M72.656 114.691a3.62 3.62 0 00.059-.642v-12.996H48.422l24.234 13.638z" fill="#EBA707"/></g><defs><clipPath id="clip0_2761_8914"><path fill="#fff" d="M0 0h120v120H0z"/></clipPath></defs></svg>