<svg width="131" height="69" fill="none" xmlns="http://www.w3.org/2000/svg"><path d="M12.615 65.625H8.537V22.02h2.931V11.017h108.178V22.02h2.676v42.137h-4.013v3.372h12.614v-3.372h-4.014V22.02h2.755V6.77c0-3.739-2.74-6.77-6.117-6.77H7.232C3.853 0 1.115 3.031 1.115 6.77v15.25H3.95v43.606H0V69h12.616v-3.375h-.001zM116.97 4.271c1.054 0 1.911.948 1.911 2.116 0 1.168-.857 2.115-1.911 2.115s-1.911-.948-1.911-2.115c0-1.168.857-2.116 1.911-2.116z" fill="#fff"/><path fill-rule="evenodd" clip-rule="evenodd" d="M55.876 34.22c-.645-.71-1.13-1.7-1.13-3.048 0-4.36 4.598-5.867 6.83-3.406 3.05 3.359.366 7.848-2.3 7.848-1.51 0-2.157-.021-3.4-1.393zm-6.642 2.313c1.658-1.451 1.776-.772 3.552.82.697.624 1.381 1.215 2.056 1.88a40.3 40.3 0 001.975 1.824c.69.594 1.343 1.325 2.07 1.864L74.06 28.91c1.556-1.528 2.11-.48 3.311.427l6.736 5.438c.596.485 1.14.868 1.741 1.369.577.48 1.098.874 1.645 1.331.398.333 5.488 4.366 5.977 4.493v4.155c0-.516-6.945-5.724-7.456-6.15l-10.558-8.515c-.341.328-.588.58-.98.92-.362.315-.721.648-1.058.98-1.299 1.28-2.825 2.504-4.078 3.795L61.143 44.7c-.333.29-.683.61-.99.91-.34.334-.663.748-1.265.748-.643 0-.857-.277-1.314-.695-.331-.302-.656-.596-.983-.918l-5.987-5.55c-.761.563-3.293 3.179-4.272 4.011l-2.57 2.457c-.259.231-.302.235-.569.516-.504.53-4.568 3.925-4.568 4.385v-4.298c.688-.203 9.319-8.605 10.608-9.734h.001zm-33.947 19.12c0 3.74 2.739 6.771 6.116 6.771h87.76c3.378 0 6.117-3.031 6.117-6.77v-28.56c0-3.74.343-8.024.765-9.569.421-1.545.765-2.798.765-2.798H21.404c-3.378 0-6.116 3.03-6.116 6.77v34.157z" fill="#EBA707"/><path fill-rule="evenodd" clip-rule="evenodd" d="M57.463 31.03c0 1.944 1.707 1.925 2.37 1.191.663-.733.68-2.623-1.076-2.623-.727 0-1.294.627-1.294 1.433z" fill="#fff"/></svg>