<svg width="112" height="134" fill="none" xmlns="http://www.w3.org/2000/svg"><path fill-rule="evenodd" clip-rule="evenodd" d="M21.855 0l87.824 12.881c1.273.15 2.246 1.947 2.246 3.895L112 118.703c0 1.947-1.048 3.669-2.246 3.819L22.08 133.98c-1.872.225-3.444-1.498-3.444-3.894l-.15-126.117c0-2.396 1.573-4.194 3.444-3.894L21.855 0zm78.016 85.975c-.075 3.07-.45 5.842-1.273 8.388-.823 2.471-1.871 4.718-3.22 6.74-1.422 1.947-3.069 3.745-4.94 5.242-1.947 1.498-4.119 2.771-6.514 3.895-2.396 1.048-5.017 1.947-7.787 2.546-2.845.674-5.99 1.049-9.584 1.348l-25.081 1.723c-1.722.149-3.145-.3-4.343-1.199-1.198-.898-1.797-2.471-1.797-4.718V22.018c0-2.322.6-3.97 1.797-4.793 1.198-.824 2.696-1.198 4.418-.899l24.258 3.445c5.54.824 10.107 1.947 13.776 3.445 3.594 1.498 6.589 3.296 8.984 5.542 2.396 2.172 4.118 4.793 5.316 7.789 1.198 2.995 1.797 6.366 1.722 10.26 0 2.172-.3 4.119-.823 5.991a17.99 17.99 0 01-2.246 5.018 16.466 16.466 0 01-3.594 3.97c-1.423 1.123-3.07 2.021-4.867 2.695 2.321.6 4.493 1.498 6.44 2.696 1.946 1.199 3.593 2.771 4.94 4.569 1.423 1.797 2.471 3.969 3.22 6.29.749 2.397 1.123 5.018 1.123 8.014l.075-.075zM78.982 47.481c0-1.872-.225-3.52-.749-5.093-.524-1.497-1.273-2.846-2.395-3.969-1.049-1.123-2.471-2.022-4.118-2.696-1.648-.674-3.894-1.198-6.814-1.573l-9.583-1.048-.15 25.313 10.557.6c2.62.149 4.717-.076 6.29-.675 1.571-.524 2.844-1.348 3.818-2.396 1.048-1.049 1.796-2.322 2.246-3.745.524-1.498.748-2.995.748-4.718h.15zm4.043 39.243c0-2.097-.3-3.97-.898-5.617a10.208 10.208 0 00-2.846-4.194c-1.272-1.123-2.845-2.022-4.866-2.696-2.022-.674-4.717-1.048-8.011-1.123l-11.156-.3-.15 27.261 13.477-.45c2.47-.075 4.567-.45 6.29-1.048 1.646-.6 3.069-1.423 4.342-2.547 1.198-1.048 2.17-2.396 2.845-3.969.674-1.572 1.048-3.37 1.048-5.317h-.075z" fill="#fff"/><path fill-rule="evenodd" clip-rule="evenodd" d="M1.872 4.846L11.047.984c.974-.224 1.797.974 1.797 2.247l.524 128.289c0 1.198-.748 2.546-1.796 2.246L2.32 129.68c-1.048-.299-1.797-.973-1.797-2.246L0 7.167C0 5.97.824 5.22 1.797 4.92l.075-.074z" fill="#EBA707"/></svg>