<svg width="106" height="105" fill="none" xmlns="http://www.w3.org/2000/svg"><path d="M68.7 70.16v33.946h15.703V70.16H68.699zm7.851 15.975c0 1.102-.88 1.996-1.963 1.996-1.084 0-1.963-.894-1.963-1.996v-1.997c0-1.103.88-1.997 1.963-1.997 1.084 0 1.963.894 1.963 1.997v1.996zM84.269.895H21.732c-1.083 0-1.962.894-1.962 1.996V20.24c0 1.102.879 1.996 1.963 1.996h62.536c1.083 0 1.962-.894 1.962-1.996V2.89c0-1.102-.879-1.996-1.962-1.996zM32.203 14.166c0 .687-.129 1.284-.386 1.802-.26.514-.608.943-1.05 1.29a4.699 4.699 0 01-1.549.779c-.59.175-1.223.26-1.897.26a6.66 6.66 0 01-1.268-.113 7.04 7.04 0 01-1.032-.271 4.336 4.336 0 01-.75-.33 2.359 2.359 0 01-.434-.305.784.784 0 01-.188-.38 3.34 3.34 0 01-.056-.707c0-.209.007-.381.021-.522.014-.14.035-.254.066-.343a.398.398 0 01.122-.184.296.296 0 01.181-.055c.094 0 .23.055.403.168.175.11.396.233.668.367.27.134.597.257.976.367.375.113.813.168 1.31.168.327 0 .618-.037.876-.113.26-.08.48-.185.66-.326.181-.14.316-.312.414-.518.094-.206.142-.436.142-.689 0-.295-.08-.549-.243-.758a2.379 2.379 0 00-.64-.562 6.543 6.543 0 00-.893-.463c-.33-.144-.673-.295-1.028-.456a8.897 8.897 0 01-1.03-.55 4.044 4.044 0 01-.892-.73 3.407 3.407 0 01-.64-1.012c-.163-.388-.243-.854-.243-1.396 0-.62.119-1.17.351-1.643.233-.47.55-.861.946-1.174.4-.312.865-.546 1.403-.7a6.22 6.22 0 011.716-.23c.31 0 .622.024.934.072.313.045.605.11.876.189.27.083.511.171.722.272.208.103.348.184.418.254.066.065.11.123.135.168.024.048.045.11.062.189.017.075.028.171.035.292.007.116.01.26.01.436a6.6 6.6 0 01-.013.49c-.01.135-.028.244-.052.334a.406.406 0 01-.1.189.255.255 0 01-.182.061c-.072 0-.19-.048-.354-.14a10.429 10.429 0 00-.6-.31 5.837 5.837 0 00-.828-.298 3.604 3.604 0 00-1.029-.138c-.291 0-.545.035-.764.107a1.572 1.572 0 00-.543.292 1.122 1.122 0 00-.326.446c-.073.175-.108.36-.108.552 0 .288.08.539.24.749.16.212.374.401.642.566.268.161.574.315.914.46.337.144.685.298 1.04.456a9.74 9.74 0 011.038.549c.34.206.642.45.91.735a3.4 3.4 0 01.643 1.005c.164.384.243.836.243 1.358l.001-.006zm11.832-8.02c0 .195-.007.36-.025.5a1.265 1.265 0 01-.076.33.412.412 0 01-.13.184.256.256 0 01-.166.062h-3.294v10.487c0 .066-.02.128-.066.182a.505.505 0 01-.218.13c-.1.031-.24.06-.414.08-.174.02-.389.03-.646.03-.258 0-.473-.01-.647-.03a2.422 2.422 0 01-.413-.08.508.508 0 01-.219-.13.278.278 0 01-.066-.182V7.222H34.36a.263.263 0 01-.174-.062.465.465 0 01-.122-.185 1.505 1.505 0 01-.077-.329 4.233 4.233 0 01-.024-.5c0-.2.006-.371.024-.512.017-.14.046-.254.077-.336a.452.452 0 01.122-.182.277.277 0 01.174-.055h9.277a.28.28 0 01.167.055.401.401 0 01.129.182c.035.083.058.196.076.336.017.14.025.312.025.512zm14.093 5.269c0 1.077-.136 2.04-.407 2.892-.27.851-.673 1.574-1.212 2.164a5.21 5.21 0 01-1.987 1.359c-.793.312-1.707.467-2.745.467-1.025 0-1.918-.134-2.679-.398-.764-.264-1.4-.665-1.91-1.211-.508-.542-.89-1.231-1.144-2.07-.254-.836-.382-1.827-.382-2.973 0-1.05.135-1.997.407-2.837.27-.84.674-1.554 1.212-2.145a5.247 5.247 0 011.988-1.355c.792-.316 1.709-.474 2.755-.474.997 0 1.876.13 2.64.391.761.261 1.4.662 1.911 1.207.514.542.9 1.225 1.16 2.052.26.83.393 1.804.393 2.93zm-2.814.134c0-.683-.056-1.304-.164-1.863-.108-.56-.292-1.04-.553-1.438a2.65 2.65 0 00-1.042-.926c-.434-.216-.977-.325-1.626-.325-.657 0-1.206.123-1.643.366a3.024 3.024 0 00-1.07.981 4.023 4.023 0 00-.574 1.431 8.75 8.75 0 00-.167 1.736c0 .71.056 1.348.163 1.914.108.566.292 1.05.55 1.455a2.52 2.52 0 001.035.92c.434.208.98.315 1.636.315.657 0 1.206-.12 1.643-.364.441-.24.799-.569 1.07-.985a4.13 4.13 0 00.574-1.45 8.92 8.92 0 00.167-1.767zm16.094 6.182a.385.385 0 01-.041.184c-.028.052-.09.093-.192.128-.104.03-.25.054-.448.068-.198.013-.466.02-.803.02a9.03 9.03 0 01-.681-.02 1.502 1.502 0 01-.403-.075.435.435 0 01-.209-.14.963.963 0 01-.1-.207l-1.188-2.912c-.143-.33-.281-.625-.417-.878a2.753 2.753 0 00-.456-.641 1.695 1.695 0 00-.58-.388 2.045 2.045 0 00-.754-.13h-.838v4.97c0 .066-.02.127-.066.178a.48.48 0 01-.219.134c-.1.031-.236.059-.407.08-.166.02-.385.03-.646.03-.257 0-.472-.01-.646-.03a2.359 2.359 0 01-.41-.08.438.438 0 01-.212-.13.296.296 0 01-.063-.182V5.895c0-.294.077-.507.23-.638a.84.84 0 01.563-.196h3.412c.344 0 .632.007.854.02.223.014.428.031.612.049a5.615 5.615 0 011.428.384c.424.178.785.415 1.08.707.296.291.522.634.678 1.033.156.397.233.854.233 1.372 0 .432-.056.83-.166 1.187a3.056 3.056 0 01-1.3 1.691c-.32.21-.684.374-1.091.505a2.86 2.86 0 011.046.83c.152.193.299.409.434.656.135.244.268.522.396.83l1.115 2.57c.1.254.17.439.201.56.035.116.052.208.052.278l.002-.002zm-3.46-8.834c0-.428-.098-.792-.295-1.084-.198-.296-.522-.504-.97-.625a3.541 3.541 0 00-.461-.079 6.57 6.57 0 00-.72-.03H64.3v3.684h1.366c.382 0 .712-.044.998-.137.288-.09.524-.216.715-.381.191-.16.333-.36.428-.586a1.97 1.97 0 00.142-.762h-.001zm14.462 8.134c0 .195-.007.357-.025.49-.017.13-.041.238-.077.316a.41.41 0 01-.128.179.271.271 0 01-.167.055h-6.608a.84.84 0 01-.563-.196c-.153-.13-.23-.343-.23-.638V5.895c0-.294.078-.507.23-.638a.84.84 0 01.563-.196h6.577c.059 0 .115.018.164.051a.413.413 0 01.12.176c.032.085.06.192.078.322a4.1 4.1 0 01.024.5 3.7 3.7 0 01-.024.481 1.18 1.18 0 01-.077.316.473.473 0 01-.121.178.26.26 0 01-.164.055h-4.701v3.17h3.96c.063 0 .12.017.167.054a.402.402 0 01.13.172c.034.075.058.178.076.312.017.13.024.288.024.473 0 .196-.006.358-.024.484-.017.127-.042.23-.077.305a.342.342 0 01-.129.165.278.278 0 01-.166.05H77.28v3.665h4.732c.063 0 .118.017.167.055a.41.41 0 01.128.178c.035.079.06.185.077.316.017.133.025.294.025.49v.002zM17.664 70.16v11.98h1.079l10.306-11.98H17.664z" fill="#fff"/><path d="M92.258 56.182c-1.853 2.513-4.762 3.993-7.851 3.993-3.09 0-5.999-1.48-7.852-3.993-1.853 2.513-4.763 3.993-7.852 3.993-3.09 0-5.998-1.48-7.852-3.993-1.853 2.513-4.762 3.993-7.852 3.993-3.089 0-5.997-1.48-7.851-3.993-1.853 2.513-4.763 3.993-7.852 3.993-3.09 0-5.999-1.48-7.852-3.993-1.853 2.513-4.762 3.993-7.852 3.993-3.089 0-5.998-1.48-7.851-3.993-2.276 3.087-6.098 4.565-9.815 3.794v42.132c0 1.102.879 1.997 1.963 1.997h58.887V70.159c0-2.206 1.758-3.993 3.926-3.993h15.704c2.168 0 3.926 1.788 3.926 3.993v33.946h11.777c1.084 0 1.963-.895 1.963-1.997V59.976c-3.72.802-7.557-.68-9.814-3.794zM49.075 94.12h-33.37c-1.084 0-1.963-.895-1.963-1.997s.879-1.997 1.963-1.997h33.37c1.083 0 1.963.895 1.963 1.997s-.88 1.997-1.963 1.997zm1.963-11.981c0 2.206-1.758 3.994-3.926 3.994H17.666c-2.168 0-3.925-1.788-3.925-3.994V70.16c0-2.206 1.757-3.994 3.925-3.994h29.445c2.168 0 3.926 1.788 3.926 3.993V82.14z" fill="#fff"/><path d="M39.748 77.467a1.945 1.945 0 01-1.887.71 1.974 1.974 0 01-1.51-1.353 2.022 2.022 0 01.453-1.993l4.024-4.673h-6.576L23.947 82.14H47.11V70.16h-1.08l-6.282 7.308z" fill="#fff"/><path d="M103.368 41.307a1.96 1.96 0 00-1.767-1.099h-7.38c-1.084 0-1.963-.894-1.963-1.997 0-1.102.879-1.996 1.963-1.996h5.888c1.084 0 1.963-.895 1.963-1.997v-5.99c0-1.103-.879-1.998-1.963-1.998H5.889c-1.084 0-1.963.895-1.963 1.997v5.99c0 1.103.88 1.998 1.963 1.998h80.48c1.084 0 1.963.894 1.963 1.996 0 1.103-.88 1.997-1.963 1.997H4.397a1.962 1.962 0 00-1.767 1.099L.216 46.199C0 46.777 0 46.797 0 50.192a6.027 6.027 0 002.336 4.786 5.808 5.808 0 005.163.985c2.576-.808 4.32-3.248 4.279-5.99v-3.774c0-1.103.879-1.997 1.963-1.997 1.083 0 1.963.894 1.963 1.997v3.993a6.007 6.007 0 003.055 5.123 5.804 5.804 0 005.889-.13c1.799-1.11 2.879-3.113 2.833-5.253V46.2c0-1.103.88-1.997 1.963-1.997 1.084 0 1.963.894 1.963 1.997v3.993a6.027 6.027 0 002.336 4.786 5.808 5.808 0 005.163.985c2.576-.808 4.32-3.248 4.279-5.99V46.2c0-1.103.88-1.997 1.963-1.997 1.083 0 1.963.894 1.963 1.997v3.993a6.007 6.007 0 003.055 5.123 5.804 5.804 0 005.889-.13c1.799-1.11 2.879-3.113 2.834-5.253V46.2c0-1.103.879-1.997 1.962-1.997 1.084 0 1.963.894 1.963 1.997v3.993a6.026 6.026 0 002.336 4.786 5.808 5.808 0 005.163.985c2.576-.808 4.32-3.248 4.28-5.99V46.2c0-1.103.878-1.997 1.962-1.997s1.963.894 1.963 1.997v3.753c-.05 2.758 1.718 5.21 4.319 5.99a5.81 5.81 0 005.223-1.07 6.03 6.03 0 002.236-4.92V46.2c0-1.103.879-1.997 1.963-1.997 1.083 0 1.963.894 1.963 1.997v3.993a6.026 6.026 0 002.335 4.786 5.808 5.808 0 005.163.985c2.577-.808 4.321-3.248 4.279-5.99 0-2.895 0-3.135-.216-3.695l-2.413-4.971h-.002z" fill="#EBA707"/></svg>