<svg width="57" height="57" fill="none" xmlns="http://www.w3.org/2000/svg"><g clip-path="url(#clip0_2761_4058)" fill-rule="evenodd" clip-rule="evenodd"><path d="M27.385 1.003v5.79c0 1.808 2.928.3 8.352 2.447 2.364.936 4.986 2.592 6.65 4.26 1.245 1.25 2.106 2.216 3.164 3.63 1.775 2.376 3.017 5.823 3.44 8.806.643 4.562-.54 9.173-2.881 13.054a20.055 20.055 0 01-2.11 2.9l-1.891 1.894c-1.59 1.625-3.953 2.99-6.055 3.853-.587.242-1.262.516-1.877.683-1.208.331-2.75.742-4.232.78-1.695.04-2.785.086-4.486-.19-6.111-.994-11.663-4.96-14.809-10.24-2.073-3.479-1.993-5.221-2.47-6.214-.458-.957-2.17-.796-2.17.39 0 .925.802 3.181 1.116 3.895 1.327 3.028 2.874 5.18 4.98 7.6.235.27.36.355.648.576.302.233.42.396.685.651.266.257.396.311.67.555 3.392 3.029 9.057 5.315 13.722 5.315 3.955 0 7.118-.663 10.168-2.189 1.915-.957 3.444-1.997 5.084-3.265l1.476-1.308c.285-.261.324-.433.609-.727 3.613-3.753 6.263-9.286 6.263-14.667 0-4.056-.58-7.065-2.188-10.28-1.362-2.723-3.042-5.062-5.241-7.118-.255-.237-.414-.442-.67-.666-2.579-2.278-5.674-3.796-8.947-4.858-1.061-.344-3.428-.792-4.773-.792v-3.23c3.766 0 7.232 1.115 10.428 2.71 2.356 1.177 4.619 2.691 6.466 4.556 1.335 1.347 2.608 2.757 3.68 4.336.856 1.26 1.672 2.644 2.28 4.067 1.876 4.378 2.616 8.725 2.085 13.505-.118 1.051-.294 1.85-.51 2.83-.767 3.513-2.525 7.257-4.748 9.949-1.258 1.52-2.498 2.93-4.017 4.223-3.12 2.655-6.822 4.637-10.94 5.537-3.048.666-5.716.858-8.844.51-2.609-.292-5.374-1.1-7.645-2.152a26.892 26.892 0 01-7.745-5.392c-5.624-5.624-8.85-13.88-7.593-21.902.896-5.711 3.638-11.053 7.704-15.12 2.123-2.123 2.054-1.784 1.029-3.311h5.01v5.01c-.726-.484-1.39-1.714-2.534-.53-.448.463-.969.794-1.362 1.31-.246.322-.407.448-.699.748-1.768 1.83-3.287 4.426-4.314 6.708-.307.683-.53 1.21-.792 1.991-.452 1.351-1.253 3.244.905 3.244.544 0 .807-.87.936-1.4.696-2.869 2.913-7.007 4.99-9.037.455-.444.71-.925 1.197-1.251 1.064.285 1.584 2.115 2.894 2.115.55 0 1.003-.453 1.003-1.003v-9.13c0-.55-.453-1.003-1.003-1.003H8.344c-.714 0-1.003.605-1.003 1.225 0 .553.44.831.75 1.142.355.353.634.707 1.03.975-.303.452-2.343 2.37-3.318 3.808-1.771 2.608-2.023 3.104-3.324 5.692-1.4 2.78-2.485 7.043-2.485 10.206 0 5.364.605 8.31 2.77 13.042.711 1.556 1.588 2.896 2.53 4.263 1.786 2.591 4.275 5.056 6.836 6.858 1.32.929 2.775 1.867 4.327 2.576 1.562.714 3.22 1.386 4.936 1.856 6.174 1.69 13.478.977 18.977-1.795a92.12 92.12 0 002.263-1.188l2.093-1.36c.722-.48 1.292-.949 1.95-1.501 1.9-1.6 3.491-3.336 5.008-5.346 3.098-4.113 5.31-10.055 5.31-15.399 0-2.965-.157-5.243-.89-8.018-.34-1.281-.83-2.606-1.32-3.8-.51-1.24-1.105-2.253-1.723-3.4-1.169-2.16-2.85-4.094-4.554-5.8a30 30 0 00-4.647-3.814C39.26 1.61 34.024.002 28.385.002c-.55 0-1.003.453-1.003 1.003l.003-.002z" fill="#797979"/><path d="M20.706 39.636c0-.296.216-.649.41-.816.243-.214.508-.296.926-.296h12.914c1.27 0 1.723 1.236.927 1.93-.244.213-.51.295-.927.295H22.042c-.812 0-1.336-.53-1.336-1.114zm2.226-16.256v-.446h11.132c0 2.626-1.299 3.805-3.383 5.19-.54.358-1.292.674-1.292 1.49 0 1.642 4.675 2.308 4.675 6.236v.446H22.932c0-2.091.509-2.838 1.864-4.036 1.292-1.143 2.811-1.66 2.811-2.646 0-.83-.731-1.1-1.225-1.447-1.686-1.19-3.45-2.437-3.45-4.787zm-2.226-3.786c0-.58.524-1.114 1.336-1.114h12.914c1.758 0 1.758 2.226 0 2.226H22.042c-.812 0-1.336-.531-1.336-1.114v.002zm-2.226-.335v.668c0 1.153 1.227 2.7 2.226 2.783 0 3.287.529 4.097 2.978 6.264.261.23.514.366.697.64-.274.409-1.554 1.127-2.626 2.606-.964 1.33-1.049 2.1-1.049 4.298-1 .082-2.226 1.63-2.226 2.782v.668c0 1.436 1.571 3.007 3.007 3.007h14.028c1.436 0 3.007-1.57 3.007-3.007V39.3c0-1.153-1.227-2.7-2.226-2.782 0-3.527-.74-4.285-2.978-6.265-.261-.23-.514-.365-.696-.64.285-.426 1.51-1.066 2.626-2.606.933-1.29 1.048-2.148 1.048-4.297 1.001-.083 2.226-1.63 2.226-2.783v-.668c0-1.436-1.57-3.007-3.007-3.007H21.487c-1.436 0-3.006 1.57-3.006 3.007z" fill="#EBA707"/><path d="M5.566 28.391c0 1.665 2.226 1.665 2.226 0 0-1.344-2.226-1.344-2.226 0z" fill="#797979"/></g><defs><clipPath id="clip0_2761_4058"><path fill="#fff" d="M0 0h57v57H0z"/></clipPath></defs></svg>