<svg width="132" height="132" fill="none" xmlns="http://www.w3.org/2000/svg"><path d="M130.813 114.258c.563 2.041 1.033 3.618 1.127 4.824.187 1.206-.094 2.133-.564 2.782-.563.65-1.595 1.114-3.097 1.392-1.408.278-3.473.464-6.101.742-2.722.278-4.974.371-6.476.464-1.595 0-2.816 0-3.66-.279-.845-.185-1.408-.556-1.784-1.02-.375-.464-.657-1.02-.844-1.855l-7.321-23.283-46.554 1.392-8.634 25.972c-.282 1.021-.657 1.855-1.127 2.505-.469.742-1.22 1.206-2.252 1.762-1.033.464-2.535.835-4.506 1.113-1.97.279-4.599.557-7.79.835-3.566.278-6.288.464-8.353.371-2.065 0-3.473-.464-4.224-1.206-.844-.742-1.126-1.948-.844-3.432.281-1.484.844-3.525 1.783-6.122L63.33 4.988c.375-1.02.844-1.855 1.407-2.504.47-.65 1.408-1.02 2.535-1.206 1.22-.186 2.815-.186 4.786.092 1.971.186 4.6.557 7.884 1.114 3.755.556 6.664 1.113 8.823 1.484 2.159.464 3.754.927 4.975 1.484 1.126.556 1.97 1.206 2.534 1.948.469.742.938 1.762 1.314 2.968l33.131 103.89h.094zM79.849 26.601h-.094l-17.74 52.594 34.634.279L79.85 26.6z" fill="#fff"/><path fill-rule="evenodd" clip-rule="evenodd" d="M49.475 0h8.917c1.22 0 1.783.928 1.407 2.133L12.59 126.431c-.47 1.205-1.877 2.504-3.003 2.133l-8.072-2.133c-1.126-.279-1.783-.928-1.408-2.134L46.566 2.133C47.035.928 48.349 0 49.569 0h-.094z" fill="#EBA707"/></svg>