<svg width="115" height="111" fill="none" xmlns="http://www.w3.org/2000/svg"><path d="M3.614 10.35h15.182c4.596 0 5.07 3.96 5.248 5.467.02.176.004.064-.006 0h-.002l.018.139h.002l2.572 19.559c.022.175.034.312.034.416 0 .928-.4 1.752-1.028 2.364a3.77 3.77 0 01-2.126 1.024H23.5a3.859 3.859 0 01-.46.037H3.613c-.996 0-1.9-.401-2.554-1.05A3.554 3.554 0 010 35.773V13.928c0-.987.405-1.883 1.06-2.532a3.62 3.62 0 012.554-1.05v.004zm15.182 4.034H4.07v20.942h18.443l-2.477-18.848v-.008l-.024-.18h-.005c.005.044.01.073 0 0-.063-.525-.226-1.906-1.211-1.906h.001zm5.243 1.435c-.006-.036-.009-.057-.001 0h.001zm-4.028.471c-.02-.141-.01-.058-.005 0h.005z" fill="#fff"/><path d="M12.99 10.35h93.635c4.596 0 5.069 3.96 5.247 5.468.021.178.005.062-.006 0h-.001l.018.138h.001l2.572 19.56c.023.173.035.312.035.416 0 .927-.401 1.752-1.029 2.364a3.77 3.77 0 01-2.126 1.024h-.007a3.923 3.923 0 01-.461.037h-7.416v-4.034h6.89l-2.477-18.848v-.007l-.024-.18h-.003c.005.043.009.074 0 0-.063-.526-.227-1.907-1.21-1.907H12.993v-4.033l-.003.003zm98.878 5.47c-.005-.035-.008-.053-.002 0h.002zm-4.028.47c-.018-.133-.011-.056-.003 0h.003zM20.693 53.184H41.75v4.033H20.693v-4.033zm0 6.956H41.75v4.034H20.693v-4.033zm-8.91 41.648V38.664h4.07v63.124h-4.07z" fill="#fff"/><path d="M18.8 101.788V38.664h4.07v63.124H18.8z" fill="#fff"/><path d="M4.765 106.967H32.9a4.863 4.863 0 00-.977-1.383 4.863 4.863 0 00-3.43-1.416H9.172a4.863 4.863 0 00-3.43 1.416 4.864 4.864 0 00-.977 1.383zM35.384 111H.246v-2.017a8.784 8.784 0 012.62-6.251 8.94 8.94 0 016.306-2.597h19.32a8.94 8.94 0 016.306 2.597 8.784 8.784 0 012.62 6.251V111h-2.034z" fill="#fff"/><path d="M24.838 108.983a4.78 4.78 0 00-1.428-3.399 4.863 4.863 0 00-3.43-1.416v-4.033a8.94 8.94 0 016.306 2.597 8.784 8.784 0 012.62 6.251h-4.068z" fill="#fff"/><path d="M31.93 30.5a2.014 2.014 0 01-1.67 2.315 2.028 2.028 0 01-2.336-1.655l-1.334-7.874a2.014 2.014 0 011.67-2.316c.113-.018.224-.026.333-.028v-.005h75.301c1.123 0 2.035.904 2.035 2.017a2.027 2.027 0 01-2.035 2.017h-72.9l.936 5.527v.001z" fill="#EBA707"/><path d="M19.979 35.324h21.057v4.034H19.978v-4.034zM9.561 4.414l-.047 5.93h4.766c-.323-1.53-1.002-2.893-1.928-3.958-.78-.896-1.734-1.582-2.79-1.97l-.001-.002zM5.429 12.36L5.527.002h2.02c3.089 0 5.879 1.433 7.885 3.742 1.938 2.23 3.142 5.285 3.142 8.624v2.025H5.414l.017-2.033h-.002z" fill="#fff"/><path d="M7.547.012H87.88v4.033H7.546V.012z" fill="#fff"/><path d="M87.798 10.342h6.815c-.323-1.53-1.001-2.892-1.928-3.958-1.25-1.439-2.953-2.334-4.806-2.334v-.007l-9.893.004V.014L87.88.009V.002c3.09 0 5.88 1.433 7.886 3.742 1.938 2.23 3.142 5.285 3.142 8.624v2.025h-11.11v-4.051z" fill="#fff"/><path d="M39.773 44.763l.01-7.42h-.007v-.002c0-3.503-1.1-6.663-2.872-8.932-1.658-2.12-3.9-3.438-6.332-3.438v-4.034c3.75 0 7.126 1.92 9.543 5.015 2.302 2.947 3.731 6.98 3.731 11.39h-.007l-.01 7.42h-4.056z" fill="#EBA707"/><path d="M39.766 101.381V38.258h4.069v63.123h-4.07zm61.466-56.621l.01-7.42h-.007c0-3.504-1.101-6.664-2.872-8.933-1.658-2.12-3.9-3.438-6.332-3.438v-4.034c3.75 0 7.126 1.92 9.543 5.015 2.302 2.947 3.731 6.98 3.731 11.39h-.007l-.011 7.42h-4.055z" fill="#EBA707"/><path d="M101.223 97.154V38.258h4.069v58.896h-4.069z" fill="#EBA707"/><path d="M43.835 96.798v5.445c0 1.296.536 2.478 1.4 3.335a4.767 4.767 0 006.73 0 4.685 4.685 0 001.401-3.335v-7.462h57.949c1.025 0 1.854.351 2.468.865.813.68 1.218 1.654 1.218 2.535v4.062c0 2.409-.994 4.6-2.593 6.187a8.844 8.844 0 01-6.24 2.57v-4.033c1.309 0 2.5-.531 3.365-1.389a4.685 4.685 0 001.401-3.334v-3.428H57.436v3.428a8.692 8.692 0 01-2.593 6.187 8.845 8.845 0 01-6.241 2.571 8.845 8.845 0 01-6.241-2.571 8.692 8.692 0 01-2.593-6.187v-5.445h4.068-.001z" fill="#EBA707"/><path d="M49.26 106.967h56.904V111H49.26v-4.033z" fill="#EBA707"/><path fill-rule="evenodd" clip-rule="evenodd" d="M20.654 15.465c.005.046.01.08 0 0zM3.178 36.337H23.4L20.683 15.67v-.009l-.026-.196h-.004c-.07-.576-.25-2.09-1.327-2.09h-.244v.009H4.654v-.009H3.179v22.962h-.001zm24.585 65.45H10.275c-2.158 0-4.123 1.402-5.548 3.66-.652 1.032-1.19 2.24-1.582 3.574h31.75c-.393-1.335-.93-2.544-1.582-3.574-1.427-2.258-3.39-3.66-5.55-3.66z" fill="#FEFEFE"/><path fill-rule="evenodd" clip-rule="evenodd" d="M42.854 38.323v65.262a4.86 4.86 0 001.454 3.458 4.951 4.951 0 003.487 1.441c1.358 0 .99-.553 1.886-1.441.897-.889 1.081-4.236 1.081-5.582l-.078-9.584h51.684V37.235h.018l.001-.951h-.007v-.002c0-3.633-1.141-6.909-2.98-9.262-1.718-2.2-4.045-3.565-6.566-3.565H38.13c.3.323.588.662.865 1.017 2.387 3.055 3.869 7.238 3.869 11.81v.002h-.008l-.003 2.039z" fill="#EBA707"/></svg>