<svg width="32" height="32" fill="none" xmlns="http://www.w3.org/2000/svg"><path d="M31.712 27.695c.137.494.25.877.273 1.169.046.292-.022.517-.136.675-.137.157-.387.27-.75.337-.342.067-.843.112-1.48.18-.66.067-1.206.09-1.57.112-.386 0-.682 0-.887-.067a.734.734 0 01-.432-.248 1.04 1.04 0 01-.205-.45L24.75 23.76l-11.285.337-2.093 6.296c-.069.247-.16.45-.273.607-.114.18-.296.293-.546.427-.25.113-.615.203-1.092.27a37.52 37.52 0 01-1.889.203c-.864.067-1.524.112-2.025.09-.5 0-.842-.113-1.024-.293-.204-.18-.273-.472-.204-.832.068-.36.204-.854.432-1.484L15.354 1.206a1.94 1.94 0 01.34-.607c.114-.157.342-.247.615-.292.296-.045.683-.045 1.16.022a27.44 27.44 0 011.912.27c.91.135 1.615.27 2.138.36.524.112.91.225 1.206.36.273.135.478.292.614.472.114.18.228.427.32.72l8.03 25.184h.023zM19.358 6.445h-.023l-4.3 12.75 8.395.067-4.072-12.817z" fill="#565656"/><path fill-rule="evenodd" clip-rule="evenodd" d="M11.993 0h2.162c.296 0 .432.225.341.517L3.052 30.648c-.114.293-.455.608-.728.518l-1.957-.518c-.273-.067-.432-.224-.341-.517L11.288.517c.114-.292.432-.517.728-.517h-.023z" fill="#565656"/></svg>