<svg width="58" height="58" fill="none" xmlns="http://www.w3.org/2000/svg"><path fill-rule="evenodd" clip-rule="evenodd" d="M32.85 31.668v6.13c0 1.16 1.676 1.44 1.983.056.43-1.942-.491-5.908.483-7.46.538-.855 1.396-1.335 2.746-1.335h14.726c2.069 0 3.285 1.218 3.285 3.291v4.995c0 4.186-4.044 3.291-6.911 3.291-.698 0-8.41-.092-8.88.071-1.04.36-.778 1.973.384 1.973h9.515v10.896c0 1.496-1.442 2.61-3.17 2.61H5.21c-1.768 0-2.882-.883-3.188-2.369-.238-1.152-.097-14.85-.097-16.701V14.643c.348.092.65.353 1.065.521 1.483.6 2.852.385 4.486.385H46.22c1.345 0 1.858-.085 2.718.456.53.334 1.248 1.167 1.248 2.041v9.08H37.272c-1.613 0-3.315 1.311-3.966 2.722-.192.417-.453 1.211-.453 1.818l-.002.002zM0 10.33v43.358C0 55.934 2.449 58 3.737 58h44.52c1.86 0 3.966-2.27 3.966-4.653V42.678c1.72 0 3.042-.146 4.222-1.333C57.186 40.6 58 39.56 58 38.137V31.78c0-2.497-2.261-4.653-4.418-4.653h-1.36V18.16c0-1.391-.814-2.612-1.553-3.323-1.206-1.16-2.413-1.33-4.224-1.33V8.06c0-1.223-1.043-2.27-2.266-2.27-.654 0-1.7.009-1.7.908 0 1.184 1.15 1.135 1.926 1.135v5.675H4.644c-.605 0-1.123-.256-1.558-.595a6.792 6.792 0 01-.188-.154c-.206-.182-.043-.019-.226-.226-1.135-1.267-.792-3.245.316-4.09.762-.58 1.17-.615 2.451-.61h8.951c1.25.007 2.038-.012 2.038-1.135 0-.548-.358-.909-.907-.909H4.759C2.286 5.79 0 7.936 0 10.328v.002z" fill="#797979"/><path fill-rule="evenodd" clip-rule="evenodd" d="M14.613 10.669c0 .57.494 1.02 1.02 1.02.323 0 3.068-1.685 3.586-1.968 3.474-1.9 7.302-4.307 10.764-6.24 2.554-1.422 4.275-2.757 6.189.454.209.35.343.602.537.938l3.117 5.389c.326.55.623 1.428 1.408 1.428.7 0 1.306-.804.591-1.954-.17-.273-.24-.434-.41-.724-.32-.54-.567-.977-.88-1.5-.718-1.2-2.865-5.222-3.573-5.955C35.752.3 34.827 0 33.08 0c-1.51 0-3.696 1.537-4.978 2.276-.756.436-1.522.87-2.293 1.335-3.226 1.956-7.049 4.027-10.356 5.969-.41.241-.839.497-.839 1.089z" fill="#EBA707"/><path fill-rule="evenodd" clip-rule="evenodd" d="M22.316 10.67c0 .148.185.533.273.635.688.819 1.488.069 2.113-.29l4.031-2.317c.022-.012.052-.031.07-.043.203-.13.081-.042.198-.144 1.962 1.315 3.866 1.703 6.344 1.703l.632 1.067c.727.862 1.746.175 1.746-.614 0-.421-.676-1.481-.965-1.983-.334-.578-.083-.514-1.187-.514-.96 0-.075.129-1.804-.008-1.017-.08-2.405-.562-3.246-1.06-.22-.129-.443-.258-.63-.39-1.017-.71-.42-.689-2.55.476L22.882 9.76c-.28.175-.567.468-.567.908zM5.777 22.245c0 1.852-.394 3.974 1.019 3.974 1.354 0 1.019-2.59 1.019-3.859 1.298 0 6.601.197 7.25-.224.803-.521.431-1.818-.568-1.818H7.7c-1.035 0-1.925.892-1.925 1.93l.002-.003zM40.67 35.754c-1.467 0-1.182-1.816-.114-1.816 1.247 0 1.29 1.816.114 1.816zm-2.945-1.248v.682c0 2.232 3.149 3.572 4.948 1.779a5.19 5.19 0 00.57-.792c.683-1.374.067-3.36-1.484-4.01-2.208-.926-4.036.974-4.036 2.341h.002zM5.777 46.537c0 4.632.127 3.86 8.722 3.86 1.262 0 1.532-2.045-.34-2.045H7.815c0-1.55.253-2.838-1.245-2.838-.413 0-.793.553-.793 1.02v.003zm31.946-25.312c0 .716.238 1.135 1.473 1.135h6.23c0 1.518-.336 2.838 1.019 2.838 1.218 0 .907-1.479.907-3.065 0-1.052-.88-1.815-1.926-1.815H38.63c-.547 0-.907.358-.907.91v-.003zm7.701 25.198v1.93h-4.53c-1.843 0-1.38 2.044-.453 2.044h4.985c2.317 0 1.926-2.459 1.926-3.974 0-1.226-1.926-1.226-1.926 0h-.002zm-27.072 2.95c0 1.408 2.03 1.021 3.851 1.021 1.335 0 1.389-2.044-.114-2.044-1.692 0-3.737-.356-3.737 1.02v.003zm6.796-28.148c0 .716.239 1.135 1.474 1.135.773 0 2.422.12 2.947-.224.824-.54.404-1.817-.569-1.817-2.064 0-3.852-.383-3.852.908v-.002zm.907 28.147c0 1.408 2.03 1.02 3.851 1.02 1.367 0 1.467-2.043-.226-2.043-1.262 0-3.625-.351-3.625 1.02v.003zM18.692 22.36h2.267c1.768 0 1.566-2.044.34-2.044h-2.944c-1.309 0-1.413 2.044.34 2.044h-.003zm14.501 0c.96 0 2.606.207 2.606-1.02 0-1.323-1.68-1.021-2.944-1.021-1.309 0-1.413 2.044.34 2.044l-.002-.003zM5.778 29.057c0 1.001-.275 2.95.907 2.95 1.726 0 1.087-3.248.907-3.52-.54-.826-1.814-.405-1.814.57zm27.074 20.317c0 1.323 1.68 1.02 2.944 1.02 1.226 0 1.428-2.044-.34-2.044-1.073 0-2.604-.229-2.604 1.021v.003zM5.778 40.633c0 1.055-.173 2.2.265 2.685.35.387 1.772.67 1.772-1.209 0-1.357.127-2.382-1.133-2.382-.547 0-.907.358-.907.908l.003-.002zm-.001-5.787c0 1.267-.299 2.95 1.019 2.95 1.19 0 1.019-1.532 1.019-2.383 0-2.229-2.04-1.72-2.04-.567h.002z" fill="#EBA707"/></svg>