<svg width="207" height="61" fill="none" xmlns="http://www.w3.org/2000/svg"><path d="M23.132 20.3L12.32 5.22H5.042v49.935h4.73V10.177l13.984 18.086L43.406 0h15.178v42.289h-9.097v12.866h4.003V46.77h5.094v13.551H44.393V42.29h-19.13L49.487 8.33v28.79h4.003V5.22h-7.434l-22.04 31.742-9.097-11.758v35.17H0V.105h14.919l11.332 15.82-3.067 4.428-.052-.052zm12.06 16.821h9.149V24.308l-9.15 12.813z" fill="#EBA707"/><path d="M79.331 20.405h-1.248v4.904h-3.222V9.859h4.47c1.871 0 3.275.475 4.315 1.371.987.897 1.507 2.162 1.507 3.744 0 1.582-.468 2.9-1.456 3.955-.935 1.002-2.39 1.529-4.366 1.529v-.053zm-1.248-7.54V17.4h1.352c1.56 0 2.287-.739 2.287-2.268 0-.79-.208-1.318-.572-1.687-.364-.37-.987-.527-1.87-.527h-1.197v-.053zm12.892 2.953h5.146v3.005h-5.146v3.428h5.874v3.005h-9.097V9.806h9.045v3.006h-5.822v3.006zm12.528 9.438h-3.223V9.806h3.223v6.855l5.042-6.854h3.535l-5.406 7.223 6.134 8.226h-4.055l-5.302-7.382v7.382h.052zm20.013 0V12.812h-4.107v3.006c0 3.216-.416 5.642-1.247 7.276-.832 1.635-2.132 2.426-3.951 2.426-.468 0-.884-.053-1.144-.158v-3.006c.468 0 .78 0 .936-.053.936-.21 1.56-.896 1.82-2.056.259-1.107.415-3.058.415-5.8V9.754h10.501v15.45h-3.223v.052zm15.283-2.109h-5.77l-.936 2.11h-3.379l7.07-15.767h.312l7.225 15.766h-3.639l-.883-2.109zm-2.859-6.802l-1.612 3.797h3.223l-1.559-3.797h-.052zm12.319-6.907l5.147 10.123 5.146-10.123h.468l4.054 15.766h-3.379l-2.079-7.804-4.106 7.804h-.468l-4.055-7.857-2.079 7.857h-3.223l4.055-15.767h.519zm26.615 9.174h-6.238v6.592h-3.222V9.754h3.222v5.853h6.238V9.754h3.223v15.45h-3.223v-6.592zm15.283 4.482h-5.77l-.936 2.11h-3.379l7.07-15.767h.312l7.225 15.767h-3.638l-.884-2.11zm-2.859-6.802l-1.611 3.797h3.222l-1.559-3.797h-.052zm16.478 8.859v-5.22h-1.455l-3.171 5.22h-4.003l3.899-6.064c-.832-.211-1.456-.738-1.975-1.53-.52-.79-.78-1.686-.78-2.688 0-1.635.52-2.953 1.507-3.85 1.04-.896 2.288-1.37 3.847-1.37h5.354v15.45h-3.223v.052zm0-8.226v-4.218h-1.923c-.676 0-1.196.158-1.611.527-.364.37-.572.896-.572 1.582 0 .58.208 1.107.572 1.476.363.37.883.58 1.559.58h1.923l.052.053zM78.031 50.408H74.81v-15.45h3.222v6.855l5.043-6.855h3.535l-5.407 7.224 6.134 8.226h-4.054l-5.302-7.382v7.382h.051zm13.672-7.698c0 1.318.416 2.53 1.247 3.533.832 1.001 2.028 1.529 3.535 1.529 1.352 0 2.495-.475 3.379-1.424.884-.95 1.352-2.162 1.352-3.586 0-1.318-.416-2.478-1.3-3.48-.832-1.002-1.975-1.529-3.483-1.529-1.403 0-2.547.475-3.43 1.424-.884.949-1.352 2.162-1.352 3.638l.052-.105zm-3.379 0c0-2.215.728-4.166 2.287-5.695 1.56-1.582 3.535-2.32 5.926-2.32 1.3 0 2.495.264 3.587.738 1.092.475 1.975 1.107 2.599 1.951 1.3 1.582 1.923 3.375 1.923 5.378 0 2.268-.779 4.166-2.287 5.695-1.507 1.582-3.43 2.32-5.822 2.32-2.495 0-4.47-.79-5.978-2.32-1.455-1.582-2.235-3.48-2.235-5.695v-.052zm22.872-8.068l5.146 10.124 5.147-10.124h.467l4.055 15.766h-3.379l-2.079-7.804-4.107 7.804h-.468l-4.054-7.857-2.079 7.857h-3.223l4.054-15.766h.52zm27.447 3.322h-6.29v12.444h-3.223v-15.45h12.788v15.45h-3.223V37.964h-.052zm16.01 10.335h-5.77l-.935 2.11h-3.379l7.069-15.767h.312l7.226 15.766h-3.639l-.884-2.109zm-2.859-6.802l-1.611 3.796h3.223l-1.56-3.796h-.052zm19.545 2.32h-6.237v6.591h-3.223v-15.45h3.223v5.853h6.237V34.96h3.223v15.45h-3.223v-6.592zm17.415 6.591v-8.647l-9.045 9.016h-.468V35.011h3.223v8.648l9.097-9.017h.467v15.766h-3.274zm15.022 0v-5.22h-1.455l-3.171 5.22h-4.003l3.899-6.064c-.832-.21-1.456-.738-1.975-1.529-.52-.79-.78-1.687-.78-2.689 0-1.635.52-2.953 1.507-3.85 1.04-.896 2.288-1.37 3.847-1.37h5.354v15.45h-3.223v.052zm0-8.226v-4.218h-1.923c-.676 0-1.196.158-1.611.527-.364.37-.572.897-.572 1.582 0 .58.208 1.108.572 1.477.363.369.883.58 1.559.58h1.923l.052.052z" fill="#FEFEFE"/></svg>