<svg width="285" height="92" fill="none" xmlns="http://www.w3.org/2000/svg"><path d="M95.832 29.557l.999.046.048-1.046h-1.047v1zm-2.402 7.88l.84.544.002-.004-.842-.54zm-6.182 5.274l-.426-.905-.002.001.428.904zm-24.96-32.139l-.907-.422-.002.002.908.42zm6.298-7.265l.528.849.004-.003-.532-.846zM90.559 4.83l-.657.755.003.002.654-.757zm5.36 11.25v1h1.095l-.098-1.09-.996.09zm-10.253 0l-1 .03.03.97h.97v-1zm-13.213-4.424l.85.529-.85-.529zm-1.875 9.17l-1-.014v.014h1zm1.7 12.774l-.866.501.004.007.861-.508zm13.33-4.043v-1h-.969l-.031.967 1 .033zm9.225-.046c-.13 2.81-.884 5.263-2.245 7.387l1.684 1.08c1.568-2.448 2.415-5.248 2.559-8.375l-1.998-.092zm-2.243 7.384c-1.355 2.094-3.265 3.733-5.768 4.911l.852 1.81c2.81-1.322 5.02-3.2 6.595-5.636l-1.68-1.085zm-5.77 4.912c-2.483 1.177-5.35 1.779-8.625 1.779v2c3.523 0 6.69-.648 9.481-1.971l-.856-1.808zm-8.625 1.779c-5.366 0-9.489-1.736-12.492-5.14l-1.5 1.323c3.442 3.901 8.148 5.817 13.992 5.817v-2zm-12.492-5.14c-3.01-3.412-4.584-8.3-4.584-14.807h-2c0 6.814 1.65 12.237 5.084 16.13l1.5-1.323zm-4.584-14.807v-2.11h-2v2.11h2zm0-2.11c0-4.065.703-7.569 2.076-10.537l-1.816-.84c-1.517 3.282-2.26 7.083-2.26 11.377h2zm2.075-10.534c1.389-2.983 3.363-5.25 5.92-6.839l-1.056-1.699c-2.912 1.81-5.137 4.387-6.677 7.693l1.813.845zm5.924-6.842c2.558-1.607 5.533-2.424 8.96-2.424v-2c-3.76 0-7.113.901-10.024 2.731l1.064 1.693zm8.96-2.424c4.995 0 8.903 1.315 11.824 3.856l1.313-1.51C87.847 1.147 83.435-.27 78.078-.27v2zm11.827 3.858c2.917 2.519 4.608 6.012 5.019 10.582l1.992-.178c-.45-5-2.332-9.007-5.704-11.918l-1.307 1.514zm6.015 9.493H85.666v2H95.92v-2zm-9.254.97c-.082-2.721-.77-4.907-2.286-6.301l-1.354 1.471c.946.871 1.566 2.416 1.64 4.89l2-.06zM84.38 9.749c-1.49-1.372-3.655-1.964-6.302-1.964v2c2.393 0 3.976.54 4.948 1.435l1.354-1.47zm-6.302-1.964c-2.849 0-5.073 1.092-6.474 3.343l1.698 1.057c.982-1.577 2.508-2.4 4.776-2.4v-2zm-6.474 3.343c-1.34 2.152-1.966 5.436-2.026 9.684l2 .028c.058-4.15.68-6.98 1.724-8.655l-1.698-1.057zm-2.026 9.698v3.018h2v-3.018h-2zm0 3.018c0 4.581.561 8.062 1.834 10.257l1.73-1.003c-.992-1.711-1.564-4.734-1.564-9.254h-2zm1.838 10.264c1.376 2.332 3.728 3.421 6.78 3.421v-2c-2.535 0-4.129-.863-5.057-2.438l-1.723 1.017zm6.78 3.421c2.507 0 4.588-.59 6.084-1.923l-1.33-1.493c-1.004.894-2.536 1.416-4.755 1.416v2zm6.084-1.923c1.532-1.364 2.244-3.445 2.327-6.017l-2-.065c-.072 2.272-.689 3.726-1.657 4.589l1.33 1.493zm1.327-5.05h10.225v-2H85.607v2zM128 19.86v1h1v-1h-1zm-9.99 0v-1h-1v1h1zm0 24.141v1h1v-1h-1zm-9.932 0h-1v1h1v-1zm0-24.14h1v-1h-1v1zm-9.844 0h-1v1h1v-1zm0-7.56v-1h-1v1h1zm29.766 0h1v-1h-1v1zm0 6.56h-9.99v2H128v-2zm-10.99 1V44h2V19.86h-2zm1 23.14h-9.932v2h9.932v-2zm-8.932 1V19.86h-2V44h2zm-1-25.14h-9.844v2h9.844v-2zm-8.844 1V12.3h-2v7.56h2zm-1-6.56H128v-2H98.234v2zm28.766-1v7.56h2V12.3h-2zM149.094 44l-.878.479.284.521h.594v-1zm-.938-2.842l.977-.214-.45-2.056-1.31 1.648.783.622zm-15.234.733l-.656.754.004.004.652-.758zm14.795-17.256v1h1v-1h-1zm-7.295-2.578v1h1v-1h-1zm-9.873 0h-1v1h1v-1zm3.896-7.471l-.59-.807-.003.002.593.805zm19.571.088l.644-.765-.644.765zm3.603 8.115h1v-.017l-1 .017zm0 14.033h-1v.014l1-.014zm1.348 6.68h1v-.26l-.127-.227-.873.487zm0 .498v1h1v-1h-1zm-13.008-7.236l-.541-.842-.009.007.55.835zm1.758-1.787l.884.468.116-.22v-.248h-1zm0-5.069h1v-1h-1v1zm-7.119 6.826l-.683.73.006.007.006.006.671-.743zm9.374 6.787c-.285-.522-.573-1.361-.839-2.577l-1.954.428c.281 1.285.618 2.34 1.037 3.107l1.756-.958zm-2.599-2.985c-1.602 2.016-3.836 3.05-6.834 3.05v2c3.526 0 6.37-1.252 8.4-3.806l-1.566-1.244zm-6.834 3.05c-2.771 0-5.073-.826-6.965-2.454l-1.304 1.517c2.287 1.966 5.063 2.937 8.269 2.937v-2zm-6.961-2.45c-1.875-1.63-2.791-3.63-2.791-6.072h-2c0 3.029 1.174 5.578 3.479 7.581l1.312-1.51zm-2.791-6.072c0-3.152 1.142-5.423 3.378-6.97l-1.139-1.645c-2.842 1.968-4.239 4.893-4.239 8.616h2zm3.378-6.97c2.301-1.594 5.758-2.46 10.505-2.46v-2c-4.94 0-8.867.893-11.644 2.815l1.139 1.645zm10.505-2.46h3.047v-2h-3.047v2zm4.047-1v-1.67h-2v1.67h2zm0-1.67c0-1.576-.338-2.945-1.189-3.928-.874-1.01-2.136-1.436-3.59-1.436v2c1.065 0 1.693.3 2.078.745.409.473.701 1.286.701 2.62h2zm-4.779-5.364c-1.322 0-2.498.325-3.338 1.15-.844.83-1.178 1.996-1.178 3.307h2c0-.994.251-1.557.58-1.88.332-.326.914-.577 1.936-.577v-2zm-3.516 3.457h-9.873v2h9.873v-2zm-8.873 1c0-2.73 1.132-4.929 3.49-6.666l-1.187-1.61c-2.838 2.09-4.303 4.873-4.303 8.276h2zm3.487-6.664c2.407-1.76 5.516-2.678 9.4-2.678v-2c-4.203 0-7.754.996-10.581 3.064l1.181 1.614zm9.4-2.678c3.883 0 6.823.946 8.936 2.724l1.288-1.53c-2.575-2.167-6.022-3.194-10.224-3.194v2zm8.936 2.724c2.094 1.762 3.193 4.18 3.247 7.367l2-.034c-.063-3.687-1.366-6.68-3.959-8.863l-1.288 1.53zm3.247 7.35v14.033h2V22.79h-2zm0 14.047c.04 2.98.498 5.4 1.474 7.153l1.747-.974c-.742-1.333-1.183-3.367-1.221-6.206l-2 .027zm1.348 6.666V44h2v-.498h-2zm1-.502h-9.873v2h9.873v-2zm-16.055-4.445c1.371 0 2.592-.295 3.597-.956l-1.1-1.67c-.597.393-1.407.626-2.497.626v2zm3.588-.95c.923-.593 1.648-1.306 2.101-2.16l-1.768-.936c-.251.473-.697.952-1.415 1.413l1.082 1.683zm2.217-2.628v-5.069h-2v5.069h2zm-1-6.069h-2.871v2h2.871v-2zm-2.871 0c-1.848 0-3.421.413-4.536 1.413-1.135 1.02-1.621 2.49-1.621 4.216h2c0-1.36.374-2.204.958-2.727.604-.543 1.609-.902 3.199-.902v-2zm-6.157 5.63c0 1.149.4 2.154 1.226 2.927l1.366-1.46c-.385-.361-.592-.82-.592-1.468h-2zm1.238 2.939c.817.737 1.839 1.078 2.985 1.078v-2c-.729 0-1.25-.206-1.644-.563l-1.341 1.485zM191.34 44v1h1v-1h-1zm-9.902 0h-1v1h1v-1zm0-11.748h1v-1h-1v1zm-8.643 0v-1h-1v1h1zm0 11.748v1h1v-1h-1zm-9.873 0h-1v1h1v-1zm0-31.7v-1h-1v1h1zm9.873 0h1v-1h-1v1zm0 12.364h-1v1h1v-1zm8.643 0v1h1v-1h-1zm0-12.363v-1h-1v1h1zm9.902 0h1v-1h-1v1zm0 30.699h-9.902v2h9.902v-2zm-8.902 1V32.252h-2V44h2zm-1-12.748h-8.643v2h8.643v-2zm-9.643 1V44h2V32.252h-2zm1 10.748h-9.873v2h9.873v-2zm-8.873 1V12.3h-2V44h2zm-1-30.7h9.873v-2h-9.873v2zm8.873-1v12.364h2V12.301h-2zm1 13.364h8.643v-2h-8.643v2zm9.643-1V12.301h-2v12.363h2zm-1-11.363h9.902v-2h-9.902v2zm8.902-1V44h2V12.3h-2zm16.996 8.701h-1v1h1v-1zm15.674 19.893l.617.786h.001l-.618-.786zM197.404 44h-1v1h1v-1zm0-31.7v-1h-1v1h1zm9.932 0h1v-1h-1v1zm0 16.29v-1h-1v1h1zm0 7.851h-1v1h1v-1zm8.525-1.025l.632.776.002-.002-.634-.774zm.147-5.713l-.698.716.698-.716zm-8.672-7.701h5.068v-2h-5.068v2zm5.068 0c2.822 0 5.261.46 7.34 1.354l.79-1.837c-2.375-1.02-5.092-1.517-8.13-1.517v2zm7.34 1.354c2.075.892 3.611 2.134 4.66 3.708l1.664-1.109c-1.294-1.942-3.157-3.414-5.534-4.436l-.79 1.837zm4.66 3.708c1.052 1.578 1.59 3.421 1.59 5.569h2c0-2.501-.633-4.74-1.926-6.678l-1.664 1.11zm1.59 5.569c0 3.115-1.19 5.578-3.603 7.476l1.237 1.571c2.901-2.282 4.366-5.327 4.366-9.047h-2zm-3.602 7.475c-2.406 1.89-5.766 2.892-10.193 2.892v2c4.714 0 8.561-1.068 11.428-3.319l-1.235-1.573zM212.199 43h-14.795v2h14.795v-2zm-13.795 1V12.3h-2V44h2zm-1-30.7h9.932v-2h-9.932v2zm8.932-1v8.702h2v-8.701h-2zm0 16.29v7.851h2V28.59h-2zm1 8.851h5.01v-2h-5.01v2zm5.01 0c1.645 0 3.07-.373 4.147-1.25l-1.263-1.55c-.603.49-1.522.8-2.884.8v2zm4.149-1.251c1.11-.908 1.655-2.15 1.655-3.616h-2c0 .917-.313 1.57-.922 2.068l1.267 1.548zm1.655-3.616c0-1.411-.469-2.636-1.444-3.587l-1.396 1.432c.548.534.84 1.223.84 2.155h2zm-1.444-3.587c-1.032-1.005-2.565-1.397-4.36-1.397v2c1.564 0 2.472.35 2.964.83l1.396-1.433zm-4.36-1.397h-5.01v2h5.01v-2zM10.93 68.5v1h1v-1h-1zm-9.873 0h-1v1h1v-1zm3.603-7.031l-.6-.8-.003.002.603.798zm19.512-.293l-.55.835.004.003.546-.838zm2.402 10.693l-.81-.585-.003.003.813.582zM23 74.682l-.415-.91-2.26 1.03 2.344.823.331-.943zm1.494 14.296l-.553-.832-.003.001.556.831zm-20.156-.087l-.585.81.004.004.58-.814zm-3.78-7.266v-1h-1v1h1zm9.874 0h1v-1h-1v1zm.996 2.08l-.662.75.006.005.007.006.649-.76zm6.152-.058l-.674-.74-.005.005-.006.006.685.728zm-2.783-6.006l.03-1h-.03v1zm-4.424 0h-1v1h1v-1zm0-5.743v-1h-1v1h1zm8.617-3.017c0-1.204-.32-2.287-1.133-3.055-.802-.76-1.913-1.05-3.148-1.05v2c.953 0 1.482.226 1.774.502.281.266.507.736.507 1.603h2zm-4.281-4.106c-1.35 0-2.543.238-3.42.87-.937.676-1.36 1.688-1.36 2.855h2c0-.649.208-1 .53-1.232.383-.276 1.08-.493 2.25-.493v-2zm-3.78 2.725H1.058v2h9.873v-2zm-8.872 1c0-2.54 1.04-4.595 3.206-6.234l-1.206-1.595c-2.638 1.995-4 4.627-4 7.829h2zm3.203-6.231c2.207-1.655 5.114-2.525 8.805-2.525v-2c-4.005 0-7.368.947-10.005 2.925l1.2 1.6zm8.805-2.525c4.165 0 7.317.792 9.557 2.267l1.1-1.67c-2.682-1.767-6.268-2.597-10.658-2.597v2zm9.561 2.27c2.179 1.417 3.237 3.368 3.237 5.959h2c0-3.27-1.402-5.85-4.146-7.635l-1.09 1.676zm3.237 5.959c0 1.186-.357 2.282-1.1 3.311l1.622 1.17c.977-1.353 1.478-2.855 1.478-4.481h-2zm-1.102 3.314c-.721 1.006-1.764 1.841-3.176 2.485l.83 1.82c1.674-.763 3.014-1.803 3.972-3.14l-1.626-1.165zm-3.092 4.338c1.666.585 2.834 1.414 3.591 2.44.754 1.023 1.16 2.325 1.16 3.97h2c0-1.987-.497-3.727-1.55-5.156-1.05-1.425-2.591-2.457-4.539-3.14l-.662 1.886zm4.75 6.41c0 2.523-1.111 4.538-3.478 6.11l1.106 1.666c2.868-1.904 4.373-4.517 4.373-7.776h-2zm-3.481 6.112c-2.38 1.593-5.64 2.439-9.873 2.439v2c4.478 0 8.17-.892 10.985-2.776l-1.112-1.663zm-9.873 2.439c-3.816 0-6.839-.864-9.146-2.51l-1.162 1.629c2.731 1.948 6.193 2.88 10.307 2.88v-2zm-9.142-2.507c-2.267-1.634-3.364-3.758-3.364-6.454h-2c0 3.359 1.422 6.078 4.194 8.077l1.17-1.623zM.559 82.625h9.873v-2H.559v2zm8.873-1c0 1.12.48 2.077 1.334 2.83l1.323-1.5c-.474-.418-.657-.849-.657-1.33h-2zm1.347 2.84c.94.802 2.343 1.09 3.96 1.09v-2c-1.47 0-2.274-.28-2.662-.61l-1.298 1.52zm3.96 1.09c1.398 0 2.631-.34 3.526-1.18l-1.37-1.457c-.394.37-1.056.637-2.157.637v2zm3.515-1.17c.908-.828 1.322-1.946 1.322-3.229h-2c0 .827-.25 1.369-.67 1.751l1.348 1.478zm1.322-3.229c0-1.318-.371-2.48-1.264-3.31-.873-.813-2.093-1.162-3.484-1.205l-.062 2c1.128.034 1.798.31 2.184.67.368.341.626.898.626 1.845h2zm-4.78-4.515h-4.423v2h4.424v-2zm-3.423 1v-5.743h-2v5.743h2zm-1-4.743h4.014v-2h-4.014v2zm4.014 0c1.316 0 2.49-.271 3.344-.987.89-.745 1.26-1.819 1.26-3.03h-2c0 .8-.231 1.235-.544 1.496-.346.29-.974.521-2.06.521v2zM50.48 91l-.877.479.284.521h.593v-1zm-.937-2.842l.977-.213-.45-2.057-1.31 1.648.783.622zm-15.234.733l-.656.754.004.004.652-.758zm14.794-17.256v1h1v-1h-1zm-7.294-2.578v1h1v-1h-1zm-9.873 0h-1v1h1v-1zm3.896-7.471l-.59-.807-.003.002.593.805zm19.57.088l.644-.765-.644.765zm3.604 8.115h1v-.017l-1 .017zm0 14.033h-1v.014l1-.014zm1.347 6.68h1v-.26l-.126-.227-.873.487zm0 .498v1h1v-1h-1zm-13.007-7.236l-.541-.842-.01.007.55.835zm1.758-1.787l.883.468.116-.22v-.248h-1zm0-5.069h1v-1h-1v1zm-7.12 6.826l-.683.73.007.007.006.005.67-.742zm9.374 6.787c-.284-.522-.572-1.361-.838-2.576l-1.954.427c.281 1.285.618 2.34 1.037 3.107l1.755-.958zm-2.598-2.985c-1.603 2.016-3.837 3.05-6.834 3.05v2c3.526 0 6.37-1.252 8.4-3.806l-1.566-1.244zm-6.834 3.05c-2.771 0-5.073-.826-6.965-2.454l-1.304 1.517c2.287 1.966 5.063 2.937 8.269 2.937v-2zm-6.961-2.45c-1.875-1.63-2.791-3.63-2.791-6.072h-2c0 3.029 1.173 5.578 3.479 7.581l1.312-1.51zm-2.791-6.072c0-3.152 1.142-5.423 3.378-6.97l-1.139-1.645c-2.842 1.968-4.24 4.893-4.24 8.615h2zm3.378-6.97c2.301-1.594 5.757-2.46 10.505-2.46v-2c-4.94 0-8.867.893-11.644 2.815l1.139 1.645zm10.505-2.46h3.046v-2h-3.046v2zm4.046-1v-1.67h-2v1.67h2zm0-1.67c0-1.576-.338-2.945-1.188-3.928-.875-1.01-2.136-1.436-3.59-1.436v2c1.064 0 1.692.3 2.078.746.409.472.7 1.285.7 2.619h2zM45.325 64.6c-1.322 0-2.497.325-3.338 1.15-.843.83-1.177 1.996-1.177 3.307h2c0-.994.251-1.557.58-1.88.331-.326.913-.577 1.935-.577v-2zm-3.515 3.457h-9.873v2h9.873v-2zm-8.873 1c0-2.73 1.132-4.929 3.49-6.666l-1.187-1.61c-2.838 2.09-4.303 4.872-4.303 8.276h2zm3.486-6.664c2.408-1.76 5.517-2.678 9.4-2.678v-2c-4.202 0-7.753.996-10.58 3.064l1.18 1.614zm9.4-2.678c3.884 0 6.824.946 8.936 2.724l1.288-1.53c-2.575-2.167-6.021-3.194-10.224-3.194v2zm8.936 2.724c2.094 1.762 3.194 4.18 3.248 7.367l2-.034c-.063-3.687-1.366-6.68-3.96-8.863l-1.288 1.53zm3.248 7.35v14.033h2V69.79h-2zm0 14.047c.04 2.98.498 5.4 1.474 7.153l1.747-.974c-.742-1.333-1.183-3.367-1.221-6.206l-2 .027zm1.347 6.666V91h2v-.498h-2zm1-.502H50.48v2h9.873v-2zM44.3 85.555c1.37 0 2.592-.295 3.597-.956l-1.1-1.67c-.597.393-1.407.626-2.497.626v2zm3.587-.95c.923-.593 1.649-1.306 2.101-2.16l-1.767-.936c-.251.473-.697.952-1.415 1.413l1.081 1.683zm2.217-2.628v-5.069h-2v5.069h2zm-1-6.069h-2.87v2h2.87v-2zm-2.87 0c-1.848 0-3.421.413-4.536 1.413-1.135 1.02-1.62 2.49-1.62 4.216h2c0-1.36.373-2.204.956-2.727.604-.543 1.61-.902 3.2-.902v-2zm-6.157 5.63c0 1.148.4 2.154 1.225 2.927l1.366-1.46c-.385-.361-.59-.82-.59-1.468h-2zm1.238 2.939c.817.737 1.84 1.078 2.985 1.078v-2c-.73 0-1.25-.207-1.644-.563l-1.34 1.484zm43.034-4.375l-.947.321.939 2.767.953-2.762-.945-.326zM91.525 59.3v-1h-.712l-.233.674.945.326zm12.422 0h1v-1h-1v1zm0 31.699v1h1v-1h-1zm-9.902 0h-1v1h1v-1zm0-17.578h1l-1.94-.342.94.342zM87.658 91v1h.7l.24-.659-.94-.341zm-6.562 0l-.94.34.239.66h.7v-1zM75.06 74.36l.94-.342-1.94.341h1zm0 16.64v1h1v-1h-1zm-9.903 0h-1v1h1v-1zm0-31.7v-1h-1v1h1zm12.13 0l.946-.32-.23-.68h-.717v1zm8.005 21.128l7.178-20.801-1.89-.652-7.179 20.8 1.891.653zM91.525 60.3h12.422v-2H91.525v2zm11.422-1V91h2V59.3h-2zm1 30.699h-9.902v2h9.902v-2zm-8.902 1V73.422h-2V91h2zm-1.94-17.92L86.718 90.66l1.88.682 6.387-17.578-1.88-.683zM87.658 90h-6.562v2h6.562v-2zm-5.622.66L76 74.017l-1.88.682 6.035 16.64 1.88-.68zm-7.975-16.3V91h2V74.36h-2zm1 15.64h-9.903v2h9.903v-2zm-8.903 1V59.3h-2V91h2zm-1-30.7h12.13v-2h-12.13v2zm11.182-.678l7.06 20.801 1.895-.643-7.061-20.8-1.894.642zm37.744 27.628l-.695.719.002.002.693-.721zm-2.725-20.742l-.898-.439-.003.006.901.433zm5.274-5.742l.505.863.005-.003-.51-.86zm18.75 2.109l-.733.68.003.003.73-.683zm3.867 15.38v1h1v-1h-1zm-19.629 0v-1h-1.217l.236 1.195.981-.194zm14.268 2.433l.763-.646-.783-.926-.76.945.78.626zm4.511 5.331l.81.587.46-.634-.506-.598-.764.645zm-5.244 4.073l.406.914.003-.002-.409-.912zm-13.535-18.018l-.99-.141-.163 1.141h1.153v-1zm9.961 0v1h1v-1h-1zm0-.761l-1-.025v.025h1zm-1.201-3.663l-.723.691.008.008.715-.699zm-2.49 22.936c-4.651 0-8.323-1.375-11.114-4.057l-1.386 1.442c3.225 3.1 7.424 4.615 12.5 4.615v-2zm-11.112-4.055c-2.79-2.7-4.207-6.208-4.207-10.619h-2c0 4.886 1.592 8.936 4.817 12.057l1.39-1.438zm-4.207-10.619v-.82h-2v.82h2zm0-.82c0-3.119.573-5.828 1.689-8.151l-1.803-.866c-1.267 2.637-1.886 5.651-1.886 9.017h2zm1.686-8.145c1.128-2.31 2.751-4.074 4.88-5.318l-1.01-1.727c-2.481 1.451-4.373 3.516-5.667 6.167l1.797.877zm4.885-5.321c2.124-1.26 4.676-1.911 7.693-1.911v-2c-3.311 0-6.228.716-8.713 2.19l1.02 1.72zm7.693-1.911c4.228 0 7.459 1.307 9.814 3.84l1.465-1.36c-2.801-3.014-6.601-4.48-11.279-4.48v2zm9.817 3.843c2.356 2.517 3.597 6.091 3.597 10.86h2c0-5.114-1.337-9.236-4.137-12.226l-1.46 1.366zm3.597 10.86v3.838h2v-3.838h-2zm1 2.838h-19.629v2h19.629v-2zm-20.61 1.194c.388 1.962 1.258 3.572 2.647 4.756l1.297-1.522c-.993-.847-1.667-2.03-1.982-3.622l-1.962.388zm2.647 4.756c1.408 1.2 3.197 1.763 5.277 1.763v-2c-1.708 0-3.005-.454-3.98-1.285l-1.297 1.522zm5.277 1.763c3.389 0 6.133-1.203 8.104-3.655l-1.559-1.253c-1.545 1.922-3.683 2.908-6.545 2.908v2zm6.561-3.636l4.512 5.332 1.527-1.291-4.512-5.332-1.527 1.291zm4.465 4.1c-1.11 1.533-2.708 2.79-4.843 3.746l.818 1.825c2.396-1.074 4.295-2.533 5.645-4.398l-1.62-1.173zm-4.839 3.745c-2.111.936-4.394 1.408-6.86 1.408v2c2.729 0 5.29-.524 7.671-1.58l-.811-1.828zm-7.974-23.846c-1.69 0-3.127.572-4.201 1.767-1.042 1.162-1.657 2.816-1.945 4.834l1.98.283c.259-1.81.777-3.027 1.453-3.78.645-.719 1.513-1.104 2.713-1.104v-2zm-5.156 7.742h9.961v-2h-9.961v2zm10.961-1v-.761h-2v.761h2zm0-.737c.043-1.763-.403-3.278-1.486-4.386l-1.43 1.398c.597.611.951 1.537.916 2.939l2 .05zm-1.478-4.377c-1.079-1.13-2.573-1.628-4.327-1.628v2c1.372 0 2.28.38 2.881 1.01l1.446-1.382zm41.552-.1v1h1v-1h-1zm-9.99 0v-1h-1v1h1zm0 24.14v1h1v-1h-1zm-9.932 0h-1v1h1v-1zm0-24.14h1v-1h-1v1zm-9.843 0h-1v1h1v-1zm0-7.56v-1h-1v1h1zm29.765 0h1v-1h-1v1zm0 6.56h-9.99v2h9.99v-2zm-10.99 1V91h2V66.86h-2zm1 23.14h-9.932v2h9.932v-2zm-8.932 1V66.86h-2V91h2zm-1-25.14h-9.843v2h9.843v-2zm-8.843 1V59.3h-2v7.56h2zm-1-6.56h29.765v-2h-29.765v2zm28.765-1v7.56h2V59.3h-2zM202.59 91v1h1v-1h-1zm-9.902 0h-1v1h1v-1zm0-11.748h1v-1h-1v1zm-8.643 0v-1h-1v1h1zm0 11.748v1h1v-1h-1zm-9.873 0h-1v1h1v-1zm0-31.7v-1h-1v1h1zm9.873 0h1v-1h-1v1zm0 12.364h-1v1h1v-1zm8.643 0v1h1v-1h-1zm0-12.363v-1h-1v1h1zm9.902 0h1v-1h-1v1zm0 30.699h-9.902v2h9.902v-2zm-8.902 1V79.252h-2V91h2zm-1-12.748h-8.643v2h8.643v-2zm-9.643 1V91h2V79.252h-2zm1 10.748h-9.873v2h9.873v-2zm-8.873 1V59.3h-2V91h2zm-1-30.7h9.873v-2h-9.873v2zm8.873-1v12.364h2V59.301h-2zm1 13.364h8.643v-2h-8.643v2zm9.643-1V59.301h-2v12.363h2zm-1-11.363h9.902v-2h-9.902v2zm8.902-1V91h2V59.3h-2zm9.935 27.949l-.695.719.002.002.693-.721zm-2.724-20.742l-.899-.439-.003.006.902.433zm5.273-5.742l.505.863.005-.003-.51-.86zm18.75 2.109l-.732.68.002.003.73-.683zm3.867 15.38v1h1v-1h-1zm-19.629 0v-1h-1.217l.237 1.195.98-.194zm14.268 2.433l.763-.646-.783-.926-.759.945.779.626zm4.512 5.331l.81.587.459-.634-.506-.598-.763.645zm-5.244 4.073l.405.914.004-.002-.409-.912zm-13.536-18.018l-.989-.141-.164 1.141h1.153v-1zm9.961 0v1h1v-1h-1zm0-.761l-.999-.025-.001.012v.013h1zm-1.201-3.663l-.723.691.008.008.715-.699zm-2.49 22.936c-4.651 0-8.323-1.375-11.114-4.057l-1.386 1.442c3.225 3.1 7.424 4.615 12.5 4.615v-2zm-11.111-4.055c-2.791-2.7-4.207-6.208-4.207-10.619h-2c0 4.886 1.591 8.936 4.816 12.057l1.391-1.438zm-4.207-10.619v-.82h-2v.82h2zm0-.82c0-3.119.572-5.828 1.688-8.151l-1.803-.866c-1.267 2.637-1.885 5.651-1.885 9.017h2zm1.685-8.145c1.128-2.31 2.752-4.074 4.88-5.318l-1.01-1.727c-2.481 1.451-4.372 3.516-5.667 6.167l1.797.877zm4.885-5.321c2.125-1.26 4.676-1.911 7.693-1.911v-2c-3.311 0-6.228.716-8.713 2.19l1.02 1.72zm7.693-1.911c4.229 0 7.459 1.307 9.815 3.84l1.465-1.36c-2.801-3.014-6.602-4.48-11.28-4.48v2zm9.817 3.843c2.356 2.517 3.597 6.091 3.597 10.86h2c0-5.114-1.337-9.236-4.137-12.226l-1.46 1.366zm3.597 10.86v3.838h2v-3.838h-2zm1 2.838h-19.629v2h19.629v-2zm-20.609 1.194c.388 1.962 1.257 3.572 2.646 4.756l1.298-1.522c-.994-.847-1.667-2.03-1.983-3.622l-1.961.388zm2.646 4.756c1.409 1.2 3.198 1.763 5.278 1.763v-2c-1.709 0-3.006-.454-3.98-1.285l-1.298 1.522zm5.278 1.763c3.389 0 6.133-1.203 8.104-3.655l-1.559-1.253c-1.545 1.922-3.684 2.908-6.545 2.908v2zm6.561-3.636l4.511 5.332 1.527-1.291-4.512-5.332-1.526 1.291zm4.465 4.1c-1.11 1.533-2.708 2.79-4.843 3.746l.818 1.825c2.396-1.074 4.294-2.533 5.645-4.398l-1.62-1.173zm-4.84 3.745c-2.111.936-4.394 1.408-6.86 1.408v2c2.729 0 5.29-.524 7.671-1.58l-.811-1.828zm-7.973-23.846c-1.69 0-3.128.572-4.201 1.767-1.043 1.162-1.657 2.816-1.945 4.834l1.979.283c.259-1.81.778-3.027 1.454-3.78.645-.719 1.512-1.104 2.713-1.104v-2zm-5.157 7.742h9.961v-2h-9.961v2zm10.961-1v-.761h-2v.761h2zm0-.737c.044-1.763-.403-3.278-1.486-4.386l-1.43 1.398c.597.611.951 1.537.917 2.939l1.999.05zm-1.478-4.377c-1.078-1.13-2.573-1.628-4.326-1.628v2c1.371 0 2.279.38 2.88 1.01l1.446-1.382zm17.676 20.29l-.696.719.003.002.693-.721zm-2.725-20.742l-.899-.439-.002.006.901.433zm5.274-5.742l.504.863.006-.003-.51-.86zm18.75 2.109l-.733.68.003.003.73-.683zm3.867 15.38v1h1v-1h-1zm-19.629 0v-1h-1.217l.236 1.195.981-.194zm14.267 2.433l.764-.646-.784-.926-.759.945.779.626zm4.512 5.331l.81.587.459-.634-.505-.598-.764.645zm-5.244 4.073l.405.914.004-.002-.409-.912zm-13.535-18.018l-.99-.141-.163 1.141h1.153v-1zm9.961 0v1h1v-1h-1zm0-.761l-1-.025v.025h1zm-1.201-3.663l-.723.691.007.008.716-.699zm-2.491 22.936c-4.651 0-8.323-1.375-11.113-4.057l-1.386 1.442c3.225 3.1 7.424 4.615 12.499 4.615v-2zm-11.111-4.055c-2.791-2.7-4.207-6.208-4.207-10.619h-2c0 4.886 1.591 8.936 4.816 12.057l1.391-1.438zm-4.207-10.619v-.82h-2v.82h2zm0-.82c0-3.119.573-5.828 1.688-8.151l-1.802-.866c-1.267 2.637-1.886 5.651-1.886 9.017h2zm1.686-8.145c1.127-2.31 2.751-4.074 4.879-5.318l-1.009-1.727c-2.481 1.451-4.373 3.516-5.668 6.167l1.798.877zm4.885-5.321c2.124-1.26 4.675-1.911 7.693-1.911v-2c-3.311 0-6.229.716-8.714 2.19l1.021 1.72zm7.693-1.911c4.228 0 7.459 1.307 9.814 3.84l1.465-1.36c-2.801-3.014-6.602-4.48-11.279-4.48v2zm9.817 3.843c2.356 2.517 3.597 6.091 3.597 10.86h2c0-5.114-1.337-9.236-4.137-12.226l-1.46 1.366zm3.597 10.86v3.838h2v-3.838h-2zm1 2.838h-19.629v2h19.629v-2zm-20.61 1.194c.388 1.962 1.257 3.572 2.647 4.756l1.297-1.522c-.994-.847-1.667-2.03-1.982-3.622l-1.962.388zm2.647 4.756c1.408 1.2 3.197 1.763 5.277 1.763v-2c-1.709 0-3.006-.454-3.98-1.285l-1.297 1.522zm5.277 1.763c3.389 0 6.133-1.203 8.104-3.655l-1.559-1.253c-1.545 1.922-3.684 2.908-6.545 2.908v2zm6.561-3.636l4.512 5.332 1.527-1.291-4.512-5.332-1.527 1.291zm4.465 4.1c-1.11 1.533-2.708 2.79-4.843 3.746l.818 1.825c2.396-1.074 4.294-2.533 5.645-4.398l-1.62-1.173zm-4.839 3.745c-2.112.936-4.395 1.408-6.861 1.408v2c2.73 0 5.29-.524 7.671-1.58l-.81-1.828zm-7.974-23.846c-1.69 0-3.127.572-4.201 1.767-1.043 1.162-1.657 2.816-1.945 4.834l1.98.283c.258-1.81.777-3.027 1.453-3.78.645-.719 1.513-1.104 2.713-1.104v-2zm-5.156 7.742h9.961v-2h-9.961v2zm10.961-1v-.761h-2v.761h2zm-.001-.737c.044-1.763-.403-3.278-1.485-4.386l-1.431 1.398c.597.611.952 1.537.917 2.939l1.999.05zm-1.477-4.377c-1.079-1.13-2.573-1.628-4.327-1.628v2c1.372 0 2.279.38 2.881 1.01l1.446-1.382zm23.945 10.534v1h.957l.042-.957-.999-.043zm-7.998 0l-1 .043.042.957h.958v-1zm-1.26-29.15v-1h-1.044l.045 1.043.999-.043zm10.517 0l.999.043.045-1.043h-1.044v1zm-9.257 34.687l.663.748h.001l-.664-.748zm7.822 0l-.671.741.007.007.007.007.657-.755zm0 7.12l.663.748.001-.001-.664-.748zm-7.822 0l-.672.74.008.007.007.007.657-.755zm7.998-13.657h-7.998v2h7.998v-2zm-6.999.957l-1.26-29.15-1.998.086 1.259 29.15 1.999-.086zm-2.259-28.107h10.517v-2h-10.517v2zm9.518-1.043l-1.26 29.15 1.999.086 1.259-29.15-1.998-.086zm-8.811 38.275c0-1.174.405-2.078 1.216-2.797l-1.327-1.496c-1.26 1.117-1.889 2.576-1.889 4.293h2zm1.217-2.797c.851-.757 1.915-1.154 3.261-1.154v-2c-1.779 0-3.332.54-4.59 1.659l1.329 1.495zm3.261-1.154c1.346 0 2.396.397 3.226 1.147l1.342-1.482c-1.241-1.124-2.789-1.665-4.568-1.665v2zm3.24 1.16c.828.721 1.239 1.624 1.239 2.791h2c0-1.723-.645-3.184-1.926-4.3l-1.313 1.51zm1.239 2.791c0 1.168-.411 2.084-1.247 2.827l1.329 1.495c1.274-1.133 1.918-2.599 1.918-4.322h-2zm-1.246 2.826c-.828.735-1.881 1.125-3.233 1.125v2c1.773 0 3.318-.527 4.56-1.628l-1.327-1.497zm-3.233 1.125c-1.351 0-2.418-.39-3.269-1.13l-1.313 1.508c1.258 1.095 2.809 1.622 4.582 1.622v-2zm-3.254-1.118c-.818-.74-1.224-1.659-1.224-2.833h-2c0 1.717.629 3.181 1.881 4.316l1.343-1.483z" fill="#fff"/></svg>