<svg width="577" height="200" fill="none" xmlns="http://www.w3.org/2000/svg"><path d="M75.469 64.113l1.998.092.096-2.092h-2.094v2zm-4.805 15.762l1.68 1.086.004-.007-1.684-1.079zM58.301 90.422l-.852-1.81-.005.003.857 1.807zM8.379 26.144L6.566 25.3l-.002.005 1.815.84zm12.598-14.53l1.055 1.698.009-.005-1.064-1.694zm43.945 3.046l-1.313 1.51.006.004 1.307-1.514zm10.722 22.5v2h2.188l-.195-2.179-1.993.18zm-20.507 0l-2 .06.059 1.94h1.94v-2zM28.71 28.313l1.698 1.056-1.698-1.056zm-3.75 18.34l-2-.029v.028h2zm3.398 25.546l-1.73 1.004.004.006.004.007 1.722-1.017zm26.66-8.086v-2h-1.936l-.062 1.936 1.998.064zm18.452-.092c-.259 5.621-1.768 10.528-4.49 14.775l3.367 2.158c3.137-4.893 4.83-10.494 5.119-16.749l-3.996-.184zM68.984 78.79c-2.708 4.19-6.53 7.468-11.535 9.823l1.703 3.62c5.62-2.645 10.041-6.398 13.192-11.271l-3.36-2.172zm-11.54 9.826c-4.965 2.354-10.7 3.557-17.249 3.557v4c7.045 0 13.38-1.297 18.962-3.943l-1.713-3.614zm-17.249 3.557c-10.733 0-18.978-3.473-24.984-10.28l-3 2.646c6.884 7.802 16.295 11.634 27.984 11.634v-4zm-24.984-10.28C9.19 75.068 6.043 65.29 6.043 52.277h-4c0 13.628 3.299 24.475 10.168 32.261l3-2.646zM6.043 52.277V48.06h-4v4.218h4zm0-4.218c0-8.13 1.405-15.138 4.151-21.075l-3.63-1.679C3.528 31.868 2.043 39.47 2.043 48.059h4zm4.149-21.07c2.779-5.965 6.727-10.5 11.84-13.677l-2.111-3.397C14.096 13.535 9.646 18.687 6.566 25.3l3.626 1.69zM22.04 13.307c5.115-3.215 11.065-4.85 17.92-4.85v-4c-7.52 0-14.226 1.803-20.049 5.463l2.129 3.387zm17.92-4.85c9.99 0 17.805 2.631 23.648 7.712l2.625-3.018C59.5 7.294 50.674 4.457 39.961 4.457v4zm23.654 7.717c5.834 5.037 9.217 12.025 10.038 21.165l3.983-.358c-.897-10-4.663-18.013-11.407-23.835l-2.614 3.028zm12.03 18.986H55.136v4h20.507v-4zm-18.51 1.94c-.163-5.442-1.54-9.814-4.57-12.603l-2.709 2.943c1.893 1.742 3.133 4.832 3.282 9.78l3.998-.12zm-4.57-12.603c-2.978-2.742-7.31-3.927-12.604-3.927v4c4.785 0 7.952 1.081 9.895 2.87l2.71-2.943zM39.962 20.57c-5.698 0-10.145 2.183-12.948 6.686l3.396 2.113c1.963-3.153 5.015-4.799 9.552-4.799v-4zm-12.948 6.686c-2.68 4.304-3.933 10.872-4.052 19.368l4 .056c.116-8.3 1.361-13.959 3.448-17.31l-3.396-2.114zm-4.052 19.396v6.035h4v-6.035h-4zm0 6.035c0 9.163 1.122 16.125 3.668 20.516l3.46-2.007c-1.984-3.422-3.128-9.468-3.128-18.508h-4zm3.676 20.529c2.752 4.664 7.456 6.843 13.558 6.843v-4c-5.069 0-8.256-1.728-10.113-4.876l-3.445 2.032zm13.558 6.843c5.016 0 9.178-1.181 12.17-3.847l-2.66-2.987c-2.007 1.788-5.073 2.834-9.51 2.834v4zm12.17-3.847c3.064-2.728 4.488-6.89 4.654-12.034l-3.998-.13c-.147 4.544-1.38 7.453-3.316 9.177l2.66 2.987zm2.654-10.099h20.45v-4H55.02v4zm84.786-21.394v2h2v-2h-2zm-19.981 0v-2h-2v2h2zm0 48.281v2h2v-2h-2zm-19.863 0h-2v2h2v-2zm0-48.281h2v-2h-2v2zm-19.688 0h-2v2h2v-2zm0-15.117v-2h-2v2h2zm59.532 0h2v-2h-2v2zm0 13.117h-19.981v4h19.981v-4zm-21.981 2V93h4V44.719h-4zm2 46.281H99.961v4h19.863v-4zm-17.863 2V44.719h-4V93h4zm-2-50.281H80.273v4h19.688v-4zm-17.688 2V29.602h-4v15.117h4zm-2-13.117h59.532v-4H80.273v4zm57.532-2v15.117h4V29.602h-4zM181.992 93l-1.756.958.569 1.042h1.187v-2zm-1.875-5.684l1.954-.427-.9-4.113-2.619 3.296 1.565 1.244zm-30.469 1.465l-1.312 1.51.009.007 1.303-1.517zm29.59-34.512v2h2v-2h-2zm-14.59-5.156v2h2v-2h-2zm-19.746 0h-2v2h2v-2zm7.793-14.941l-1.18-1.614-.006.004 1.186 1.61zm39.141.176l1.288-1.53-1.288 1.53zm7.207 16.23h2v-.034l-2 .034zm0 28.066h-2v.027l2-.027zm2.695 13.36h2v-.52l-.252-.453-1.748.973zm0 .996v2h2v-2h-2zm-26.015-14.473l-1.082-1.682-.009.006-.009.006 1.1 1.67zm3.515-3.574l1.768.936.232-.44v-.496h-2zm0-10.137h2v-2h-2v2zM165 78.47l-1.366 1.46.012.012.013.012L165 78.469zm18.748 13.573c-.569-1.043-1.145-2.723-1.677-5.153l-3.908.855c.563 2.57 1.236 4.679 2.073 6.214l3.512-1.916zm-5.196-5.97c-3.206 4.033-7.674 6.1-13.669 6.1v4c7.052 0 12.74-2.503 16.8-7.611l-3.131-2.49zm-13.669 6.1c-5.542 0-10.145-1.653-13.931-4.907l-2.607 3.033c4.574 3.933 10.126 5.874 16.538 5.874v-4zm-13.923-4.9c-3.749-3.259-5.581-7.262-5.581-12.143h-4c0 6.056 2.347 11.155 6.957 15.162l2.624-3.02zm-5.581-12.143c0-6.306 2.285-10.846 6.756-13.942l-2.277-3.288c-5.686 3.935-8.479 9.785-8.479 17.23h4zm6.756-13.942c4.602-3.186 11.515-4.917 21.01-4.917v-4c-9.881 0-17.734 1.784-23.287 5.629l2.277 3.288zm21.01-4.917h6.093v-4h-6.093v4zm8.093-2v-3.34h-4v3.34h4zm0-3.34c0-3.154-.676-5.892-2.377-7.857-1.749-2.02-4.272-2.874-7.181-2.874v4c2.13 0 3.386.602 4.157 1.492.818.945 1.401 2.572 1.401 5.239h4zM171.68 40.2c-2.644 0-4.996.65-6.676 2.302-1.687 1.658-2.356 3.99-2.356 6.611h4c0-1.987.503-3.113 1.161-3.76.663-.652 1.827-1.154 3.871-1.154v-4zm-7.032 6.913h-19.746v4h19.746v-4zm-17.746 2c0-5.46 2.265-9.857 6.98-13.331l-2.373-3.22c-5.676 4.182-8.607 9.745-8.607 16.551h4zm6.974-13.327c4.815-3.521 11.032-5.356 18.8-5.356v-4c-8.405 0-15.508 1.993-21.161 6.127l2.361 3.23zm18.8-5.356c7.767 0 13.647 1.891 17.872 5.448l2.576-3.06c-5.15-4.335-12.043-6.388-20.448-6.388v4zm17.872 5.448c4.188 3.525 6.387 8.358 6.495 14.734l4-.068c-.126-7.374-2.732-13.36-7.919-17.726l-2.576 3.06zm6.495 14.7v28.066h4V50.578h-4zm0 28.093c.08 5.962.995 10.8 2.948 14.306l3.495-1.946c-1.485-2.666-2.367-6.734-2.443-12.413l-4 .053zm2.695 13.333V93h4v-.996h-4zm2-1.004h-19.746v4h19.746v-4zm-32.109-8.89c2.742 0 5.184-.59 7.194-1.912l-2.2-3.341c-1.194.786-2.814 1.252-4.994 1.252v4zm7.175-1.9c1.846-1.187 3.297-2.612 4.202-4.321l-3.535-1.872c-.502.948-1.394 1.905-2.83 2.828l2.163 3.365zm4.434-5.257V64.816h-4v10.137h4zm-2-12.137h-5.742v4h5.742v-4zm-5.742 0c-3.696 0-6.841.825-9.07 2.827-2.271 2.038-3.242 4.978-3.242 8.431h4c0-2.718.747-4.407 1.914-5.455 1.208-1.084 3.219-1.803 6.398-1.803v-4zm-12.312 11.258c0 2.299.798 4.31 2.45 5.855l2.732-2.92c-.77-.722-1.182-1.64-1.182-2.935h-4zm2.475 5.879c1.634 1.475 3.678 2.156 5.97 2.156v-4c-1.459 0-2.5-.412-3.288-1.124l-2.682 2.968zM266.484 93v2h2v-2h-2zm-19.804 0h-2v2h2v-2zm0-23.496h2v-2h-2v2zm-17.285 0v-2h-2v2h2zm0 23.496v2h2v-2h-2zm-19.747 0h-2v2h2v-2zm0-63.398v-2h-2v2h2zm19.747 0h2v-2h-2v2zm0 24.726h-2v2h2v-2zm17.285 0v2h2v-2h-2zm0-24.726v-2h-2v2h2zm19.804 0h2v-2h-2v2zm0 61.398H246.68v4h19.804v-4zm-17.804 2V69.504h-4V93h4zm-2-25.496h-17.285v4h17.285v-4zm-19.285 2V93h4V69.504h-4zm2 21.496h-19.747v4h19.747v-4zm-17.747 2V29.602h-4V93h4zm-2-61.398h19.747v-4h-19.747v4zm17.747-2v24.726h4V29.602h-4zm2 26.726h17.285v-4h-17.285v4zm19.285-2V29.602h-4v24.726h4zm-2-22.726h19.804v-4H246.68v4zm17.804-2V93h4V29.602h-4zm33.993 17.402h-2v2h2v-2zm31.347 39.785l1.235 1.573.002-.001-1.237-1.572zM278.613 93h-2v2h2v-2zm0-63.398v-2h-2v2h2zm19.864 0h2v-2h-2v2zm0 32.578v-2h-2v2h2zm0 15.703h-2v2h2v-2zm17.05-2.051l1.263 1.551.004-.003-1.267-1.548zm.293-11.426l-1.395 1.433 1.395-1.433zm-17.343-15.402h10.136v-4h-10.136v4zm10.136 0c5.644 0 10.522.922 14.679 2.709l1.58-3.675c-4.749-2.042-10.183-3.034-16.259-3.034v4zm14.679 2.709c4.151 1.784 7.223 4.268 9.321 7.416l3.328-2.219c-2.588-3.883-6.314-6.829-11.069-8.872l-1.58 3.675zm9.321 7.416c2.103 3.154 3.18 6.842 3.18 11.137h4c0-5.003-1.267-9.479-3.852-13.356l-3.328 2.219zm3.18 11.137c0 6.23-2.381 11.156-7.205 14.951l2.473 3.144c5.801-4.564 8.732-10.654 8.732-18.095h-4zm-7.204 14.95C323.777 88.995 317.057 91 308.203 91v4c9.427 0 17.122-2.135 22.856-6.638l-2.47-3.146zM308.203 91h-29.59v4h29.59v-4zm-27.59 2V29.602h-4V93h4zm-2-61.398h19.864v-4h-19.864v4zm17.864-2v17.402h4V29.602h-4zm0 32.578v15.703h4V62.18h-4zm2 17.703h10.019v-4h-10.019v4zm10.019 0c3.291 0 6.141-.748 8.294-2.5l-2.525-3.102c-1.207.982-3.044 1.602-5.769 1.602v4zm8.298-2.503c2.22-1.817 3.311-4.299 3.311-7.232h-4c0 1.834-.627 3.14-1.844 4.136l2.533 3.096zm3.311-7.232c0-2.822-.938-5.273-2.889-7.174l-2.791 2.865c1.095 1.067 1.68 2.445 1.68 4.31h4zm-2.889-7.174c-2.063-2.01-5.13-2.794-8.72-2.794v4c3.129 0 4.945.7 5.929 1.659l2.791-2.865zm-8.72-2.794h-10.019v4h10.019v-4zM24.258 133v2h2v-2h-2zm-19.746 0h-2v2h2v-2zm7.207-14.062l-1.2-1.601-.007.005 1.207 1.596zm39.023-.586l-1.1 1.67.01.006 1.09-1.676zm4.805 21.386l-1.622-1.17-.004.005 1.626 1.165zm-7.149 5.625l-.829-1.82-4.52 2.06 4.687 1.647.662-1.887zm2.989 28.594l-1.107-1.666-.006.004 1.113 1.662zm-40.313-.176l-1.17 1.623.009.006 1.161-1.629zM3.516 159.25v-2h-2v2h2zm19.746 0h2v-2h-2v2zm1.992 4.16l-1.323 1.5.012.011.013.011 1.298-1.522zm12.305-.117l-1.348-1.478-.01.01-.012.01 1.37 1.458zm-5.567-12.012l.062-1.999-.03-.001h-.032v2zm-8.848 0h-2v2h2v-2zm0-11.484v-2h-2v2h2zm17.235-6.035c0-2.408-.641-4.574-2.266-6.111-1.604-1.518-3.827-2.1-6.297-2.1v4c1.906 0 2.964.453 3.548 1.005.563.533 1.015 1.473 1.015 3.206h4zm-8.563-8.211c-2.7 0-5.085.476-6.838 1.74-1.875 1.351-2.72 3.374-2.72 5.709h4c0-1.298.414-2 1.06-2.465.765-.552 2.16-.984 4.498-.984v-4zM24.258 131H4.512v4h19.746v-4zm-17.746 2c0-5.08 2.08-9.191 6.413-12.467l-2.413-3.191c-5.276 3.989-8 9.254-8 15.658h4zm6.407-12.463c4.413-3.31 10.227-5.049 17.608-5.049v-4c-8.01 0-14.734 1.894-20.008 5.85l2.4 3.199zm17.608-5.049c8.331 0 14.636 1.583 19.115 4.534l2.2-3.341c-5.364-3.534-12.536-5.193-21.315-5.193v4zm19.124 4.54c4.357 2.835 6.474 6.736 6.474 11.917h4c0-6.537-2.804-11.699-8.292-15.27l-2.182 3.353zm6.474 11.917c0 2.373-.715 4.565-2.2 6.623l3.244 2.34c1.953-2.707 2.956-5.711 2.956-8.963h-4zm-2.204 6.628c-1.443 2.013-3.528 3.683-6.352 4.97l1.659 3.64c3.347-1.525 6.028-3.605 7.944-6.28l-3.25-2.33zm-6.185 8.677c3.332 1.171 5.669 2.827 7.182 4.881 1.508 2.045 2.32 4.649 2.32 7.939h4c0-3.975-.994-7.455-3.1-10.312-2.1-2.849-5.182-4.913-9.077-6.282l-1.325 3.774zm9.502 12.82c0 5.045-2.224 9.077-6.958 12.221l2.213 3.332c5.735-3.809 8.745-9.035 8.745-15.553h-4zm-6.964 12.225c-4.76 3.185-11.281 4.877-19.747 4.877v4c8.957 0 16.341-1.785 21.972-5.553l-2.225-3.324zm-19.747 4.877c-7.63 0-13.676-1.727-18.292-5.019l-2.322 3.257c5.462 3.895 12.386 5.762 20.614 5.762v-4zm-18.283-5.013c-4.534-3.269-6.728-7.517-6.728-12.909h-4c0 6.717 2.844 12.156 8.389 16.154l2.339-3.245zM3.516 161.25h19.746v-4H3.516v4zm17.746-2c0 2.24.961 4.153 2.669 5.66l2.646-3c-.949-.837-1.315-1.697-1.315-2.66h-4zm2.694 5.682c1.88 1.603 4.686 2.177 7.919 2.177v-4c-2.94 0-4.547-.558-5.323-1.221l-2.596 3.044zm7.919 2.177c2.798 0 5.264-.677 7.053-2.358l-2.739-2.916c-.789.741-2.112 1.274-4.314 1.274v4zm7.031-2.338c1.817-1.656 2.645-3.893 2.645-6.459h-4c0 1.654-.5 2.738-1.34 3.503l2.695 2.956zm2.645-6.459c0-2.636-.743-4.96-2.528-6.62-1.747-1.626-4.186-2.323-6.969-2.41l-.124 3.998c2.256.07 3.597.623 4.369 1.341.735.683 1.252 1.797 1.252 3.691h4zm-9.559-9.031h-8.848v4h8.848v-4zm-6.848 2v-11.484h-4v11.484h4zm-2-9.484h8.028v-4h-8.027v4zm8.028 0c2.632 0 4.98-.544 6.69-1.976 1.777-1.488 2.517-3.637 2.517-6.059h-4c0 1.601-.461 2.47-1.086 2.993-.693.58-1.95 1.042-4.121 1.042v4zM103.359 178l-1.755.958.568 1.042h1.187v-2zm-1.875-5.684l1.954-.427-.9-4.113-2.62 3.296 1.566 1.244zm-30.468 1.465l-1.312 1.51.008.007 1.304-1.517zm29.589-34.511v2h2v-2h-2zm-14.59-5.157v2h2v-2h-2zm-19.746 0h-2v2h2v-2zm7.793-14.941l-1.18-1.614-.006.004 1.186 1.61zm39.141.176l1.288-1.53-1.288 1.53zm7.207 16.23h2v-.034l-2 .034zm0 28.067h-2v.026l2-.026zm2.695 13.359h2v-.519l-.252-.454-1.748.973zm0 .996v2h2v-2h-2zM97.09 163.527l-1.082-1.682-.009.006-.01.006 1.1 1.67zm3.515-3.574l1.768.936.232-.439v-.497h-2zm0-10.137h2v-2h-2v2zm-14.238 13.653l-1.366 1.46.013.012.013.012 1.34-1.484zm18.748 13.573c-.569-1.043-1.145-2.723-1.677-5.153l-3.907.855c.562 2.569 1.235 4.679 2.073 6.214l3.511-1.916zm-5.196-5.97c-3.206 4.033-7.674 6.1-13.669 6.1v4c7.052 0 12.74-2.503 16.8-7.611l-3.131-2.489zm-13.669 6.1c-5.542 0-10.145-1.653-13.93-4.907l-2.608 3.033c4.574 3.933 10.126 5.874 16.538 5.874v-4zm-13.922-4.9c-3.75-3.259-5.582-7.262-5.582-12.143h-4c0 6.056 2.347 11.155 6.958 15.162l2.624-3.019zm-5.582-12.143c0-6.305 2.285-10.846 6.756-13.942l-2.277-3.288c-5.685 3.936-8.479 9.785-8.479 17.23h4zm6.756-13.942c4.602-3.186 11.515-4.917 21.01-4.917v-4c-9.88 0-17.734 1.784-23.287 5.629l2.277 3.288zm21.01-4.917h6.093v-4h-6.093v4zm8.093-2v-3.34h-4v3.34h4zm0-3.34c0-3.154-.676-5.892-2.377-7.857-1.75-2.02-4.272-2.874-7.181-2.874v4c2.13 0 3.386.602 4.157 1.492.818.945 1.402 2.572 1.402 5.239h3.999zm-9.558-10.731c-2.644 0-4.995.65-6.676 2.303-1.686 1.658-2.355 3.99-2.355 6.611h4c0-1.988.502-3.113 1.16-3.759.663-.653 1.827-1.155 3.87-1.155v-4zm-7.031 6.914H66.269v4h19.747v-4zm-17.747 2c0-5.459 2.265-9.857 6.98-13.331l-2.373-3.22c-5.675 4.182-8.607 9.745-8.607 16.551h4zm6.974-13.327c4.815-3.521 11.032-5.356 18.8-5.356v-4c-8.404 0-15.507 1.993-21.161 6.128l2.361 3.228zm18.8-5.356c7.767 0 13.647 1.891 17.872 5.448l2.576-3.06c-5.15-4.335-12.043-6.388-20.448-6.388v4zm17.872 5.448c4.188 3.525 6.387 8.358 6.495 14.734l4-.068c-.126-7.374-2.732-13.361-7.919-17.726l-2.576 3.06zm6.495 14.7v28.067h4v-28.067h-4zm0 28.093c.08 5.962.996 10.8 2.948 14.306l3.495-1.946c-1.485-2.666-2.367-6.734-2.443-12.413l-4 .053zm2.695 13.333V178h4v-.996h-4zm2-1.004h-19.746v4h19.746v-4zm-32.109-8.891c2.742 0 5.185-.588 7.194-1.911l-2.2-3.341c-1.194.786-2.814 1.252-4.994 1.252v4zm7.175-1.899c1.846-1.187 3.297-2.612 4.202-4.321l-3.535-1.872c-.501.947-1.394 1.905-2.83 2.828l2.163 3.365zm4.434-5.257v-10.137h-4v10.137h4zm-2-12.137h-5.742v4h5.742v-4zm-5.742 0c-3.695 0-6.84.825-9.07 2.827-2.27 2.038-3.242 4.978-3.242 8.431h4c0-2.718.747-4.407 1.914-5.455 1.208-1.084 3.219-1.803 6.398-1.803v-4zm-12.312 11.258c0 2.299.799 4.31 2.45 5.855l2.733-2.921c-.771-.721-1.183-1.639-1.183-2.934h-4zm2.476 5.879c1.633 1.475 3.678 2.156 5.97 2.156v-4c-1.46 0-2.5-.412-3.29-1.124l-2.68 2.968zm86.067-8.75l-1.894.643 1.878 5.534 1.906-5.524-1.89-.653zm14.355-41.601v-2h-1.425l-.465 1.347 1.89.653zm24.844 0h2v-2h-2v2zm0 63.398v2h2v-2h-2zm-19.805 0h-2v2h2v-2zm0-35.156h2l-3.879-.683 1.879.683zM177.715 178v2h1.401l.479-1.317-1.88-.683zm-13.125 0l-1.88.682.478 1.318h1.402v-2zm-12.07-33.281l1.88-.682-3.88.682h2zm0 33.281v2h2v-2h-2zm-19.805 0h-2v2h2v-2zm0-63.398v-2h-2v2h2zm24.258 0l1.894-.643-.461-1.357h-1.433v2zm16.011 42.254l14.356-41.602-3.781-1.305-14.356 41.602 3.781 1.305zm12.465-40.254h24.844v-4h-24.844v4zm22.844-2V178h4v-63.398h-4zm2 61.398h-19.805v4h19.805v-4zm-17.805 2v-35.156h-4V178h4zm-3.879-35.839l-12.774 35.156 3.76 1.366 12.773-35.156-3.759-1.366zM177.715 176H164.59v4h13.125v-4zm-11.245 1.318l-12.07-33.281-3.761 1.364 12.071 33.281 3.76-1.364zm-15.95-32.599V178h4v-33.281h-4zm2 31.281h-19.805v4h19.805v-4zm-17.805 2v-63.398h-4V178h4zm-2-61.398h24.258v-4h-24.258v4zm22.364-1.358l14.121 41.602 3.788-1.286-14.121-41.601-3.788 1.285zm75.487 55.256l-1.39 1.437.005.005 1.385-1.442zm-5.449-41.484l-1.797-.878-.006.012 1.803.866zm10.547-11.485l1.01 1.727.01-.007-1.02-1.72zm37.5 4.219l-1.465 1.362.005.005 1.46-1.367zm7.734 30.762v2h2v-2h-2zm-39.257 0v-2h-2.435l.473 2.388 1.962-.388zm28.535 4.863l1.527-1.292-1.567-1.851-1.519 1.89 1.559 1.253zm9.023 10.664l1.62 1.173.919-1.269-1.012-1.196-1.527 1.292zm-10.488 8.145l.811 1.828.007-.003-.818-1.825zm-27.07-36.036l-1.98-.282-.326 2.282h2.306v-2zm19.921 0v2h2v-2h-2zm0-1.523l-1.999-.049-.001.024v.025h2zm-2.402-7.324l-1.446 1.381.008.009.008.008 1.43-1.398zm-4.98 45.871c-9.302 0-16.646-2.75-22.228-8.114l-2.771 2.884c6.449 6.198 14.847 9.23 24.999 9.23v-4zm-22.223-8.109c-5.581-5.4-8.414-12.418-8.414-21.239h-4c0 9.773 3.183 17.873 9.633 24.113l2.781-2.874zm-8.414-21.239v-1.64h-4v1.64h4zm0-1.64c0-6.238 1.145-11.656 3.377-16.302l-3.606-1.732c-2.533 5.275-3.771 11.302-3.771 18.034h4zm3.371-16.291c2.255-4.619 5.503-8.146 9.76-10.635l-2.019-3.453c-4.962 2.901-8.746 7.03-11.335 12.333l3.594 1.755zm9.77-10.642c4.249-2.52 9.352-3.821 15.386-3.821v-4c-6.621 0-12.456 1.433-17.426 4.381l2.04 3.44zm15.386-3.821c8.457 0 14.918 2.614 19.629 7.682l2.93-2.724c-5.602-6.026-13.203-8.958-22.559-8.958v4zm19.634 7.687c4.713 5.034 7.194 12.182 7.194 21.719h4c0-10.229-2.674-18.471-8.274-24.453l-2.92 2.734zm7.194 21.719v7.676h4v-7.676h-4zm2 5.676h-39.257v4h39.257v-4zm-41.219 2.388c.776 3.924 2.515 7.144 5.293 9.513l2.595-3.044c-1.987-1.695-3.334-4.06-3.964-7.245l-3.924.776zm5.293 9.513c2.817 2.401 6.395 3.525 10.555 3.525v-4c-3.417 0-6.011-.908-7.96-2.569l-2.595 3.044zm10.555 3.525c6.778 0 12.266-2.405 16.208-7.31l-3.118-2.506c-3.09 3.845-7.368 5.816-13.09 5.816v4zm13.122-7.271l9.023 10.664 3.054-2.584-9.023-10.664-3.054 2.584zm8.93 8.199c-2.22 3.067-5.416 5.578-9.686 7.493l1.636 3.65c4.792-2.149 8.589-5.067 11.29-8.797l-3.24-2.346zm-9.679 7.489c-4.222 1.873-8.788 2.817-13.72 2.817v4c5.458 0 10.58-1.048 15.342-3.16l-1.622-3.657zm-15.947-47.691c-3.38 0-6.255 1.144-8.402 3.535-2.085 2.322-3.314 5.631-3.89 9.667l3.96.565c.517-3.621 1.554-6.054 2.906-7.56 1.29-1.436 3.025-2.207 5.426-2.207v-4zm-10.312 15.484h19.921v-4h-19.921v4zm21.921-2v-1.523h-4v1.523h4zm0-1.474c.087-3.525-.806-6.555-2.971-8.771l-2.861 2.796c1.194 1.221 1.902 3.074 1.833 5.877l3.999.098zm-2.956-8.755c-2.157-2.257-5.146-3.255-8.653-3.255v4c2.743 0 4.559.76 5.761 2.018l2.892-2.763zm83.105-.2v2h2v-2h-2zm-19.981 0v-2h-2v2h2zm0 48.281v2h2v-2h-2zm-19.863 0h-2v2h2v-2zm0-48.281h2v-2h-2v2zm-19.687 0h-2v2h2v-2zm0-15.117v-2h-2v2h2zm59.531 0h2v-2h-2v2zm0 13.117H323.73v4h19.981v-4zm-21.981 2V178h4v-48.281h-4zm2 46.281h-19.863v4h19.863v-4zm-17.863 2v-48.281h-4V178h4zm-2-50.281H284.18v4h19.687v-4zm-17.687 2v-15.117h-4v15.117h4zm-2-13.117h59.531v-4H284.18v4zm57.531-2v15.117h4v-15.117h-4zM407.578 178v2h2v-2h-2zm-19.805 0h-2v2h2v-2zm0-23.496h2v-2h-2v2zm-17.285 0v-2h-2v2h2zm0 23.496v2h2v-2h-2zm-19.746 0h-2v2h2v-2zm0-63.398v-2h-2v2h2zm19.746 0h2v-2h-2v2zm0 24.726h-2v2h2v-2zm17.285 0v2h2v-2h-2zm0-24.726v-2h-2v2h2zm19.805 0h2v-2h-2v2zm0 61.398h-19.805v4h19.805v-4zm-17.805 2v-23.496h-4V178h4zm-2-25.496h-17.285v4h17.285v-4zm-19.285 2V178h4v-23.496h-4zm2 21.496h-19.746v4h19.746v-4zm-17.746 2v-63.398h-4V178h4zm-2-61.398h19.746v-4h-19.746v4zm17.746-2v24.726h4v-24.726h-4zm2 26.726h17.285v-4h-17.285v4zm19.285-2v-24.726h-4v24.726h4zm-2-22.726h19.805v-4h-19.805v4zm17.805-2V178h4v-63.398h-4zm19.871 55.898l-1.39 1.437.004.005 1.386-1.442zM420 129.016l-1.797-.878-.006.012 1.803.866zm10.547-11.485l1.009 1.727.011-.007-1.02-1.72zm37.5 4.219l-1.465 1.362.005.005 1.46-1.367zm7.734 30.762v2h2v-2h-2zm-39.258 0v-2h-2.434l.472 2.388 1.962-.388zm28.536 4.863l1.526-1.292-1.566-1.851-1.519 1.89 1.559 1.253zm9.023 10.664l1.62 1.173.919-1.269-1.012-1.196-1.527 1.292zm-10.488 8.145l.811 1.828.007-.003-.818-1.825zm-27.071-36.036l-1.979-.282-.327 2.282h2.306v-2zm19.922 0v2h2v-2h-2zm0-1.523l-1.999-.049-.001.024v.025h2zm-2.402-7.324l-1.446 1.381.008.009.008.008 1.43-1.398zm-4.981 45.871c-9.301 0-16.645-2.75-22.227-8.114l-2.772 2.884c6.45 6.198 14.848 9.23 24.999 9.23v-4zm-22.222-8.109c-5.581-5.4-8.414-12.418-8.414-21.239h-4c0 9.773 3.182 17.873 9.633 24.113l2.781-2.874zm-8.414-21.239v-1.64h-4v1.64h4zm0-1.64c0-6.238 1.145-11.656 3.377-16.302l-3.606-1.732c-2.534 5.275-3.771 11.302-3.771 18.034h4zm3.371-16.291c2.255-4.619 5.503-8.146 9.759-10.635l-2.019-3.453c-4.962 2.901-8.746 7.03-11.334 12.333l3.594 1.755zm9.77-10.642c4.249-2.52 9.352-3.821 15.386-3.821v-4c-6.622 0-12.456 1.433-17.427 4.381l2.041 3.44zm15.386-3.821c8.457 0 14.918 2.614 19.629 7.682l2.93-2.724c-5.602-6.026-13.203-8.958-22.559-8.958v4zm19.634 7.687c4.712 5.034 7.194 12.182 7.194 21.719h4c0-10.229-2.674-18.471-8.274-24.453l-2.92 2.734zm7.194 21.719v7.676h4v-7.676h-4zm2 5.676h-39.258v4h39.258v-4zm-41.22 2.388c.777 3.924 2.516 7.144 5.294 9.513l2.595-3.044c-1.988-1.695-3.334-4.06-3.965-7.245l-3.924.776zm5.294 9.513c2.817 2.401 6.395 3.525 10.555 3.525v-4c-3.418 0-6.011-.908-7.96-2.569l-2.595 3.044zm10.555 3.525c6.778 0 12.266-2.405 16.208-7.31l-3.118-2.506c-3.09 3.845-7.368 5.816-13.09 5.816v4zm13.122-7.271l9.023 10.664 3.054-2.584-9.024-10.664-3.053 2.584zm8.93 8.199c-2.22 3.067-5.416 5.578-9.686 7.493l1.636 3.65c4.792-2.149 8.589-5.067 11.29-8.797l-3.24-2.346zm-9.679 7.489c-4.222 1.873-8.788 2.817-13.721 2.817v4c5.459 0 10.581-1.048 15.343-3.16l-1.622-3.657zm-15.947-47.691c-3.38 0-6.255 1.144-8.402 3.535-2.086 2.322-3.314 5.631-3.89 9.667l3.959.565c.518-3.621 1.555-6.054 2.907-7.56 1.29-1.436 3.025-2.207 5.426-2.207v-4zm-10.313 15.484h19.922v-4h-19.922v4zm21.922-2v-1.523h-4v1.523h4zm0-1.474c.087-3.525-.806-6.555-2.972-8.771l-2.86 2.796c1.194 1.221 1.902 3.074 1.833 5.877l3.999.098zm-2.956-8.755c-2.157-2.257-5.146-3.255-8.653-3.255v4c2.743 0 4.559.76 5.761 2.018l2.892-2.763zM490.84 170.5l-1.391 1.437.005.005 1.386-1.442zm-5.449-41.484l-1.798-.878-.005.012 1.803.866zm10.547-11.485l1.009 1.727.011-.007-1.02-1.72zm37.5 4.219l-1.465 1.362.004.005 1.461-1.367zm7.734 30.762v2h2v-2h-2zm-39.258 0v-2h-2.434l.472 2.388 1.962-.388zm28.535 4.863l1.527-1.292-1.567-1.851-1.519 1.89 1.559 1.253zm9.024 10.664l1.62 1.173.918-1.269-1.012-1.196-1.526 1.292zm-10.489 8.145l.811 1.828.007-.003-.818-1.825zm-27.07-36.036l-1.98-.282-.326 2.282h2.306v-2zm19.922 0v2h2v-2h-2zm0-1.523l-1.999-.049-.001.024v.025h2zm-2.402-7.324l-1.446 1.381.007.009.008.008 1.431-1.398zm-4.981 45.871c-9.302 0-16.646-2.75-22.227-8.114l-2.772 2.884c6.45 6.198 14.848 9.23 24.999 9.23v-4zm-22.222-8.109c-5.582-5.4-8.415-12.418-8.415-21.239h-4c0 9.773 3.183 17.873 9.633 24.113l2.782-2.874zm-8.415-21.239v-1.64h-4v1.64h4zm0-1.64c0-6.238 1.146-11.656 3.377-16.302l-3.605-1.732c-2.534 5.275-3.772 11.302-3.772 18.034h4zm3.372-16.291c2.255-4.619 5.502-8.146 9.759-10.635l-2.019-3.453c-4.962 2.901-8.746 7.03-11.335 12.333l3.595 1.755zm9.77-10.642c4.249-2.52 9.351-3.821 15.386-3.821v-4c-6.622 0-12.457 1.433-17.427 4.381l2.041 3.44zm15.386-3.821c8.457 0 14.918 2.614 19.629 7.682l2.929-2.724c-5.601-6.026-13.203-8.958-22.558-8.958v4zm19.633 7.687c4.713 5.034 7.195 12.182 7.195 21.719h4c0-10.229-2.675-18.471-8.274-24.453l-2.921 2.734zm7.195 21.719v7.676h4v-7.676h-4zm2 5.676h-39.258v4h39.258v-4zm-41.22 2.388c.776 3.924 2.515 7.144 5.294 9.513l2.594-3.044c-1.987-1.695-3.334-4.06-3.964-7.245l-3.924.776zm5.294 9.513c2.816 2.401 6.394 3.525 10.555 3.525v-4c-3.418 0-6.012-.908-7.961-2.569l-2.594 3.044zm10.555 3.525c6.778 0 12.266-2.405 16.207-7.31l-3.118-2.506c-3.089 3.845-7.367 5.816-13.089 5.816v4zm13.121-7.271l9.024 10.664 3.053-2.584-9.023-10.664-3.054 2.584zm8.931 8.199c-2.221 3.067-5.416 5.578-9.687 7.493l1.636 3.65c4.793-2.149 8.589-5.067 11.291-8.797l-3.24-2.346zm-9.679 7.489c-4.223 1.873-8.789 2.817-13.721 2.817v4c5.458 0 10.58-1.048 15.342-3.16l-1.621-3.657zm-15.947-47.691c-3.381 0-6.255 1.144-8.403 3.535-2.085 2.322-3.313 5.631-3.89 9.667l3.96.565c.517-3.621 1.555-6.054 2.907-7.56 1.29-1.436 3.025-2.207 5.426-2.207v-4zm-10.313 15.484h19.922v-4h-19.922v4zm21.922-2v-1.523h-4v1.523h4zm-.001-1.474c.087-3.525-.806-6.555-2.971-8.771l-2.861 2.796c1.194 1.221 1.903 3.074 1.834 5.877l3.998.098zm-2.955-8.755c-2.158-2.257-5.146-3.255-8.653-3.255v4c2.743 0 4.558.76 5.761 2.018l2.892-2.763zm47.89 21.069v2h1.915l.083-1.913-1.998-.087zm-15.997 0l-1.998.087.083 1.913h1.915v-2zm-2.519-58.3v-2h-2.088l.09 2.086 1.998-.087zm21.035 0l1.998.086.09-2.087h-2.088v2zm-18.516 69.374l1.327 1.497.002-.002-1.329-1.495zm15.645 0l-1.343 1.483.015.013.015.013 1.313-1.509zm0 14.239l1.327 1.496.002-.001-1.329-1.495zm-15.645 0l-1.342 1.482.015.013.014.013 1.313-1.508zm15.997-27.313h-15.997v4h15.997v-4zm-13.998 1.914l-2.52-58.3-3.996.172 2.519 58.301 3.997-.173zm-4.518-56.214h21.035v-4h-21.035v4zm19.037-2.087l-2.52 58.301 3.997.173 2.519-58.301-3.996-.173zm-17.623 76.551c0-2.347.811-4.156 2.432-5.593l-2.654-2.993c-2.519 2.234-3.778 5.153-3.778 8.586h4zm2.434-5.595c1.703-1.514 3.831-2.307 6.523-2.307v-4c-3.558 0-6.665 1.082-9.18 3.318l2.657 2.989zm6.523-2.307c2.692 0 4.792.793 6.45 2.295l2.686-2.965c-2.483-2.248-5.578-3.33-9.136-3.33v4zm6.48 2.321c1.656 1.442 2.477 3.247 2.477 5.581h4c0-3.447-1.289-6.368-3.851-8.598l-2.626 3.017zm2.477 5.581c0 2.335-.822 4.169-2.493 5.654l2.658 2.99c2.548-2.265 3.835-5.198 3.835-8.644h-4zm-2.491 5.652c-1.657 1.47-3.762 2.251-6.466 2.251v4c3.546 0 6.636-1.055 9.12-3.258l-2.654-2.993zm-6.466 2.251c-2.703 0-4.837-.781-6.539-2.263l-2.626 3.017c2.517 2.191 5.618 3.246 9.165 3.246v-4zm-6.509-2.237c-1.635-1.481-2.448-3.317-2.448-5.666h-4c0 3.433 1.258 6.362 3.763 8.631l2.685-2.965zM3 198h574v2H3z" fill="#fff"/></svg>