<svg width="94" height="139" fill="none" xmlns="http://www.w3.org/2000/svg"><g clip-path="url(#clip0_2761_4182)" fill-rule="evenodd" clip-rule="evenodd"><path d="M72.407 118.092H21.584c-6.523 0-6.548-8.147 0-8.147h50.823c6.49 0 6.49 8.147 0 8.147zm-31.699-16.295H21.584c-5.747 0-5.26-7.876-.817-7.876h20.767c4.302 0 4.904 7.876-.818 7.876h-.008zM15.846 79.259c0-3.503 1.51-4.619 5.193-4.619.1-4.553 3.856-11.043 7.308-14.456 3.286-3.241 9.818-7.261 14.55-7.261 0-2.757.395-6.244 4.095-6.244 3.699 0 4.095 3.495 4.095 6.243 5.92 0 13.286 5.268 17.06 10.199 2.064 2.7 4.723 8.23 4.797 11.52 3.501 0 5.194.852 5.194 4.618 0 1.633-1.635 3.258-3.278 3.258H19.115c-1.643 0-3.278-1.625-3.278-3.258h.009zM0 30.663v103.444c0 2.732 2.948 4.89 4.649 4.89h84.71c1.693 0 4.65-2.149 4.65-4.89V30.663c0-2.502-2.395-4.89-4.922-4.89H4.93c-2.519 0-4.922 2.38-4.922 4.89H0z" fill="#fff"/><path d="M17.762 17.634h60.112c0-3.996.719-13.292-1.288-15.556-3.658-4.119-7.985-1.206-14.797.927-13.74 4.29-28.347 9.41-42.285 13.915l-1.214.426c-.553.255-.24.09-.528.288zm11.476 57.013h35.523c-.52-6.194-8.423-14.12-17.216-14.12-5.269 0-9.183 1.469-12.361 4.275-2.569 2.264-5.657 6.383-5.946 9.837v.008z" fill="#EBA707"/></g><defs><clipPath id="clip0_2761_4182"><path fill="#fff" d="M0 0h94v139H0z"/></clipPath></defs></svg>