<svg width="165" height="112" fill="none" xmlns="http://www.w3.org/2000/svg"><path fill-rule="evenodd" clip-rule="evenodd" d="M.912 77.045V52.683c0-9.923 8.7-18.007 19.382-18.007h17.462C40.876 15.108 59.12 0 80.961 0h3.72c21.903 0 40.146 15.164 43.206 34.676h17.462c10.681 0 19.383 8.084 19.383 18.007v24.362c0 9.087-6.961 15.108-15.902 17.505l-62.468 16.948c-1.08.335-2.34.502-3.54.502-1.2 0-2.4-.167-3.54-.502L16.753 94.55C7.812 92.153.852 86.076.852 77.045h.06zm81.73-47.275c-.42-.446-.6-1.003-.48-1.561-.3-.167-.78-.334-.96-.39-.84-.279-1.8-.446-2.701-.613-2.7-.558-6.3-1.283-6.12-4.572.12-1.895 1.98-3.512 3.3-4.739 1.44-1.337 3.72-3.4 3.78-5.351.06-1.004-.06-3.457-.9-4.237-.78-.614-.96-1.729-.3-2.51.66-.78 1.8-.947 2.7-.39 2.16 1.394 2.52 5.074 2.46 7.248-.12 3.234-2.64 5.63-4.92 7.805-.42.39-2.1 1.895-2.22 2.341.3.335 2.58.725 3 .837 1.08.223 2.1.446 3.12.724 1.5.446 3.06 1.283 3.601 2.732.3.78.18 1.784-.3 2.509a.453.453 0 01-.24.223h16.502c.6 0 1.14.223 1.5.669.12.167.24.334.3.502.24-.112.48-.224.78-.224.42-.055.84-.055 1.26-.055.9 0 1.801.111 2.581.502.6.278 1.08.724 1.38 1.226.6 1.003.48 2.174 0 3.233-.24.558-.6 1.115-1.02 1.561-1.981 2.398-5.701 4.404-9.001 4.404h-.6c-4.02 4.572-10.082 7.248-16.443 7.248h-.6C71.481 48.613 63.2 41.812 61.76 32c-.18-1.003.6-1.895 1.68-2.063a1.94 1.94 0 012.22 1.561c1.2 8.028 7.861 13.547 16.622 13.77 5.701.167 11.162-2.23 14.462-6.522.06-.056.06-.112.12-.168 1.14-1.505 1.98-3.233 2.58-5.017H70.22c-1.08 0-1.98-.836-1.98-1.84 0-1.003.9-1.84 1.98-1.84h12.421v-.111zm19.322 7.693c1.44-.557 2.88-1.505 3.72-2.564.18-.167.3-.39.48-.613h-.42c-.24 0-.48 0-.72.055-.6.056-1.2-.111-1.56-.501-.36 1.282-.84 2.453-1.44 3.68l-.06-.057zM44.957 72.14c1.32 0 2.46-.39 3.3-1.393.18-.224.42-.335.78-.335.3 0 .54.111.72.335l1.38 1.784c.24.334.24.836-.12 1.114-1.74 1.617-3.9 2.286-6.36 2.286-2.64 0-4.86-.892-6.48-2.787-1.741-2.007-2.281-4.516-2.281-7.025 0-2.564.72-4.961 2.46-7.024 1.68-1.895 3.84-2.899 6.54-2.899 1.741 0 3.721.223 5.222 1.06.42.222.54.668.42 1.058l-.84 2.008c-.12.278-.3.445-.6.501-.3.056-.54.056-.78-.111-.84-.558-2.28-.67-3.301-.67-1.38 0-2.4.558-3.18 1.617-1.02 1.338-1.32 2.955-1.32 4.572 0 1.505.3 3.066 1.32 4.292.84 1.004 1.86 1.506 3.18 1.506l-.06.111zm39.305-51.177c-.6 0-1.14-.223-1.5-.614-.72-.78-.6-1.895.24-2.564.72-.613 1.5-1.561 1.92-2.397.42-.78.72-1.617.78-2.509.12-1.115-.12-2.118-.6-3.178-.42-.947.06-2.007 1.02-2.397 1.02-.39 2.16.056 2.58.948.72 1.56 1.02 3.178.84 4.906-.12 1.338-.6 2.676-1.26 3.846-.66 1.171-1.74 2.62-2.82 3.457-.36.279-.78.446-1.26.446l.06.056zm18.842 26.648c-.24-.892-1.74-1.505-2.52-1.728-1.02-.224-1.68-1.227-1.44-2.23.24-.948 1.32-1.562 2.4-1.339 2.82.67 5.581 2.676 5.521 5.631-.06 1.45-1.201 2.397-2.461 3.066-4.8 2.398-16.262 2.788-21.722 2.788-5.641 0-17.282-.446-22.143-3.234-1.38-.78-2.52-2.007-2.46-3.568.06-2.675 2.46-4.627 5.16-5.017 1.08-.167 2.1.502 2.22 1.505.18 1.004-.54 1.896-1.62 2.063-.84.111-1.86.669-1.92 1.505.06.112.48.335.6.446 4.02 2.286 15.362 2.62 20.103 2.62 4.56 0 15.901-.334 19.862-2.341.06-.056.24-.112.36-.223l.06.056zm3.24 12.933v3.067h5.221c.54 0 .96.39.96.892v2.007c0 .501-.42.892-.96.892h-5.221v4.515h7.561c.54 0 .96.39.96.892v2.119c0 .501-.42.892-.96.892h-11.041c-.54 0-.96-.39-.96-.892V57.589c0-.502.42-.892.96-.892h11.161c.54 0 .96.39.96.892v2.118c0 .502-.42.892-.96.892h-7.681v-.056zm44.946-6.355c1.08 0 1.98.836 1.98 1.84V70.69c0 1.003-.9 1.84-1.98 1.84s-1.98-.837-1.98-1.84V56.028c0-1.004.9-1.84 1.98-1.84zm-29.824 9.477h5.221c.54 0 .96.39.96.892v2.007c0 .502-.42.892-.96.892h-5.221v4.516h7.561c.54 0 .96.39.96.892v2.118c0 .502-.42.892-.96.892h-11.041c-.54 0-.96-.39-.96-.891v-17.34c0-.501.42-.892.96-.892h11.161c.54 0 .96.39.96.892v2.119c0 .502-.42.892-.96.892h-7.681v3.066-.056zM82.942 94.272l55.986-15.164c2.161-.558 4.921-1.728 4.921-4.126v-22.02c0-2.23-1.98-4.07-4.381-4.07h-29.103c-1.08 0-1.98-.836-1.98-1.84 0-1.003.9-1.84 1.98-1.84h29.103c4.561 0 8.281 3.457 8.281 7.694v22.02c0 4.238-3.72 6.58-7.74 7.638L83.482 97.895c-.18.056-.36.056-.54.056-.18 0-.36 0-.54-.056l-56.527-15.33c-4.02-1.06-7.741-3.401-7.741-7.638V52.906c0-4.237 3.72-7.694 8.28-7.694h28.444c1.08 0 1.98.837 1.98 1.84 0 1.004-.9 1.84-1.98 1.84H26.415c-2.4 0-4.38 1.84-4.38 4.07v22.02c0 2.453 2.82 3.568 4.92 4.126l55.987 15.164zM68.6 81.226c.66.28 1.26.67 1.62 1.283.36.557.48 1.17.48 1.84 0 .891-.42 1.616-1.08 2.173-.78.614-1.74.837-2.7.837-.9 0-1.74-.167-2.46-.67-.36-.222-.54-.668-.36-1.058l.42-1.004c.12-.279.3-.446.6-.502.3-.055.54-.055.78.112.18.111.36.167.54.279.18.055.42.111.6.111s.36 0 .48-.111c.06-.056.12-.168.12-.224 0-.111-.06-.222-.06-.278-.12-.112-.6-.335-.78-.446l-.72-.279c-.66-.279-1.26-.669-1.62-1.226-.36-.502-.48-1.115-.48-1.729 0-.836.3-1.56.96-2.118.66-.558 1.5-.836 2.4-.836.84 0 1.92.111 2.58.613.3.223.42.613.3.948l-.36.947c-.12.28-.3.446-.6.558-.3.111-.6.056-.84-.112-.12-.055-.36-.167-.48-.167a2.278 2.278 0 00-.6-.111c-.06 0-.24 0-.3.055-.06.056-.06.112-.06.223 0 .056 0 .112.06.223 0 .056.06.056.06.112.18.111.54.279.72.39l.72.335.06-.168zm14.342 18.398l27.423-7.415c1.02-.279 2.1.279 2.46 1.226.3.948-.3 1.952-1.32 2.286l-27.963 7.582c-.18.056-.36.056-.54.056-.18 0-.36 0-.54-.056L68.66 99.568c-1.02-.279-1.62-1.282-1.32-2.286.3-.948 1.38-1.505 2.46-1.226l13.202 3.568h-.06zM97.643 84.18v2.174c0 .502-.42.892-.96.892h-1.2c-.54 0-.96-.39-.96-.892v-8.028c0-.446.42-.836.9-.836.54 0 1.08-.056 1.68-.056 2.28 0 4.681.67 4.681 3.178 0 2.453-1.68 3.568-4.2 3.568h.06zm-6.48-5.463c.9 1.003 1.14 2.285 1.14 3.568 0 1.282-.3 2.62-1.14 3.623-.84 1.004-2.1 1.45-3.48 1.45-1.381 0-2.521-.502-3.301-1.561-.78-1.06-1.08-2.286-1.08-3.512 0-1.227.3-2.398 1.14-3.401.78-1.004 1.92-1.505 3.3-1.505s2.58.39 3.48 1.393l-.06-.055zm-13.202 1.95v-2.34c0-.502.42-.893.96-.893h1.2c.54 0 .96.39.96.892v8.028c0 .502-.42.892-.96.892h-1.2c-.54 0-.96-.39-.96-.892v-3.01h-1.92v3.01c0 .502-.42.892-.96.892h-1.2c-.54 0-.96-.39-.96-.892v-8.028c0-.501.42-.892.96-.892h1.2c.54 0 .96.39.96.892v2.342h1.92zm-63.368-26.48c1.08 0 1.98.836 1.98 1.84v13.881c0 1.004-.9 1.84-1.98 1.84s-1.98-.836-1.98-1.84v-13.88c0-1.004.9-1.84 1.98-1.84zm76.93 6.355v3.067h5.64c.54 0 .96.39.96.892v2.007c0 .501-.42.892-.96.892h-5.64v7.526c0 .501-.42.892-.96.892h-2.52c-.54 0-.96-.39-.96-.892V57.589c0-.502.42-.892.96-.892h11.52c.541 0 .961.39.961.892v2.118c0 .502-.42.892-.96.892h-8.041v-.056zm-14.822 0v3.067h5.64c.54 0 .96.39.96.892v2.007c0 .501-.42.892-.96.892h-5.64v7.526c0 .501-.42.892-.96.892h-2.52c-.54 0-.96-.39-.96-.892V57.589c0-.502.42-.892.96-.892h11.52c.54 0 .96.39.96.892v2.118c0 .502-.42.892-.96.892h-8.04v-.056zm-8.881-1.505c1.74 1.951 2.28 4.572 2.28 7.025 0 2.564-.54 5.184-2.28 7.247-1.68 1.951-4.02 2.732-6.661 2.732-2.58 0-4.74-.948-6.3-2.9-1.621-2.062-2.161-4.57-2.161-7.08 0-2.452.6-4.85 2.22-6.8 1.56-1.896 3.66-2.9 6.24-2.9 2.641 0 4.981.725 6.662 2.62v.056zM97.643 80.11v1.338c.18 0 .42 0 .6-.055.12-.056.24-.056.36-.168.18-.111.18-.334.18-.501 0-.168 0-.28-.18-.39-.12-.056-.3-.112-.42-.168-.18-.056-.36-.056-.54-.056zm-8.88 4.014c.36-.501.48-1.282.48-1.895 0-1.06-.12-2.23-1.56-2.23-.42 0-.66.111-.9.446-.361.502-.421 1.226-.421 1.784 0 .613.12 1.282.48 1.84.18.334.42.501.84.501.48 0 .78-.111 1.08-.501v.055zm-24.424-13.38c.96-1.282 1.2-3.121 1.2-4.682 0-2.955-.72-5.854-4.44-5.854-1.26 0-2.16.446-2.82 1.394-.9 1.282-1.08 2.954-1.08 4.46 0 1.56.3 3.177 1.14 4.571.66 1.004 1.5 1.561 2.76 1.561 1.38 0 2.46-.39 3.24-1.45z" fill="#EBA707"/><path d="M25.863 43.275c6.031-5.186 107.129-9.708 114.005 0 6.877 9.708 0 37.94 0 37.94-46.853 19.491-71.741 18.69-114.005 0 0 0-6.032-32.754 0-37.94z" fill="#fff"/><path d="M55.136 49.72c2.926 4 51.961 7.488 55.296 0 3.335-7.489 0-29.266 0-29.266-22.725-15.035-34.797-14.417-55.296 0 0 0-2.925 25.265 0 29.266z" fill="#fff"/><path fill-rule="evenodd" clip-rule="evenodd" d="M27.529 66.92V49.434c0-7.123 5.832-12.925 12.992-12.925h11.705c2.092-14.046 14.32-24.89 28.961-24.89h2.494c14.682 0 26.91 10.884 28.961 24.89h11.706c7.159 0 12.992 5.802 12.992 12.925V66.92c0 6.523-4.666 10.845-10.66 12.565L84.807 91.65c-.724.24-1.568.36-2.373.36-.804 0-1.609-.12-2.373-.36L38.148 79.485c-5.994-1.72-10.66-6.082-10.66-12.565h.04zm54.785-33.933c-.282-.32-.403-.72-.322-1.12a3.937 3.937 0 00-.644-.28c-.563-.2-1.207-.32-1.81-.44-1.81-.4-4.224-.92-4.103-3.282.08-1.36 1.328-2.52 2.212-3.4.966-.961 2.494-2.442 2.535-3.842.04-.72-.04-2.481-.604-3.042-.523-.44-.643-1.24-.2-1.8a1.331 1.331 0 011.81-.28c1.447 1 1.689 3.641 1.648 5.202-.08 2.32-1.77 4.041-3.298 5.602-.281.28-1.408 1.36-1.488 1.68.2.24 1.73.52 2.011.6.724.16 1.408.32 2.092.52 1.005.321 2.051.921 2.413 1.962.201.56.12 1.28-.201 1.8a.31.31 0 01-.161.16h11.062c.402 0 .764.16 1.005.48.08.12.161.24.201.36.161-.08.322-.16.523-.16.282-.04.563-.04.845-.04.603 0 1.207.08 1.73.36.402.2.724.521.925.881.402.72.322 1.56 0 2.321-.161.4-.403.8-.684 1.12-1.328 1.721-3.821 3.162-6.034 3.162h-.402a14.295 14.295 0 01-11.021 5.202h-.403c-7.12-.2-12.67-5.082-13.635-12.125-.121-.72.402-1.36 1.126-1.48.724-.12 1.368.4 1.488 1.12.805 5.762 5.27 9.724 11.142 9.884 3.821.12 7.482-1.601 9.694-4.682.04-.04.04-.08.08-.12.765-1.08 1.328-2.321 1.73-3.602H73.987c-.724 0-1.327-.6-1.327-1.32 0-.72.603-1.32 1.327-1.32h8.327v-.08zm12.952 5.523c.965-.4 1.93-1.08 2.493-1.841.121-.12.202-.28.322-.44H97.8c-.161 0-.322 0-.483.04-.402.04-.804-.08-1.046-.36a16.01 16.01 0 01-.965 2.64l-.04-.04zM57.053 63.4c.885 0 1.65-.281 2.212-1.001.12-.16.282-.24.523-.24.201 0 .362.08.483.24l.925 1.28c.16.24.16.6-.08.8-1.167 1.16-2.615 1.641-4.264 1.641-1.77 0-3.258-.64-4.344-2-1.167-1.441-1.529-3.242-1.529-5.043 0-1.84.483-3.561 1.65-5.041 1.126-1.361 2.574-2.081 4.384-2.081 1.166 0 2.494.16 3.5.76.28.16.361.48.28.76l-.562 1.44c-.08.2-.202.32-.403.36-.2.041-.362.041-.523-.08-.563-.4-1.528-.48-2.212-.48-.925 0-1.609.4-2.132 1.161-.684.96-.885 2.121-.885 3.281 0 1.08.201 2.201.885 3.082.563.72 1.247 1.08 2.132 1.08l-.04.08zM83.4 26.664a1.31 1.31 0 01-1.006-.44c-.483-.56-.402-1.36.16-1.84.483-.441 1.006-1.121 1.288-1.722.282-.56.483-1.16.523-1.8.08-.8-.08-1.52-.402-2.281-.282-.68.04-1.44.684-1.72a1.335 1.335 0 011.73.68c.482 1.12.683 2.28.562 3.52-.08.961-.402 1.921-.844 2.762-.443.84-1.167 1.88-1.891 2.48-.241.2-.523.32-.845.32l.04.04zm12.63 19.127c-.161-.64-1.167-1.08-1.69-1.24-.683-.16-1.126-.88-.965-1.6.161-.681.885-1.121 1.609-.961 1.89.48 3.74 1.92 3.7 4.041-.04 1.04-.804 1.721-1.648 2.201-3.218 1.72-10.901 2.001-14.562 2.001-3.78 0-11.584-.32-14.842-2.32-.925-.561-1.69-1.441-1.65-2.562.04-1.92 1.65-3.321 3.46-3.601.724-.12 1.408.36 1.488 1.08.12.72-.362 1.36-1.086 1.48-.563.08-1.247.48-1.287 1.081.04.08.322.24.402.32 2.695 1.64 10.297 1.881 13.475 1.881 3.057 0 10.66-.24 13.314-1.68.04-.04.161-.08.242-.16l.04.04zm2.172 9.284v2.2h3.499c.362 0 .644.28.644.641v1.44c0 .36-.282.64-.644.64h-3.499v3.242h5.068c.362 0 .644.28.644.64v1.52a.634.634 0 01-.644.641h-7.401a.634.634 0 01-.644-.64V52.955c0-.36.282-.64.644-.64h7.482c.362 0 .643.28.643.64v1.52c0 .36-.281.64-.643.64h-5.149v-.04zm30.128-4.562c.724 0 1.327.6 1.327 1.32V62.36c0 .72-.603 1.32-1.327 1.32s-1.328-.6-1.328-1.32V51.835c0-.72.604-1.32 1.328-1.32zm-19.992 6.803h3.5c.362 0 .643.28.643.64v1.44c0 .36-.281.64-.643.64h-3.5v3.242h5.069c.362 0 .643.28.643.64v1.52a.633.633 0 01-.643.641h-7.402a.633.633 0 01-.643-.64V52.995c0-.36.281-.64.643-.64h7.482c.362 0 .644.28.644.64v1.52c0 .36-.282.64-.644.64h-5.149v2.202-.04zM82.515 79.285l37.529-10.884c1.448-.4 3.298-1.24 3.298-2.961V49.634c0-1.6-1.327-2.921-2.936-2.921h-19.509c-.724 0-1.327-.6-1.327-1.32 0-.721.603-1.321 1.327-1.321h19.509c3.057 0 5.55 2.48 5.55 5.522V65.4c0 3.041-2.493 4.722-5.188 5.482L82.877 81.886c-.121.04-.242.04-.362.04-.121 0-.242 0-.362-.04L44.262 70.882c-2.695-.76-5.19-2.441-5.19-5.482V49.594c0-3.041 2.495-5.522 5.552-5.522H63.69c.724 0 1.327.6 1.327 1.32 0 .72-.603 1.32-1.327 1.32H44.624c-1.61 0-2.937 1.321-2.937 2.922V65.44c0 1.76 1.89 2.56 3.299 2.961l37.529 10.884zM72.9 69.922c.443.2.845.48 1.086.92.242.4.322.84.322 1.32 0 .64-.282 1.16-.724 1.561-.523.44-1.167.6-1.81.6-.604 0-1.167-.12-1.65-.48-.24-.16-.361-.48-.24-.76l.28-.72c.081-.2.202-.32.403-.36.201-.04.362-.04.523.08.12.08.241.12.362.2.12.04.282.08.402.08.121 0 .242 0 .322-.08.04-.04.08-.12.08-.16 0-.08-.04-.16-.04-.2-.08-.08-.402-.24-.523-.32l-.482-.2c-.443-.2-.845-.481-1.086-.881-.242-.36-.322-.8-.322-1.24 0-.6.201-1.121.643-1.521.443-.4 1.006-.6 1.61-.6.563 0 1.287.08 1.729.44.201.16.282.44.201.68l-.241.68c-.08.2-.201.32-.402.4a.567.567 0 01-.564-.08c-.08-.04-.24-.12-.321-.12a1.441 1.441 0 00-.403-.08c-.04 0-.16 0-.2.04-.04.04-.04.08-.04.16 0 .04 0 .08.04.16 0 .04.04.04.04.08.12.08.361.2.482.28l.483.24.04-.12zm9.614 13.205l18.382-5.322c.684-.2 1.408.2 1.649.88.201.68-.201 1.4-.885 1.64l-18.744 5.443c-.12.04-.242.04-.362.04s-.242 0-.362-.04l-9.252-2.681c-.684-.2-1.086-.92-.885-1.641.201-.68.925-1.08 1.65-.88l8.849 2.56h-.04zm9.855-11.085v1.561c0 .36-.282.64-.644.64h-.805a.634.634 0 01-.643-.64v-5.762c0-.32.281-.6.603-.6.362 0 .724-.04 1.126-.04 1.529 0 3.138.48 3.138 2.28 0 1.761-1.126 2.561-2.816 2.561h.04zm-4.345-3.921c.604.72.765 1.64.765 2.56 0 .921-.202 1.882-.765 2.602s-1.407 1.04-2.333 1.04c-.925 0-1.69-.36-2.212-1.12-.523-.76-.724-1.64-.724-2.521 0-.88.201-1.72.764-2.441.523-.72 1.287-1.08 2.213-1.08.925 0 1.73.28 2.332 1l-.04-.04zm-8.849 1.4v-1.68c0-.36.282-.64.644-.64h.804c.362 0 .644.28.644.64v5.762c0 .36-.282.64-.644.64h-.804a.634.634 0 01-.644-.64v-2.16h-1.287v2.16c0 .36-.282.64-.644.64h-.804a.634.634 0 01-.644-.64v-5.762c0-.36.282-.64.644-.64h.804c.362 0 .644.28.644.64v1.68h1.287zM36.7 50.514c.724 0 1.327.6 1.327 1.32v9.964c0 .72-.603 1.321-1.327 1.321-.725 0-1.328-.6-1.328-1.32v-9.964c0-.72.603-1.32 1.328-1.32zm51.567 4.562v2.2h3.78c.363 0 .644.28.644.641v1.44c0 .36-.281.64-.643.64h-3.781V65.4c0 .36-.282.64-.644.64h-1.69a.634.634 0 01-.643-.64V52.955c0-.36.282-.64.644-.64h7.723c.362 0 .643.28.643.64v1.52c0 .36-.281.64-.643.64h-5.39v-.04zm-9.936 0v2.2h3.781c.362 0 .644.28.644.641v1.44c0 .36-.282.64-.644.64h-3.78V65.4c0 .36-.282.64-.644.64h-1.69a.634.634 0 01-.643-.64V52.955c0-.36.281-.64.643-.64h7.723c.362 0 .644.28.644.64v1.52c0 .36-.282.64-.644.64h-5.39v-.04zm-5.953-1.08c1.167 1.4 1.529 3.28 1.529 5.041 0 1.841-.362 3.722-1.529 5.202-1.126 1.4-2.695 1.961-4.465 1.961-1.73 0-3.177-.68-4.223-2.08-1.086-1.481-1.448-3.282-1.448-5.083 0-1.76.402-3.481 1.488-4.881 1.046-1.361 2.454-2.081 4.183-2.081 1.77 0 3.339.52 4.465 1.88v.04zM92.37 69.12v.96c.12 0 .281 0 .402-.04.08-.04.16-.04.241-.12.12-.08.12-.24.12-.36s0-.2-.12-.28c-.08-.04-.201-.08-.282-.12-.12-.04-.24-.04-.361-.04zm-5.954 2.881c.242-.36.322-.92.322-1.36 0-.76-.08-1.6-1.046-1.6-.281 0-.442.08-.603.32-.241.36-.282.88-.282 1.28 0 .44.08.92.322 1.32.12.24.282.36.563.36.322 0 .523-.08.724-.36v.04zM70.046 62.4c.643-.92.804-2.241.804-3.362 0-2.12-.483-4.201-2.977-4.201-.845 0-1.448.32-1.89 1-.604.92-.724 2.121-.724 3.201 0 1.12.2 2.281.764 3.282.442.72 1.005 1.12 1.85 1.12.925 0 1.65-.28 2.172-1.04z" fill="#fff"/><path fill-rule="evenodd" clip-rule="evenodd" d="M19.246 72.211V51.21c0-8.554 6.738-15.523 15.01-15.523h13.523c2.416-16.87 16.544-29.894 33.459-29.894h2.881c16.962 0 31.089 13.072 33.459 29.893h13.523c8.272 0 15.01 6.969 15.01 15.523v21.002c0 7.834-5.39 13.025-12.314 15.091l-48.377 14.61c-.836.289-1.812.433-2.742.433a8.83 8.83 0 01-2.741-.433l-48.423-14.61c-6.924-2.067-12.315-7.305-12.315-15.09h.047zm63.293-40.754a1.596 1.596 0 01-.372-1.346 4.457 4.457 0 00-.743-.336c-.65-.24-1.394-.385-2.091-.529-2.092-.48-4.88-1.105-4.74-3.94.093-1.635 1.533-3.029 2.555-4.086 1.116-1.153 2.882-2.931 2.928-4.614.047-.865-.046-2.98-.697-3.652-.604-.529-.744-1.49-.232-2.163.51-.673 1.394-.817 2.09-.336 1.674 1.201 1.953 4.373 1.906 6.248-.093 2.787-2.044 4.854-3.81 6.728-.326.336-1.627 1.634-1.72 2.018.233.289 1.998.625 2.324.721.836.192 1.626.385 2.416.625 1.162.384 2.37 1.105 2.788 2.355.233.673.14 1.538-.232 2.163a.369.369 0 01-.186.192h12.78c.464 0 .883.192 1.162.577.092.144.185.288.232.432.186-.096.372-.192.604-.192.325-.048.651-.048.976-.048.697 0 1.394.096 1.998.432.465.24.837.625 1.069 1.058.465.865.372 1.874 0 2.787-.186.48-.465.961-.79 1.346-1.534 2.066-4.415 3.797-6.97 3.797h-.465c-3.114 3.94-7.808 6.247-12.733 6.247h-.465c-8.225-.24-14.638-6.103-15.754-14.562-.14-.865.465-1.634 1.301-1.778.837-.144 1.58.48 1.72 1.346.93 6.92 6.087 11.678 12.872 11.87 4.415.145 8.644-1.922 11.2-5.623.046-.048.046-.096.093-.144.883-1.297 1.533-2.787 1.998-4.325H72.92c-.837 0-1.534-.721-1.534-1.586 0-.865.697-1.586 1.534-1.586h9.62v-.096zm14.964 6.632c1.115-.48 2.23-1.298 2.881-2.21.139-.145.232-.337.372-.53h-.326c-.186 0-.371 0-.557.049-.465.048-.93-.096-1.209-.433-.278 1.105-.65 2.115-1.115 3.172l-.046-.048zM53.355 67.982c1.023 0 1.906-.336 2.556-1.201.14-.193.325-.289.604-.289.233 0 .419.096.558.289l1.069 1.537c.186.289.186.721-.093.962-1.348 1.393-3.02 1.97-4.926 1.97-2.045 0-3.764-.769-5.019-2.403-1.347-1.73-1.766-3.893-1.766-6.055 0-2.211.558-4.278 1.905-6.056 1.302-1.634 2.975-2.499 5.066-2.499 1.348 0 2.881.192 4.043.913.325.192.418.577.325.913l-.65 1.73c-.093.24-.233.385-.465.433-.232.048-.418.048-.604-.096-.65-.48-1.766-.577-2.556-.577-1.069 0-1.859.48-2.463 1.394-.79 1.153-1.023 2.547-1.023 3.94 0 1.298.233 2.644 1.023 3.701.65.865 1.44 1.298 2.463 1.298l-.047.096zm30.439-44.119a1.49 1.49 0 01-1.162-.528c-.558-.673-.465-1.634.186-2.211.558-.529 1.162-1.346 1.487-2.067.325-.672.558-1.393.604-2.162.093-.961-.093-1.826-.465-2.74-.325-.817.047-1.73.79-2.066a1.52 1.52 0 011.999.817c.557 1.345.79 2.74.65 4.229-.093 1.153-.465 2.307-.976 3.316-.51 1.01-1.347 2.259-2.184 2.98-.279.24-.604.384-.976.384l.047.048zm14.592 22.973c-.186-.77-1.348-1.298-1.952-1.49-.79-.192-1.301-1.057-1.115-1.922a1.554 1.554 0 011.858-1.154c2.185.577 4.322 2.307 4.276 4.854-.047 1.25-.93 2.067-1.906 2.643-3.717 2.067-12.593 2.403-16.822 2.403-4.368 0-13.384-.384-17.148-2.787-1.069-.673-1.952-1.73-1.905-3.076.046-2.307 1.905-3.989 3.996-4.325a1.469 1.469 0 011.72 1.297 1.529 1.529 0 01-1.255 1.779c-.65.096-1.44.576-1.487 1.297.046.096.372.289.465.385 3.113 1.97 11.896 2.258 15.567 2.258 3.532 0 12.315-.288 15.382-2.018.047-.048.186-.096.28-.192l.046.048zm2.509 11.15v2.643h4.043c.418 0 .744.336.744.769v1.73c0 .433-.326.769-.744.769h-4.043v3.893h5.855c.419 0 .744.336.744.769v1.826c0 .433-.325.769-.744.769H98.2c-.419 0-.744-.336-.744-.769V55.438c0-.432.325-.768.744-.768h8.643c.419 0 .744.336.744.768v1.827c0 .432-.325.769-.744.769h-5.948v-.048zm34.807-5.48c.836 0 1.533.722 1.533 1.587v12.64c0 .865-.697 1.585-1.533 1.585-.837 0-1.534-.72-1.534-1.585v-12.64c0-.865.697-1.586 1.534-1.586zm-23.096 8.171h4.043c.418 0 .743.336.743.769v1.73c0 .433-.325.77-.743.77h-4.043v3.892h5.855c.418 0 .744.336.744.769v1.826c0 .433-.326.77-.744.77h-8.551c-.418 0-.743-.337-.743-.77V55.487c0-.433.325-.77.743-.77h8.644c.418 0 .744.337.744.77v1.826c0 .432-.326.769-.744.769h-5.948v2.643-.048zM82.771 87.062L126.13 73.99c1.673-.481 3.81-1.49 3.81-3.557V51.45c0-1.923-1.533-3.509-3.392-3.509H104.01c-.837 0-1.534-.72-1.534-1.586 0-.865.697-1.586 1.534-1.586h22.538c3.532 0 6.413 2.98 6.413 6.633v18.983c0 3.653-2.881 5.671-5.995 6.584L83.19 90.186c-.14.048-.28.048-.419.048-.139 0-.278 0-.418-.048L38.578 76.969c-3.114-.913-5.995-2.931-5.995-6.584V51.401c0-3.652 2.881-6.632 6.413-6.632h22.027c.836 0 1.534.721 1.534 1.586 0 .865-.698 1.586-1.534 1.586H38.996c-1.859 0-3.393 1.586-3.393 3.509v18.983c0 2.115 2.185 3.076 3.811 3.556l43.357 13.073zM71.665 75.816c.511.24.976.576 1.255 1.105.278.48.371 1.01.371 1.586 0 .77-.325 1.394-.836 1.874-.604.53-1.348.721-2.091.721-.697 0-1.348-.144-1.906-.576a.77.77 0 01-.278-.913l.325-.866c.093-.24.232-.384.465-.432.232-.048.418-.048.604.096.14.096.279.144.418.24.14.048.325.096.465.096s.279 0 .371-.096a.37.37 0 00.093-.192c0-.096-.046-.192-.046-.24-.093-.096-.465-.289-.604-.385l-.558-.24c-.511-.24-.976-.577-1.255-1.057-.278-.433-.371-.962-.371-1.49 0-.721.232-1.346.743-1.826a2.668 2.668 0 011.859-.721c.65 0 1.487.096 1.998.528.233.193.326.529.233.817l-.28.817a.781.781 0 01-.464.481.635.635 0 01-.65-.096c-.093-.048-.28-.144-.372-.144a1.602 1.602 0 00-.465-.097c-.046 0-.186 0-.232.049-.047.048-.047.096-.047.192 0 .048 0 .096.047.192 0 .048.046.048.046.096.14.096.418.24.558.337l.557.288.047-.144zm11.106 15.86l21.238-6.392c.79-.24 1.626.24 1.905 1.057.232.817-.232 1.682-1.022 1.97l-21.656 6.536c-.14.049-.279.048-.418.048-.14 0-.279 0-.418-.048l-10.689-3.22c-.79-.24-1.254-1.105-1.022-1.97a1.528 1.528 0 011.905-1.057l10.224 3.076h-.047zm11.386-13.313v1.874c0 .433-.325.77-.744.77h-.93c-.417 0-.743-.337-.743-.77v-6.92c0-.385.326-.721.697-.721.419 0 .837-.048 1.302-.048 1.765 0 3.624.576 3.624 2.74 0 2.114-1.3 3.075-3.253 3.075h.047zm-5.02-4.71c.698.865.884 1.97.884 3.076 0 1.105-.233 2.259-.883 3.124-.65.865-1.627 1.25-2.695 1.25-1.07 0-1.952-.433-2.556-1.346-.604-.913-.837-1.97-.837-3.028 0-1.057.233-2.067.883-2.932.604-.865 1.487-1.297 2.556-1.297s1.998.336 2.695 1.201l-.046-.048zm-10.223 1.682v-2.018c0-.433.326-.77.744-.77h.93c.418 0 .743.337.743.77v6.92c0 .433-.326.77-.744.77h-.93c-.417 0-.743-.337-.743-.77v-2.595h-1.487v2.595c0 .433-.325.77-.743.77h-.93c-.418 0-.743-.337-.743-.77v-6.92c0-.433.325-.77.743-.77h.93c.418 0 .743.337.743.77v2.018h1.487zM29.841 52.507c.836 0 1.534.72 1.534 1.586V66.06c0 .865-.698 1.586-1.534 1.586-.836 0-1.534-.721-1.534-1.586V54.093c0-.865.698-1.586 1.534-1.586zm59.576 5.479v2.643h4.368c.418 0 .744.336.744.769v1.73c0 .433-.326.769-.744.769h-4.368v6.488c0 .433-.326.769-.744.769h-1.951c-.419 0-.744-.336-.744-.769V55.438c0-.432.325-.768.744-.768h8.922c.418 0 .743.336.743.768v1.827c0 .432-.325.769-.743.769h-6.227v-.048zm-11.478 0v2.643h4.368c.418 0 .743.336.743.769v1.73c0 .433-.325.769-.743.769h-4.368v6.488c0 .433-.326.769-.744.769h-1.952c-.418 0-.743-.336-.743-.769V55.438c0-.432.325-.768.743-.768h8.923c.418 0 .743.336.743.768v1.827c0 .432-.325.769-.743.769h-6.227v-.048zm-6.878-1.298c1.347 1.682 1.766 3.941 1.766 6.056 0 2.21-.419 4.47-1.766 6.247-1.301 1.682-3.114 2.355-5.159 2.355-1.998 0-3.67-.817-4.879-2.499-1.255-1.778-1.673-3.94-1.673-6.103 0-2.115.465-4.182 1.72-5.864 1.208-1.634 2.834-2.499 4.833-2.499 2.044 0 3.857.625 5.158 2.259v.048zm23.096 18.167v1.153c.14 0 .325 0 .465-.048.093-.048.185-.048.278-.144.14-.096.14-.289.14-.433 0-.144 0-.24-.14-.336-.093-.048-.232-.096-.325-.144-.14-.048-.279-.048-.418-.048zm-6.878 3.46c.279-.433.372-1.105.372-1.634 0-.913-.093-1.922-1.208-1.922-.326 0-.511.096-.697.384-.28.433-.326 1.057-.326 1.538 0 .529.093 1.105.372 1.586.14.288.325.432.65.432.372 0 .605-.096.837-.432v.048zM68.365 66.78c.744-1.106.93-2.692.93-4.037 0-2.548-.558-5.047-3.439-5.047-.976 0-1.673.385-2.184 1.202-.697 1.105-.837 2.547-.837 3.845 0 1.345.233 2.739.883 3.94.511.865 1.162 1.346 2.138 1.346 1.069 0 1.905-.336 2.51-1.25z" fill="#fff"/><path fill-rule="evenodd" clip-rule="evenodd" d="M10.56 74.963V52.175c0-9.282 7.69-16.843 17.13-16.843h15.432C45.88 17.028 62 2.896 81.304 2.896h3.288c19.356 0 35.478 14.184 38.182 32.436h15.432c9.44 0 17.129 7.561 17.129 16.843v22.788c0 8.5-6.151 14.132-14.053 16.375L86.077 107.19c-.955.313-2.068.47-3.129.47-1.06 0-2.121-.157-3.129-.47L24.561 91.338c-7.902-2.243-14.053-7.927-14.053-16.374h.053zm72.229-44.22c-.371-.417-.53-.939-.424-1.46a5.221 5.221 0 00-.849-.365c-.742-.261-1.59-.417-2.386-.574-2.386-.521-5.568-1.2-5.41-4.276.107-1.773 1.75-3.285 2.917-4.432 1.273-1.252 3.288-3.181 3.341-5.006.053-.94-.053-3.234-.795-3.964-.69-.573-.849-1.616-.265-2.346.583-.73 1.59-.887 2.386-.365 1.91 1.303 2.227 4.745 2.174 6.779-.106 3.024-2.333 5.267-4.348 7.3-.371.365-1.856 1.773-1.962 2.19.265.313 2.28.678 2.651.783a41.94 41.94 0 012.758.678c1.326.417 2.704 1.199 3.182 2.555.265.73.159 1.669-.265 2.347a.41.41 0 01-.213.208h14.584c.53 0 1.008.209 1.326.626.106.156.212.313.265.47.212-.105.424-.21.689-.21.372-.052.743-.052 1.114-.052.795 0 1.591.105 2.28.47.531.26.955.678 1.22 1.147.53.939.424 2.034 0 3.024a5.178 5.178 0 01-.902 1.46c-1.75 2.243-5.037 4.12-7.954 4.12h-.53c-3.553 4.276-8.91 6.78-14.53 6.78h-.531c-9.387-.261-16.705-6.623-17.978-15.801-.159-.939.53-1.773 1.485-1.93.955-.156 1.803.522 1.962 1.46 1.06 7.51 6.947 12.672 14.69 12.88 5.038.157 9.864-2.085 12.78-6.1.053-.053.053-.105.106-.157 1.008-1.408 1.75-3.024 2.28-4.693H71.813c-.955 0-1.75-.782-1.75-1.72 0-.94.795-1.722 1.75-1.722H82.79v-.104zm17.076 7.196c1.273-.521 2.545-1.408 3.288-2.399.159-.156.265-.365.424-.573h-.371c-.212 0-.424 0-.636.052-.531.052-1.061-.104-1.379-.47-.318 1.2-.743 2.295-1.273 3.442l-.053-.052zm-50.38 32.435c1.167 0 2.175-.364 2.917-1.303.16-.209.371-.313.69-.313a.76.76 0 01.636.313l1.22 1.669c.212.313.212.782-.106 1.043-1.538 1.512-3.447 2.138-5.622 2.138-2.333 0-4.295-.835-5.727-2.608-1.538-1.877-2.015-4.224-2.015-6.57 0-2.4.636-4.641 2.174-6.57 1.485-1.774 3.394-2.712 5.78-2.712 1.538 0 3.288.208 4.614.99.371.209.477.626.371.991l-.742 1.877c-.106.261-.265.418-.53.47-.265.052-.478.052-.69-.105-.742-.521-2.015-.625-2.916-.625-1.22 0-2.122.521-2.811 1.512-.902 1.252-1.167 2.764-1.167 4.276 0 1.408.265 2.868 1.167 4.015.742.939 1.644 1.408 2.81 1.408l-.052.105zm34.736-47.87c-.53 0-1.008-.209-1.326-.574-.636-.73-.53-1.773.212-2.399.637-.573 1.326-1.46 1.697-2.242.371-.73.637-1.512.69-2.347.106-1.043-.106-1.981-.53-2.972a1.717 1.717 0 01.9-2.242c.902-.365 1.91.052 2.281.886.636 1.46.902 2.973.743 4.59-.107 1.25-.53 2.502-1.114 3.597-.583 1.095-1.538 2.451-2.493 3.233a1.726 1.726 0 01-1.113.418l.053.052zm16.652 24.926c-.213-.834-1.538-1.408-2.228-1.617-.901-.208-1.485-1.147-1.272-2.086.212-.886 1.166-1.46 2.12-1.251 2.493.626 4.933 2.503 4.88 5.267-.053 1.356-1.061 2.242-2.175 2.868-4.242 2.242-14.371 2.607-19.197 2.607-4.985 0-15.273-.417-19.568-3.024-1.22-.73-2.228-1.878-2.175-3.338.053-2.503 2.175-4.328 4.561-4.693.955-.156 1.856.47 1.962 1.408.16.939-.477 1.773-1.432 1.93-.742.104-1.644.625-1.697 1.407.053.105.425.313.53.418 3.554 2.138 13.577 2.45 17.766 2.45 4.03 0 14.053-.312 17.553-2.19.053-.052.213-.104.319-.208l.053.052zm2.863 12.098v2.868h4.614a.83.83 0 01.848.834v1.878a.83.83 0 01-.848.834h-4.614v4.224h6.682c.477 0 .849.365.849.834v1.982a.83.83 0 01-.849.834h-9.758a.83.83 0 01-.848-.834V56.764a.83.83 0 01.848-.834h9.864a.83.83 0 01.849.834v1.982a.83.83 0 01-.849.834h-6.788v-.052zm39.72-5.945c.955 0 1.75.782 1.75 1.721V69.02c0 .938-.795 1.72-1.75 1.72-.954 0-1.75-.782-1.75-1.72V55.304c0-.939.796-1.72 1.75-1.72zM117.1 62.448h4.614a.83.83 0 01.848.835v1.877a.83.83 0 01-.848.834H117.1v4.224h6.682a.83.83 0 01.848.834v1.982a.83.83 0 01-.848.834h-9.758a.83.83 0 01-.848-.834V56.816a.83.83 0 01.848-.834h9.864c.477 0 .849.365.849.834v1.982a.83.83 0 01-.849.834H117.1V62.5v-.052zM83.054 91.077l49.478-14.184c1.909-.522 4.349-1.617 4.349-3.859V52.436c0-2.086-1.75-3.807-3.872-3.807h-25.72c-.954 0-1.75-.782-1.75-1.72 0-.94.796-1.721 1.75-1.721h25.72c4.031 0 7.319 3.233 7.319 7.196v20.598c0 3.963-3.288 6.153-6.841 7.144l-49.956 14.34c-.159.053-.318.053-.477.053-.159 0-.318 0-.477-.053l-49.955-14.34c-3.553-.99-6.841-3.181-6.841-7.144V52.384c0-3.963 3.288-7.196 7.318-7.196h25.137c.954 0 1.75.782 1.75 1.72 0 .94-.796 1.721-1.75 1.721H33.099c-2.121 0-3.871 1.721-3.871 3.807v20.598c0 2.294 2.492 3.337 4.348 3.859l49.478 14.184zM70.38 78.874c.583.261 1.113.626 1.432 1.2.318.521.424 1.095.424 1.72 0 .835-.371 1.513-.955 2.034-.69.574-1.538.783-2.386.783-.796 0-1.538-.157-2.174-.626-.319-.209-.478-.626-.319-.99l.372-.94c.106-.26.265-.417.53-.469.265-.052.477-.052.69.104.159.105.318.157.477.261.159.052.37.104.53.104.16 0 .318 0 .424-.104a.392.392 0 00.106-.208c0-.105-.053-.209-.053-.261-.106-.105-.53-.313-.69-.417l-.635-.261c-.584-.26-1.114-.626-1.432-1.147-.319-.47-.425-1.043-.425-1.617 0-.782.266-1.46.849-1.982.583-.52 1.326-.782 2.121-.782.743 0 1.697.105 2.28.574a.812.812 0 01.266.887l-.319.886a.868.868 0 01-.53.521.755.755 0 01-.742-.104c-.106-.052-.319-.156-.425-.156a1.91 1.91 0 00-.53-.105c-.053 0-.212 0-.265.053-.053.052-.053.104-.053.208 0 .052 0 .104.053.209 0 .052.053.052.053.104.16.104.477.26.636.365l.637.313.053-.157zm12.674 17.209l24.235-6.936c.902-.26 1.856.261 2.175 1.148.265.886-.266 1.825-1.167 2.138l-24.712 7.092c-.16.052-.319.052-.478.052-.159 0-.318 0-.477-.052L70.433 96.03a1.719 1.719 0 01-1.167-2.138c.265-.887 1.22-1.408 2.174-1.147l11.667 3.337h-.053zm12.993-14.445v2.034a.83.83 0 01-.849.834h-1.06a.83.83 0 01-.849-.834v-7.51c0-.416.371-.781.796-.781.477 0 .954-.052 1.485-.052 2.015 0 4.136.625 4.136 2.972 0 2.294-1.485 3.337-3.712 3.337h.053zm-5.728-5.11c.796.938 1.008 2.138 1.008 3.337 0 1.2-.265 2.451-1.008 3.39-.742.939-1.856 1.356-3.075 1.356-1.22 0-2.228-.47-2.917-1.46-.69-.991-.955-2.138-.955-3.286 0-1.147.266-2.242 1.008-3.18.69-.94 1.697-1.409 2.917-1.409 1.22 0 2.28.365 3.076 1.304l-.054-.052zm-11.666 1.825v-2.19a.83.83 0 01.848-.834h1.06a.83.83 0 01.85.834v7.509a.83.83 0 01-.85.834h-1.06a.83.83 0 01-.848-.834v-2.816h-1.697v2.816a.83.83 0 01-.849.834h-1.06a.83.83 0 01-.849-.834v-7.51a.83.83 0 01.849-.834h1.06a.83.83 0 01.849.835v2.19h1.697zm-56.001-24.77c.954 0 1.75.782 1.75 1.721V68.29c0 .938-.796 1.72-1.75 1.72-.955 0-1.75-.782-1.75-1.72V55.304c0-.939.795-1.72 1.75-1.72zm67.986 5.945v2.868h4.984a.83.83 0 01.849.834v1.878a.83.83 0 01-.849.834h-4.984v7.04a.83.83 0 01-.849.834h-2.227a.83.83 0 01-.849-.834V56.764a.83.83 0 01.849-.834h10.182a.83.83 0 01.848.834v1.982a.83.83 0 01-.848.834h-7.106v-.052zm-13.099 0v2.868h4.985a.83.83 0 01.848.834v1.878a.83.83 0 01-.848.834h-4.985v7.04a.83.83 0 01-.849.834h-2.227a.83.83 0 01-.848-.834V56.764a.83.83 0 01.848-.834h10.182a.83.83 0 01.849.834v1.982a.83.83 0 01-.849.834H77.54v-.052zM69.69 58.12c1.538 1.825 2.016 4.276 2.016 6.57 0 2.4-.478 4.85-2.016 6.78-1.484 1.825-3.553 2.555-5.886 2.555-2.28 0-4.19-.887-5.568-2.712-1.432-1.93-1.91-4.276-1.91-6.623 0-2.294.53-4.536 1.963-6.361 1.378-1.773 3.235-2.712 5.515-2.712 2.333 0 4.401.678 5.886 2.45v.053zm26.357 19.712v1.251c.159 0 .371 0 .53-.052.106-.052.212-.052.318-.157.16-.104.16-.312.16-.469 0-.156 0-.26-.16-.365-.106-.052-.265-.104-.371-.156-.159-.052-.318-.052-.477-.052zm-7.849 3.754c.318-.47.424-1.2.424-1.773 0-.99-.106-2.086-1.378-2.086-.372 0-.584.105-.796.417-.318.47-.371 1.148-.371 1.67 0 .573.106 1.199.424 1.72.16.313.371.47.743.47.424 0 .689-.105.954-.47v.052zM66.615 69.071c.848-1.2 1.06-2.92 1.06-4.38 0-2.764-.636-5.476-3.924-5.476-1.114 0-1.91.417-2.492 1.304-.796 1.2-.955 2.764-.955 4.172 0 1.46.265 2.972 1.008 4.276.583.938 1.325 1.46 2.439 1.46 1.22 0 2.174-.365 2.864-1.356z" fill="#282828"/></svg>