<svg width="49" height="50" fill="none" xmlns="http://www.w3.org/2000/svg"><g clip-path="url(#clip0_2761_3318)" fill="#fff"><path d="M9.597 26.366h6.838l-3.42-6.977-3.418 6.977zm7.536-5.126l2.512 5.127h2.532l-3.597-7.342-1.447 2.215zM44.693 0H4.403C2.023 0 0 1.968 0 4.395v1.464h5.186c1.592 0 3.004.823 3.686 2.145.499.97 2.046.97 2.546 0 .681-1.322 2.093-2.145 3.685-2.145H33.88c1.591 0 3.108.826 3.804 2.153.502.959 2.034.957 2.533.002.697-1.33 2.118-2.155 3.71-2.155H49V4.395C49 1.968 47.072 0 44.693 0z"/><path d="M42.75 9.394a4.285 4.285 0 01-3.799 2.325 4.288 4.288 0 01-3.8-2.326c-.19-.366-.75-.604-1.271-.604H15.103c-.506 0-.966.233-1.145.58-.748 1.448-2.208 2.35-3.813 2.35-1.606 0-3.066-.902-3.814-2.35-.18-.347-.639-.58-1.145-.58H0v21.973c0 2.427 2.024 4.394 4.402 4.394H8.71v4.395c0 .81.642 1.465 1.436 1.465H21.63v6.054h-2.871c-.793 0-1.436.656-1.436 1.465 0 .81.643 1.465 1.436 1.465h11.484c.793 0 1.436-.655 1.436-1.465s-.643-1.465-1.436-1.465h-2.87v-6.054h11.58c.793 0 1.435-.656 1.435-1.465v-4.395h4.306c2.379 0 4.307-1.967 4.307-4.394V8.789h-5.073c-.522 0-.985.238-1.177.605zM21.63 38.086H11.58v-2.93h10.05v2.93zm4.092-9.484a1.43 1.43 0 01-1.221.695H7.273a1.43 1.43 0 01-1.22-.695 1.489 1.489 0 01-.064-1.425l5.743-11.72c.487-.992 2.08-.992 2.568 0l1.354 2.765 1.91-2.921c.284-.435.738-.664 1.284-.65.51.033.966.34 1.194.807l5.742 11.719c.223.453.199.993-.063 1.425zm11.795 9.484H27.37v-2.93h10.145v2.93zm4.306-8.79h-11.58c-.793 0-1.435-.654-1.435-1.464 0-.81.642-1.465 1.435-1.465h11.58c.794 0 1.436.656 1.436 1.465 0 .81-.642 1.465-1.436 1.465zm0-5.858h-11.58c-.793 0-1.435-.656-1.435-1.465 0-.81.642-1.465 1.435-1.465h11.58c.794 0 1.436.655 1.436 1.465s-.642 1.465-1.436 1.465zm0-5.86h-11.58c-.793 0-1.435-.655-1.435-1.465s.642-1.465 1.435-1.465h11.58c.794 0 1.436.656 1.436 1.465 0 .81-.642 1.465-1.436 1.465z"/></g><defs><clipPath id="clip0_2761_3318"><path fill="#fff" d="M0 0h49v50H0z"/></clipPath></defs></svg>