<svg width="49" height="60" fill="none" xmlns="http://www.w3.org/2000/svg"><path d="M20.5.938v13.78a5.906 5.906 0 005.898 5.907H40.18V24.7a10.033 10.033 0 00-5.395 2.804l-16.88 16.88a14.872 14.872 0 00-3.914 6.91l-1.189 4.76H6.72a5.906 5.906 0 01-5.907-5.906V6.844A5.906 5.906 0 016.72.937H20.5zm19.68 27.798a6.141 6.141 0 00-2.607 1.552L20.697 47.164a10.934 10.934 0 00-2.874 5.08l-1.194 4.767a2.402 2.402 0 002.906 2.914l4.769-1.193a10.93 10.93 0 005.079-2.874l16.884-16.884a6.142 6.142 0 00-6.083-10.238h-.004zM24.43 1.922v12.797a1.968 1.968 0 001.968 1.969h12.797L24.43 1.921z" fill="#fff"/></svg>