<svg width="63" height="49" fill="none" xmlns="http://www.w3.org/2000/svg"><path d="M56.782 4.175h-4.674V2.932c0-1.617-1.44-2.932-3.205-2.932h-35.59c-1.768 0-3.205 1.315-3.205 2.932v1.243H5.433C2.432 4.175 0 6.4 0 9.145v6.96c0 2.21 1.586 4.06 3.765 4.708v20.209L1.818 46.41c-.313.865.2 1.798 1.147 2.084.188.059.378.084.566.084.756 0 1.463-.44 1.712-1.133l2.046-5.662h.084v-.233l1.947-5.388c.313-.865-.2-1.8-1.146-2.085a1.937 1.937 0 00-.8-.064V21.077h4.365v19.461h38.74v-19.46h3.276v12.117a1.938 1.938 0 00-1.67-.263c-.947.286-1.46 1.22-1.147 2.085L55.014 46.3c.25.694.955 1.133 1.712 1.133.187 0 .378-.026.566-.084.946-.285 1.46-1.219 1.146-2.085l-1.257-3.481h.183v-20.76c2.725-.268 4.852-2.354 4.852-4.917v-6.96c0-2.746-2.433-4.971-5.434-4.971zM12.17 2.932c0-.577.512-1.045 1.143-1.045h35.59c.63 0 1.142.468 1.142 1.045v1.243H12.17V2.932zm36.245 18.145v17.575H13.8V17.473c0-1.42.78-3.406 1.702-4.338l1.662-1.678H45.05l1.663 1.678c.924.932 1.702 2.918 1.702 4.338v3.604h.001z" fill="#fff"/><path d="M44.42 14.418H17.795c-.57 0-1.031.422-1.031.943 0 .52.46.943 1.03.943H44.42c.57 0 1.03-.423 1.03-.943s-.46-.943-1.03-.943z" fill="#fff"/></svg>