<svg width="48" height="49" fill="none" xmlns="http://www.w3.org/2000/svg"><path d="M35.626 22.008l4.987-8.72h-9.29a.822.822 0 01-.814-.83c0-.46.364-.831.813-.831h9.763V9.135a.822.822 0 00-.814-.83h-16.27a.822.822 0 00-.815.83v2.492h4.068c.45 0 .814.372.814.83 0 .459-.364.83-.814.83h-3.596l4.987 8.721a.81.81 0 00.7.415h5.581a.81.81 0 00.7-.415zM45.152.83A.822.822 0 0044.34 0h-1.63v2.492c0 .458-.364.83-.813.83a.822.822 0 01-.814-.83V0h-1.627v2.492c0 .458-.364.83-.813.83a.822.822 0 01-.814-.83V0h-1.627v2.492c0 .458-.364.83-.814.83a.822.822 0 01-.813-.83V0h-1.627v2.492c0 .458-.365.83-.814.83a.822.822 0 01-.813-.83V0h-1.628v2.492c0 .458-.364.83-.813.83a.822.822 0 01-.814-.83V0H26.44v2.492c0 .458-.364.83-.813.83a.822.822 0 01-.814-.83V0h-1.627v2.492c0 .458-.364.83-.814.83a.822.822 0 01-.813-.83V0h-1.627a.822.822 0 00-.814.83v4.984c0 .458.364.83.814.83h24.407a.822.822 0 00.813-.83V.83zM29.694 39.035l2.441 1.66 2.44-1.66v-3.156c-4.88 3.314-4.539 3.156-4.88 3.156zm4.882-7.31c-4.882 3.322-4.54 3.155-4.882 3.155v2.326c4.817-3.28 4.507-3.156 4.882-3.156v-2.325zm0-4.153c-4.882 3.322-4.54 3.156-4.882 3.156v2.326c4.808-3.273 4.507-3.156 4.882-3.156v-2.326zm0-3.488h-4.882v4.817c4.825-3.28 4.507-3.156 4.882-3.156v-1.661zm-8.713 13.878a.805.805 0 001.155 0 .846.846 0 000-1.18L20.51 30.14a.806.806 0 00-.79-.216.826.826 0 00-.577.59.846.846 0 00.212.805l6.508 6.644zm12.545 0l6.509-6.644a.846.846 0 00.211-.805.826.826 0 00-.578-.59.805.805 0 00-.789.216l-6.508 6.644a.846.846 0 000 1.18.805.805 0 001.155 0zm-20.917-8.895c.45 0 .814-.372.814-.83a.822.822 0 00-.814-.83.822.822 0 00-.813.83c0 .458.364.83.813.83zm29.289 0a.822.822 0 00.813-.83.822.822 0 00-.814-.83.822.822 0 00-.813.83c0 .458.364.83.813.83zm-19.835 3.141a.842.842 0 00.13-1.163l-3.254-4.153a.808.808 0 00-.774-.365.817.817 0 00-.668.542.843.843 0 00.173.853l3.254 4.153a.802.802 0 001.14.133zm13.505-5.316l-3.255 4.152a.842.842 0 00.13 1.163.804.804 0 001.14-.133l3.254-4.153a.842.842 0 00-.122-1.162.802.802 0 00-1.147.133zM4.41 11.802c2.056 1.075 2.909 3.62 1.927 5.756-1.652 3.701-.184 8.076 3.344 9.966 2.054 1.078 2.905 3.62 1.928 5.755-.352.844.032 1.82.858 2.18a1.615 1.615 0 002.136-.876c1.652-3.701.185-8.076-3.344-9.966-2.04-1.09-2.88-3.626-1.903-5.755 1.644-3.7.183-8.067-3.336-9.966C3.95 7.833 3.083 5.284 4.06 3.14c.355-.83-.007-1.799-.814-2.176A1.597 1.597 0 001.972.931a1.644 1.644 0 00-.907.914C-.577 5.545.89 9.91 4.41 11.802zm15.408 3.363a1.635 1.635 0 00-1.278-1.03 1.612 1.612 0 00-1.513.614 1.69 1.69 0 00-.235 1.645c1.057 2.683-.082 3.713-.236 3.846a1.684 1.684 0 00-.334 2.245 1.607 1.607 0 002.172.487c.147-.091 3.515-2.467 1.424-7.807zM6.435 34.243a1.625 1.625 0 001.509-.654 1.705 1.705 0 00.199-1.662 1.644 1.644 0 00-1.31-1.006c-2.815-.324-3.172-1.852-3.172-2.035-.088-.917-.888-1.588-1.786-1.5-.899.09-1.556.907-1.469 1.824 0 .174.44 4.335 6.029 5.033z" fill="#fff"/><path d="M47.593 38.203h-6.916a1.628 1.628 0 00-1.456 1.013c-1.269 2.724-7.598 4.8-15.221 4.8-7.624 0-13.953-2.076-15.222-4.8a1.628 1.628 0 00-1.456-1.013H.406V49h47.187V38.203zM4.474 46.508H3.66a.822.822 0 01-.813-.83c0-.459.364-.83.813-.83h.814c.45 0 .814.371.814.83 0 .458-.365.83-.814.83zm8.95 0H7.727a.822.822 0 01-.813-.83c0-.459.364-.83.813-.83h5.695c.45 0 .814.371.814.83 0 .458-.364.83-.814.83z" fill="#fff"/></svg>