<svg width="55" height="51" fill="none" xmlns="http://www.w3.org/2000/svg"><path d="M50.24 19.683h-5.287l-12.85-9.67a5.787 5.787 0 001.214-3.551A5.824 5.824 0 0027.5.645a5.824 5.824 0 00-5.817 5.817c0 1.336.453 2.567 1.213 3.55l-12.85 9.671H4.76A4.765 4.765 0 000 24.443v21.153a4.765 4.765 0 004.76 4.76h45.48a4.765 4.765 0 004.76-4.76V24.444a4.765 4.765 0 00-4.76-4.76zm-24.65-7.727a5.79 5.79 0 003.82 0l10.267 7.727H15.323l10.268-7.727zM16.395 39.25a3.706 3.706 0 01-3.702 3.702h-2.115a3.706 3.706 0 01-3.702-3.702v-8.46a3.706 3.706 0 013.702-3.702h2.115a3.706 3.706 0 013.702 3.702v8.461zm10.577-6.346a3.706 3.706 0 01-3.702 3.702h-2.644v4.76a1.587 1.587 0 01-3.173 0V30.789a3.706 3.706 0 013.702-3.702h2.115a3.706 3.706 0 013.702 3.702v2.115zm6.875.529a1.587 1.587 0 010 3.173h-2.644v3.173h4.76a1.586 1.586 0 110 3.173h-6.347c-.876 0-1.586-.71-1.586-1.586V28.673c0-.876.71-1.586 1.587-1.586h6.346a1.586 1.586 0 110 3.173h-4.76v3.173h2.644zm14.279 7.933a1.587 1.587 0 01-3.006.71l-3.34-6.682v5.972a1.586 1.586 0 11-3.173 0V28.673a1.586 1.586 0 013.005-.709l3.341 6.681v-5.972a1.586 1.586 0 013.173 0v12.693z" fill="#fff"/></svg>