<svg width="70" height="32" fill="none" xmlns="http://www.w3.org/2000/svg"><path d="M1.893 17.416c-3.044 3.117-1.485 0-1.557 5.508-.061 4.778 2.803 4.866 3.566 4.806a7.413 7.413 0 01-.238-1.834c0-4.005 3.182-7.264 7.094-7.264 3.912 0 7.094 3.26 7.094 7.264 0 .638-.087 1.254-.24 1.843 10.588.008 25.311-.02 36.326-.193a7.42 7.42 0 01-.191-1.65c0-4.005 3.182-7.264 7.093-7.264 3.913 0 7.095 3.26 7.095 7.264 0 .405-.04.798-.103 1.185.788-.072 1.268-.153 1.378-.242 1.416-1.16.849-8.408-1.063-9.928-1.911-1.522-.85-2.32-.92-5.147-.038-1.523-1.266-3.69-2.393-5.373.896-.267 1.773-.576 2.612-1.018.106-.055.171-.13.245-.201.347-.33.381-.787.204-1.185-.004-.016-.013-.031-.019-.048-.02-.041-.038-.082-.063-.122-.164-.348-.468-.634-.94-.678-1.363-.125-2.705-.174-4.017-.61a1.091 1.091 0 00-.417-.05l-.023-.066S52.152-.268 39.198.022C26.243.312 25.89 8.283 14.706 9.08c-11.184.798-12.812 8.335-12.812 8.335zm19.423 3.875h21.729c.418 0 .76.35.76.778a.77.77 0 01-.76.777h-21.73a.77.77 0 01-.759-.777.77.77 0 01.76-.778zm10.317-3.021c0 .096-.004.18-.012.246a.84.84 0 01-.035.165.202.202 0 01-.06.095.127.127 0 01-.084.03h-2.824a.384.384 0 01-.263-.095c-.072-.063-.108-.166-.108-.31v-5.733c0-.032.01-.062.032-.088a.235.235 0 01.102-.063.966.966 0 01.193-.039c.081-.01.182-.015.303-.015.123 0 .226.005.305.015.078.01.143.022.19.039a.235.235 0 01.103.063.139.139 0 01.03.088v5.079h1.937a.13.13 0 01.083.026.194.194 0 01.06.089c.017.04.028.093.036.161.008.067.011.148.011.247zm6.692-2.694c0 .523-.063.99-.19 1.404a2.815 2.815 0 01-.567 1.05 2.452 2.452 0 01-.93.66c-.371.15-.799.226-1.285.226-.48 0-.897-.065-1.253-.193a2.16 2.16 0 01-.895-.588 2.526 2.526 0 01-.534-1.004c-.12-.406-.18-.887-.18-1.444 0-.509.064-.968.191-1.376a2.81 2.81 0 01.567-1.04 2.44 2.44 0 01.93-.658c.371-.153.8-.23 1.29-.23.467 0 .878.063 1.236.19.355.126.655.321.894.586.24.263.421.594.543.995.122.403.184.876.184 1.422zm-1.317.065a5.01 5.01 0 00-.076-.904 1.967 1.967 0 00-.259-.697 1.255 1.255 0 00-.487-.45 1.662 1.662 0 00-.761-.158c-.308 0-.565.06-.77.178a1.43 1.43 0 00-.5.477c-.127.198-.216.43-.268.694a5.156 5.156 0 00-.002 1.771c.05.274.137.51.257.706.12.194.281.343.484.446.204.101.46.153.766.153.308 0 .564-.058.77-.176.206-.117.373-.277.5-.478.127-.202.216-.436.269-.704.052-.268.077-.555.077-.858zm7.903-2.166c0 .094-.004.175-.011.244a.752.752 0 01-.035.163c-.014.041-.03.07-.052.085a.115.115 0 01-.073.025c-.042 0-.109-.03-.2-.089a2.994 2.994 0 00-.368-.19 3.846 3.846 0 00-.544-.192 2.784 2.784 0 00-.737-.089c-.297 0-.567.054-.808.159a1.764 1.764 0 00-.62.449 2.04 2.04 0 00-.395.7 2.776 2.776 0 00-.138.9c0 .361.047.68.14.956.095.274.226.504.394.69.169.185.372.325.608.42a2.099 2.099 0 001.198.093 1.51 1.51 0 00.382-.148v-1.472h-1.166c-.057 0-.1-.036-.133-.11-.031-.073-.047-.196-.047-.373 0-.09.003-.166.01-.228a.634.634 0 01.037-.148.223.223 0 01.056-.083.119.119 0 01.077-.026h2.081a.292.292 0 01.24.108.35.35 0 01.069.128.58.58 0 01.024.175v2.517a.602.602 0 01-.05.256c-.033.073-.101.132-.205.174a5.093 5.093 0 01-1.354.323 5.01 5.01 0 01-.502.024c-.493 0-.934-.073-1.324-.218a2.675 2.675 0 01-.988-.629 2.74 2.74 0 01-.62-1.005 3.94 3.94 0 01-.215-1.346c0-.517.077-.982.23-1.393a2.79 2.79 0 011.66-1.712c.395-.153.835-.23 1.32-.23a4.248 4.248 0 011.304.195c.162.054.299.112.406.173a.995.995 0 01.226.164c.044.045.075.11.093.193.02.082.029.205.029.368zm7.393 2.101c0 .523-.063.99-.19 1.404a2.817 2.817 0 01-.567 1.05 2.452 2.452 0 01-.93.66c-.371.15-.799.226-1.285.226-.48 0-.897-.065-1.253-.193a2.161 2.161 0 01-.895-.588 2.528 2.528 0 01-.534-1.004c-.12-.406-.18-.887-.18-1.444 0-.509.064-.968.19-1.376.128-.408.316-.754.568-1.04a2.44 2.44 0 01.93-.658c.371-.153.8-.23 1.29-.23.466 0 .878.063 1.236.19.355.126.655.321.894.586.24.263.42.594.543.995.122.403.183.876.183 1.422zm-1.317.065a5.01 5.01 0 00-.076-.904 1.968 1.968 0 00-.259-.697 1.255 1.255 0 00-.488-.45c-.203-.104-.456-.158-.76-.158-.308 0-.565.06-.77.178a1.43 1.43 0 00-.5.477 1.99 1.99 0 00-.268.694 5.156 5.156 0 00-.002 1.771c.05.274.137.51.257.706.12.194.281.343.484.446.204.101.459.153.766.153s.564-.058.77-.176c.206-.117.373-.277.5-.478a2.04 2.04 0 00.268-.704 4.43 4.43 0 00.078-.858z" fill="#fff"/><path d="M10.758 19.791c-3.293 0-5.962 2.733-5.962 6.105 0 .636.122 1.237.299 1.815C5.854 30.19 8.086 32 10.759 32c2.662 0 4.889-1.797 5.656-4.263.182-.584.307-1.196.307-1.841-.002-3.372-2.67-6.105-5.964-6.105zm50.085 0c-3.291 0-5.961 2.734-5.961 6.105 0 .57.1 1.109.242 1.632.7 2.574 2.982 4.473 5.72 4.473 2.865 0 5.255-2.072 5.828-4.831a6.28 6.28 0 00.134-1.273c0-3.372-2.67-6.106-5.963-6.106z" fill="#fff"/></svg>