<svg width="64" height="48" fill="none" xmlns="http://www.w3.org/2000/svg"><path d="M40 0C28.837 0 19.43 7.66 16.76 18H8v-3.25C8 13.785 7.215 13 6.25 13H1a1 1 0 00-1 1v20a1 1 0 001 1h5.25C7.215 35 8 34.215 8 33.25V30h8.76C19.43 40.34 28.836 48 40 48c13.234 0 24-10.766 24-24S53.234 0 40 0zM6 33H2V15h4v18zm2-5v-8h8.335a24.064 24.064 0 000 8H8zm32 18c-12.13 0-22-9.87-22-22S27.87 2 40 2s22 9.87 22 22-9.87 22-22 22z" fill="#fff"/><path d="M22 24c0-9.925 8.075-18 18-18 3.358 0 6.634.93 9.473 2.691a1 1 0 001.054-1.7A19.953 19.953 0 0040 4c-11.028 0-20 8.972-20 20a20.04 20.04 0 004.493 12.631.998.998 0 001.407.143 1 1 0 00.143-1.407A18.035 18.035 0 0122 24zm35.01-10.525a1 1 0 10-1.7 1.054A17.955 17.955 0 0158 24.001c0 9.925-8.075 18-18 18a18.035 18.035 0 01-11.369-4.044 1 1 0 10-1.264 1.55A20.04 20.04 0 0040 44c11.028 0 20-8.972 20-20 0-3.73-1.034-7.37-2.99-10.526zm-3.746-1.645a.997.997 0 001.413.06 1 1 0 00.06-1.412c-.386-.42-.794-.83-1.214-1.215a1 1 0 10-1.353 1.474c.378.347.746.715 1.094 1.093z" fill="#fff"/><path d="M37 19v-7a1 1 0 00-2 0v7a1 1 0 002 0z" fill="#fff"/><path d="M36 37a1 1 0 001-1V22.873A4.007 4.007 0 0040 19v-7a1 1 0 00-2 0v7c0 1.103-.897 2-2 2s-2-.897-2-2v-7a1 1 0 00-2 0v7a4.007 4.007 0 003 3.873V36a1 1 0 001 1zm6-25v24a1 1 0 002 0v-9h3a1 1 0 001-1V16c0-2.757-2.243-5-5-5a1 1 0 00-1 1zm4 4v9h-2V13.172c1.164.413 2 1.524 2 2.828z" fill="#fff"/></svg>