<svg width="51" height="50" fill="none" xmlns="http://www.w3.org/2000/svg"><path d="M33.056 33.555v16.444h7.555V33.555h-7.555zm3.778 7.738a.956.956 0 01-.945.968.956.956 0 01-.944-.968v-.967c0-.534.423-.967.944-.967.521 0 .944.433.944.967v.967zM40.544 0H10.455a.956.956 0 00-.944.967v8.405c0 .534.423.967.944.967h30.089a.956.956 0 00.944-.967V.967A.956.956 0 0040.544 0zM15.493 6.43c0 .332-.062.621-.186.872a1.83 1.83 0 01-.505.625 2.254 2.254 0 01-.745.378 3.174 3.174 0 01-.913.126 3.365 3.365 0 01-1.107-.187 2.076 2.076 0 01-.36-.16 1.137 1.137 0 01-.21-.147.38.38 0 01-.09-.184 1.633 1.633 0 01-.027-.343c0-.1.004-.184.01-.252a.733.733 0 01.032-.166.192.192 0 01.06-.09.142.142 0 01.086-.027c.045 0 .11.027.194.082.084.053.19.113.321.178.13.065.287.124.47.177.18.055.391.082.63.082.157 0 .298-.018.421-.055a.965.965 0 00.318-.158.678.678 0 00.2-.25.803.803 0 00.068-.334.58.58 0 00-.117-.368 1.146 1.146 0 00-.308-.272 3.138 3.138 0 00-.43-.224c-.159-.07-.324-.143-.495-.221a4.264 4.264 0 01-.495-.266 1.948 1.948 0 01-.429-.354 1.64 1.64 0 01-.308-.49 1.747 1.747 0 01-.117-.677c0-.3.057-.566.17-.796.111-.228.263-.417.454-.568.192-.152.416-.265.675-.34a2.974 2.974 0 011.275-.076 3 3 0 01.422.091c.13.04.245.083.347.132.1.05.167.09.2.123a.36.36 0 01.066.082.38.38 0 01.03.091.944.944 0 01.017.141 3.807 3.807 0 01-.002.45.873.873 0 01-.025.16.197.197 0 01-.048.092.122.122 0 01-.087.03.42.42 0 01-.17-.068 2.798 2.798 0 00-.687-.294 1.723 1.723 0 00-.496-.067c-.14 0-.262.017-.368.052a.755.755 0 00-.26.141.545.545 0 00-.158.216.696.696 0 00-.052.268c0 .14.039.26.116.362.077.103.18.195.309.275a3.4 3.4 0 00.44.222c.162.07.329.145.5.222.17.078.337.166.5.265.163.1.309.218.437.356.127.138.231.3.31.487.078.186.117.406.117.658V6.43zm5.693-3.886c0 .095-.003.174-.012.242a.617.617 0 01-.037.16.2.2 0 01-.062.09.122.122 0 01-.08.03H19.41v5.08c0 .032-.01.062-.032.088a.242.242 0 01-.105.063 1.148 1.148 0 01-.199.038c-.084.01-.187.015-.31.015-.125 0-.228-.005-.312-.015a1.158 1.158 0 01-.199-.038.244.244 0 01-.105-.063.135.135 0 01-.032-.088v-5.08h-1.585a.126.126 0 01-.083-.03.224.224 0 01-.06-.09.725.725 0 01-.036-.16 2.059 2.059 0 01-.012-.242c0-.097.003-.18.012-.248a.706.706 0 01.037-.163.218.218 0 01.059-.088.133.133 0 01.083-.026h4.464c.029 0 .055.008.08.026a.194.194 0 01.062.088.66.66 0 01.037.163c.008.068.012.151.012.248zm6.78 2.553c0 .521-.065.988-.195 1.4-.13.413-.324.763-.583 1.05a2.507 2.507 0 01-.957.657c-.38.151-.82.226-1.32.226-.494 0-.923-.064-1.289-.192a2.225 2.225 0 01-.92-.587 2.505 2.505 0 01-.55-1.002c-.122-.406-.184-.886-.184-1.441 0-.508.066-.967.196-1.375a2.77 2.77 0 01.584-1.038c.257-.286.576-.505.956-.657.381-.153.822-.23 1.325-.23.48 0 .903.064 1.271.19.366.126.674.32.92.585.247.262.433.593.558.994.125.402.189.874.189 1.419zm-1.354.064c0-.33-.026-.631-.078-.902a1.927 1.927 0 00-.266-.697 1.277 1.277 0 00-.502-.448c-.209-.105-.47-.158-.782-.158-.316 0-.58.06-.79.178a1.46 1.46 0 00-.516.475c-.13.198-.222.429-.276.693A5.042 5.042 0 0023.4 6.07a2 2 0 00.265.705c.124.195.289.342.498.446.209.1.471.153.787.153.316 0 .58-.059.79-.177.213-.116.385-.275.516-.477.13-.2.222-.436.276-.703.054-.268.08-.553.08-.856zm7.744 2.995a.188.188 0 01-.02.09c-.013.024-.043.045-.092.061a.985.985 0 01-.216.033 5.957 5.957 0 01-.714 0 .718.718 0 01-.194-.036.21.21 0 01-.1-.068.463.463 0 01-.048-.1l-.572-1.41a5.773 5.773 0 00-.2-.426 1.335 1.335 0 00-.22-.31.813.813 0 00-.279-.189.977.977 0 00-.363-.063h-.403v2.408c0 .032-.01.062-.031.087a.232.232 0 01-.106.065 1.14 1.14 0 01-.195.038c-.08.01-.186.015-.312.015-.123 0-.227-.005-.31-.015a1.123 1.123 0 01-.198-.038.21.21 0 01-.102-.063.144.144 0 01-.03-.089V2.423c0-.143.037-.246.11-.31a.403.403 0 01.271-.094h1.642a7.035 7.035 0 01.705.033c.254.036.483.098.688.186.203.086.377.2.52.342.142.142.25.308.326.5.075.193.112.414.112.665 0 .21-.027.402-.08.575a1.483 1.483 0 01-.626.82 2.16 2.16 0 01-.525.244 1.413 1.413 0 01.503.403c.074.093.144.198.21.317.065.118.128.253.19.402l.536 1.245c.048.123.082.213.097.271a.5.5 0 01.025.135h.001zm-1.665-4.28a.922.922 0 00-.142-.524c-.095-.144-.25-.245-.466-.303a1.692 1.692 0 00-.222-.038 3.139 3.139 0 00-.346-.015h-.579V4.78h.657c.184 0 .343-.022.48-.066a.946.946 0 00.345-.185.74.74 0 00.205-.284.962.962 0 00.069-.37zm6.958 3.941c0 .095-.003.173-.011.238a.575.575 0 01-.037.153.198.198 0 01-.062.086.13.13 0 01-.08.027h-3.18a.403.403 0 01-.27-.095c-.074-.063-.111-.166-.111-.31V2.424c0-.143.037-.246.11-.31a.403.403 0 01.271-.094h3.165c.028 0 .055.008.078.024a.2.2 0 01.059.085.772.772 0 01.037.156c.008.065.011.145.011.243 0 .091-.003.168-.011.233a.58.58 0 01-.037.153.23.23 0 01-.059.086.125.125 0 01-.078.027h-2.262V4.56h1.905c.03 0 .057.008.08.027a.195.195 0 01.063.083.546.546 0 01.037.15c.008.064.011.14.011.23 0 .095-.003.173-.011.234a.532.532 0 01-.037.148.166.166 0 01-.062.08.133.133 0 01-.08.025h-1.906v1.775h2.277c.03 0 .057.008.08.027a.198.198 0 01.062.086.59.59 0 01.037.153c.008.065.011.143.011.238zM8.5 33.555v5.804h.52l4.958-5.804H8.5z" fill="#fff"/><path d="M44.39 26.783a4.686 4.686 0 01-3.779 1.935 4.686 4.686 0 01-3.778-1.935 4.686 4.686 0 01-3.777 1.935 4.686 4.686 0 01-3.778-1.935 4.686 4.686 0 01-3.778 1.935 4.686 4.686 0 01-3.778-1.935 4.686 4.686 0 01-3.778 1.935 4.686 4.686 0 01-3.777-1.935 4.686 4.686 0 01-3.778 1.935 4.686 4.686 0 01-3.778-1.935c-1.095 1.496-2.934 2.212-4.722 1.838v20.411c0 .534.423.968.944.968h28.333V33.554c0-1.069.846-1.935 1.89-1.935h7.555c1.043 0 1.889.866 1.889 1.935v16.444h5.666a.956.956 0 00.945-.967v-20.41c-1.79.388-3.636-.33-4.722-1.839zm-20.78 18.38H7.555a.956.956 0 01-.944-.968c0-.534.423-.967.944-.967h16.056c.521 0 .944.433.944.967a.956.956 0 01-.944.968zm.944-5.804c0 1.068-.845 1.934-1.888 1.934H8.5c-1.043 0-1.89-.866-1.89-1.934v-5.804c0-1.069.847-1.935 1.89-1.935h14.167c1.043 0 1.888.866 1.888 1.935v5.804z" fill="#fff"/><path d="M19.125 37.095a.933.933 0 01-.908.345.952.952 0 01-.727-.656.985.985 0 01.218-.966l1.937-2.263H16.48l-4.959 5.804h11.145v-5.804h-.52l-3.022 3.54zm30.609-17.518a.943.943 0 00-.85-.532h-3.55a.956.956 0 01-.945-.968c0-.534.423-.967.944-.967h2.834a.956.956 0 00.944-.967V13.24a.956.956 0 00-.944-.968H2.833a.956.956 0 00-.944.968v2.902c0 .534.423.967.944.967h38.723c.52 0 .944.434.944.968a.956.956 0 01-.944.967H2.116a.943.943 0 00-.85.532l-1.162 2.37C0 22.227 0 22.237 0 23.882A2.927 2.927 0 001.124 26.2a2.78 2.78 0 002.484.477c1.24-.391 2.079-1.573 2.059-2.902v-1.828c0-.534.423-.967.944-.967.522 0 .945.433.945.967v1.935a2.913 2.913 0 001.47 2.481 2.776 2.776 0 002.833-.063 2.92 2.92 0 001.363-2.544v-1.81c0-.533.423-.966.945-.966.521 0 .944.433.944.967v1.935a2.927 2.927 0 001.124 2.318 2.78 2.78 0 002.484.477c1.24-.391 2.079-1.573 2.059-2.902v-1.828c0-.534.423-.967.944-.967.522 0 .945.433.945.967v1.935a2.913 2.913 0 001.47 2.481 2.776 2.776 0 002.833-.063 2.92 2.92 0 001.364-2.544v-1.81c0-.533.423-.966.944-.966.521 0 .945.433.945.967v1.935a2.923 2.923 0 001.123 2.318 2.78 2.78 0 002.484.477c1.24-.391 2.08-1.573 2.06-2.902v-1.828c0-.534.422-.967.944-.967.521 0 .944.433.944.967v1.818c-.024 1.336.827 2.524 2.078 2.902a2.78 2.78 0 002.513-.518 2.93 2.93 0 001.076-2.384v-1.818c0-.534.423-.967.944-.967.522 0 .945.433.945.967v1.935a2.924 2.924 0 001.124 2.318 2.78 2.78 0 002.484.477c1.24-.391 2.078-1.573 2.059-2.902 0-1.402 0-1.518-.104-1.79l-1.162-2.408z" fill="#fff"/></svg>