<svg width="52" height="52" fill="none" xmlns="http://www.w3.org/2000/svg"><path d="M18.417 21.667a5.417 5.417 0 100-10.833 5.417 5.417 0 000 10.833z" fill="#fff"/><path d="M26 0C11.663 0 0 11.664 0 26s11.663 26 26 26 26-11.664 26-26S40.337 0 26 0zm6.11 47.629c.676-2.151.4-4.282.39-4.296 0-7.168 5.831-13 13-13 1.06 0 2.092.173 3.106.422L32.11 47.63zM45.5 28.167c-.877 0-1.73.09-2.567.234l-10.75-10.75a1.083 1.083 0 00-1.532 0l-9.395 9.394a1.083 1.083 0 000 1.532l2.709 2.708c.423.423.423 1.11 0 1.532a1.11 1.11 0 01-1.532 0l-7.584-7.583a1.083 1.083 0 00-1.531 0l-9.479 9.478A23.673 23.673 0 012.167 26C2.167 12.858 12.858 2.167 26 2.167c13.142 0 23.833 10.691 23.833 23.833 0 .93-.067 1.845-.171 2.748a15.14 15.14 0 00-4.162-.581z" fill="#fff"/></svg>