<svg width="69" height="50" fill="none" xmlns="http://www.w3.org/2000/svg"><path fill-rule="evenodd" clip-rule="evenodd" d="M.025 34.395V23.52c0-4.43 3.664-8.039 8.161-8.039h7.352C16.852 6.745 24.533 0 33.73 0h1.567C44.519 0 52.2 6.77 53.488 15.48h7.352c4.498 0 8.161 3.61 8.161 8.04v10.875c0 4.057-2.93 6.745-6.695 7.815l-26.302 7.566a4.91 4.91 0 01-1.49.224 5.03 5.03 0 01-1.491-.224L6.695 42.21C2.931 41.14 0 38.427 0 34.395h.025zM34.437 13.29a.8.8 0 01-.202-.697 2.49 2.49 0 00-.404-.174c-.354-.124-.759-.199-1.138-.274-1.136-.248-2.652-.572-2.577-2.04.051-.847.834-1.568 1.39-2.116.606-.597 1.566-1.518 1.592-2.39.025-.447-.026-1.542-.38-1.89a.808.808 0 01-.126-1.12.842.842 0 011.137-.175c.91.622 1.062 2.265 1.036 3.236-.05 1.443-1.111 2.513-2.072 3.484-.176.174-.884.846-.934 1.045.126.15 1.086.324 1.263.373.455.1.884.2 1.314.324.631.2 1.288.572 1.516 1.22.126.348.076.796-.127 1.12a.196.196 0 01-.1.1h6.947c.253 0 .48.099.632.298.05.074.101.15.126.224.101-.05.202-.1.329-.1.177-.025.354-.025.53-.025.38 0 .758.05 1.087.224.252.125.454.324.58.548.253.448.203.97 0 1.443a2.479 2.479 0 01-.429.697c-.833 1.07-2.4 1.966-3.79 1.966h-.252a9.014 9.014 0 01-6.923 3.236h-.253c-4.472-.125-7.958-3.161-8.565-7.541-.075-.448.253-.846.708-.921.455-.075.859.249.935.697.505 3.584 3.31 6.048 6.998 6.147 2.4.075 4.7-.995 6.09-2.912.025-.025.025-.05.05-.075.48-.672.834-1.443 1.086-2.24H29.207a.835.835 0 01-.834-.82c0-.449.38-.822.834-.822h5.23v-.05zm8.135 3.435c.607-.25 1.213-.672 1.567-1.145.076-.075.126-.174.202-.274h-.177c-.101 0-.202 0-.303.025-.253.025-.505-.05-.657-.224a9.905 9.905 0 01-.606 1.643l-.026-.025zM18.57 32.205c.556 0 1.036-.174 1.39-.622.075-.1.177-.15.328-.15a.36.36 0 01.303.15l.581.796c.101.15.101.374-.05.498-.733.722-1.642 1.02-2.678 1.02-1.112 0-2.047-.398-2.729-1.244-.733-.896-.96-2.016-.96-3.136 0-1.145.303-2.215 1.036-3.136.707-.846 1.617-1.294 2.754-1.294.733 0 1.566.1 2.198.473.177.1.227.299.177.473l-.354.896c-.05.124-.126.199-.253.224-.126.025-.227.025-.328-.05-.354-.249-.96-.299-1.39-.299-.58 0-1.01.25-1.339.722-.43.597-.555 1.32-.555 2.04 0 .673.126 1.37.555 1.917.354.448.784.672 1.34.672l-.026.05zM35.12 9.358c-.253 0-.48-.1-.632-.274-.303-.348-.252-.846.101-1.145.304-.274.632-.697.809-1.07.177-.348.303-.722.328-1.12.05-.498-.05-.946-.252-1.418a.82.82 0 01.43-1.07.842.842 0 011.086.422c.303.697.43 1.419.353 2.19a4.547 4.547 0 01-.53 1.718c-.278.522-.733 1.17-1.188 1.543a.822.822 0 01-.53.199l.025.025zm7.933 11.896c-.1-.398-.732-.672-1.06-.771a.833.833 0 01-.607-.996c.1-.423.556-.697 1.01-.597 1.188.299 2.35 1.195 2.325 2.514-.025.647-.505 1.07-1.036 1.369-2.021 1.07-6.847 1.244-9.146 1.244-2.375 0-7.277-.2-9.323-1.444-.581-.348-1.061-.896-1.036-1.592.025-1.195 1.036-2.066 2.173-2.24.455-.075.884.224.935.672.076.448-.228.846-.682.92-.354.05-.784.3-.809.673.025.05.202.149.253.199 1.692 1.02 6.468 1.17 8.464 1.17 1.92 0 6.695-.15 8.363-1.046.025-.025.1-.05.151-.1l.025.025zm1.365 5.774v1.37h2.198c.227 0 .404.173.404.397v.896a.396.396 0 01-.404.399h-2.198v2.015H47.6c.227 0 .404.175.404.399v.946a.396.396 0 01-.404.398h-4.649a.396.396 0 01-.404-.398v-7.74c0-.225.177-.399.404-.399h4.7c.227 0 .404.174.404.398v.946a.396.396 0 01-.404.398h-3.234v-.025zm18.923-2.837c.455 0 .834.373.834.821v6.546a.835.835 0 01-1.667 0v-6.546c0-.448.379-.82.834-.82zm-12.556 4.231h2.198c.227 0 .404.174.404.398v.896a.396.396 0 01-.404.398h-2.198v2.016h3.183c.227 0 .404.175.404.399v.945a.396.396 0 01-.404.399h-4.649a.396.396 0 01-.404-.399v-7.74c0-.224.177-.398.404-.398h4.7c.227 0 .404.174.404.398v.946a.396.396 0 01-.404.398h-3.234v1.369-.025zm-16.22 13.664l23.572-6.77c.91-.249 2.072-.772 2.072-1.842v-9.83c0-.996-.834-1.817-1.845-1.817H46.11a.835.835 0 01-.833-.822c0-.447.379-.82.833-.82h12.254c1.92 0 3.487 1.542 3.487 3.434v9.83c0 1.892-1.567 2.937-3.26 3.41l-23.8 6.844c-.075.025-.151.025-.227.025-.076 0-.151 0-.227-.025l-23.8-6.844c-1.693-.473-3.26-1.518-3.26-3.41v-9.83c0-1.892 1.567-3.435 3.487-3.435H22.74c.455 0 .834.373.834.822a.835.835 0 01-.834.82H10.763c-1.01 0-1.844.822-1.844 1.818v9.83c0 1.095 1.187 1.593 2.072 1.842l23.572 6.77zm-6.04-5.824c.279.124.531.298.683.572.151.25.202.523.202.822 0 .398-.177.721-.455.97-.328.274-.733.373-1.137.373-.379 0-.732-.074-1.036-.298-.151-.1-.227-.299-.151-.473l.177-.448c.05-.124.126-.2.252-.224.127-.025.228-.025.329.05.076.05.151.074.227.124.076.025.177.05.253.05.076 0 .151 0 .202-.05a.188.188 0 00.05-.1c0-.05-.025-.099-.025-.124-.05-.05-.252-.15-.328-.199l-.303-.124c-.278-.125-.531-.299-.683-.548-.151-.224-.202-.498-.202-.771 0-.374.127-.697.404-.946a1.491 1.491 0 011.011-.373c.354 0 .809.05 1.087.273.126.1.176.274.126.423l-.152.423a.414.414 0 01-.252.25.36.36 0 01-.354-.05.666.666 0 00-.202-.075.913.913 0 00-.253-.05c-.025 0-.1 0-.126.025-.025.025-.025.05-.025.1 0 .025 0 .05.025.1 0 .024.025.024.025.049.076.05.227.124.303.174l.303.15.026-.075zm6.04 8.213l11.545-3.31a.86.86 0 011.036.547c.127.423-.126.871-.556 1.02l-11.773 3.386c-.076.024-.152.024-.228.024-.075 0-.151 0-.227-.025L28.55 44.45a.82.82 0 01-.556-1.02c.127-.423.581-.672 1.036-.548l5.558 1.593h-.025zm6.19-6.894v.97a.396.396 0 01-.405.399h-.505a.396.396 0 01-.405-.399v-3.583c0-.2.177-.374.38-.374.227 0 .454-.025.707-.025.96 0 1.97.3 1.97 1.42 0 1.094-.707 1.592-1.768 1.592h.025zm-2.73-2.44c.38.449.48 1.021.48 1.594 0 .572-.126 1.17-.48 1.617-.353.448-.884.648-1.465.648-.581 0-1.061-.224-1.39-.697-.328-.473-.454-1.02-.454-1.568s.126-1.07.48-1.518c.328-.448.808-.672 1.39-.672.58 0 1.086.174 1.465.622l-.025-.025zm-5.558.872v-1.045c0-.224.177-.399.404-.399h.506c.227 0 .404.175.404.399v3.583a.396.396 0 01-.404.399h-.506a.396.396 0 01-.404-.399v-1.343h-.808v1.343a.396.396 0 01-.405.399h-.505a.396.396 0 01-.404-.399v-3.583c0-.224.177-.399.404-.399h.505c.228 0 .405.175.405.399v1.045h.808zM5.786 24.19c.455 0 .834.373.834.821v6.198a.835.835 0 01-1.668 0v-6.198c0-.448.379-.82.834-.82zm32.39 2.837v1.37h2.375c.227 0 .404.173.404.397v.896a.396.396 0 01-.404.399h-2.375v3.36a.396.396 0 01-.404.398H36.71a.396.396 0 01-.404-.398v-7.74c0-.225.176-.399.404-.399h4.85c.228 0 .405.174.405.398v.946a.396.396 0 01-.404.398h-3.386v-.025zm-6.24 0v1.37h2.374c.228 0 .405.173.405.397v.896a.396.396 0 01-.405.399h-2.374v3.36a.396.396 0 01-.405.398h-1.06a.396.396 0 01-.405-.398v-7.74c0-.225.177-.399.404-.399h4.851c.227 0 .404.174.404.398v.946a.396.396 0 01-.404.398h-3.385v-.025zm-3.74-.672c.733.871.96 2.041.96 3.136 0 1.145-.227 2.315-.96 3.236-.707.87-1.693 1.22-2.804 1.22-1.087 0-1.996-.424-2.653-1.295-.682-.92-.91-2.04-.91-3.16 0-1.096.253-2.166.935-3.037.657-.846 1.541-1.294 2.628-1.294 1.111 0 2.097.323 2.804 1.17v.024zm12.557 9.408v.597c.076 0 .177 0 .253-.024.05-.025.1-.025.151-.075.076-.05.076-.15.076-.224 0-.075 0-.125-.075-.174-.051-.025-.127-.05-.177-.075-.076-.025-.152-.025-.228-.025zm-3.74 1.792c.153-.224.203-.572.203-.846 0-.473-.05-.996-.657-.996-.177 0-.278.05-.379.2-.151.223-.177.547-.177.796 0 .274.05.572.202.821.076.15.177.224.354.224.202 0 .329-.05.455-.224v.025zm-10.282-5.973c.404-.572.505-1.394.505-2.09 0-1.32-.303-2.614-1.87-2.614-.53 0-.909.2-1.187.622-.379.573-.455 1.32-.455 1.991 0 .697.127 1.419.48 2.041.278.448.632.697 1.162.697.582 0 1.036-.174 1.365-.647z" fill="#fff"/></svg>