<svg width="82" height="43" fill="none" xmlns="http://www.w3.org/2000/svg"><path d="M7.861 40.897h-2.54V13.722h1.826V6.866h67.415v6.856h1.668v26.26h-2.501v2.1h7.86v-2.1h-2.5v-26.26h1.716V4.219C80.805 1.89 79.098 0 76.993 0H4.507C2.4 0 .695 1.889.695 4.22v9.502h1.767v27.175H0V43h7.862v-2.103zM72.895 2.662c.656 0 1.19.59 1.19 1.318 0 .728-.534 1.319-1.19 1.319-.658 0-1.191-.591-1.191-1.319 0-.727.533-1.318 1.19-1.318z" fill="#fff"/><path fill-rule="evenodd" clip-rule="evenodd" d="M34.82 21.326c-.4-.443-.703-1.06-.703-1.9 0-2.717 2.865-3.656 4.257-2.122 1.9 2.093.227 4.89-1.434 4.89-.941 0-1.345-.013-2.12-.868zm-4.138 1.441c1.033-.904 1.107-.48 2.213.511.434.39.861.757 1.281 1.172.409.402.815.777 1.231 1.137.43.37.837.825 1.29 1.161l9.456-8.73c.97-.953 1.315-.3 2.064.265l4.197 3.39c.372.301.71.54 1.085.853.36.299.684.544 1.026.829.247.207 3.42 2.721 3.724 2.8v2.589c0-.321-4.328-3.567-4.647-3.833l-6.58-5.306c-.212.205-.366.361-.61.574-.225.196-.45.404-.659.61-.81.798-1.76 1.56-2.542 2.365l-5.108 4.703c-.207.18-.425.38-.616.568-.212.208-.414.466-.79.466-.4 0-.533-.173-.818-.433-.206-.189-.409-.372-.612-.573l-3.732-3.459c-.474.352-2.052 1.982-2.662 2.5l-1.601 1.532c-.162.144-.188.146-.355.321-.314.33-2.847 2.447-2.847 2.733v-2.679c.429-.126 5.808-5.362 6.611-6.066zM9.526 34.683c0 2.33 1.707 4.22 3.812 4.22h54.69c2.106 0 3.813-1.89 3.813-4.22V16.885c0-2.33.214-5 .477-5.963l.476-1.744H13.338c-2.105 0-3.811 1.889-3.811 4.219v21.286z" fill="#fff"/><path fill-rule="evenodd" clip-rule="evenodd" d="M35.81 19.338c0 1.211 1.064 1.2 1.478.742.413-.457.423-1.635-.67-1.635-.454 0-.808.392-.808.893z" fill="#fff"/></svg>