<svg width="50" height="50" fill="none" xmlns="http://www.w3.org/2000/svg"><path d="M49.548 43.229c.215.779.395 1.38.43 1.841.072.46-.035.814-.215 1.062-.215.248-.609.425-1.182.531-.537.106-1.325.177-2.328.284-1.04.106-1.9.141-2.472.176-.61 0-1.075 0-1.397-.106-.323-.07-.538-.212-.681-.39a1.638 1.638 0 01-.323-.707l-2.794-8.887-17.768.531-3.296 9.913c-.108.39-.251.709-.43.957-.18.283-.466.46-.86.672-.394.177-.967.319-1.72.425a60.35 60.35 0 01-2.973.319c-1.361.106-2.4.177-3.188.141-.788 0-1.326-.177-1.612-.46-.323-.283-.43-.743-.323-1.31.108-.566.323-1.345.68-2.337L23.792 1.522c.143-.39.322-.708.537-.956.18-.248.538-.39.968-.46.465-.07 1.074-.07 1.827.035.752.071 1.755.213 3.009.425 1.433.213 2.543.425 3.367.567.824.177 1.433.354 1.899.566.43.213.752.46.967.744.18.283.358.672.502 1.133l12.646 39.653h.035zM30.096 9.771h-.036l-6.77 20.075 13.218.106-6.412-20.18z" fill="#fff"/><path fill-rule="evenodd" clip-rule="evenodd" d="M18.884 0h3.403c.466 0 .68.354.538.814L4.805 48.257c-.179.46-.716.956-1.146.814l-3.081-.814c-.43-.107-.68-.354-.538-.815L17.773.814c.18-.46.681-.814 1.147-.814h-.036z" fill="#fff"/></svg>