<svg width="48" height="48" fill="none" xmlns="http://www.w3.org/2000/svg"><g clip-path="url(#clip0_2761_12464)" fill-rule="evenodd" clip-rule="evenodd"><path d="M17.503 3.343a2.4 2.4 0 013.393 0l8.487 8.487a2.4 2.4 0 010 3.393l-11.88 11.88a2.4 2.4 0 103.393 3.394l11.88-11.88a2.4 2.4 0 013.394 0l8.486 8.486a2.4 2.4 0 010 3.394l-11.88 11.88a19.202 19.202 0 01-31.315-6.23 19.2 19.2 0 014.162-20.924l11.88-11.88zM19.2 8.436L9.016 18.616a14.401 14.401 0 0020.367 20.367L39.563 28.8l-5.09-5.09L24.29 33.89a7.199 7.199 0 11-10.178-10.178l10.18-10.183L19.2 8.436z" fill="#fff"/><path d="M17.503 20.314l-5.09-5.088 3.394-3.396 5.09 5.09-3.393 3.394zm15.274 15.273l-5.09-5.088 3.393-3.396 5.09 5.09-3.393 3.394zm2.333-20.16a2.398 2.398 0 01-1.337-3.12l3.24-8.1 3.74 1.248 1.965-4.094a2.4 2.4 0 114.327 2.078l-3.797 7.906-3.46-1.152-1.56 3.898a2.402 2.402 0 01-3.12 1.336h.002z" fill="#EBA707"/></g><defs><clipPath id="clip0_2761_12464"><path fill="#fff" d="M0 0h48v48H0z"/></clipPath></defs></svg>