<svg width="65" height="65" fill="none" xmlns="http://www.w3.org/2000/svg"><path fill-rule="evenodd" clip-rule="evenodd" d="M58.907 29.63l-7.288-7.287a4.038 4.038 0 00-5.738 0l-7.287 7.288a4.088 4.088 0 000 5.738l7.287 7.287a4.037 4.037 0 005.738 0l7.288-7.287a4.088 4.088 0 000-5.738zM41.463 32.5l7.287 7.287 7.287-7.287-7.287-7.287-7.287 7.287z" fill="#fff"/><path fill-rule="evenodd" clip-rule="evenodd" d="M29.631 26.406a4.037 4.037 0 005.738 0l7.288-7.287a4.088 4.088 0 000-5.738l-7.288-7.288a4.038 4.038 0 00-5.738 0l-7.287 7.288a4.088 4.088 0 000 5.738l7.287 7.287zm2.87-17.443l7.286 7.287-7.287 7.287-7.287-7.287L32.5 8.963zm2.868 29.63a4.038 4.038 0 00-5.738 0l-7.287 7.288a4.088 4.088 0 000 5.738l7.287 7.287a4.037 4.037 0 005.738 0l7.288-7.287a4.088 4.088 0 000-5.738l-7.288-7.288zM32.5 56.037l-7.287-7.287 7.287-7.287 7.287 7.287-7.287 7.287z" fill="#EBA707"/><path fill-rule="evenodd" clip-rule="evenodd" d="M26.407 29.63l-7.288-7.287a4.038 4.038 0 00-5.738 0l-7.287 7.288a4.088 4.088 0 000 5.738l7.287 7.287a4.037 4.037 0 005.738 0l7.288-7.287a4.088 4.088 0 000-5.738zM8.963 32.5l7.287 7.287 7.287-7.287-7.287-7.287L8.963 32.5z" fill="#fff"/></svg>