<svg width="117" height="117" fill="none" xmlns="http://www.w3.org/2000/svg"><g clip-path="url(#clip0_2761_12440)" fill-rule="evenodd" clip-rule="evenodd"><path d="M41.818 102.375c0-1.069 1.123-2.057 2.285-2.057h28.793a2.064 2.064 0 010 4.114H44.103c-1.163 0-2.285-.988-2.285-2.057zM23.08 90.492V26.508c0-2.757 2.727-5.485 5.484-5.485h59.871c2.757 0 5.485 2.728 5.485 5.485v63.984c0 2.757-2.728 5.484-5.485 5.484h-59.87c-2.758 0-5.485-2.727-5.485-5.484zM8.227 11.426v94.148c0 2.369.83 3.2 3.199 3.2h94.148c2.369 0 3.2-.831 3.2-3.2V11.426c0-2.369-.831-3.2-3.2-3.2H11.426c-2.369 0-3.2.831-3.2 3.2z" fill="#fff"/><path d="M35.648 68.098c0-4.66 1.457-7.842 5.345-10.195 4.246-2.57 9.913-1.508 13.33 2.718.833 1.032 1.073 2.019 1.663 3.135 4.93-2.366 13.476-.328 16.858 3.023 1.539 1.525 1.891 1.877 2.98 3.876.907 1.666 1.186 3.38 1.186 5.898 4.484 2.373 4.341 4.415 4.341 9.14 0 1.63-1.327 2.057-2.97 2.057H38.619c-3.681 0-2.97-1.844-2.97-6.398 0-2.298 1.631-5.274 2.97-6.17-1.475-2.203-2.97-4.06-2.97-7.084zM46.16 39.762h24.68c2.697 0 3.316 4.113-.457 4.113H46.617c-3.773 0-3.154-4.113-.457-4.113zm.457-10.512h23.766c3.773 0 3.154 4.113.457 4.113H46.16c-2.697 0-3.316-4.113.457-4.113zm-19.424-2.742v63.984c0 .973 1.415 1.6 2.514 1.6h57.586c1.1 0 2.514-.627 2.514-1.6V26.508c0-.973-1.415-1.6-2.514-1.6H29.707c-1.1 0-2.514.627-2.514 1.6z" fill="#EBA707"/><path d="M4.342 107.174V9.826c0-2.652 2.832-5.484 5.484-5.484h97.348c2.652 0 5.484 2.832 5.484 5.484v97.348c0 2.652-2.832 5.484-5.484 5.484H9.826c-2.652 0-5.484-2.832-5.484-5.484zM0 9.826v97.348C0 112.143 4.857 117 9.826 117h97.348c2.626 0 5.449-1.661 6.807-3.019 1.358-1.358 3.019-4.181 3.019-6.807V9.826c0-2.626-1.661-5.45-3.019-6.807C112.623 1.66 109.8 0 107.174 0H9.826C4.856 0 0 4.857 0 9.826z" fill="#EBA707"/><path d="M45.246 76.325c-1.364 0-3.596 1.271-4.257 2.141-1.107 1.458-1.456 2.724-1.456 5.171h37.934c-.117-5.232-4.57-1.588-4.57-6.17 0-1.471.288-1.087.045-2.543-.435-2.606-1.244-4.16-3.402-5.755-2.477-1.83-6.406-2.663-9.661-2.206-4.267.6-7.262 2.79-8.881 6.201-.378.796-.51 1.56-.873 2.326-.797 1.684-2.932.835-4.879.835zm-2.971-3.428c1.683-.392 2.653-.686 4.8-.686.543-2.336 3.179-5.237 5.255-6.627-1.054-2.198-2.273-5.027-6.17-5.027-6.876 0-8.5 9.248-3.885 12.34z" fill="#fff"/></g><defs><clipPath id="clip0_2761_12440"><path fill="#fff" d="M0 0h117v117H0z"/></clipPath></defs></svg>