<svg width="160" height="120" fill="none" xmlns="http://www.w3.org/2000/svg"><path d="M100 0C72.093 0 48.576 19.15 41.898 45H20v-8.125a4.38 4.38 0 00-4.375-4.375H2.5A2.5 2.5 0 000 35v50a2.5 2.5 0 002.5 2.5h13.125A4.38 4.38 0 0020 83.125V75h21.898c6.678 25.849 30.195 45 58.102 45 33.084 0 60-26.916 60-60S133.084 0 100 0zM15 82.5H5v-45h10v45zM20 70V50h20.838a60.15 60.15 0 000 20H20zm80 45c-30.327 0-55-24.673-55-55S69.673 5 100 5s55 24.673 55 55-24.673 55-55 55z" fill="#fff"/><path d="M55 60c0-24.813 20.187-45 45-45a44.89 44.89 0 0123.682 6.728 2.5 2.5 0 102.635-4.25A49.883 49.883 0 00100 10c-27.57 0-50 22.43-50 50 0 11.481 3.989 22.696 11.232 31.578a2.495 2.495 0 003.517.358 2.5 2.5 0 00.358-3.518C58.589 80.426 55 70.333 55 60zm87.524-26.315a2.5 2.5 0 00-4.25 2.635A44.885 44.885 0 01145.001 60c0 24.813-20.187 45-45 45-10.336 0-20.43-3.591-28.423-10.111a2.5 2.5 0 10-3.16 3.875C77.3 106.009 88.518 110 100 110c27.57 0 50-22.43 50-50a49.89 49.89 0 00-7.477-26.315zm-9.365-4.107c.493.537 1.166.81 1.842.81a2.5 2.5 0 001.841-4.19 50.492 50.492 0 00-3.036-3.038 2.5 2.5 0 10-3.381 3.684 45.552 45.552 0 012.734 2.734z" fill="#EBA707"/><path d="M92.5 47.5V30a2.5 2.5 0 00-5 0v17.5a2.5 2.5 0 005 0z" fill="#fff"/><path d="M90 92.5a2.5 2.5 0 002.5-2.5V57.183c4.308-1.112 7.5-5.032 7.5-9.683V30a2.5 2.5 0 00-5 0v17.5c0 2.757-2.243 5-5 5s-5-2.243-5-5V30a2.5 2.5 0 00-5 0v17.5c0 4.651 3.192 8.57 7.5 9.683V90a2.5 2.5 0 002.5 2.5zM105 30v60a2.5 2.5 0 105 0V67.5h7.5A2.5 2.5 0 00120 65V40c0-6.892-5.608-12.5-12.5-12.5A2.5 2.5 0 00105 30zm10 10v22.5h-5V32.93c2.91 1.032 5 3.81 5 7.07z" fill="#fff"/></svg>