<svg width="53" height="53" fill="none" xmlns="http://www.w3.org/2000/svg"><g clip-path="url(#clip0_2761_12492)" fill-rule="evenodd" clip-rule="evenodd"><path d="M35.714 5.176c1.01 0 1.216-.595 1.887-1.22 1.16-1.083 3.173-1.106 4.35-.05.69.622.9 1.27 1.94 1.27.684 0 2.083-1.08 3.548.385 1.465 1.465.385 2.648.385 3.755 0 .71.824 1.262 1.22 1.68.249.266.422.522.558.891 1.219 3.31-1.778 3.691-1.778 5.4 0 .647 1.07 2.096-.382 3.55-1.395 1.396-2.588.383-3.758.383-1.01 0-1.348 1.335-2.276 1.552l-.003-4.765c-.013-1.262.033-.91 1.994-2.87.465-.466 1.319-1.06 1.319-1.891 0-.877-.715-1.658-1.552-1.658-.89 0-1.256.698-1.76 1.037 0-1.333.51-4.35-1.552-4.35-.898 0-1.479.575-1.618 1.383-.12.688-.037 2.183-.037 2.963-.555-.372-.834-1.036-1.76-1.036-.785 0-1.553.767-1.553 1.551 0 .957.755 1.429 1.27 1.94.558.559 1.04 1.06 1.604 1.602.442.422.452.296.442 1.11l-.006 4.974c-1.1-.256-1.027-1.552-2.485-1.552-.735 0-2.157 1.01-3.552-.382-1.396-1.396-.382-2.718-.382-3.655 0-1.428-1.984-1.521-2.054-3.944-.066-2.339 2.054-2.598 2.054-4.133 0-.734-1.01-2.156.382-3.551.418-.42.88-.662 1.624-.761.834-.113 1.2.378 1.924.378l.007.014zM53 12.947v.488c-.05 1.479-.545 2.928-1.482 3.924-.489.522-.176.479-.176 1.894 0 2.844-2.642 5.485-5.486 5.485-.857 0-1.432-.186-1.73.02-.373.256-1.39 1.32-2.719 1.429v3.728H51.45c.92 0 1.468.658 1.552 1.379v.392a1.513 1.513 0 01-.721 1.13c-.34.205-.894.308-1.452.308H2.177c-1.396 0-2.05-.65-2.173-1.369v-.511c.116-.701.698-1.33 1.552-1.33h36.643v-3.727c-.625-.053-1.525-.555-1.96-.834-1.622-1.037-.014-.615-2.489-.615-2.844 0-5.485-2.64-5.485-5.485 0-1.432.312-1.336-.17-1.9-1.677-1.974-1.996-5.114-.72-7.27 1.488-2.518.89-.186.89-2.94 0-2.844 2.641-5.486 5.485-5.486h.519c.867 0 .827.342 1.375-.176 1.834-1.724 5.11-1.894 7.286-.724.372.2.741.445 1.037.724.521.489.475.176 1.894.176 2.873 0 5.485 2.615 5.485 5.486 0 1.418-.316 1.372.176 1.893.94 1.004 1.432 2.45 1.482 3.911H53zM0 51.238C0 52.242.505 53 1.346 53h50.308c1.788 0 1.788-3.106 0-3.106H1.346c-.635 0-1.346.71-1.346 1.345z" fill="#797979"/><path d="M3.106 7.349c0-1.439 1.409-2.758 2.927-2.522 1.18.183 1.695 1.17 2.831.518.581-.332 1.375-2.242 3.452-2.242 2.498 0 3.05 2.02 3.419 2.688.834 1.511 2.14.335 3.203.83 1.511.708 1.176 3.313-.721 3.313H5.69c-1.605 0-2.588-1.37-2.588-2.588l.003.003zm4.452-5.382c-.651-.313-1.312-.31-2.07-.31C2.674 1.658.003 4.247.003 7.04c0 1.97.538 3.429 1.837 4.582 1.02.9 2.386 1.528 4.27 1.528h11.8c2.153 0 3.934-1.18 4.671-2.781 1.552-3.359-.65-7.054-4.568-7.054C17.691 1.93 14.94.003 12.733.003c-3.179 0-3.451.814-5.176 1.967v-.003zm25.669 39.441c0 2.153 2.675 1.658 4.865 1.658.498 0 .857-.172 1.12-.435 1.175-1.176.222-2.774-1.223-2.774-1.947 0-4.761-.445-4.761 1.551zm-19.977-.001c0 2.153 2.744 1.658 4.864 1.658 2.093 0 2.379-3.21-.206-3.21-1.329 0-3.359-.229-4.116.439-.2.173-.542.81-.542 1.116v-.003zm-9.937-.105c0 1.1.664 1.76 1.657 1.76h3.21c2.136 0 2.163-3.209-.103-3.209-1.528 0-4.761-.472-4.761 1.449h-.003zm41.51 2.078c1.445 0 3.608.249 4.342-.42 1.007-.91.592-2.79-1.342-2.79-1.83 0-4.555-.445-4.625 1.565-.03.857.701 1.644 1.621 1.644h.004zM23.29 41.407c0 2.143 2.449 1.658 4.761 1.658 2.153 0 2.366-3.21-.206-3.21-1.83 0-4.555-.422-4.555 1.552z" fill="#EBA707"/></g><defs><clipPath id="clip0_2761_12492"><path fill="#fff" d="M0 0h53v53H0z"/></clipPath></defs></svg>