<svg width="114" height="114" fill="none" xmlns="http://www.w3.org/2000/svg"><path fill-rule="evenodd" clip-rule="evenodd" d="M7.861 22.632c0 6.23.342 4.798 2.763 5.343 5.02 1.13 8.907 5.831 9.03 11.36h-3.93c0-2.355-.792-4.127-2.263-5.599C9.061 29.338 0 31.26 0 39.826c0 2.092 1.069 3.872 2.14 4.982 1.001 1.038 3.081 2.385 4.984 2.385h54.298c3.007 0 5.405-2.581 5.405-6.385 0-6.973-11.794-7.566-11.794.49h-3.931c.053-2.406 1.031-4.765 2.268-6.083.698-.742 1.346-1.505 2.169-2.007 1.782-1.089 1.459-1.837 1.459-4.681 0-5.261-5.549-10.807-10.81-10.807-2.51 0-3.68-.057-6.067 1.059-.972.453-2.351 1.39-3.09 2.069-1.04.96-2.56 3.312-3.046 4.814-.25.771-.299 1.555-.575 2.128 2.734 1.446 5.457 2.325 5.897 7.615h-3.932c0-5.226-7.862-5.226-7.862 0h-3.931c.283-3.405 2.11-6.176 5.083-7.2 1.104-.38.72.138 1.06-.904.692-2.126.46-4.094 3.154-7.41.589-.725 1.369-1.427 2.061-2.115.797-.794 1.503-1.174 2.4-1.776-1.165-2.201-2.854-4.045-4.876-5.442-3.288-2.27-5.814-2.663-9.865-2.663-7.418 0-14.74 7.32-14.74 14.736l.002.001z" fill="#EBA707"/><path fill-rule="evenodd" clip-rule="evenodd" d="M60.929 29.51l-.287 1.958c1.381.007 3.078.416 4.123.84 2.13.861 4.052 2.74 5.013 4.813 1.787 3.85.803 8.65-2.037 11.234-2.102 1.914-4.573 2.77-7.547 2.77h-9.09c0 9.57-2.086 7.86 13.758 7.86 3.704 0 6.929-.362 8.904 2.888 1.255 2.066 1.149 4.337-.194 6.31a5.514 5.514 0 01-2.416 2.006c-2.656 1.122-17.166.499-21.542.569-1.516.024-2.442.492-2.442 1.98 0 3.255 4.055 1.202 7.716 2.358 2.381.75 4.078 2.983 4.078 5.993v9.333c2.519 0 6.83-.281 9.09.246.746-3.198 5.521-8.844 8.169-11.483l4.08-4.026c.292-.37.484-.546.832-.888 5.676-5.602 7.31-10.538 7.31-18.725 0-7.853-3.714-14.693-8.653-20.085l-.836-.884c-.385-.357-.527-.463-.892-.83-1.705-1.712-4.282-3.473-6.49-4.565-2.835-1.403-7.075-3.356-11.138-3.356.063.755.6 3.04.491 3.685v-.002z" fill="#C7C7C7"/><path fill-rule="evenodd" clip-rule="evenodd" d="M25.55 55.79c0 5.498.288 8.012 2.783 12.692 1.498 2.811 3.88 5.01 5.885 7.38l3.432 3.2c1.193 1.189 2.021 2.218 3.2 3.433 1.332 1.375 4.627 6.173 5.092 8.171 2.261-.527 6.572-.245 9.09-.245v-9.825c0-3.127-4.687-1.471-7.524-2.301-5.267-1.542-5.629-8.966-.737-10.87 2.88-1.12 17.016-.494 21.545-.567 1.515-.024 2.442-.493 2.442-1.98 0-2.632-3.243-1.964-5.896-1.964-3.49 0-12.442.601-14.951-1.018-3.452-2.227-2.738-6.37-2.738-10.771h-21.13c-.035 1.58-.49 2.73-.49 4.667l-.002-.002z" fill="#C7C7C7"/><path fill-rule="evenodd" clip-rule="evenodd" d="M89.921 68.807c15.079 0 19.649 19.838 6.064 26.202-9.492 4.447-18.927-3.698-19.084-10.73-1.75 1.172-5.405 6.793-5.405 8.352 0 .28 1.228 2.312 1.228 3.439 0 1.668-.875 1.495.41 2.778.682.68 1.296 1.135 1.8 1.889 2.3-1.54 4.847-3.465 8.683-1.804 2.548 1.103 4.753 3.733 4.83 7.207h3.93c.113-5.049 4.48-8.606 9.52-7.554 1.81.377 2.675 1.267 3.993 2.151l2.645-2.76c-.721-1.106-1.649-2.025-2.051-3.728-.427-1.806-.316-3.272.311-4.888l1.454-2.23c.316-.354.141-.157.365-.373.149-.143.599-.545.783-.69 1.011-.794 2.921-1.502 4.602-1.541v-3.93c-3.406-.076-6.105-2.201-7.129-4.662-1.676-4.028.072-6.379 1.724-8.847l-2.761-2.643c-2.235 1.457-4.963 3.472-8.793 1.667-4.381-2.064-4.169-5.442-4.825-6.966-.016-.036-.049-.112-.082-.164 0 5.14-1.52 6.857-2.212 9.825z" fill="#EBA707"/><path fill-rule="evenodd" clip-rule="evenodd" d="M91.152 5.93l16.892 17.009c2.683-1.841 5.957-6.27 5.957-10.377 0-5.225-2.16-9.06-6.793-11.384-3.746-1.878-8.449-1.453-11.834.866-1.227.84-3.447 2.732-4.22 3.885l-.002.002z" fill="#C7C7C7"/><path fill-rule="evenodd" clip-rule="evenodd" d="M10.504 86.43l7.126 7.244 14.617-14.491c-.751-1.099-3.26-3.182-5.083-5.602-.506-.67-1.077-1.683-1.612-2.073L10.504 86.43z" fill="#EBA707"/><path fill-rule="evenodd" clip-rule="evenodd" d="M3.688 102.949c0 .664 6.707 7.369 7.37 7.369.752 0 7.93-2.974 9.674-3.592 1.105-.392 2.402-.866 3.349-1.32L8.663 89.871 3.689 102.95h-.002z" fill="#C7C7C7"/><path fill-rule="evenodd" clip-rule="evenodd" d="M20.33 96.255l7.125 7.244 13.88-13.754c-.96-1.75-4.547-6.647-6.45-7.92l-14.557 14.43h.002z" fill="#EBA707"/><path fill-rule="evenodd" clip-rule="evenodd" d="M84.519 82.563c0-1.57.925-3.283 1.77-4.127 5.426-5.426 13.677 2.823 8.25 8.249-3.899 3.9-10.019.627-10.019-4.122h-.001zm-3.932-.983v1.72c0 4.53 4.558 9.087 9.09 9.087h1.475c4.533 0 9.09-4.556 9.09-9.088v-1.473c0-4.532-4.557-9.088-9.09-9.088-5.115 0-3.228.247-9.03 5.956-.89.875-1.536 1.194-1.536 2.886h.001z" fill="#C7C7C7"/><path fill-rule="evenodd" clip-rule="evenodd" d="M83.227 33.377c1.026 1.502 2.1 2.642 3.112 4.132.947 1.395 1.829 3.067 2.6 4.525l10.626-10.5-7.126-7.245-9.211 9.088h-.001zm-11.3-8.349c2.31 1.25 4.58 2.504 6.593 4.092.855.673 1.155 1.008 2.067 1.618l9.15-9.027-7.125-7.244-10.686 10.56h.001z" fill="#EBA707"/><path fill-rule="evenodd" clip-rule="evenodd" d="M85.197 11.767l16.95 17.067 3.313-3.195c-.386-.561-14.51-14.832-17.011-17.006l-3.254 3.133.002.001zm-39.99 84.548c0 1.188.777 1.965 1.965 1.965h19.655c2.637 0 2.637-3.93 0-3.93H47.172c-1.188 0-1.965.776-1.965 1.964v.001zm0 7.862c0 1.187.777 1.964 1.965 1.964h19.655c2.637 0 2.637-3.93 0-3.93H47.172c-1.188 0-1.965.777-1.965 1.964v.002zM56.51 114h.982c3 0 5.344-1.957 6.388-3.93H50.12c1.044 1.973 3.39 3.93 6.387 3.93h.002zM0 112.526c0 .664.118.678.246 1.228.551.128.564.245 1.228.245.514 0 4.817-1.682 5.405-1.964-.303-1.136-1.483-1.851-2.273-2.64-.79-.79-1.505-1.969-2.641-2.272-.282.587-1.965 4.889-1.965 5.403zm88.45-29.965c0 2.636 3.93 2.636 3.93 0s-3.93-2.636-3.93 0z" fill="#C7C7C7"/></svg>