<svg width="124" height="124" fill="none" xmlns="http://www.w3.org/2000/svg"><path fill-rule="evenodd" clip-rule="evenodd" d="M16.952 77.016c2.298.051 4.36 1.796 4.36 4.117v17.195c0 1.729-1.126 3.492-2.823 3.959-1.776.49-1.537-.769-1.537 4.033 0 .558.169.727.727.727h38.023V77.5c0-.558-.168-.727-.726-.727H25.67v-4.117h-8.719v4.36zm19.376-23.493H62v12.594H36.328V53.523zm-1.937-10.656H64.18v4.117H34.39v-4.117zm-4.602 29.79h38.75v-34.15H29.79v34.15z" fill="#EBA707"/><path fill-rule="evenodd" clip-rule="evenodd" d="M4.117 64.664v50.859H64.18V77.5c0-1.076-1.13-.727-3.633-.727-.558 0-.727.169-.727.727v33.664H12.836v-8.719c-2.57 0-4.117-1.866-4.117-3.39V80.648c0-1.791 1.845-3.582 4.117-3.632v-8.477h12.836c0-2.98.43-4.602-.727-4.602H4.844c-.558 0-.727.17-.727.727zm77.258-21.797h4.117v4.117h-4.117v-4.117zm0-8.476h4.117v4.117h-4.117V34.39zM21.312 51.344h4.36V34.39h46.984v16.953h17.195V29.789H21.314v21.555z" fill="#fff"/><path fill-rule="evenodd" clip-rule="evenodd" d="M34.39 4.36h29.79v4.117H34.39V4.359zm-4.6 12.835h38.75V0H29.79v17.195z" fill="#EBA707"/><path fill-rule="evenodd" clip-rule="evenodd" d="M72.658 64.663v12.11c-5.347 0-4.36-1.008-4.36 4.601h38.024c.558 0 .726-.169.726-.727V64.663c0-.558-.168-.726-.726-.726-13.39 0-5.147-.331-9.242 6.016-2.364 3.665-8.302 2.702-13.524 2.702-3.379 0-5.885-2.234-6.448-5.419-.61-3.455 1.527-3.3-3.724-3.3-.558 0-.726.17-.726.727zM12.836 25.672h77.016v-4.36H12.836v4.36zm81.133 25.672h8.718V25.672h-8.718v25.672zm-25.672 51.828v12.351h15.742l-1.189-10.194c-.096-1.068.017-2.884-.99-2.884H69.022c-.557 0-.726.169-.726.727zm12.836-13.32H124v-4.36H81.133v4.36z" fill="#fff"/><path fill-rule="evenodd" clip-rule="evenodd" d="M72.656 59.82h38.508v-4.36H72.656v4.36z" fill="#EBA707"/><path fill-rule="evenodd" clip-rule="evenodd" d="M68.297 98.328h13.805c-.25-1.07-.485-3.059-.485-4.36-5.334 0-4.601-4.773-4.601-8.476h-8.72v12.836z" fill="#fff"/><path fill-rule="evenodd" clip-rule="evenodd" d="M0 59.82h25.672v-4.36H0v4.36z" fill="#EBA707"/><path fill-rule="evenodd" clip-rule="evenodd" d="M12.836 51.344h4.36V29.789h-4.36v21.555z" fill="#fff"/><path fill-rule="evenodd" clip-rule="evenodd" d="M12.836 98.328h4.36V81.133h-4.36v17.195z" fill="#EBA707"/><path fill-rule="evenodd" clip-rule="evenodd" d="M97.117 117.462c.24.897 4.447 4.98 5.328 5.57.883-.236 5.335-4.688 5.571-5.57l-5.269-5.388c-.985.301-5.198 4.742-5.63 5.388zm8.418-8.534l5.568 5.686 5.689-5.57-5.815-5.687-5.442 5.571zm-17.078.116l5.452 5.571 5.689-5.571-5.57-5.689-5.571 5.689zm8.602-8.595l5.444 5.573 5.572-5.455-5.444-5.573-5.572 5.455zM81.133 64.664c0 4.882 1.318 3.875 10.656 3.875 2.542 0 3.187-4.602 1.695-4.602H81.86c-.558 0-.726.17-.726.727zm-59.82-47.469h4.359V8.477h-4.36v8.718zm51.343 0h4.36V8.477h-4.36v8.718zm14.288 87.188c.974-.26 1.451-1.087 2.12-1.755.728-.73 1.449-1.3 1.998-2.12l-5.027-5.145c-.06 3.101.671 6.158.91 9.02zm27.31-3.934c.548.79 1.162 1.282 1.815 1.936.668.668 1.145 1.496 2.119 1.756l.969-8.477-4.903 4.785zM93.969 97.36c.822-.22 3.17-2.569 3.39-3.391H90.82c.23.86.806 1.175 1.393 1.756.619.614 1.068 1.174 1.756 1.634zm13.746 26.581l6.84.059-3.333-3.449-3.507 3.39zm3.391-26.523l3.507-3.39-6.84-.06 3.333 3.45zm-20.344 26.524l6.597.059-3.203-3.337-3.394 3.278zm-2.12-4.058l2.48-2.365-2.91-2.775c-.054 1.765.43 3.162.43 5.14zm25.479-2.37l2.07 2.184c.091-1.562.542-2.917.542-4.659l-2.612 2.475z" fill="#fff"/></svg>