<svg width="127" height="127" fill="none" xmlns="http://www.w3.org/2000/svg"><g clip-path="url(#clip0_2761_9727)" fill-rule="evenodd" clip-rule="evenodd"><path d="M116.417 53.975c0-4.093 6.35-4.093 6.35 0 0 4.094-6.35 4.094-6.35 0zm-10.584 0c0-4.093 6.35-4.093 6.35 0 0 4.094-6.35 4.094-6.35 0zM6.35 63.5c-2.652 0-2.117-4.101-2.117-5.82 0-4.107 2.773-6.88 6.88-6.88h9.79c2.507 0 3.258 3.152.889 4.065-.87.334-2.232.171-3.27.169-9.424-.024-10.11-.88-10.059 3.7.011.983.467 4.766-2.113 4.766zM0 52.387v47.625c0 2.911 2.91 5.821 5.82 5.821h21.697V88.9h-8.202a2.125 2.125 0 010-4.234h88.371a2.125 2.125 0 010 4.234h-8.203v16.933h21.696c2.911 0 5.821-2.91 5.821-5.821V52.387c0-2.91-2.91-5.82-5.821-5.82H92.075c-1.383 0-6.792 7.497-10.49 9.353-1.62.812-3.328 1.23-5.65 1.23h-24.87c-6.361 0-8.284-3.125-12.502-7.342-.66-.66-2.787-3.242-3.638-3.242H5.821C2.91 46.566 0 49.476 0 52.387z" fill="#EBA707"/><path d="M31.75 17.991v24.342h63.5V2.117C95.25.837 94.413 0 93.133 0h-44.45c-6.087 0 3.941 15.954-10.317 15.877-2.916-.016-6.616-.746-6.616 2.115zm12.7 96.309c0-1.045 1.202-2.116 2.381-2.116H80.17a2.124 2.124 0 010 4.233H46.832c-1.18 0-2.382-1.071-2.382-2.116v-.001zm0-12.7c0-1.045 1.202-2.116 2.381-2.116H80.17a2.125 2.125 0 010 4.233H46.832c-1.18 0-2.382-1.071-2.382-2.117zm-12.7 23.284c0 1.28.837 2.116 2.117 2.116h59.266c1.28 0 2.117-.836 2.117-2.116V88.9h-63.5v35.984zm17.727-71.968h28.045c2.909 0 7.489-4.889 8.467-6.35h-44.98c.979 1.461 5.559 6.35 8.468 6.35z" fill="#fff"/><path d="M23.283 25.4v16.933h4.234v-19.05H25.4c-1.28 0-2.117.837-2.117 2.117zm76.201 16.934h4.234V27.517c0-1.28-.837-2.117-2.117-2.117h-2.116v16.934z" fill="#EBA707"/><path d="M34.66 11.64c8.808 0 7.673 1.216 7.673-8.466-.894 1.028-7.412 7.49-7.673 8.466z" fill="#fff"/></g><defs><clipPath id="clip0_2761_9727"><path fill="#fff" d="M0 0h127v127H0z"/></clipPath></defs></svg>