<svg width="83" height="97" fill="none" xmlns="http://www.w3.org/2000/svg"><g clip-path="url(#clip0_2761_12677)" fill-rule="evenodd" clip-rule="evenodd"><path d="M71.931 90.748l4.903 3.41h-9.806c.392-.537 4.066-2.846 4.903-3.41zM30.772 0h.662a19.36 19.36 0 013.836.457c.62.137 2.61.87 2.718.87.468 0 2.744-1.084 6.008-1.327h2.545c1.884.143 3.972.625 6.158 1.702 3.746 1.846 6.649 4.763 8.486 8.526 1.472 3.014 1.694 5.943 1.694 9.475 9.574 0 13.99-1.405 14.334 6.63.143 3.347.758 8.694 1.1 11.966l1.364 16.06c.195 2.517.628 5.397.739 7.973.233 5.448 1.321 10.67 1.321 16.102 0 1.181-1.587 1.598-2.426.738-.702-.72-.48-2.246-.644-3.527-.157-1.227-.228-2.58-.337-4.019-.087-1.16-.312-2.546-.366-3.8l-2.078-23.488c-.136-2.462-.546-5.34-.735-7.788-.11-1.415-.231-2.741-.361-3.994-.138-1.326-.108-2.554-.299-3.868-.293-2.03.506-5.953-2.56-5.953h-9.617c-.614 0-1.364.403-1.62.835-.806 1.36.06 6.878.117 8.82.023.749-.023 1.536-.013 2.288.012 1.021.173 1.116.202 2.07.022.748-.035 1.538-.013 2.286.03.97.2 1.165.202 2.26 0 .713-.054 1.575.003 2.27.228 2.762.035 6.287.447 9.024.305 2.028.132 6.63.435 8.847l.422 11.322c.001 1.04.15 1.218.196 2.076.042.797-.031 1.668-.007 2.47.028.954.19 1.05.202 2.07.054 4.418.558 9.096.558 13.46 1.179-.793 2.276-1.522 3.507-2.35l3.47-2.198-2.64-31.638c0-1.273 2.767-2.967 3.012 1.71l1.107 12.718c.377 3.612.618 9.54 1.082 12.743.19 1.311.268 2.918.268 4.278 1.153.613 2.312 1.486 3.432 2.236.716.48 2.674 1.938 3.357 2.121 0-2.752-.566-5.114-.566-7.957 0-.186.724-.947 1.132-.947 2.068 0 1.684 1.569 1.938 3.547.169 1.317.19 3.036.41 4.526C83.346 94.247 81.138 97 78.72 97H4.61c-1.812 0-2.747-.839-3.634-1.843-.484-.548-.735-1.171-.88-1.97-.328-1.802.288-10.472.359-12.865.075-2.54.39-5.357.379-7.955-.006-1.162.17-1.465.199-2.453.109-3.666.36-7.01.364-10.622.002-1.171.2-1.468.202-2.639l.372-7.773c.08-1.502-.124-4.16.364-5.129.566-1.124 2.66-1.173 2.662 1.328l-.388 7.967c-.046.858.048 1.797.002 2.654-.051.942-.199 1.445-.191 2.65.016 2.485-.31 5.143-.382 7.574-.11 3.665-.32 6.98-.364 10.623-.013 1.094-.205 1.427-.2 2.64L3.1 86.958c-.05.919.051 1.925.002 2.844-.047.878-.304 1.363-.178 2.445.22 1.872 1.515 1.924 3.57 1.912h54.311c-.208-.898-.382-.878-.383-2.079-.001-1.014-.072-1.378-.155-2.117-.152-1.356-.102-3.264-.206-4.53-.063-.764.007-1.679-.003-2.46-.012-1.022-.174-1.116-.202-2.07-.024-.803.05-1.674.007-2.47-.046-.858-.195-1.036-.196-2.077 0-.77.058-1.71-.003-2.46-.064-.772-.188-1.061-.183-2.089.024-5.319-.784-12.77-.748-18.005.02-2.911-.336-6.18-.372-9.099-.012-1.021-.174-1.116-.202-2.07-.023-.748.023-1.535.013-2.287-.012-1.052-.19-1.206-.203-2.258l-.186-4.55c.01-2.2.066-4.562-.235-6.773-.178-1.299-.297-2.907.24-4.03h-8.863v9.85c0 2.16-2.188 4.358-4.337 4.358-2.679 0-5.092-1.685-5.092-4.357v-9.852H22.524v9.852c0 2.16-2.188 4.357-4.337 4.357-2.678 0-5.092-1.685-5.092-4.357v-9.852c-2.84 0-6.177-.546-6.936.988-.39.786-.162 1.405-.24 2.412l-.556 9.672c-.062 1.182.344 3.6-1.508 3.6-1.863 0-1.425-2.283-1.33-3.42.038-.454.014-1.04.01-1.505-.01-1.32.163-1.963.195-3.026.07-2.328-.027-7.278.741-8.917 1.646-3.512 5.585-2.645 9.625-2.645V17.05c0-2.437.892-5.181 1.694-6.823C17.89 3.875 24.015.115 30.772 0zm3.444 14.588c0 2.048 2.717 2.41 3.583-1.326 1.484.998 1.697 4.309 1.697 6.63H29.88c0-3.058.18-5.575 1.443-8.211.295-.616.87-1.496 1.009-2.019 1.632.137 2.884 1.14 3.582 1.326-.464.882-1.697 2.416-1.697 3.6zM47.04 9.852c1.776.148 3.704 1.792 4.582 2.975 1.737 2.34 1.83 3.961 1.83 7.066h-4.526c0-3.88-.003-6.466-1.886-10.041zM27.05 17.05v2.842h-4.526c0-3.105.093-4.727 1.83-7.066.878-1.183 2.806-2.827 4.582-2.975-.895 1.7-1.886 4.613-1.886 7.199zM17.81 34.1c-.985 0-1.886-.892-1.886-2.273V18.946c0-5.001 1.675-8.818 4.194-11.322 9.945-9.882 25.978-3.416 25.978 11.322v12.882c0 2.342-2.406 2.96-3.432 1.364-.918-1.429.202-14.124-.445-17.172-.285-1.342-.679-2.618-1.29-3.629-.514-.848-1.529-2.27-2.264-2.84-3.113-2.418-4.401-2.92-8.598-2.92-1.11 0-3.073.616-3.901 1.006-1.108.52-2.021 1.272-2.918 1.994-1.68 1.351-3.052 4.193-3.48 6.545-.258 1.419-.09 11.859-.07 14.708.008 1.095.008 3.218-1.888 3.218zM41.57 3.22c2.382-.053 4.816-1.214 9.556 1.01 6.18 2.897 8.925 8.107 8.925 15.662h-3.772c0-3.268.128-5.213-1.77-8.074-1.05-1.584-2.032-2.516-3.62-3.562-2.3-1.516-3.578-1.294-5.527-1.646-.841-.152-1.388-1.066-1.953-1.638-.847-.859-1.456-1.179-1.838-1.752z" fill="#EBA707"/><path d="M16.681 66.309c0-3.611.747-6.636 2.773-9.34 4.41-5.884 11.262-7.879 18.189-5.089 1.778.716 3.062 1.778 4.442 2.926 1.095.91 2.435 3.03 3.072 4.303 2.412 4.818 1.933 11.135-1.265 15.402-1.164 1.554-2.074 2.574-3.711 3.66-1.684 1.118-3.068 1.816-5.096 2.27-6.134 1.37-11.827-.897-15.47-5.713-1.642-2.171-2.934-5.352-2.934-8.42zm-3.017-.569c0 5.149 1.988 8.852 4.958 12.449l2.317 2.03a19.818 19.818 0 002.72 1.625c6.069 3.042 13.201 2.47 18.617-1.567 6.794-5.064 9.34-14.005 5.897-21.736-2.691-6.045-8.986-10.799-15.463-10.799-3.537 0-5.72.172-8.955 1.802-2.774 1.397-4.094 2.626-5.985 4.787-2.521 2.88-4.106 7.38-4.106 11.41z" fill="#797979"/><path d="M23.279 64.225c0-1.752.98-2.652 2.829-2.652 1.551 0 4.29 4.243 8.492 1.522 1.234-.8 1.49-1.522 2.822-1.522 1.953 0 2.64 1.2 2.64 2.841 0 1.443-4.356 5.23-5.516 6.394-1.615 1.624-1.271 1.753-3.347 1.753-1.07 0-3.273-2.626-4.384-3.742-1.622-1.63-3.536-2.998-3.536-4.594zm-3.017-.19c0 3.467 4.331 6.677 7.306 9.71 2.402 2.451 5.77 2.49 8.112.096 1.482-1.516 6.1-5.755 6.839-7.338 2.519-5.407-3.978-10.075-8.12-7.02-.598.442-1.658 1.521-2.634 1.521-2.243 0-2.233-2.463-6.223-2.463-2.577 0-5.28 2.606-5.28 5.495z" fill="#EBA707"/></g><defs><clipPath id="clip0_2761_12677"><path fill="#fff" d="M0 0h83v97H0z"/></clipPath></defs></svg>