<svg width="102" height="110" fill="none" xmlns="http://www.w3.org/2000/svg"><path fill-rule="evenodd" clip-rule="evenodd" d="M20.192 74.336c0-27.196 33.09-41.03 52.598-21.753 9.148 9.04 11.441 21.78 6.336 33.877-1.279 3.028-3.875 6.774-6.225 9.094-2.354 2.324-6.11 4.954-9.127 6.223-4.182 1.758-7.039 2.501-12.566 2.822-1.641.095-5.046-.438-6.754-.774-2.25-.443-3.993-1.089-5.88-1.915-1.946-.851-3.222-1.609-4.877-2.695-4.42-2.899-8.693-7.699-10.652-12.448-1.198-2.903-1.133-2.38-1.943-5.597-.445-1.768-.91-4.75-.91-6.834zM8.87 0h18.054c.299 3.55.994 7.324 1.309 10.951.308 3.544.944 7.273 1.277 10.768.428 4.497.846 6.177 3.084 8.98 1.503 1.881 4.847 3.89 8.226 3.89h19.975c2.024 0 3.684-.478 5.103-1.18 4.788-2.372 5.987-6.1 6.64-11.691.419-3.58.977-7.36 1.29-10.97.309-3.55 1.004-7.254 1.297-10.748h.482c4.962 0 9.924.008 14.886 0h2.627c.72.196.441 1.057.694 4.28l1.293 13.975c.328 5.848 1.614 14.79 1.941 20.638.135 2.408.555 4.751.657 7.085.142 3.29 1 10.115 1.287 13.765.187 2.379.401 4.692.634 6.893.674 6.383 1.144 14.78 1.928 20.865.735 5.704.872 11.155-2.041 16.337-.892 1.588-4.276 6.162-5.498 6.162H8.034c-.65 0-2.719-2.299-3.194-2.855C2.007 103.831 0 99.159 0 94.316l1.829-20.963c.341-2.352.31-4.532.62-6.906.58-4.461.78-9.288 1.277-13.99.473-4.481.92-9.121 1.284-13.769.358-4.554 1.031-9.308 1.293-13.975.327-5.847 1.614-14.79 1.941-20.637C8.42.948 8.394.17 8.87 0z" fill="#fff"/><path fill-rule="evenodd" clip-rule="evenodd" d="M43.421 86.152c-1.656 0-2.42-.215-4.125-.215.043 1.88 1.447 1.986 2.453 3.162 1.108 1.294.29 3.069-1.367 3.069-1.147 0-4.777-2.821-4.777-5.587 0-2.998.779-2.402.793-3.615.007-.618-.359-2.409-.359-4.334 0-3.674.901-6.356 1.982-8.996.496-1.21 1.22-2.413 1.924-3.468.386-.58.706-1.031 1.177-1.628 3.612-4.582 10.63-8.466 16.63-8.466 7.34 0 8.684.037 8.684 7.949 0 11.647-10.628 22.129-23.015 22.129zm6.08 14.609c5.655 0 8.452-.201 13.534-2.72 3.632-1.802 4.931-3.007 7.69-5.712 2.088-2.047 4.07-5.088 5.237-7.923 1.82-4.416 2.563-9.167 1.833-14.005-.532-3.526-.917-4.34-2.268-7.639l-2.488-4.198c-.858-1.229-2.679-3.357-3.905-4.3-2.226-1.71-3.755-3.28-7.068-4.608-9.332-3.742-18-3.082-26.245 2.335-2.018 1.326-1.554 1.196-2.79 2.18-2.34 1.865-5.31 5.704-6.456 8.436-1.264 3.015-1.832 4.395-2.3 7.607-.128.882-.148 2.113-.308 3.143-.163 1.047.247 4.712.476 5.793 1.414 6.697 4.985 12.172 10.261 16.272 3.64 2.83 9.688 5.339 14.797 5.339z" fill="#EBA707"/><path fill-rule="evenodd" clip-rule="evenodd" d="M39.734 79.492c.846-.224 2.693-2.343 3.42-3.062l6.73-6.66c1.089-1.077 2.4-2.954 3.963-2.954 1.474 0 1.737 1.03 1.737 2.148 0 .636-1.344 1.653-1.791 2.095l-6.188 6.123c-1.422 1.407-2.683 2.708-4.133 4.082-1.432 1.359-.977 1.345.876 1.089 1.476-.204 2.382-.174 3.644-.49 3.748-.943 5.935-2.335 8.528-4.668l1.618-1.622c3.16-3.342 4.611-8.072 4.611-13.484 0-1.08-.195-.962-.217-1.933-10.809-2.492-22.798 6.062-22.798 19.336z" fill="#fff"/><path fill-rule="evenodd" clip-rule="evenodd" d="M41.47 30.938h19.107c3.603 0 6.911-2.449 7.6-5.372-2.755 0-8.949 1.075-14.33 1.075-5.488 0-11.11-.012-16.408-.738-1.292-.177-2.203-.337-3.568-.337.688 2.923 3.996 5.372 7.6 5.372z" fill="#EBA707"/></svg>