<svg width="72" height="96" fill="none" xmlns="http://www.w3.org/2000/svg"><g clip-path="url(#clip0_2761_12657)" fill-rule="evenodd" clip-rule="evenodd"><path d="M39.197 9.105c1.216.896 1.946 3.677 1.946 5.868v2.514h-1.946V9.105zM66.718 96H5.282C2.535 96 0 93.452 0 90.69V41.516c0-1.603 3.853-2.921 4.179.27l-.01 45.273c-.002 2.385-.517 4.75 1.947 4.75H55.32c1.298 0 1.946-.652 1.946-1.956V21.958H45.591v3.073c0 .953 1.668 1.443 1.668 3.353 0 7.05-8.062 5.298-8.062.559 0-2.374 1.946-2.905 1.946-3.912v-3.073h-20.85v3.073c0 1.007 1.946 1.538 1.946 3.912 0 5.326-8.061 5.353-8.061.559 0-4 1.667-3.09 1.667-4.47v-3.074H4.17v11.735c0 2.682-4.17 2.682-4.17 0v-14.53c0-.905 1.208-1.676 2.224-1.676h13.622c0-8.797 3.41-14.84 11.168-16.995 2.733-.76 4.276-.454 5.91-.22l4.041 1.31L42.233.081a9.13 9.13 0 01.89-.08c.71-.017 2.822.23 3.592.43 2.441.634 4.014 1.51 5.789 2.843 4.776 3.587 5.596 8.32 5.596 14.213h11.676c1.345 0 2.224.884 2.224 2.236v12.129c0 2.78-4.17 2.878-4.17 0v-9.894h-6.394v69.85c2.495 0 3.747.211 5.838-.279 1.142-2.391.556-8.311.556-11.734 0-5.513-.944-10.06 2.224-10.06 1.09 0 1.946 1.04 1.946 2.236v18.72C72 93.451 69.465 96 66.718 96zM32.803 15.81c0-1.356.153-2.559.451-3.737.355-1.4.662-2.005 1.495-2.968v8.382h-1.946v-1.676zm8.618-11.175c6.115-1.432 12.232 3.74 12.232 9.5v3.352H45.59c0-3.093-.198-5.432-1.071-7.864-.98-2.726-2.078-3.456-3.1-4.988zm-12.788 9.5v3.352h-8.34v-2.514c0-6.302 4.646-10.618 11.398-10.618 1.503 0 .26 1.08-.235 1.71-1.48 1.888-2.823 5.28-2.823 8.07z" fill="#EBA707"/><path d="M72.002 43.174v20.482c0 2.88-4.17 2.781-4.17 0V41.757c0-2.78 4.17-2.878 4.17 0v1.417zm-46.27 5.722v5.59l6.712-7.16.978-1.02c1.92-2 4.99.838 3.001 2.91l-.978 1.02-6.145 6.556c.116.085.23.185.342.301l.978 1.02 8.196 8.743.978 1.02c1.989 2.072-1.08 4.91-3 2.91l-.98-1.02-8.195-8.744-.978-1.02a2.594 2.594 0 01-.177-.204l-.193.201a2.5 2.5 0 01-.539.43v8.95c0 2.879-4.17 2.78-4.17 0V47.48c0-2.781 4.17-2.879 4.17 0v1.416z" fill="#fff"/></g><defs><clipPath id="clip0_2761_12657"><path fill="#fff" d="M0 0h72v96H0z"/></clipPath></defs></svg>