<svg width="74" height="94" fill="none" xmlns="http://www.w3.org/2000/svg"><g clip-path="url(#clip0_2761_12631)" fill-rule="evenodd" clip-rule="evenodd"><path d="M0 1.468v87.574C0 91.36 2.634 94 4.944 94h64.093c2.31 0 4.944-2.64 4.944-4.957V63.156c0-1.533-3.1-2.304-3.618-.139-.234.978.215 22.83-.061 25.275-.226 1.998-1.434 2.045-3.646 2.036H10.072c.523-.784 10.54-10.66 11.49-11.613L50.405 49.8c.844-.846 5.631-5.266 5.631-6.104 0-1.69-.512-2.203-2.197-2.203-.863 0-11.064 10.633-12.407 11.98C39.43 55.48 5.693 89.52 4.762 90.145c-.624-.544-1.098-1.018-1.098-2.203V3.671h66.655v45.716c0 1.042 1.187 1.468 2.198 1.468.536 0 1.465-.93 1.465-1.468V1.469C73.98.93 73.053 0 72.516 0H1.466C.927 0 0 .93 0 1.469z" fill="#EBA707"/><path d="M28.385 13.586h17.213c3.348 0 3.714 3.121 2.234 4.443-.542.485-1.252.698-2.234.698H28.385c-4.11 0-4.112-5.141 0-5.141zm-6.776 2.02c0 1.944.348 3.557 1.788 5 .703.705 2.563 1.792 3.89 1.792h19.41c1.326 0 3.186-1.087 3.89-1.791 4.074-4.086.614-10.693-3.89-10.693h-19.41c-2.72 0-5.678 2.966-5.678 5.691zm-1.832 44.062c1.212 0 1.687-.864 2.335-1.515l14.1-14.136 8.058-8.079 4.028-4.039c1.705-1.708 3.708-3.139 3.708-4.727 0-.986-.746-1.652-1.83-1.652-1.104 0-1.901 1.078-2.519 1.698l-2.106 2.111L20.006 54.94c-.65.652-1.616 1.413-1.896 2.34-.436 1.44.957 2.388 1.667 2.388zm-6.41 2.386c0 1.13.277 2.386 1.831 2.386 2.043 0 2.674-3.28.268-3.748-.994-.194-2.099.675-2.099 1.362zm56.949-6.242c0 2.876 2.49 2.345 3.069 1.792.95-.91 1.06-3.26-1.604-3.26-.536 0-1.465.93-1.465 1.468z" fill="#fff"/></g><defs><clipPath id="clip0_2761_12631"><path fill="#fff" d="M0 0h74v94H0z"/></clipPath></defs></svg>