<svg width="72" height="93" fill="none" xmlns="http://www.w3.org/2000/svg"><g clip-path="url(#clip0_2761_12696)" fill-rule="evenodd" clip-rule="evenodd"><path d="M58.91 3.1h9.817v3.1H58.91V3.1zm-55.637 0h9.818v3.1H3.273V3.1zM0 1.55v6.2C0 8.687.647 9.3 1.636 9.3h11.455v14.337c0 2.132 2.25 4.263 4.5 4.263h7.364c1.808 0 3.217-1.22 3.884-2.327 1.038-1.72.078-3.873 2.457-3.873h9.409c.94 0 1.55.452 1.758 1.24.334 1.27-.073 1.289.624 2.509.686 1.199 2.132 2.45 3.959 2.45h7.363c2.25 0 4.5-2.13 4.5-4.262V9.3h9.818v78.856c0 1.055-.727 1.744-1.84 1.744H5.113c-1.725 0-1.857-1.407-1.844-3.098.178-23.324 0-47.131.003-70.527 0-.706.077-1.877.007-2.525C3.05 11.648 0 12.25 0 13.562v74.982C0 90.694 2.235 93 4.5 93h63c2.25 0 4.5-2.131 4.5-4.263V1.55C72 .613 71.353 0 70.364 0H57.273c-2.229 0-1.637 2.728-1.637 5.425l-.014 17.811c-.298 2.225-3.652 1.564-7.554 1.564-2.904 0-1.807-1.922-2.721-3.622-.677-1.26-2.141-2.578-4.029-2.578H30.682c-1.827 0-3.272 1.252-3.958 2.45-2.025 3.54 2.312 3.75-8.11 3.75-2.86 0-2.25-2.226-2.25-4.844l.011-17.836c0-1.309-.314-2.12-1.648-2.12H1.637C.646 0 0 .613 0 1.55z" fill="#EBA707"/><path d="M9.82 61.612v20.925c0 1.322 3.273 1.87 3.273-.388V61.612c0-1.56-3.273-1.56-3.273 0zm0-7.75c0 1.605-.437 3.487 1.636 3.487 2.503 0 1.927-4.65.41-4.65-.772 0-2.046.136-2.046 1.163z" fill="#EBA707"/><path d="M49.888 51.269c0-6.724-1.14-6.755-7.365-6.755-5.088 0-11.04 3.3-14.103 7.194-.399.507-.67.89-.998 1.384-.596.896-1.21 1.918-1.63 2.947-.918 2.243-1.682 4.522-1.682 7.644 0 1.636.31 3.157.305 3.683-.013 1.031-.673.524-.673 3.072 0 2.35 3.078 4.747 4.05 4.747 1.406 0 2.1-1.508 1.16-2.608-.853-.999-2.044-1.088-2.08-2.686 1.445 0 2.094.182 3.499.182 10.503 0 19.517-8.907 19.517-18.804zM27.241 64.413c0-11.28 10.166-18.549 19.333-16.431.019.825.184.725.184 1.643 0 4.599-1.23 8.618-3.91 11.458l-1.373 1.378c-2.199 1.983-4.053 3.166-7.231 3.966-1.07.27-1.84.243-3.09.417-1.572.218-1.958.23-.743-.925 1.229-1.168 2.298-2.273 3.504-3.469l5.248-5.203c.38-.376 1.519-1.24 1.519-1.78 0-.95-.224-1.826-1.473-1.826-1.327 0-2.438 1.595-3.36 2.51l-5.708 5.66c-.617.611-2.183 2.412-2.9 2.602z" fill="#797979"/></g><defs><clipPath id="clip0_2761_12696"><path fill="#fff" d="M0 0h72v93H0z"/></clipPath></defs></svg>