<svg width="114" height="114" fill="none" xmlns="http://www.w3.org/2000/svg"><g clip-path="url(#clip0_2761_4504)" fill-rule="evenodd" clip-rule="evenodd"><path d="M26.719 101.309c0 2.869 3.142 6.011 6.012 6.011 2.648 0 4.178-.311 6.05-2.632 2.255-2.795.936-8.74 1.303-13.839.166-2.318 1.502-3.568 4.002-3.568h43.195v-33.62h-10.02c-.417 0-1.635.958-2.097 1.241-.787.483-1.372.785-2.12 1.22-2.527 1.463-6.772 3.05-9.805 3.554-6.205 1.03-11.619.813-17.531-1.403-1.77-.663-3.074-1.156-4.611-2.069-.789-.468-1.393-.78-2.122-1.218-.4-.24-1.83-1.326-2.237-1.326h-10.02v47.649h.001zM55.613 0h2.85a26.947 26.947 0 0110.193 2.594c2.101 1.002 5.753 3.56 7.442 5.25.45.45.395.532.784.997.287.341.473.47.771.787 3.266 3.47 6.288 10.734 6.288 15.755 0 7.759-1.048 11.268-5.076 17.19-3.807 5.597-12.373 11.087-20.53 11.087h-2.671c-8.076 0-15.921-4.877-20.647-11.193-.486-.65-.798-1.198-1.218-1.899-3.098-5.175-3.74-8.809-3.74-14.962 0-5.324 2.291-10.408 5.027-14.344a20.62 20.62 0 011.376-1.741l2.45-2.45c.313-.288.463-.492.774-.784 1.198-1.121 4.368-3.1 5.809-3.765A27.588 27.588 0 0155.613 0zm-7.878 23.588l2.795-5.704c.395-.806 1.12-1.27 2.019-1.27 1.262 0 2.08.818 2.08 2.08 0 .466-.185.92-.405 1.322l-7.932 15.388a3.88 3.88 0 01-.628.96c-.36.391-.816.683-1.364.683-1.305 0-2.182-.81-2.182-2.131a3.3 3.3 0 01.438-1.637l2.762-5.184-4.842-7.709c-.28-.444-.57-.977-.57-1.515 0-.567.26-1.062.637-1.47.43-.48.99-.787 1.644-.787.818 0 1.477.426 1.921 1.093a.586.586 0 01.021.033l3.606 5.848zm18.287-4.358h.811c4.63 0 7.262 2.4 7.262 7.085 0 1.937-.511 3.762-1.81 5.23-1.317 1.488-3.049 2.157-5.024 2.157h-1.24v.962c0 1.35-.77 2.319-2.156 2.382l-.05.001c-1.426 0-2.181-1.022-2.181-2.382v-.963h-1.24c-1.974 0-3.706-.668-5.023-2.156-1.3-1.469-1.81-3.294-1.81-5.23 0-4.686 2.632-7.086 7.261-7.086h.812v-.359c0-1.315.81-2.194 2.13-2.255a.964.964 0 01.051-.002c1.371 0 2.206.902 2.206 2.257v.359zm0 10.361h1.088c.764 0 1.423-.2 1.915-.803.534-.654.682-1.526.682-2.347 0-.43-.03-.874-.124-1.294-.073-.327-.19-.665-.386-.94-.576-.734-1.7-.867-2.565-.867h-.61v6.251zm-4.388-6.25h-.61c-.865 0-1.99.132-2.565.866-.196.275-.313.614-.386.94-.094.42-.124.865-.124 1.294 0 .821.148 1.694.682 2.347.492.602 1.151.803 1.915.803h1.088v-6.25z" fill="#fff"/><path d="M83.719 46.98c3.634 0 10.509-.402 13.756.049 4.316.598 4.25 6.631-.842 6.631H93.96v13.36H114V29.836c0-1.365-1.529-2.895-2.894-2.895H90.621c0 4.961-1.697 11.735-4.186 15.854L83.72 46.98zM0 29.836V67.02h20.04V53.66h-2.673c-5.093 0-5.158-6.033-.842-6.631 3.248-.45 10.122-.049 13.756-.049-1.946-2.907-3.504-4.971-4.763-8.595-1.206-3.471-2.14-7.62-2.14-11.444H2.896C1.529 26.941 0 28.471 0 29.836zM46.758 99.75c0 4.74-1.34 5.675-1.781 7.57l41.191.001c2.711.006 3.922-.182 5.4-1.503 2.98-2.663 2.393-4.749 2.393-8.962 0-1.366-1.53-2.895-2.895-2.895H46.758v5.789z" fill="#EBA707"/><path d="M93.96 84.387c0 1.365 1.53 2.894 2.896 2.894h3.785v20.039h-3.785c-3.845 0-3.845 6.68 0 6.68h14.25c3.844 0 3.844-6.68 0-6.68h-3.786V87.281h3.786c1.365 0 2.894-1.529 2.894-2.894V73.699H93.96v10.688zm-93.96 0c0 1.365 1.53 2.894 2.895 2.894H6.68v20.039H2.895c-3.845 0-3.845 6.68 0 6.68h14.25c3.844 0 3.844-6.68 0-6.68H13.36V87.281h3.785c1.365 0 2.894-1.529 2.894-2.894V73.699H0v10.688z" fill="#EBA707"/></g><defs><clipPath id="clip0_2761_4504"><path fill="#fff" d="M0 0h114v114H0z"/></clipPath></defs></svg>