<svg width="96" height="156" fill="none" xmlns="http://www.w3.org/2000/svg"><path fill-rule="evenodd" clip-rule="evenodd" d="M34.76.074h38.31c9.615 0 13.647 5.99 10.43 15.127l-2.683 7.61H46.98c-4.94 0-8.833 2.291-10.539 6.706l-.008.026-26.216 70.64c-1.009 2.725-1.037 5.621.713 8.087 1.832 2.576 4.83 3.589 8.027 3.589l30.353.498-15.333 43.511H.59V92.15L34.76.078V.074z" fill="#EBA707" stroke="#000" stroke-width=".2" stroke-miterlimit="22.926"/><path fill-rule="evenodd" clip-rule="evenodd" d="M4.354.074h21.828L.59 69.036V3.202C.59 1.284 2.458.074 4.354.074z" fill="#fff" stroke="#000" stroke-width=".2" stroke-miterlimit="22.926"/><path d="M70.773 33.475l24.802 66.093c.62 1.56.559 2.854-.175 3.858-.733 1.005-2.03 1.507-3.881 1.507h-9.117c-2.938 0-4.866-1.29-5.794-3.874l-3.902-11.625H43.115l-3.959 11.625c-.964 2.584-2.917 3.874-5.891 3.874h-9.486c-1.933 0-3.266-.521-4.02-1.579-.753-1.039-.81-2.386-.194-4.038l24.802-66.092c.948-2.42 2.917-3.642 5.928-3.642H64.82c3.014 0 5.004 1.29 5.948 3.893h.004zM47.75 75.867h20.397L57.95 45.728l-10.2 30.14z" fill="#fff"/></svg>