<svg width="109" height="120" fill="none" xmlns="http://www.w3.org/2000/svg"><path fill-rule="evenodd" clip-rule="evenodd" d="M73.872 80.242H91.33v29.469H73.872V80.242zm-56.842 0h49.334v18.77a4.96 4.96 0 012.614 4.37v2.725c0 2.727-2.205 4.948-4.913 4.948H19.369c-2.708 0-4.913-2.221-4.913-4.948v-2.725a4.959 4.959 0 012.577-4.35v-18.79h-.003zm32.36-11.105c-2.52.377-9.736.137-12.987.137.358-.478 1.073-9.52 1.29-11.283.16-1.318.405-5.388 1.083-6.109 1.621-1.718 3.42-1.246 8.06-1.246.927 0 1.254.312 1.765.643.309.2 1.215.855 1.215 1.127 0 5.73-.426 11.114-.426 16.733v-.002zm14.263-18.504c5.783 0 8.22-.614 8.516 3.399.046.603.19.566.216 1.224.022.551-.003.768.119 1.283l1.152 10.148c.08 1.046.213 1.69.213 2.718l-12.773-.137c0-.975-.221-1.412-.216-2.447.034-4.353-.403-8.79-.426-12.926-.005-1.052.009-1.527.639-2.178.426-.438 1.465-1.09 2.558-1.09l.002.006zM25.12 69.543l-6.387.271c-2.22-.011-4.272.272-6.596.272 0-.884.902-4.108 1.183-5.229.443-1.766.877-3.478 1.309-5.148.241-.935 1.686-7.118 2.052-7.67 1.275-1.915 4.51-1.406 8.442-1.406.56 0 2.768 1.066 2.768 2.041l-1.34 8.396c-.253 1.266-.5 2.855-.752 4.145-.264 1.349-.679 2.958-.679 4.328zm60.461-18.91c9.33 0 7.607-.76 10.156 9.019.46 1.758.875 3.476 1.309 5.151l1.306 5.286-12.987-.41-2.727-15.398c-.18-1.024-.406-1.593.232-2.384.44-.544 1.53-1.264 2.708-1.264h.003zm-78.77-3.807c0 .748.12 1.583.583 2.075.488.523 1.189 1.037 2.188 1.186-.678 1.858-1.587 3.605-2.342 5.443L.002 75.703c1.524 0 2.89.008 4.104-.126l3.989-.223v38.188H4.05v6.451h100.697v-5.928c0-.832-1.425-.523-4.045-.523V75.005c1.553 0 2.356.18 4.045.178 1.419-.006 2.839-.003 4.258-.003l-9.793-25.096c2.001-.297 2.932-1.86 2.83-3.361H6.82l-.003.097-.005.006z" fill="#fff"/><path d="M9.392 19.2l1.85-1.278c.869-.62 1.828-.563 2.882.172 1.05.691 2.114 1.034 3.19 1.034 1.533 0 2.296-.46 2.296-1.38 0-.483-.28-.892-.84-1.227-.559-.334-1.81-.8-3.755-1.397-2.24-.692-3.909-1.664-5.007-2.919C8.909 10.95 8.36 9.355 8.36 7.423c0-2.256.812-4.06 2.436-5.406 1.623-1.346 3.806-2.02 6.551-2.02 3.108 0 5.68.817 7.715 2.452.548.46.795.955.738 1.483-.056.53-.383 1-.976 1.415l-1.578 1.107c-.823.574-1.783.551-2.881-.069-.642-.346-1.28-.517-1.922-.517-1.417 0-2.126.426-2.126 1.277 0 .53.287.96.857 1.295.57.335 1.783.8 3.636 1.398 2.379.76 4.099 1.721 5.16 2.884 1.065 1.164 1.596 2.699 1.596 4.611 0 2.324-.903 4.185-2.708 5.577-1.805 1.392-4.207 2.09-7.201 2.09-3.475 0-6.322-.955-8.539-2.867-.525-.483-.76-.99-.704-1.52.057-.53.383-1.001.977-1.416v.003zM31.03 2.486c0-1.38.687-2.073 2.058-2.073h3.772c1.371 0 2.058.692 2.058 2.073v6.32h5.899v-6.32c0-1.38.687-2.073 2.058-2.073h3.772c1.371 0 2.058.692 2.058 2.073v20.03c0 1.38-.687 2.072-2.058 2.072h-3.772c-1.371 0-2.058-.691-2.058-2.072V15.16h-5.899v7.355c0 1.38-.687 2.072-2.058 2.072h-3.772c-1.371 0-2.058-.691-2.058-2.072V2.486zm28.567 19.012c-2.172-2.335-3.259-5.337-3.259-8.996 0-3.662 1.087-6.66 3.259-8.996C61.769 1.168 64.672.002 68.308.002c3.637 0 6.538 1.169 8.712 3.504 2.172 2.336 3.259 5.337 3.259 8.996 0 3.662-1.087 6.66-3.259 8.996-2.171 2.338-5.075 3.505-8.712 3.505-3.636 0-6.537-1.17-8.711-3.505zm5.762-13.452c-.71 1.083-1.064 2.567-1.064 4.454 0 1.886.355 3.373 1.064 4.453.71 1.084 1.692 1.624 2.95 1.624 1.257 0 2.24-.54 2.949-1.624.71-1.083 1.064-2.567 1.064-4.454 0-1.886-.355-3.373-1.064-4.453-.71-1.084-1.692-1.624-2.95-1.624-1.257 0-2.24.54-2.949 1.624zm35.613-5.526c1.839 1.404 2.762 3.5 2.762 6.286 0 2.787-.92 4.88-2.762 6.286-1.84 1.404-4.349 2.107-7.528 2.107h-1.647v5.32c0 1.38-.686 2.072-2.057 2.072h-3.773c-1.37 0-2.058-.692-2.058-2.072V2.489c0-1.38.687-2.073 2.058-2.073h7.477c3.179 0 5.685.704 7.528 2.107V2.52zm-7.767 8.667c1.715 0 2.572-.794 2.572-2.384 0-1.589-.857-2.384-2.572-2.384H91.8v4.766h1.405v.002z" fill="#fff"/><path fill-rule="evenodd" clip-rule="evenodd" d="M19.366 101.059h44.696a2.323 2.323 0 012.308 2.324v2.724c0 1.278-1.04 2.324-2.308 2.324H19.366c-1.268 0-2.307-1.046-2.307-2.324v-2.724c0-1.278 1.038-2.324 2.307-2.324zM5.1 36.676h98.8A2.323 2.323 0 01106.207 39v2.724a2.323 2.323 0 01-2.308 2.324H5.101a2.323 2.323 0 01-2.308-2.324V39a2.323 2.323 0 012.308-2.324zM16.984 26.8h2.288a.9.9 0 01.894.901v6.126a.9.9 0 01-.894.9h-2.288a.9.9 0 01-.894-.9v-6.126a.9.9 0 01.894-.9zm16.803 0h2.288a.9.9 0 01.894.901v6.126a.9.9 0 01-.894.9h-2.288a.9.9 0 01-.894-.9v-6.126a.9.9 0 01.894-.9zm14.095 0h2.288a.9.9 0 01.894.901v6.126a.9.9 0 01-.894.9h-2.288a.9.9 0 01-.894-.9v-6.126a.9.9 0 01.894-.9zm19.272 0h2.288a.9.9 0 01.894.901v6.126a.9.9 0 01-.894.9h-2.288a.9.9 0 01-.894-.9v-6.126a.9.9 0 01.894-.9zm19.682 0h2.287a.9.9 0 01.894.901v6.126a.9.9 0 01-.894.9h-2.287a.9.9 0 01-.895-.9v-6.126a.9.9 0 01.895-.9z" fill="#EBA707"/></svg>