<svg width="53" height="53" fill="none" xmlns="http://www.w3.org/2000/svg"><path d="M13.706 29.222H7.444A5.444 5.444 0 002 34.666v10.89A5.444 5.444 0 007.444 51h32.667m0-10.89v.028M2 2l49 49" stroke="#EBA707" stroke-width="3" stroke-linecap="round" stroke-linejoin="round"/><path d="M29.223 29.222v10.889A10.888 10.888 0 0047.82 47.8M51 40.11V7.444A5.444 5.444 0 0045.555 2H34.667a5.444 5.444 0 00-5.444 5.444v10.89" stroke="#797979" stroke-width="3" stroke-linecap="round" stroke-linejoin="round"/><path d="M29.22 13.84l-5.444-5.444a5.444 5.444 0 00-5.744-1.255m-5.798 5.101l-3.855 3.852a5.444 5.444 0 000 7.698l24.5 24.5" stroke="#797979" stroke-width="3" stroke-linecap="round" stroke-linejoin="round"/><path d="M40.11 40.11v.028M2 2l49 49" stroke="#EBA707" stroke-width="3" stroke-linecap="round" stroke-linejoin="round"/></svg>