<svg width="62" height="61" fill="none" xmlns="http://www.w3.org/2000/svg"><path fill-rule="evenodd" clip-rule="evenodd" d="M8.237 38.73c0 1.945.807 3.172 2.041 4.169 3.21 2.591 8.393.17 8.393-3.586 0-2.322-.281-1.69-.357-2.563h5.93v7.338c0 .698.648 1.457 1.625.667a3.515 3.515 0 015.845 2.594c0 1.604-1.492 3.38-3.083 3.38-2.934 0-2.618-1.164-3.44-1.164-.573 0-.948.367-.948.93v7.454H3.613c-.364 0-.949-.535-.949-1.164V36.753h6.047c-.17.347-.474 1.474-.474 1.98v-.003zm32.015-1.98h7.351v20.032c0 .59-.427 1.164-1.067 1.164H26.022v-5.94c3.384 1.596 7.35-1.07 7.35-4.309v-.816c0-2.327-2.477-4.657-4.861-4.657-1.033 0-1.556-.02-2.49.465v-5.94h7.471c.448 0 .817-.286.963-.582.184-.38-.026-.71-.284-1.015-1.03-1.227-1.208-2.72-.322-4.108 2.428-3.799 8.428-.124 5.927 3.723-.217.334-1.074.865-.483 1.638.208.27.489.345.96.345zm-23.36-12.58c0 1.647.495 2.865 1.448 3.82 1.202 1.2 2.36 1.54 4.125 1.54.83 0 1.111-.297 1.778-.351v5.824h-7.588c-.488 0-.766.244-.874.655-.1.382.155.724.38.994 2.074 2.497.064 5.69-2.709 5.69-1.746 0-3.44-1.51-3.44-3.262 0-.942-.029-1.16.463-1.991.196-.328.16-.264.397-.543.79-.934-.02-1.543-.623-1.543H2.661V14.97c0-.73.659-1.164 1.422-1.164H24.24v5.939c-3.522-1.66-7.35 1.302-7.35 4.425h.002zm-15.89-9.432v42.395c0 .787.522 1.45.98 1.833.501.414 1.224.73 2.104.73h42.093c2.38 0 3.2-1.716 3.2-3.845v-19.8c0-1.413-1.717-1.048-3.32-1.048h-4.505c1.606-2.983-.883-7.22-4.388-7.22h-.71c-2.434 0-4.862 2.381-4.862 4.775 0 1.965.278 1.54.357 2.445h-5.93v-7.338c0-.84-.584-.931-1.067-.931-.24 0-2.709 2.51-5.303.2-2.162-1.924-.837-5.907 2.22-5.907 2.492 0 2.466 1.164 3.2 1.164.708 0 .948-.471.948-1.164V13.11c0-.426-.328-.931-.711-.931H3.609C2.305 12.178 1 13.459 1 14.74l.003-.003z" fill="#797979" stroke="#797979"/><path fill-rule="evenodd" clip-rule="evenodd" d="M31.608 10.579c0-.812.377-1.519.917-2.047 1.561-1.522 3.43-1.14 4.742.786.182.27.519.587.9.587 1.015 0 1.298-1.502 1.933-3.06l1.483-3.632c.32.151.753.267 1.097.399l14.569 5.68c2.52.986 2.253.478.216 5.447l-5.08 12.696c-.539-.043-4.124-1.47-4.647-1.74 1.026-1.5 1.231-1.5 1.231-3.613 0-3.493-4.903-6.227-8.377-3.113-.293.264-.816 1.033-1.015 1.416-.246.473-.452 1.301-.452 1.968-1.035-.238-3.413-1.46-4.647-1.74.3-.558 2.596-6.138 2.596-6.557 0-1.357-1.68-.67-2.735-.67-1.484 0-2.735-1.417-2.735-2.81l.004.003zm6.29-3.612c-1.407-.922-1.505-1.205-3.555-1.205-2.57 0-4.648 2.086-4.648 5.084 0 2.364 2.368 4.55 4.786 4.55-.347 1.46-2.189 4.87-2.189 5.89 0 .806 2.79 1.576 3.848 1.988.493.195 4.044 1.625 4.22 1.625 1.777 0 .508-1.991.85-3.18.967-3.384 5.85-2.532 5.85.77 0 .845-.451 1.598-.917 2.047-.556.541-1.41.597-1.41 1.565 0 .776 2.766 1.591 3.828 2.007 5.261 2.06 4.668 2.298 5.76-.383C55.226 25.513 61 11.692 61 10.843c0-1.628-.577-2.463-2.24-3.028-2.613-.891-7.746-3.018-10.454-4.084l-6.971-2.688C40.127.74 39.914 2.087 39.32 3.54l-1.426 3.424.003.004z" fill="#EBA707" stroke="#EBA707"/></svg>