<svg width="129" height="111" fill="none" xmlns="http://www.w3.org/2000/svg"><path d="M54 30H42a3 3 0 00-3 3v18a3 3 0 003 3h12a3 3 0 003-3V33a3 3 0 00-3-3zm-1.2 19.8h-9.6V34.2h9.6v15.6z" fill="#fff"/><path d="M95.13 25.14L82.86 12.87a3 3 0 00-2.1-.87h-15V6.15A6 6 0 0060 0H35.52A5.76 5.76 0 0030 6.15V12H15.24a3 3 0 00-2.13.87L.87 25.14A3 3 0 000 27.27V72a6 6 0 006 6h84a6 6 0 006-6V27.24a3 3 0 00-.87-2.1zM36 6h24v6H36V6zm54 33H60v5.79h30V72H6V44.79h30V39H6V28.5L16.5 18h63L90 28.5V39z" fill="#EBA707"/><path fill-rule="evenodd" clip-rule="evenodd" d="M128.069 56.708l-3.679-.868-9.943 9.89-5.632-5.738 9.698-10.177-.849-3.737a20.844 20.844 0 00-6.354-1.076 17.164 17.164 0 00-6.872 1.321 18.04 18.04 0 00-5.594 3.964 17.629 17.629 0 00-4.128 5.968 18.587 18.587 0 000 13.995A1581.89 1581.89 0 0065.6 99.665a6.66 6.66 0 00-1.34 4.544 6.621 6.621 0 002.189 4.562 6.981 6.981 0 002.061 1.548 7.144 7.144 0 002.538.599 6.202 6.202 0 004.028-1.59c7.302-6.875 21.292-20.997 29.24-29.273a17.338 17.338 0 006.811 1.382 17.62 17.62 0 0012.627-5.345 18.334 18.334 0 005.241-12.882c.054-2.203-.258-4.4-.925-6.502zm-55.847 49.275a1.47 1.47 0 01-.637.33c-.233.04-.47.04-.703 0a1.628 1.628 0 01-.68-.269 1.591 1.591 0 01-.537-.519c-.66-.675-1.278-1.958-.66-2.68 6.462-6.875 19.768-20.313 28.089-28.528a17.1 17.1 0 001.547 1.775 16.12 16.12 0 001.792 1.609c-8.047 8.257-21.17 21.534-28.207 28.282h-.004zm52.442-42.773a13.763 13.763 0 01-3.925 9.664 13.493 13.493 0 01-18.9 0 14.118 14.118 0 01-2.995-14.802 12.967 12.967 0 017.372-7.521 13.015 13.015 0 015.057-1.01h1.198L103.9 58.38v3.284l8.939 8.899h3.113l8.712-8.569v1.217zM73.67 71.821h7.221l3.325 3.383 3.199-3.18-3.137-3.199v-.203l.269-7.78-1.038-2.062-13.49-8.88-2.788.311-3.92 4.006L63 57.043l8.67 13.769 2 1.014v-.005zm-4.458-17.137l10.915 7.191-.184 5.299h-5.075L67.83 56.029l1.382-1.345zm33.514 32.84l3.179-3.175 14.65 15.028a6.979 6.979 0 010 9.621 6.616 6.616 0 01-7.306 1.486 6.162 6.162 0 01-2.061-1.486l-14.82-15.113 3.202-3.2 14.773 15.071c.199.219.446.389.722.496.543.22 1.15.22 1.693 0 .276-.107.523-.277.722-.496a2.06 2.06 0 00.472-.722c.108-.277.165-.571.17-.868a2.577 2.577 0 00-.166-.868 2.062 2.062 0 00-.471-.722l-14.759-15.052z" fill="#fff"/></svg>