<svg width="52" height="57" fill="none" xmlns="http://www.w3.org/2000/svg"><path d="M18.731 47.39h16.084m-13.403 8.042h10.722m6.701-25.466c2.681-2.68 3.96-5.396 4.021-9.382.129-8.175-5.36-13.402-16.083-13.402-3.131 0-5.814.445-8.042 1.278m0 30.888c0-5.36-1.34-6.701-4.02-9.382-2.681-2.68-3.96-5.396-4.021-9.382a15.06 15.06 0 01.45-4.02" stroke="#797979" stroke-width="3" stroke-linecap="round" stroke-linejoin="round"/><path d="M48.928 2l-2.383 2.45M6.04 2l2.383 2.45m40.506 31.861l-2.383-2.45M6.04 36.31l2.383-2.45M1.75 6.29L50 54.54" stroke="#EBA707" stroke-width="3" stroke-linecap="round" stroke-linejoin="round"/></svg>