<svg width="105" height="105" fill="none" xmlns="http://www.w3.org/2000/svg"><path fill-rule="evenodd" clip-rule="evenodd" d="M64.298 5.178h11.777c.023 1.078.344 2.627.472 3.768.151 1.365.33 2.577.49 3.983.441 3.85 2.807 21.332 2.807 23.563 0 7.066-11.198 9.898-14.279 2.032-.816-2.084-.795-12.892-.793-16.393 0-2.208-.25-3.671-.239-5.648.023-4.049-.233-7.493-.233-11.305h-.002zm-31.56 38.138c-4.4 0-7.535-3.79-7.535-6.591 0-2.776 2.722-22.72 3.278-27.565.142-1.248.465-2.85.49-3.984H40.75c0 3.81-.256 7.254-.233 11.305l-.273 11.262c-.522 4.653.998 11.223-3.159 14.028-.996.673-2.814 1.545-4.343 1.545h-.002zM0 36.018c0 2.722 1.328 5.787 2.555 7.334 3.507 4.424 8.807 6.187 14.262 4.298 1.152-.398 2.408-1.05 3.239-1.707 2.118-1.677 1.841-2.136 2.79-2.39.32 1.202 2.734 2.908 3.842 3.458 5.824 2.882 12.716 1.004 15.705-3.458 1.55 1.038 6.739 8.011 15.94 3.458 1.271-.63 3.362-2.388 4.08-3.458 1.596 1.07 6.739 7.959 15.705 3.458 1.034-.518 1.416-.806 2.299-1.468.759-.568 1.525-1.038 1.778-1.987 1.246.333.088.146 1.913 1.618 2.066 1.667 4.088 3.09 7.507 3.09v41.671H45.216v-32.96c0-5.392-5.18-4.123-5.18-1.413v44.26H13.421v-44.26c0-3.054-4.946-3.077-4.946 0v44.26c-3.052 0-8.48-.805-8.48 2.355 0 1.826 1.2 2.826 3.062 2.826h98.92c3.217 0 3.652-3.023 2.294-4.413-1.193-1.225-5.182-.768-7.712-.768V47.558c2.945-.246 7.111-4.747 8.067-8.65.753-3.068.124-4.271-.579-7.076L97.313 4.898C96.73 2.562 96.61 0 93.733 0H11.301c-2.06 0-2.649 1.174-3.066 2.82l-7.06 28.255c-.24.952-1.177 4.147-1.177 4.943H0z" fill="#FEFEFE"/><path fill-rule="evenodd" clip-rule="evenodd" d="M59.822 81.458c0 2.524 3.61 4.43 5.154.677 1.004-2.443 9.92-21.28 9.92-23.043 0-1.816-1.403-2.585-2.728-2.442-1.804.192-2.037 1.373-2.622 2.744-.529 1.239-1.093 2.304-1.617 3.564a88.227 88.227 0 01-1.67 3.746c-.686 1.468-6.439 14.38-6.439 14.754h.002zm14.135-7.3c0 2.205 3.238 4.992 5.34.394l3.238-7.357c.506-1.216 1.55-2.929 1.55-4.1 0-2.26-3.576-4.016-5.184-.475-.342.751-.663 1.497-1.007 2.292-.533 1.237-3.937 8.63-3.937 9.25v-.004zM33.916 80.75c4.333 0 2.904-4.943.941-4.943h-.941c-2.935 0-2.935 4.943 0 4.943z" fill="#EBA707"/></svg>