<svg width="200" height="263" fill="none" xmlns="http://www.w3.org/2000/svg"><path fill-rule="evenodd" clip-rule="evenodd" d="M24.736 245.514c.057-3.327.733-7.177 1.04-10.641.614-6.961 1.704-14.604 2.21-21.282.233-3.077-.386-2.634 2.005-3.861 5.233-2.674 12.409-8.131 17.948-11.458 4.602-2.76 9.988-6.309 17.322-5.69 3.62.301 6.931.602 10.187 1.635 3.29 1.045 5.545 1.993 8.505 3.26 12.158 5.19 15.254 5.388 27.424 7.648 6.692 1.244 18.595 2.345 24.838 4.571 5.409 1.925 5.131 7.995-.943 9.091-18.424 3.327-26.827.159-43.757-.023-2.233-.022-3.37-.011-4.403 1.431-1.091 1.528-.444 3.39.54 4.338 1.175 1.136 3.073.801 5.039.829 1.863.023 3.72.216 5.579.335 12.595.818 20.004 1.806 33.446.511 13.396-1.288 17.623-.794 31.168-3.94 3.21-.744 6.01-1.76 9.277-2.504 3.301-.75 6.903-1.335 10.499-1.284 2.733.04 7.92.773 8.954 2.584-.335 1.17-2.023 3.197-2.75 3.855-3.124 2.851-8.965 5.139-12.999 6.792-6.192 2.532-13.146 4.872-19.691 6.768-6.789 1.965-13.482 4.185-20.265 6.195-6.841 2.021-13.17 4.349-19.942 6.32-15.158 4.4-30.566 5.536-47.053 3.06-7.692-1.158-14.459-3.208-21.725-4.741-8.386-1.766-13.908-2.788-22.464-3.799h.011zm-13.732-38.526c.955 0 8.852 3.162 10.534 3.713.05 1.431-2.75 27.528-3.21 31.645-.085.778-.2 1.493-.273 2.243-.165 1.618.011 1.414-.517 1.891-.403.386-9.516 2.169-10.743 2.254l4.21-41.752v.006zm116.184-6.292c2.028-1.737 10.112-5.241 12.947-6.263 3.762-1.357 13.448-3.475 16.368-1.09-2.352 2.646-8.317 3.833-10.584 5.894-1.801 1.635-1 4.401.898 5.355 1.852.931 4.227-.727 5.891-1.517 6.619-3.128 17.476-7.273 26.367-6.802-.051.653-.568.977-1.005 1.402-.466.455-.733.739-1.222 1.136-2.102 1.681-14.686 3.822-17.22 6.683-2.039 2.306.557 5.537 2.756 5.275 1.374-.164 5.431-1.953 7.084-2.492 2.517-.824 4.801-1.562 7.38-2.215 5.136-1.289 11.914-2.402 16.425-.13-.205 1.215-3.187 2.776-4.312 3.424-6.767 3.906-6.125 1.941-12.073 2.844-2.301.352-4.073.642-6.289 1.142-7.17 1.612-16.823 4.985-24.839 5.172.136-1.169 1.687-4.446.17-8.136-3.783-9.188-17.339-8.438-18.748-9.676l.006-.006zm59.972-2.748c.602-1.385 1.153-1.09.983-3.52-.387-5.662-12.783-4.923-16.669-4.327l-7.238 1.385c-.483-.199-2.455-5.4-11.357-5.661-11.545-.341-22.265 4.651-31.486 10.641-2.08 1.351-3.716 2.873-5.369 2.686-9.289-1.056-19.124-3.418-27.14-6.791-9.323-3.924-15.981-6.979-27.355-6.377-11.846.625-23.88 11.998-33.475 17.29-3.187 1.76-2.244 1.925-5.954.596-2.824-1.016-10.278-4.292-12.851-3.901-1.699.256-3.727 2.005-4.426 4.004-.415 1.181-3.687 34.444-4.05 38.061-.557 5.53-2.302 10.379 2.47 13.003 2.171 1.192 4.432.386 6.892-.125 3.13-.659 11.397-2.595 14.152-2.618 4.699-.04 10.119 1.3 14.67 2.124 4.51.812 9.465 1.942 13.8 3.043 9.328 2.374 19.089 4.248 29.372 4.503 23.725.585 35.15-4.554 56.421-11.123 8.585-2.652 17.169-5.338 25.765-7.95 8.215-2.498 17.294-5.911 24.123-9.579 3.642-1.959 6.647-4.707 8.624-8.228.841-1.499 2-4.73 1.006-6.865-.903-1.93-3.301-2.907-4.386-4.003.528-.579 2.477-1.056 4.75-4.031 3.153-4.117 1.363-8.705-3.733-10.948-2.63-1.158-4.551-1.073-7.539-1.289z" fill="#C4C4C4"/><path fill-rule="evenodd" clip-rule="evenodd" d="M125.194 112.628c9.715-1.261 21.651 3.248 28.923 9.25 1.921 1.584 4.881 4.44 6.318 6.416 2.255 3.089 4.602 6.593 6.062 10.794 3.358 9.648 3.653 19.147.096 28.698-1.477 3.963-2.391 5.281-4.334 8.597-1.728 2.941.761 4.792 1.88 5.019 3.307.67 4.409-2.464 6.335-6.001 4.119-7.57 6.17-18.296 4.829-28.471-3.449-26.154-29.782-46.822-59.143-39.526-4.675 1.164-8.255 2.93-12.05 4.997-2.074 1.13-5.76 3.861-7.488 5.445-.886.812-1.454 1.21-2.187 1.919l-3.966 4.662c-12.817 16.456-13.481 40.582-.852 57.231 1.971 2.601 8.045 11.322 11.601 7.779 3-2.987-.869-5.531-2.914-7.637-1.404-1.442-2.449-2.964-3.784-4.645-1.193-1.499-2.244-3.464-3.159-5.275-6.528-12.941-5.613-27.511 2.051-40.19 1.114-1.84 2.284-3.271 3.574-4.849l4.232-4.208c.824-.642 1.512-1.278 2.358-1.948 6.204-4.906 13.573-6.99 21.623-8.034l-.005-.023z" fill="#C4C4C4"/><path fill-rule="evenodd" clip-rule="evenodd" d="M131.437 169.427v-11.044c6.266 1.584 6.068 9.943 0 11.044zm-6.625-20.822c-1.068 0-2.744-1.147-3.317-1.766-2.733-2.918-.887-8.994 3.317-9.062v10.828zm-7.999 24.468c3.642 3.418 6.539 2.629 7.891 3.06.33 1.017-.437 3.589 1.762 4.923.46.278 1.056.392 1.704.375 4.011-.102 3.108-4.389 3.255-5.298.665-.284 1.79-.312 2.58-.568 9.141-2.947 11.345-13.82 5.13-20.106-2.557-2.584-5.147-2.862-7.59-4.179-.432-1.761-.131-11.289-.074-13.736 5.005-.04 4.289 4.764 5.227 6.042.647.886 2.176 1.947 3.653 1.306 4.465-1.931 1.625-8.449-1.08-10.925-2.982-2.731-4.891-2.578-7.919-3.044.034-1.624.369-2.424-.529-3.793-1.659-2.526-4.585-1.697-5.562.131-.767 1.436-.301 2.163-.426 3.662-4.306.886-5.511 1.602-8.022 3.958-4.215 3.952-4.749 11.862.358 16.87 2.028 1.993 4.437 2.936 7.63 4.088l-.051 13.617c-.813.113-1.761-.057-2.381-.381-2.602-1.346-1.874-3.923-2.772-5.457-1.449-2.475-5.977-1.8-6.13 1.812-.131 3.072 1.954 6.342 3.34 7.643h.006zm44.605-90.705c-.494 4.247-2.108 6.99-4.437 9.006-8.75 7.586-23.379 1.033-22.186-11.39.392-4.06 2.477-6.962 4.562-8.774 9.386-8.125 23.368-.17 22.055 11.158h.006zm-16.601-20.85c-9.897 1.896-18.317 10.942-16.419 23.178 2.199 14.207 20.975 23.423 34.366 10.317.421-.414.693-.863 1.125-1.43 11.886-15.724-2.914-35.154-19.072-32.06v-.005zm-24.367-21.77c4.738-.897 8.465 2.754 9.039 6.615 1.568 10.596-14.237 12.566-15.766 2.271-.335-2.271.642-4.775 1.716-6.03 1.182-1.38 2.596-2.402 5.011-2.862v.006zm-.67-6.615c-12.624 1.732-17.164 17.188-7.392 25.648 4.244 3.674 10.908 4.673 16.544 1.414 4.761-2.754 8.09-8.495 7.198-14.593-1.034-7.064-7.738-13.65-16.345-12.475l-.005.006zM102.269 68.57c-1.204.267-2.335 1.362-2.681 2.27-.37.966-.188 3.459-.188 4.674l-.005 19.783c-.006 1.59-.25 3.14.522 4.338.489.761 1.773 1.936 3.284 1.652 3.318-.619 2.852-3.617 2.829-6.972l-.017-19.783c.017-1.5.159-3.305-.483-4.4-.482-.824-1.852-1.88-3.261-1.568v.006zm19.039-63.38l.069 11.896c.653 3.06 5.465 3.623 6.329.182.193-.761.306-12.759.09-14.428-.409-3.123-3.925-3.595-5.709-1.778-.943.96-.784 2.527-.779 4.128zm28.759 18.5c-1.744.374-2.829 1.663-2.915 3.622l.029 13.14c.38 3.514 6.374 4.661 6.465-.784l-.034-13.117c-.165-1.635-1.778-3.242-3.545-2.862zm21.822 19.232c-1.767.437-2.738 1.71-2.784 3.787l.052 12.935c.284 3.243 6.459 4.742 6.482-1.175l-.062-12.912c-.211-1.534-1.853-3.09-3.688-2.64v.005z" fill="#C4C4C4"/></svg>