<svg width="458" height="353" fill="none" xmlns="http://www.w3.org/2000/svg"><path d="M103.472 0H1.972A1.97 1.97 0 000 1.97v166.672a1.97 1.97 0 001.971 1.97h101.501a1.97 1.97 0 001.971-1.97V1.969A1.97 1.97 0 00103.472 0z" fill="#4A4A4A"/><path d="M29.104 124.469V133H27.99v-8.531h1.114zm2.742 0v.926h-6.592v-.926h6.592zm3.908 5.701l2.256-5.701h1.3l-3.017 7.107a6.152 6.152 0 01-.287.58 2.131 2.131 0 01-.387.492c-.152.145-.342.26-.568.346-.223.086-.5.129-.832.129-.094 0-.205-.006-.334-.018a1.315 1.315 0 01-.252-.029l.035-.902c.043.008.127.015.252.023.125.004.217.006.275.006.223 0 .399-.045.528-.135a1.03 1.03 0 00.31-.339 5.1 5.1 0 00.223-.428l.498-1.131zm-1.916-5.701l2.373 5.314.281 1.049-.949.07-2.97-6.433h1.265zm9.44.756L40.452 133H39.3l3.252-8.531h.744l-.018.756zM45.644 133l-2.83-7.775-.018-.756h.744L46.805 133h-1.16zm-.147-3.158v.926h-4.793v-.926h4.793zm8.04-5.373v.926h-3.903v-.926h3.902zm.972 0V133h-1.131v-8.531h1.13zm-5.262 0h1.125l-.193 4.177a17.385 17.385 0 01-.14 1.612 6.56 6.56 0 01-.27 1.224c-.118.344-.27.629-.458.856a1.723 1.723 0 01-.69.498c-.27.109-.595.164-.974.164h-.304v-.92l.234-.018c.219-.015.406-.064.563-.146a1.09 1.09 0 00.404-.387c.113-.172.205-.394.275-.668.07-.273.125-.607.164-1.002.043-.398.076-.863.1-1.394l.164-3.996zm12.72 7.611v.92H57.45v-.92h4.518zm-4.288-7.611V133h-1.131v-8.531h1.13zm3.691 3.668v.92h-3.92v-.92h3.92zm.54-3.668v.926h-4.46v-.926h4.46zm4.728 0V133h-1.114v-8.531h1.114zm2.742 0v.926h-6.592v-.926h6.592zm2.18 3.474h2.326c.625 0 1.152.106 1.582.317.43.207.756.498.978.873.223.375.334.814.334 1.318 0 .375-.062.719-.187 1.031a2.24 2.24 0 01-.557.809 2.558 2.558 0 01-.908.527 3.89 3.89 0 01-1.242.182h-3.188v-8.531h1.131v7.611h2.057c.418 0 .756-.076 1.013-.228.262-.157.453-.36.575-.61.12-.25.181-.517.181-.803 0-.285-.06-.546-.181-.785a1.326 1.326 0 00-.575-.568c-.257-.145-.595-.217-1.013-.217H71.56v-.926zm7.382-3.474V133h-1.13v-8.531h1.13z" fill="#fff"/><path d="M68.736 109.666H36.002v2.393h32.734v-2.393zM37.538 52.087a6.778 6.778 0 006.246-7.273 6.78 6.78 0 00-7.28-6.24 6.778 6.778 0 00-6.245 7.273 6.78 6.78 0 007.279 6.24zm7.118 2.876H29.393c-3.385 0-5.59 4.595-4.072 8.504l8.615 22.217c1.167 3.023 5.018 3.023 6.19 0l8.606-22.195c1.513-3.93-.688-8.526-4.076-8.526zm26.134-2.989a6.8 6.8 0 006.24-7.319 6.802 6.802 0 00-7.325-6.234 6.8 6.8 0 00-6.24 7.318 6.802 6.802 0 007.325 6.235zM60.282 87.948h19.18c3.384 0 5.588-4.203 4.07-7.774L73.419 56.696a3.305 3.305 0 00-3.116-2.233h-.71a3.308 3.308 0 00-3.107 2.215l-10.292 23.5c-1.495 3.567.705 7.77 4.09 7.77z" fill="#EBA707"/><path d="M220.66 0H119.159a1.97 1.97 0 00-1.971 1.97v166.672a1.97 1.97 0 001.971 1.97H220.66a1.97 1.97 0 001.971-1.97V1.969A1.97 1.97 0 00220.66 0z" fill="#4A4A4A"/><path d="M161.866 51.046a6.778 6.778 0 006.611-6.944 6.78 6.78 0 00-6.949-6.605 6.78 6.78 0 00-6.611 6.943 6.78 6.78 0 006.949 6.606zm36.333 26.018l-12.872-12.279a7.65 7.65 0 00-4.059-2.017h-7.478l-8.472-8.08a3.843 3.843 0 00-4.353-.985l-.761.32a3.854 3.854 0 00-2.321 3.783l-.138 11.86a11.18 11.18 0 0010.132 11.264 11.2 11.2 0 005.429-.838l10.629-4.51 9.121 7.507a3.963 3.963 0 005.165-.156c1.716-1.541 1.625-4.267-.022-5.869z" fill="#EBA707"/><path d="M186.732 83.38a9.61 9.61 0 00-9.233-.653l-3.795 1.576a14.395 14.395 0 01-18.298-6.42 14.364 14.364 0 01-1.715-6.804V53.37h-5.248v17.71a19.567 19.567 0 008.785 16.353 19.596 19.596 0 0018.499 1.674l3.428-1.442.501-.19a4.425 4.425 0 015.722 1.898 4.43 4.43 0 01.542 2.118 4.425 4.425 0 01-4.422 4.419h-23.753v5.221h23.753a9.65 9.65 0 009.275-6.915 9.637 9.637 0 00-4.041-10.836z" fill="#EBA707"/><path d="M200.366 139.024l-1.837-1.832 8.593-8.586-8.403-8.396 1.833-1.831 10.24 10.227-10.426 10.418zm-66.762-16.12h-1.014v-.72h.972c.43 0 .778-.061 1.043-.182.266-.121.459-.289.581-.504a1.49 1.49 0 00.181-.744c0-.27-.066-.516-.199-.738a1.369 1.369 0 00-.615-.539c-.278-.137-.635-.206-1.073-.206-.328 0-.625.063-.89.188a1.542 1.542 0 00-.633.51 1.234 1.234 0 00-.234.744h-1.131c0-.363.076-.69.228-.979.153-.293.362-.541.627-.744.266-.207.573-.365.92-.474a3.71 3.71 0 011.113-.164c.458 0 .872.052 1.243.158.371.101.689.254.955.457.265.203.468.455.609.756.141.3.211.65.211 1.048 0 .293-.068.569-.205.827a2.1 2.1 0 01-.586.679c-.254.196-.559.35-.914.463-.355.11-.752.164-1.189.164zm-1.014-.498h1.014c.48 0 .908.049 1.283.147.375.097.691.24.949.427.258.188.453.42.586.698.137.273.205.588.205.943 0 .399-.078.752-.234 1.061-.153.308-.37.57-.651.785a2.942 2.942 0 01-1.002.486 4.586 4.586 0 01-1.26.164c-.367 0-.73-.047-1.089-.14a3.178 3.178 0 01-.967-.446 2.32 2.32 0 01-.697-.773c-.172-.313-.258-.688-.258-1.125h1.131c0 .285.078.547.234.785.16.238.381.43.662.574.281.141.609.211.984.211.43 0 .793-.066 1.09-.199.301-.137.53-.322.686-.557.16-.238.24-.506.24-.802 0-.262-.043-.489-.129-.68a1.158 1.158 0 00-.369-.481 1.57 1.57 0 00-.603-.275 3.283 3.283 0 00-.833-.094h-.972v-.709zm8.683-3.181L138.449 127h-1.154l3.252-8.531h.744l-.018.756zm2.368 7.775l-2.83-7.775-.018-.756h.744l3.264 8.531h-1.16zm-.147-3.158v.926h-4.793v-.926h4.793zm8.039-5.373v.926h-3.902v-.926h3.902zm.973 0V127h-1.131v-8.531h1.131zm-5.262 0h1.125l-.193 4.177a17.375 17.375 0 01-.141 1.612 6.54 6.54 0 01-.269 1.224 2.72 2.72 0 01-.457.856 1.724 1.724 0 01-.692.498 2.59 2.59 0 01-.972.164h-.305v-.92l.234-.018c.219-.015.406-.064.563-.146.16-.086.295-.215.404-.387.113-.172.205-.394.275-.668.071-.273.125-.607.164-1.002.043-.398.077-.863.1-1.394l.164-3.996zm-10.945 17.752v.449c0 .534-.067 1.012-.2 1.435a3.092 3.092 0 01-.577 1.08c-.25.296-.551.522-.903.678a2.82 2.82 0 01-1.172.235c-.42 0-.805-.078-1.157-.235a2.6 2.6 0 01-.908-.678 3.165 3.165 0 01-.591-1.08 4.554 4.554 0 01-.21-1.435v-.449c0-.534.068-1.011.205-1.431a3.16 3.16 0 01.591-1.079c.254-.3.555-.527.903-.684a2.826 2.826 0 011.158-.234c.432 0 .823.078 1.171.234.352.157.653.384.904.684.254.296.447.656.581 1.079.136.42.205.897.205 1.431zm-.933.449v-.459c0-.423-.044-.798-.132-1.123a2.31 2.31 0 00-.376-.82 1.615 1.615 0 00-.61-.503 1.852 1.852 0 00-.81-.171c-.293 0-.559.057-.796.171a1.674 1.674 0 00-.606.503 2.466 2.466 0 00-.386.82c-.091.325-.136.7-.136 1.123v.459c0 .426.045.804.136 1.133.092.325.222.6.391.825.173.221.376.389.61.503.238.114.503.171.796.171.306 0 .578-.057.816-.171.237-.114.438-.282.6-.503.166-.225.292-.5.376-.825a4.55 4.55 0 00.127-1.133zm4.273.083l-2.539-3.862h1.103l1.89 3.081h1.338l-.152.781h-1.64zm.507-.073l-2.065 3.32h-1.172l2.642-4.131.595.811zm1.69-3.789V140h-.933v-7.109h.933zm3.769 0l-2.548 3.862h-1.592l-.147-.781h1.289l1.89-3.081h1.108zm-.986 7.109l-2.06-3.32.6-.811 2.632 4.131h-1.172zm3.047-1.631l3.501-5.478h.942V140h-.942v-5.483L147.666 140h-.937v-7.109h.937v5.478zm11.855.864V140h-5.38v-.767h5.38zm-5.229 0v2.515h-.933l-.005-2.515h.938zm6.05 0l-.01 2.51h-.933v-2.51h.943zm-1.743-6.342v.771h-3.116v-.771h3.116zm.81 0V140h-.937v-7.109h.937zm-4.248 0h.943l-.147 2.861c-.019.43-.06.827-.122 1.191a7.992 7.992 0 01-.23.992 5.325 5.325 0 01-.312.805 3.72 3.72 0 01-.376.611 2.316 2.316 0 01-.42.42 1.451 1.451 0 01-.435.229h-.429v-.767h.303c.084-.091.18-.223.288-.395a4.02 4.02 0 00.327-.669c.11-.277.206-.614.288-1.011.085-.397.141-.866.171-1.406l.151-2.861zm8.999.63L161.807 140h-.962l2.71-7.109h.62l-.015.63zm1.973 6.479l-2.359-6.479-.014-.63h.62L167.1 140h-.967zm-.122-2.632v.772h-3.994v-.772h3.994zm6.684-1.421v.767h-3.847v-.767h3.847zm-3.701-3.056V140h-.942v-7.109h.942zm4.522 0V140h-.938v-7.109h.938zm2.656 5.478l3.501-5.478h.942V140h-.942v-5.483L176.172 140h-.938v-7.109h.938v5.478zm10.102-1.138h-1.997l-.464-.19c-.514-.163-.909-.412-1.186-.747-.277-.339-.415-.759-.415-1.26 0-.459.101-.848.303-1.167.205-.319.494-.561.869-.727.377-.166.823-.249 1.338-.249h2.275V140h-.942v-6.338h-1.333c-.521 0-.913.124-1.177.371-.26.248-.391.581-.391 1.001 0 .274.057.518.171.733.117.214.29.384.518.507.228.124.511.186.849.186h1.587l-.005.771zm-1.601-.488L182.944 140h-1.001l1.778-3.257h.952z" fill="#fff"/><path d="M337.977 0H236.476a1.97 1.97 0 00-1.971 1.97v166.672a1.97 1.97 0 001.971 1.97h101.501a1.97 1.97 0 001.971-1.97V1.969A1.97 1.97 0 00337.977 0z" fill="#4A4A4A"/><path d="M307.785 109.666h-32.734v2.393h32.734v-2.393zm-22.742-73.76h-1.11v17.406a5.531 5.531 0 01-4.595 5.446V35.906h-5.546v22.852a5.53 5.53 0 01-4.595-5.446V35.906h-1.111a4.43 4.43 0 00-4.413 4.431v12.957a11.058 11.058 0 002.902 7.5 11.076 11.076 0 007.217 3.557v35.17h5.546V64.35a11.077 11.077 0 007.219-3.537 11.06 11.06 0 002.921-7.485V40.372a4.416 4.416 0 00-1.286-3.156 4.448 4.448 0 00-3.149-1.31zm25.452 23.696v-20.73a3.2 3.2 0 00-1.841-2.894 3.2 3.2 0 00-3.403.436 18.211 18.211 0 00-6.565 13.993v17.298a8.898 8.898 0 001.755 5.308 8.915 8.915 0 004.577 3.217v23.275h5.541V59.602h-.064z" fill="#EBA707"/><path d="M263.512 122.318h1.412c.492 0 .947.084 1.365.252.422.164.789.399 1.102.703.316.305.562.668.738 1.09.176.418.264.881.264 1.389s-.088.973-.264 1.394a3.27 3.27 0 01-.738 1.096c-.313.305-.68.541-1.102.709a3.705 3.705 0 01-1.365.246h-1.412a3.71 3.71 0 01-1.366-.246 3.251 3.251 0 01-1.834-1.793 3.68 3.68 0 01-.257-1.394c0-.508.086-.971.257-1.389.176-.422.42-.785.733-1.09a3.364 3.364 0 011.101-.715 3.632 3.632 0 011.366-.252zm0 .891c-.512 0-.946.107-1.301.322a2.033 2.033 0 00-.809.891c-.183.383-.275.83-.275 1.342 0 .386.051.736.152 1.048.106.313.26.581.463.803.203.223.453.395.75.516s.637.181 1.02.181h1.424c.507 0 .937-.105 1.289-.316a2.07 2.07 0 00.808-.896c.188-.387.281-.836.281-1.348a3.23 3.23 0 00-.158-1.043 2.229 2.229 0 00-.463-.803 1.991 1.991 0 00-.744-.515 2.638 2.638 0 00-1.013-.182h-1.424zm1.254-2.092v9.235h-1.084v-9.235h1.084zm7.699 6.053l2.256-5.701h1.3l-3.017 7.107a6.25 6.25 0 01-.287.58 2.157 2.157 0 01-.387.492c-.152.145-.342.26-.568.346-.223.086-.5.129-.832.129-.094 0-.205-.006-.334-.018a1.312 1.312 0 01-.252-.029l.035-.902c.043.008.127.015.252.023.125.004.217.006.275.006.223 0 .399-.045.528-.135.128-.089.232-.203.31-.339.082-.141.156-.284.223-.428l.498-1.131zm-1.916-5.701l2.373 5.314.281 1.049-.949.07-2.971-6.433h1.266zm13.049 7.611v.92h-6.457v-.92h6.457zm-6.276 0v3.018h-1.119l-.006-3.018h1.125zm7.26 0l-.012 3.012h-1.119v-3.012h1.131zm-2.092-7.611v.926h-3.738v-.926h3.738zm.973 0V130h-1.125v-8.531h1.125zm-5.098 0h1.131l-.176 3.433c-.023.516-.072.993-.146 1.43a9.54 9.54 0 01-.276 1.189c-.109.36-.234.682-.375.967-.14.282-.291.526-.451.733-.16.203-.328.371-.504.504-.172.129-.345.22-.521.275h-.516v-.92h.364c.101-.109.216-.268.345-.475.133-.207.264-.474.393-.802a7.22 7.22 0 00.346-1.213c.101-.477.169-1.039.205-1.688l.181-3.433zm8.731 0V130h-1.131v-8.531h1.131zm5.256 0l-3.704 4.693h-2.003l-.176-.937h1.506l2.976-3.756h1.401zM291.215 130l-3.205-3.984.633-.991 3.955 4.975h-1.383zm8.789-4.535v.539c0 .641-.08 1.215-.24 1.723-.16.507-.391.939-.692 1.294a3 3 0 01-1.084.815 3.404 3.404 0 01-1.406.281 3.39 3.39 0 01-1.389-.281 3.115 3.115 0 01-1.089-.815 3.772 3.772 0 01-.709-1.294c-.168-.508-.252-1.082-.252-1.723v-.539c0-.641.082-1.213.246-1.717.168-.508.404-.939.709-1.295a3.029 3.029 0 011.084-.82 3.37 3.37 0 011.388-.281c.52 0 .989.093 1.407.281.421.187.783.461 1.084.82.304.356.537.787.697 1.295.164.504.246 1.076.246 1.717zm-1.119.539v-.551c0-.508-.053-.957-.158-1.348a2.795 2.795 0 00-.452-.984 1.932 1.932 0 00-.732-.603 2.218 2.218 0 00-.973-.206c-.351 0-.67.069-.955.206a2.009 2.009 0 00-.726.603c-.2.266-.354.594-.463.984-.11.391-.164.84-.164 1.348v.551c0 .512.054.965.164 1.359.109.391.265.721.469.991.207.265.451.466.732.603.285.137.603.205.955.205.367 0 .693-.068.979-.205.285-.137.525-.338.72-.603.199-.27.35-.6.451-.991.102-.394.153-.847.153-1.359zm5.959.65h-2.28v-.92h2.28c.441 0 .799-.07 1.072-.211.273-.14.473-.335.598-.585.129-.25.193-.536.193-.856a1.82 1.82 0 00-.193-.826 1.43 1.43 0 00-.598-.621c-.273-.16-.631-.24-1.072-.24h-2.016V130h-1.131v-8.531h3.147c.644 0 1.189.111 1.635.334.445.222.783.531 1.013.926.231.39.346.837.346 1.341 0 .547-.115 1.014-.346 1.401-.23.386-.568.681-1.013.884-.446.2-.991.299-1.635.299zm7.576-5.185V130h-1.113v-8.531h1.113zm2.742 0v.926h-6.592v-.926h6.592z" fill="#fff"/><path d="M455.045 0H353.543a1.97 1.97 0 00-1.971 1.97v166.672a1.97 1.97 0 001.971 1.97h101.502a1.97 1.97 0 001.971-1.97V1.969A1.97 1.97 0 00455.045 0z" fill="#4A4A4A"/><path d="M425.629 109.666h-32.734v2.393h32.734v-2.393zm-41.876-57.89a6.78 6.78 0 006.782-6.777 6.78 6.78 0 00-6.782-6.776 6.779 6.779 0 00-6.782 6.776 6.779 6.779 0 006.782 6.777zm7.637 2.859h-15.275c-3.385 0-5.585 4.595-4.072 8.5l8.615 22.22c1.171 3.024 5.022 3.024 6.19 0l8.614-22.22c1.517-3.905-.687-8.5-4.072-8.5zm34.476-16.754a6.777 6.777 0 00-5.608-7.775 6.781 6.781 0 00-7.781 5.603 6.778 6.778 0 005.608 7.775 6.781 6.781 0 007.781-5.603zm4.98 17.1v-.052c1.513-3.887-.691-8.5-4.076-8.5h-15.267c-3.384 0-5.589 4.596-4.076 8.5v.052h-7.456v5.693h38.371V54.98h-7.496zm-26.479 31.831a3.5 3.5 0 003.501 3.498h22.452a3.5 3.5 0 003.501-3.498v-4.103h-29.454v4.103zm25.952-16.081h-5.187v-4.176h-12.103v4.176h-5.187a3.503 3.503 0 00-3.501 3.499v4.098h29.453V74.23a3.497 3.497 0 00-3.475-3.498zm-14.528 0v-1.42h6.605v1.42h-6.605z" fill="#EBA707"/><path d="M366.631 126.654h-2.279v-.92h2.279c.441 0 .799-.07 1.072-.211a1.31 1.31 0 00.598-.585c.129-.25.193-.536.193-.856a1.82 1.82 0 00-.193-.826 1.424 1.424 0 00-.598-.621c-.273-.16-.631-.24-1.072-.24h-2.016V130h-1.131v-8.531h3.147c.644 0 1.189.111 1.635.334.445.222.783.531 1.013.926.231.39.346.837.346 1.341 0 .547-.115 1.014-.346 1.401-.23.386-.568.681-1.013.884-.446.2-.991.299-1.635.299zm9.844 2.426v.92h-4.518v-.92h4.518zm-4.289-7.611V130h-1.131v-8.531h1.131zm3.691 3.668v.92h-3.92v-.92h3.92zm.539-3.668v.926h-4.459v-.926h4.459zm6.75 0v.926h-4.113V130h-1.125v-8.531h5.238zm2.566 6.574l4.202-6.574h1.13V130h-1.13v-6.58l-4.202 6.58h-1.125v-8.531h1.125v6.574zm12.539-.756h1.125a3.573 3.573 0 01-.462 1.447c-.25.426-.604.764-1.061 1.014-.457.246-1.027.369-1.711.369-.5 0-.955-.094-1.365-.281a3.04 3.04 0 01-1.049-.797 3.751 3.751 0 01-.68-1.248 5.333 5.333 0 01-.234-1.629v-.85c0-.597.078-1.138.234-1.623a3.67 3.67 0 01.686-1.253 3.05 3.05 0 011.084-.803 3.46 3.46 0 011.424-.281c.644 0 1.189.121 1.634.363.446.242.792.578 1.038 1.008.25.425.404.92.462 1.482h-1.125a3.13 3.13 0 00-.304-1.025 1.59 1.59 0 00-.633-.668c-.273-.157-.631-.235-1.072-.235-.379 0-.713.073-1.002.217-.285.145-.526.35-.721.615a2.882 2.882 0 00-.434.955 4.898 4.898 0 00-.146 1.237v.861c0 .418.043.811.129 1.178.09.367.224.689.404.967a2 2 0 00.686.656c.277.156.605.234.984.234.481 0 .863-.076 1.149-.228.285-.153.5-.371.644-.657.149-.285.254-.626.316-1.025zm5.643-5.818V130h-1.113v-8.531h1.113zm2.742 0v.926h-6.592v-.926h6.592zm4.412 5.185h-2.279v-.92h2.279c.442 0 .799-.07 1.073-.211.273-.14.472-.335.597-.585.129-.25.194-.536.194-.856 0-.293-.065-.568-.194-.826a1.427 1.427 0 00-.597-.621c-.274-.16-.631-.24-1.073-.24h-2.015V130h-1.131v-8.531h3.146c.645 0 1.19.111 1.635.334a2.36 2.36 0 011.014.926c.23.39.345.837.345 1.341 0 .547-.115 1.014-.345 1.401a2.217 2.217 0 01-1.014.884c-.445.2-.99.299-1.635.299zm6.774-4.429L415.018 130h-1.155l3.252-8.531h.744l-.017.756zm2.367 7.775l-2.83-7.775-.018-.756h.744l3.264 8.531h-1.16zm-.147-3.158v.926h-4.792v-.926h4.792zm9.85 2.209l-.105 3.006h-1.014V130h-.838v-.949h1.957zm-7.365.949v-8.531h1.137v7.611h4.201v-7.611h1.131V130h-6.469zm9.92-1.957l4.201-6.574h1.131V130h-1.131v-6.58l-4.201 6.58h-1.125v-8.531h1.125v6.574zm12.123-1.365h-2.397l-.556-.229c-.617-.195-1.092-.494-1.424-.896-.332-.407-.498-.91-.498-1.512 0-.551.121-1.018.363-1.4a2.322 2.322 0 011.043-.873c.453-.2.988-.299 1.606-.299h2.73V130h-1.131v-7.605h-1.599c-.625 0-1.096.148-1.413.445-.312.297-.468.697-.468 1.201 0 .328.068.621.205.879.14.258.347.461.621.609.273.149.613.223 1.019.223h1.905l-.006.926zm-1.922-.586L440.594 130h-1.201l2.132-3.908h1.143z" fill="#fff"/><path d="M456.029 189.305H236.476a1.97 1.97 0 00-1.971 1.969v158.994a1.97 1.97 0 001.971 1.969h219.553a1.97 1.97 0 001.971-1.969V191.274a1.97 1.97 0 00-1.971-1.969z" fill="#4A4A4A"/><path d="M415.224 224.754l-1.832-1.835 8.653-8.647-8.468-8.456 1.838-1.832 10.296 10.288-10.487 10.482zm0 41.099l-1.832-1.831 8.653-8.646-8.468-8.457 1.838-1.831 10.296 10.288-10.487 10.477zm7.548 41.104l-10.296-10.288 10.486-10.478 1.833 1.832-8.654 8.646 8.464 8.457-1.833 1.831zm4.879 34.669l-8.653-8.647-8.464 8.457-1.837-1.831 10.301-10.293 10.486 10.483-1.833 1.831zm-153.444-17.194h-.402v6.318a2.002 2.002 0 01-1.669 1.974v-8.292h-2.014v8.292a2.002 2.002 0 01-1.669-1.974v-6.318h-.402a1.608 1.608 0 00-1.608 1.611v4.707a4.012 4.012 0 003.679 4v12.762h2.014V334.75a4.015 4.015 0 003.679-4v-4.707a1.612 1.612 0 00-1.608-1.611zm9.233 8.598v-7.523a1.157 1.157 0 00-1.307-1.15 1.162 1.162 0 00-.595.256 6.626 6.626 0 00-2.386 5.083v6.275a3.231 3.231 0 002.3 3.093v8.448h2.01V333.03h-.022z" fill="#EBA707"/><path d="M383.757 234.801H234.505v1.196h149.252v-1.196zm0 38.654H234.505v1.196h149.252v-1.196zm0 38.66H234.505v1.197h149.252v-1.197z" fill="#fff"/><path d="M279.646 200.254h-5.17a.662.662 0 00-.662.661v1.485c0 .365.297.661.662.661h5.17a.661.661 0 00.661-.661v-1.485a.661.661 0 00-.661-.661zm-12.713 23.08a.66.66 0 00.661.661h1.604a.667.667 0 00.665-.661v-2.268h-2.93v2.268zm17.329 0a.664.664 0 00.661.661h1.608a.662.662 0 00.661-.661v-2.268h-2.93v2.268zm4.914-10.538h-.065a1.293 1.293 0 01-1.227-.834l-1.911-4.651a4.789 4.789 0 00-4.577-3.356h-8.472a4.788 4.788 0 00-4.496 3.2l-.026.065-2.161 4.751a1.288 1.288 0 01-.483.584 1.29 1.29 0 01-.727.215 1.323 1.323 0 00-1.323 1.296l-.03 4.751a1.32 1.32 0 001.296 1.317h24.207a1.324 1.324 0 001.296-1.296l.031-4.751a1.297 1.297 0 00-1.332-1.291zm-18.543-5.105a1.814 1.814 0 011.651-1.075h9.721a1.802 1.802 0 011.682 1.153l1.253 3.243-15.751-.026 1.444-3.295zm-2.235 9.23a1.44 1.44 0 01-.802-.244 1.44 1.44 0 01-.219-2.219 1.445 1.445 0 012.043 2.041 1.44 1.44 0 01-1.022.422zm17.329 0a1.44 1.44 0 01-.802-.244 1.44 1.44 0 01-.219-2.219 1.445 1.445 0 012.465 1.02 1.442 1.442 0 01-1.453 1.443h.009zm-12.423 67.145h4.94v1.287h1.349v-2.634h-7.638v2.634h1.349v-1.287zm11.549 17.842h-18.159v2.065h18.159v-2.065zm-16.158-2.173h2.161v-13.03h-2.161a2.209 2.209 0 00-2.209 2.207v8.616a2.207 2.207 0 002.209 2.207zm3.489 0h7.473v-13.03h-7.473v13.03zm10.668-13.03h-1.846v13.03h1.846a2.208 2.208 0 002.208-2.207v-8.616a2.205 2.205 0 00-2.208-2.207zm3.398-25.719h-14.265v2.117h14.265v-2.117zm-22.054-1.791a1.62 1.62 0 010-.613s1.025-2.16 1.911-3.045c1.353-1.352 2.891-1.832 4.69-2.289l2.221-.571 4.059-5.735a.557.557 0 01.26-.199l1.132-.432a.354.354 0 01.361.076.347.347 0 01.093.356l-1.677 4.799a.029.029 0 00-.005.018.037.037 0 00.008.018c.004.005.01.008.017.009a.025.025 0 00.019-.002l5.407-1.365.078-.022c1-.268 1.862-.901 2.416-1.775l1.34-2.125a.644.644 0 01.273-.254.616.616 0 01.616.04.62.62 0 01.278.551l-.16 3.728a1.506 1.506 0 01-.925 1.325l-1.361.575-7.811 3.183-11.044 4.496c-1.102.453-2.036.121-2.196-.747zm11.835-2.217l3.272-1.343 2.343 1.473a.248.248 0 01.048.388l-.225.229a1.274 1.274 0 01-1.184.35l-4.254-1.097z" fill="#EBA707"/><path d="M334.197 210.602V217h-.835v-6.398h.835zm2.057 0v.694h-4.944v-.694h4.944zm2.966.566L337.102 217h-.866l2.439-6.398h.558l-.013.566zm1.776 5.832l-2.123-5.832-.013-.566h.558l2.448 6.398h-.87zm-.11-2.369v.695h-3.595v-.695h3.595zm2.724-4.029V217h-.848v-6.398h.848zm3.942 0l-2.777 3.52h-1.503l-.132-.704h1.13l2.232-2.816h1.05zM346.7 217l-2.404-2.988.475-.743 2.966 3.731H346.7zm5.528-2.035h.844c-.044.405-.16.766-.347 1.086a2.031 2.031 0 01-.796.76c-.343.185-.77.277-1.283.277a2.43 2.43 0 01-1.024-.211 2.28 2.28 0 01-.787-.598 2.792 2.792 0 01-.509-.936 3.966 3.966 0 01-.176-1.221v-.638c0-.448.058-.854.176-1.217.12-.366.291-.68.514-.94.225-.261.496-.462.813-.602a2.594 2.594 0 011.068-.211c.483 0 .892.09 1.226.272.334.182.593.434.778.756.187.319.303.69.347 1.112h-.844a2.359 2.359 0 00-.228-.769 1.191 1.191 0 00-.475-.501c-.205-.117-.473-.176-.804-.176-.284 0-.535.054-.752.163a1.504 1.504 0 00-.54.461 2.133 2.133 0 00-.325.716c-.074.279-.11.588-.11.928v.646c0 .313.032.607.096.883.068.275.169.517.304.725.134.208.306.372.514.492.208.117.454.176.738.176.36 0 .647-.057.861-.171a1.13 1.13 0 00.484-.493c.111-.213.19-.47.237-.769zm2.883.567l3.151-4.93h.848V217h-.848v-4.935L355.111 217h-.844v-6.398h.844v4.93zm-28.367 36.07V258h-.844v-5.704h-3.155V258h-.848v-6.398h4.847zm3.898 3.889h-1.709v-.69h1.709c.331 0 .599-.053.804-.158a.992.992 0 00.449-.44c.096-.187.145-.401.145-.641 0-.22-.049-.427-.145-.62a1.076 1.076 0 00-.449-.466c-.205-.12-.473-.18-.804-.18h-1.512V258h-.848v-6.398h2.36c.483 0 .892.083 1.226.25.334.167.588.398.76.694.173.293.26.629.26 1.007 0 .41-.087.76-.26 1.05-.172.29-.426.511-.76.664-.334.149-.743.224-1.226.224zm4.201 1.041l3.151-4.93h.848V258h-.848v-4.935L334.843 258H334v-6.398h.843v4.93zm9.444-4.93v.694h-3.085V258h-.844v-6.398h3.929zm-3.283 2.606h1.745c.469 0 .864.079 1.187.237.322.155.566.373.733.655.167.281.251.61.251.988 0 .282-.047.539-.141.774a1.693 1.693 0 01-.417.606c-.185.17-.412.302-.681.396-.27.091-.58.136-.932.136h-2.391v-6.398h.849v5.708h1.542c.313 0 .567-.057.76-.171.197-.118.34-.27.431-.457.091-.188.136-.389.136-.602 0-.214-.045-.411-.136-.589a.993.993 0 00-.431-.427c-.193-.108-.447-.162-.76-.162h-1.745v-.694zm5.744 0h1.745c.468 0 .864.079 1.186.237.322.155.567.373.734.655.167.281.251.61.251.988 0 .282-.047.539-.141.774a1.695 1.695 0 01-.418.606c-.184.17-.411.302-.681.396-.269.091-.58.136-.931.136h-2.391v-6.398h.848v5.708h1.543c.313 0 .567-.057.76-.171.196-.118.34-.27.431-.457a1.378 1.378 0 000-1.191.998.998 0 00-.431-.427c-.193-.108-.447-.162-.76-.162h-1.745v-.694zm5.537-2.606V258h-.848v-6.398h.848zm3.797 0V258h-.835v-6.398h.835zm2.057 0v.694h-4.944v-.694h4.944zm1.832 4.93l3.151-4.93h.848V258h-.848v-4.935L359.971 258h-.844v-6.398h.844v4.93zm9.607.778v.69h-3.389v-.69h3.389zm-3.217-5.708V258h-.848v-6.398h.848zm2.768 2.751v.689h-2.94v-.689h2.94zm.405-2.751v.694h-3.345v-.694h3.345zm-58.971 42.405h-1.621l-.009-.681h1.472c.243 0 .456-.041.637-.123a.959.959 0 00.422-.351.98.98 0 00.154-.554c0-.235-.045-.425-.136-.571a.754.754 0 00-.409-.326 1.95 1.95 0 00-.694-.105h-1.248V297h-.848v-6.398h2.096c.328 0 .621.033.879.101.258.064.476.167.655.307.181.138.319.314.413.528.093.213.14.47.14.769 0 .263-.067.502-.202.716a1.558 1.558 0 01-.562.519 2.22 2.22 0 01-.835.259l-.304.206zm-.039 2.993h-1.916l.479-.69h1.437c.269 0 .498-.047.685-.141a.998.998 0 00.436-.395 1.21 1.21 0 00.149-.611c0-.237-.043-.442-.127-.615a.885.885 0 00-.4-.4c-.182-.094-.416-.141-.704-.141h-1.208l.009-.681h1.652l.18.246c.308.027.569.115.783.264.213.146.376.334.487.562.115.229.172.481.172.756 0 .399-.088.736-.264 1.011a1.644 1.644 0 01-.734.624c-.316.141-.688.211-1.116.211zm4.052-3.792h1.744c.469 0 .865.079 1.187.237.322.155.567.373.734.655.167.281.25.61.25.988 0 .282-.047.539-.14.774a1.695 1.695 0 01-.418.606c-.184.17-.412.302-.681.396-.27.091-.58.136-.932.136h-2.39v-6.398h.848v5.708h1.542c.314 0 .567-.057.761-.171.196-.118.339-.27.43-.457.091-.188.136-.389.136-.602 0-.214-.045-.411-.136-.589a.996.996 0 00-.43-.427c-.194-.108-.447-.162-.761-.162h-1.744v-.694zm5.537-2.606V297h-.848v-6.398h.848zm6.693 5.708v.69h-4.843v-.69h4.843zm-4.707 0v2.263h-.839l-.005-2.263h.844zm5.445 0l-.009 2.259h-.839v-2.259h.848zm-1.569-5.708v.694h-2.804v-.694h2.804zm.73 0V297h-.844v-6.398h.844zm-3.824 0h.848l-.131 2.575a9.055 9.055 0 01-.11 1.072 7.354 7.354 0 01-.207.892c-.082.27-.176.511-.281.725a3.342 3.342 0 01-.338.55 2.07 2.07 0 01-.378.377c-.129.097-.26.166-.391.207h-.387v-.69h.272a2.45 2.45 0 00.26-.356c.099-.155.197-.356.294-.602.1-.249.186-.552.259-.91.076-.357.128-.779.154-1.265l.136-2.575zm8.099.566L328.862 297h-.865l2.439-6.398h.558l-.014.566zm1.776 5.832l-2.123-5.832-.013-.566h.558l2.448 6.398h-.87zm-.11-2.369v.695h-3.595v-.695h3.595zm1.512-4.029h.848v1.999c0 .331.048.59.145.778a.81.81 0 00.439.395c.197.077.441.115.734.115a5.99 5.99 0 001.464-.181c.155-.038.307-.079.457-.123v.695c-.144.044-.287.085-.431.123a5.14 5.14 0 01-.923.158c-.17.015-.359.022-.567.022-.451 0-.839-.064-1.164-.193a1.5 1.5 0 01-.743-.633c-.173-.29-.259-.675-.259-1.156v-1.999zm3.871 0h.848V297h-.848v-6.398zm4.817.566L340.728 297h-.866l2.439-6.398h.558l-.013.566zm1.775 5.832l-2.122-5.832-.014-.566h.558l2.448 6.398h-.87zm-.11-2.369v.695h-3.594v-.695h3.594zm7.972-4.029v.694h-3.085V297h-.844v-6.398h3.929zm-3.283 2.606h1.745c.469 0 .864.079 1.186.237.323.155.567.373.734.655.167.281.251.61.251.988 0 .282-.047.539-.141.774a1.705 1.705 0 01-.417.606 1.93 1.93 0 01-.682.396c-.269.091-.58.136-.931.136h-2.391v-6.398h.848v5.708h1.543c.313 0 .567-.057.76-.171.196-.118.34-.27.431-.457.091-.188.136-.389.136-.602 0-.214-.045-.411-.136-.589a.998.998 0 00-.431-.427c-.193-.108-.447-.162-.76-.162H349.2v-.694zm7.427-2.04L354.509 297h-.866l2.439-6.398h.558l-.013.566zm1.775 5.832l-2.122-5.832-.013-.566h.558l2.447 6.398h-.87zm-.11-2.369v.695h-3.594v-.695h3.594zm5.806-4.029v.694h-3.085V297h-.844v-6.398h3.929zm2.557.566L364.537 297h-.866l2.439-6.398h.558l-.013.566zm1.776 5.832l-2.123-5.832-.013-.566h.558l2.448 6.398h-.87zm-.11-2.369v.695h-3.595v-.695h3.595zm3.669-.553l-2.285-3.476h.993l1.701 2.773h1.204l-.136.703h-1.477zm.457-.066L370.588 297h-1.054l2.377-3.718.536.73zm1.521-3.41V297h-.84v-6.398h.84zm3.392 0l-2.294 3.476h-1.432l-.132-.703h1.16l1.701-2.773h.997zm-.887 6.398l-1.855-2.988.541-.73 2.368 3.718h-1.054zm4.227-5.832L378.582 297h-.866l2.439-6.398h.558l-.013.566zm1.776 5.832l-2.123-5.832-.013-.566h.558l2.448 6.398h-.87zm-.11-2.369v.695h-3.595v-.695h3.595zm-54.857 34.608h1.059c.369 0 .71.063 1.024.189a2.438 2.438 0 011.38 1.344c.132.314.197.661.197 1.042s-.065.729-.197 1.046c-.132.316-.317.59-.554.822-.234.228-.51.405-.826.531a2.782 2.782 0 01-1.024.185h-1.059c-.369 0-.711-.062-1.024-.185a2.546 2.546 0 01-.826-.531 2.45 2.45 0 01-.55-.813 2.747 2.747 0 01-.193-1.046c0-.381.064-.728.193-1.042.132-.316.315-.589.55-.817.237-.232.512-.41.826-.536a2.72 2.72 0 011.024-.189zm0 .668c-.384 0-.709.08-.976.241a1.528 1.528 0 00-.606.668 2.304 2.304 0 00-.207 1.007c0 .29.038.552.114.786.08.235.195.435.348.602.152.167.339.296.562.387.223.091.478.136.765.136h1.068c.381 0 .703-.079.966-.237a1.55 1.55 0 00.607-.672c.141-.29.211-.627.211-1.011 0-.287-.04-.548-.119-.782a1.673 1.673 0 00-.347-.602 1.488 1.488 0 00-.558-.387 1.974 1.974 0 00-.76-.136h-1.068zm.94-1.569v6.926h-.813v-6.926h.813zm5.775 4.539l1.692-4.275h.975l-2.263 5.33c-.065.15-.136.295-.215.435a1.63 1.63 0 01-.29.369 1.27 1.27 0 01-.427.26 1.756 1.756 0 01-.624.096 2.72 2.72 0 01-.25-.013 1.037 1.037 0 01-.189-.022l.026-.677c.032.006.095.012.189.018.094.003.163.004.207.004.167 0 .299-.033.395-.101a.76.76 0 00.233-.255c.062-.105.117-.212.167-.32l.374-.849zm-1.437-4.275l1.779 3.985.211.787-.712.053-2.228-4.825h.95zm9.786 5.708v.69h-4.843v-.69h4.843zm-4.706 0v2.263h-.84l-.004-2.263h.844zm5.445 0l-.009 2.259h-.84v-2.259h.849zm-1.569-5.708v.694h-2.804v-.694h2.804zm.729 0V335h-.844v-6.398h.844zm-3.823 0h.848l-.132 2.575a8.653 8.653 0 01-.11 1.072 7.176 7.176 0 01-.206.892c-.082.27-.176.511-.281.725a3.413 3.413 0 01-.339.55 2.07 2.07 0 01-.378.377 1.29 1.29 0 01-.391.207h-.387v-.69h.273c.076-.082.162-.201.259-.356.1-.155.198-.356.295-.602.099-.249.186-.552.259-.91.076-.357.127-.779.154-1.265l.136-2.575zm6.548 0V335h-.848v-6.398h.848zm3.942 0l-2.778 3.52h-1.503l-.131-.704h1.129l2.232-2.816h1.051zm-.853 6.398l-2.404-2.988.475-.743 2.966 3.731h-1.037zm6.592-3.401v.404c0 .48-.06.911-.18 1.292a2.76 2.76 0 01-.519.971 2.24 2.24 0 01-.813.611 2.54 2.54 0 01-1.054.211 2.53 2.53 0 01-1.042-.211 2.34 2.34 0 01-.817-.611 2.83 2.83 0 01-.532-.971 4.106 4.106 0 01-.189-1.292v-.404c0-.481.061-.91.185-1.288.125-.381.303-.705.531-.971.229-.27.5-.475.813-.615a2.534 2.534 0 011.042-.211c.389 0 .741.07 1.054.211.317.14.588.345.813.615.229.266.403.59.523.971.123.378.185.807.185 1.288zm-.839.404v-.413c0-.381-.04-.718-.119-1.011a2.096 2.096 0 00-.338-.738 1.472 1.472 0 00-.55-.453 1.674 1.674 0 00-.729-.154c-.264 0-.503.052-.717.154a1.518 1.518 0 00-.544.453c-.15.199-.266.445-.348.738-.082.293-.123.63-.123 1.011v.413c0 .384.041.724.123 1.019.082.293.2.541.352.743.155.199.338.35.549.453.214.102.453.154.717.154.275 0 .52-.052.733-.154.214-.103.394-.254.541-.453.149-.202.262-.45.338-.743.076-.295.115-.635.115-1.019zm4.469.488h-1.71v-.69h1.71c.331 0 .599-.053.804-.158a.985.985 0 00.448-.44c.097-.187.145-.401.145-.641 0-.22-.048-.427-.145-.62a1.068 1.068 0 00-.448-.466c-.205-.12-.473-.18-.804-.18h-1.512V335h-.848v-6.398h2.36c.483 0 .892.083 1.226.25.334.167.587.398.76.694.173.293.259.629.259 1.007 0 .41-.086.76-.259 1.05-.173.29-.426.511-.76.664-.334.149-.743.224-1.226.224zm5.682-3.889V335h-.835v-6.398h.835zm2.057 0v.694h-4.944v-.694h4.944z" fill="#fff"/><path d="M222.294 275.615H2.619a1.97 1.97 0 00-1.97 1.97v71.699a1.97 1.97 0 001.97 1.969h219.675a1.97 1.97 0 001.971-1.969v-71.699a1.97 1.97 0 00-1.971-1.97z" fill="#4A4A4A"/><path d="M193.847 325.277h-27.53v4.086h27.53v-4.086zm-32.184-25.688c.232-.326.526-.603.864-.816 0 0 4.344-1.546 6.769-1.546 3.687 0 6.449 1.438 9.51 3.26l3.812 2.259a.053.053 0 00.039 0l13.37-2.297a1.08 1.08 0 01.631.082l2.126.963a.677.677 0 01.386.609.676.676 0 01-.386.609l-8.844 4.262a.066.066 0 00-.023.024.063.063 0 000 .065c.005.01.014.018.023.024l9.173 5.437.138.082a7.95 7.95 0 005.719.864l4.729-1.071c.239-.061.491-.052.726.026a1.208 1.208 0 01.744 1.51c-.065.197-.18.375-.333.516l-5.309 4.867a2.93 2.93 0 01-3.073.553l-2.641-1.071-15.008-6.315-21.21-8.918c-2.071-.847-2.888-2.574-1.932-3.978zm19.169 13.138l6.294 2.63 1.188 5.183a.492.492 0 01-.471.6h-.618a2.454 2.454 0 01-2.092-1.106l-4.301-7.307zM47.14 325.115L28.61 306.6h14.286v-6.461H17.57v25.304h6.467v-14.274l18.53 18.516 4.574-4.57z" fill="#EBA707"/><path d="M70.478 313.465v.539c0 .641-.08 1.215-.24 1.723a3.7 3.7 0 01-.691 1.294 3 3 0 01-1.084.815 3.407 3.407 0 01-1.406.281 3.39 3.39 0 01-1.389-.281 3.123 3.123 0 01-1.09-.815 3.793 3.793 0 01-.709-1.294c-.168-.508-.252-1.082-.252-1.723v-.539c0-.641.082-1.213.246-1.717.168-.508.405-.939.71-1.295a3.035 3.035 0 011.083-.82 3.373 3.373 0 011.389-.281c.52 0 .988.093 1.406.281a2.97 2.97 0 011.084.82c.305.356.537.787.697 1.295.165.504.246 1.076.246 1.717zm-1.119.539v-.551a5.17 5.17 0 00-.158-1.348 2.802 2.802 0 00-.451-.984 1.935 1.935 0 00-.732-.603 2.22 2.22 0 00-.973-.206c-.352 0-.67.069-.955.206a2.01 2.01 0 00-.727.603 2.974 2.974 0 00-.463.984c-.109.391-.164.84-.164 1.348v.551c0 .512.055.965.164 1.359.11.391.266.721.47.991.206.265.45.466.732.603.285.137.603.205.955.205.367 0 .693-.068.978-.205.285-.137.526-.338.72-.603.2-.27.35-.6.452-.991.102-.394.152-.847.152-1.359zm5.801-4.535V318h-1.113v-8.531h1.113zm2.742 0v.926h-6.591v-.926h6.591zm7.782 0V318h-1.125v-7.605h-4.207V318H79.22v-8.531h6.463zm5.197 5.185H88.6v-.92h2.28c.441 0 .799-.07 1.072-.211a1.31 1.31 0 00.598-.585c.129-.25.193-.536.193-.856a1.82 1.82 0 00-.193-.826 1.426 1.426 0 00-.598-.621c-.273-.16-.63-.24-1.072-.24h-2.016V318h-1.13v-8.531h3.146c.644 0 1.19.111 1.635.334.445.222.783.531 1.013.926.23.39.346.837.346 1.341 0 .547-.115 1.014-.346 1.401-.23.386-.568.681-1.013.884-.446.2-.99.299-1.635.299zm6.773-4.429L94.83 318h-1.154l3.252-8.531h.744l-.018.756zm2.367 7.775l-2.83-7.775-.017-.756h.744l3.264 8.531h-1.161zm-.146-3.158v.926h-4.793v-.926h4.793zm5.49-.832h-2.162l-.012-.908h1.963c.325 0 .608-.055.85-.164.242-.11.43-.266.562-.469.137-.207.205-.453.205-.739 0-.312-.06-.566-.181-.761a1.007 1.007 0 00-.545-.434c-.242-.094-.551-.14-.926-.14h-1.664V318h-1.131v-8.531h2.795c.438 0 .828.045 1.172.135.344.085.635.222.873.41.242.183.426.418.551.703.125.285.187.627.187 1.025 0 .352-.09.67-.269.955-.18.282-.43.512-.75.692a2.94 2.94 0 01-1.113.345l-.405.276zm-.053 3.99h-2.554l.638-.92h1.916c.36 0 .665-.062.915-.187.253-.125.447-.301.58-.528a1.61 1.61 0 00.199-.814c0-.317-.057-.59-.17-.821a1.175 1.175 0 00-.533-.533c-.242-.125-.555-.187-.938-.187h-1.611l.012-.908h2.203l.24.328c.41.035.758.152 1.043.351.285.196.502.446.65.75.153.305.229.641.229 1.008 0 .531-.117.981-.352 1.348-.23.363-.556.64-.978.832-.422.187-.918.281-1.489.281zm9.973-8.531v.926h-3.902v-.926h3.902zm.973 0V318h-1.131v-8.531h1.131zm-5.262 0h1.125l-.193 4.177a17.375 17.375 0 01-.141 1.612 6.54 6.54 0 01-.269 1.224 2.72 2.72 0 01-.457.856 1.724 1.724 0 01-.692.498c-.269.109-.594.164-.973.164h-.304v-.92l.234-.018c.219-.015.406-.064.563-.146.16-.086.295-.215.404-.387.113-.172.205-.394.275-.668.071-.273.125-.607.164-1.002.043-.398.077-.863.1-1.394l.164-3.996zm12.721 7.611v.92h-4.518v-.92h4.518zm-4.289-7.611V318h-1.131v-8.531h1.131zm3.691 3.668v.92h-3.92v-.92h3.92zm.539-3.668v.926h-4.459v-.926h4.459zm7.031 3.668v.92h-4.617v-.92h4.617zm-4.441-3.668V318h-1.131v-8.531h1.131zm5.426 0V318h-1.125v-8.531h1.125zm3.187 6.574l4.201-6.574h1.131V318h-1.131v-6.58l-4.201 6.58h-1.125v-8.531h1.125v6.574zm12.809 1.037v.92h-4.518v-.92h4.518zm-4.289-7.611V318h-1.131v-8.531h1.131zm3.691 3.668v.92h-3.92v-.92h3.92zm.539-3.668v.926h-4.459v-.926h4.459z" fill="#fff"/><path d="M221.645 189.305H1.971A1.97 1.97 0 000 191.274v71.699a1.97 1.97 0 001.971 1.97h219.674a1.97 1.97 0 001.971-1.97v-71.699a1.97 1.97 0 00-1.971-1.969z" fill="#4A4A4A"/><path d="M64.756 223.225L61.932 231h-1.155l3.252-8.531h.744l-.017.756zM67.123 231l-2.83-7.775-.018-.756h.744L68.283 231h-1.16zm-.146-3.158v.926h-4.793v-.926h4.793zm7.904-1.559v.926h-3.498v-.926h3.498zm-5.578 2.004h1.125c.062.402.166.746.31 1.031.149.286.365.504.65.657.286.148.669.222 1.15.222.378 0 .706-.078.984-.234.277-.16.505-.379.685-.656.18-.278.313-.6.399-.967.09-.367.134-.76.134-1.178v-.855c0-.364-.031-.7-.093-1.008a3.243 3.243 0 00-.282-.838 2.24 2.24 0 00-.468-.639 1.898 1.898 0 00-.645-.404 2.236 2.236 0 00-.814-.141c-.438 0-.795.078-1.073.235a1.583 1.583 0 00-.633.668 3.338 3.338 0 00-.304 1.025h-1.125a3.632 3.632 0 01.463-1.482 2.65 2.65 0 011.037-1.008c.445-.242.99-.363 1.635-.363a3.46 3.46 0 011.423.281c.422.187.782.455 1.078.803.301.347.53.765.686 1.253.16.489.24 1.032.24 1.629v.844a5.21 5.21 0 01-.24 1.629c-.156.484-.38.9-.674 1.248a3.023 3.023 0 01-1.054.797c-.407.187-.86.281-1.36.281-.684 0-1.254-.123-1.71-.369a2.705 2.705 0 01-1.061-1.014 3.707 3.707 0 01-.463-1.447zm11.367-.633h-2.28v-.92h2.28c.441 0 .799-.07 1.072-.211a1.31 1.31 0 00.598-.585c.129-.25.193-.536.193-.856a1.82 1.82 0 00-.193-.826 1.426 1.426 0 00-.598-.621c-.273-.16-.63-.24-1.072-.24h-2.016V231h-1.13v-8.531h3.146c.644 0 1.19.111 1.635.334.445.222.783.531 1.013.926.23.39.346.837.346 1.341 0 .547-.115 1.014-.346 1.401-.23.386-.568.681-1.013.884-.446.2-.99.299-1.635.299zm10.992-1.189v.539c0 .641-.08 1.215-.24 1.723-.16.507-.39.939-.691 1.294a3 3 0 01-1.084.815 3.407 3.407 0 01-1.407.281c-.504 0-.967-.094-1.388-.281a3.123 3.123 0 01-1.09-.815 3.793 3.793 0 01-.71-1.294 5.502 5.502 0 01-.251-1.723v-.539c0-.641.082-1.213.246-1.717.168-.508.404-.939.709-1.295a3.034 3.034 0 011.084-.82 3.373 3.373 0 011.388-.281c.52 0 .989.093 1.407.281a2.97 2.97 0 011.084.82c.304.356.537.787.697 1.295.164.504.246 1.076.246 1.717zm-1.119.539v-.551c0-.508-.053-.957-.158-1.348a2.802 2.802 0 00-.451-.984 1.935 1.935 0 00-.733-.603 2.22 2.22 0 00-.972-.206c-.352 0-.67.069-.956.206a2.01 2.01 0 00-.726.603c-.2.266-.354.594-.463.984-.11.391-.164.84-.164 1.348v.551c0 .512.055.965.164 1.359.11.391.266.721.469.991.207.265.45.466.732.603.285.137.604.205.955.205.367 0 .694-.068.979-.205.285-.137.525-.338.72-.603.2-.27.35-.6.452-.991.101-.394.152-.847.152-1.359zm8.267-.721v.926h-3.498v-.926h3.499zm-5.578 2.004h1.125c.063.402.166.746.311 1.031.148.286.365.504.65.657.285.148.668.222 1.149.222.379 0 .707-.078.984-.234a2 2 0 00.686-.656c.18-.278.312-.6.398-.967.09-.367.135-.76.135-1.178v-.855c0-.364-.031-.7-.094-1.008a3.243 3.243 0 00-.281-.838 2.24 2.24 0 00-.469-.639 1.898 1.898 0 00-.644-.404 2.235 2.235 0 00-.815-.141c-.437 0-.795.078-1.072.235a1.583 1.583 0 00-.633.668 3.338 3.338 0 00-.305 1.025h-1.125a3.632 3.632 0 01.463-1.482 2.65 2.65 0 011.037-1.008c.446-.242.99-.363 1.635-.363.527 0 1.002.093 1.424.281.422.187.781.455 1.078.803.3.347.53.765.686 1.253.16.489.24 1.032.24 1.629v.844a5.21 5.21 0 01-.24 1.629 3.67 3.67 0 01-.674 1.248 3.023 3.023 0 01-1.055.797c-.406.187-.86.281-1.36.281-.683 0-1.253-.123-1.71-.369a2.705 2.705 0 01-1.06-1.014 3.707 3.707 0 01-.464-1.447zm9.405-5.818V231h-1.131v-8.531h1.131zm5.256 0l-3.704 4.693h-2.003l-.176-.937h1.506l2.976-3.756h1.401zM106.756 231l-3.205-3.984.633-.991 3.955 4.975h-1.383zm7.371-2.713h1.125a3.59 3.59 0 01-.463 1.447c-.25.426-.603.764-1.06 1.014-.458.246-1.028.369-1.711.369-.5 0-.956-.094-1.366-.281a3.027 3.027 0 01-1.048-.797 3.733 3.733 0 01-.68-1.248 5.332 5.332 0 01-.235-1.629v-.85c0-.597.079-1.138.235-1.623a3.65 3.65 0 01.685-1.253 3.05 3.05 0 011.084-.803 3.464 3.464 0 011.424-.281c.645 0 1.19.121 1.635.363a2.6 2.6 0 011.037 1.008c.25.425.404.92.463 1.482h-1.125a3.13 3.13 0 00-.305-1.025 1.577 1.577 0 00-.633-.668c-.273-.157-.63-.235-1.072-.235-.379 0-.713.073-1.002.217-.285.145-.525.35-.72.615a2.863 2.863 0 00-.434.955 4.852 4.852 0 00-.147 1.237v.861c0 .418.043.811.129 1.178.09.367.225.689.405.967.179.277.408.496.685.656.278.156.606.234.985.234.48 0 .863-.076 1.148-.228a1.5 1.5 0 00.645-.657 3.35 3.35 0 00.316-1.025zm9.182-5.818V231h-1.125v-7.605h-4.207V231h-1.131v-8.531h6.463zm5.197 5.185h-2.279v-.92h2.279c.441 0 .799-.07 1.072-.211a1.31 1.31 0 00.598-.585c.129-.25.193-.536.193-.856a1.82 1.82 0 00-.193-.826 1.424 1.424 0 00-.598-.621c-.273-.16-.631-.24-1.072-.24h-2.016V231h-1.131v-8.531h3.147c.644 0 1.189.111 1.635.334.445.222.783.531 1.013.926.231.39.346.837.346 1.341 0 .547-.115 1.014-.346 1.401-.23.386-.568.681-1.013.884-.446.2-.991.299-1.635.299zm9.844 2.426v.92h-4.518v-.92h4.518zm-4.289-7.611V231h-1.131v-8.531h1.131zm3.691 3.668v.92h-3.92v-.92h3.92zm.539-3.668v.926h-4.459v-.926h4.459zm6.609 5.818h1.125a3.574 3.574 0 01-.463 1.447c-.25.426-.603.764-1.06 1.014-.457.246-1.027.369-1.711.369-.5 0-.955-.094-1.365-.281a3.04 3.04 0 01-1.049-.797 3.733 3.733 0 01-.68-1.248 5.333 5.333 0 01-.234-1.629v-.85c0-.597.078-1.138.234-1.623.16-.488.389-.906.686-1.253a3.05 3.05 0 011.084-.803 3.46 3.46 0 011.424-.281c.644 0 1.189.121 1.634.363.446.242.791.578 1.037 1.008.25.425.405.92.463 1.482H144.9a3.13 3.13 0 00-.304-1.025 1.59 1.59 0 00-.633-.668c-.274-.157-.631-.235-1.072-.235-.379 0-.713.073-1.002.217-.285.145-.526.35-.721.615a2.882 2.882 0 00-.434.955 4.898 4.898 0 00-.146 1.237v.861c0 .418.043.811.129 1.178.09.367.224.689.404.967a2 2 0 00.686.656c.277.156.605.234.984.234.48 0 .863-.076 1.148-.228.286-.153.5-.371.645-.657.148-.285.254-.626.316-1.025zm7.817 0h1.125a3.59 3.59 0 01-.463 1.447c-.25.426-.604.764-1.061 1.014-.457.246-1.027.369-1.711.369-.5 0-.955-.094-1.365-.281a3.04 3.04 0 01-1.049-.797 3.731 3.731 0 01-.679-1.248 5.301 5.301 0 01-.235-1.629v-.85c0-.597.078-1.138.235-1.623a3.65 3.65 0 01.685-1.253 3.05 3.05 0 011.084-.803 3.464 3.464 0 011.424-.281c.645 0 1.189.121 1.635.363a2.6 2.6 0 011.037 1.008c.25.425.404.92.463 1.482h-1.125a3.13 3.13 0 00-.305-1.025 1.577 1.577 0 00-.633-.668c-.273-.157-.631-.235-1.072-.235-.379 0-.713.073-1.002.217-.285.145-.525.35-.721.615a2.861 2.861 0 00-.433.955 4.852 4.852 0 00-.147 1.237v.861c0 .418.043.811.129 1.178.09.367.225.689.405.967.179.277.408.496.685.656.277.156.606.234.984.234.481 0 .864-.076 1.149-.228.285-.153.5-.371.644-.657.149-.285.254-.626.317-1.025z" fill="#fff"/><path d="M189.279 208.424h-16.897a7.74 7.74 0 00-7.741 7.735v19.405a7.721 7.721 0 002.266 5.473 7.739 7.739 0 005.475 2.267h16.897a7.752 7.752 0 005.477-2.267 7.736 7.736 0 002.269-5.473v-19.405a7.737 7.737 0 00-7.746-7.735zm-18.306 29.308a2.254 2.254 0 112.256-2.254 2.263 2.263 0 01-.66 1.594 2.268 2.268 0 01-1.596.66zm8.446-13.674a1.915 1.915 0 01-1.915 1.914h-7.564a1.915 1.915 0 01-1.915-1.914v-4.802a1.884 1.884 0 011.885-1.883h7.625a1.883 1.883 0 011.884 1.883v4.802zm-.843-11.713a2.254 2.254 0 012.697-2.211 2.255 2.255 0 11-2.036 3.806 2.256 2.256 0 01-.661-1.595zm12.103 25.387a2.254 2.254 0 11.864-4.337c.412.171.765.46 1.013.83a2.25 2.25 0 01-.277 2.842 2.25 2.25 0 01-1.587.665h-.013zm2.97-13.674a1.918 1.918 0 01-1.919 1.914h-7.591a1.922 1.922 0 01-1.919-1.914v-4.802a1.894 1.894 0 01.566-1.343 1.892 1.892 0 011.353-.54h7.621a1.871 1.871 0 011.335.55 1.872 1.872 0 01.554 1.333v4.802zm-5.054 21.985h-14.873v3.092h14.873v-3.092zM51.001 223.889H24.794l10.101-10.093-4.573-4.569-17.908 17.893 17.908 17.893 4.573-4.565-10.101-10.097H51v-6.462z" fill="#EBA707"/></svg>