<svg width="64" height="77" fill="none" xmlns="http://www.w3.org/2000/svg"><path fill-rule="evenodd" clip-rule="evenodd" d="M6.995 34.44H30.81v40.304H6.995V34.44zM0 30.83v14.287c0 1.575 1.95 1.855 2.325.394.161-.626.057-1.526.056-2.199 0-2.86-.212-11.819.15-13.384.333-.079.342-.15.744-.15h57.45c.403 0 .411.071.745.15.078.337.149.346.149.752v44.064h-2.233V34.74c0-1.685-1.262-2.707-2.977-2.707H7.591c-1.824 0-2.977 1.009-2.977 2.858v39.853H2.381V50.682c0-1.75-2.38-1.75-2.38 0v24.213C0 76.023.725 77 1.785 77h42.568c1.538 0 1.538-2.256 0-2.256H33.19V34.44h23.814v40.304h-7.442c-1.595 0-1.576 2.256 0 2.256h12.651c1.06 0 1.786-.977 1.786-2.105V30.83c0-2.235-1.471-3.459-3.72-3.459H3.72c-2.25 0-3.72 1.224-3.72 3.46zm12.353-9.174V6.166c0-.352.247-.602.596-.602H51.05c.348 0 .595.25.595.602v15.49c0 .352-.247.602-.595.602H12.949c-.349 0-.596-.25-.596-.602zm5.358-20.453v1.955c-3.187 0-7.74-.77-7.74 3.309v14.889c0 2.016 1.445 3.308 3.424 3.308h37.21c1.979 0 3.423-1.292 3.423-3.309V6.467c0-4.078-4.553-3.309-7.74-3.309 0-1.626.302-3.158-1.19-3.158-1.361 0-1.043 1.331-1.043 3.158H19.944c0-2.473.305-3.158-1.34-3.158-.482 0-.893.654-.893 1.203z" fill="#797979"/><path fill-rule="evenodd" clip-rule="evenodd" d="M15.479 45.268c0-1.06.4-1.848.997-2.452 2.234-2.264 5.7-.138 5.7 1.85 0 1.164.108 2.224-1.12 3.229-2.436 1.992-5.577.18-5.577-2.628zm-2.381-.15c0 5.204 6.024 7.768 9.583 4.42l.653-.695c2.803-3.149.51-9.29-4.134-9.29-2.695 0-4.402 1.028-5.512 3.303-.208.426-.59 1.648-.59 2.261zm28.576.3c0-3.362 3.82-4.645 5.843-2.595 2.094 2.122.644 5.904-2.42 5.904-1.767 0-3.423-1.582-3.423-3.31v.001zm-2.233-.602c0 1.865.232 3.097 1.52 4.48 3.348 3.595 9.792 1.17 9.792-3.577v-.903c0-2.65-2.606-5.263-5.21-5.263-1.889 0-3.113.273-4.472 1.646-.754.762-1.63 2.113-1.63 3.617zm-3.423 13.385c0 2.163-.507 5.565 1.19 5.565.699 0 1.192-.624 1.192-1.354v-4.511c0-1.5-2.382-1.885-2.382.3zM25.6 57.9v4.512c0 1.877 2.381 1.664 2.381 0v-4.21c0-2.186-2.381-1.8-2.381-.301zM2.084 7.97c0 1.21 2.828 2.407 2.828 2.407 1.26 0 1.19-1.003 1.19-1.504 0-.633-2.618-2.105-2.827-2.105-.613 0-1.191.583-1.191 1.203zM.596 13.836c0 1.539.998 1.203 3.274 1.203 1.595 0 1.576-2.256 0-2.256-1.91 0-3.274-.337-3.274 1.053zm57.302 4.512c0 1.125-.02.937 1.221 1.773.376.253 1.138.934 1.606.934.414 0 2.513-.956-.027-2.68-.317-.214-1.261-.93-1.61-.93-.544 0-1.19.415-1.19.903zM2.084 19.701c0 .73.493 1.354 1.19 1.354.328 0 2.829-1.528 2.829-2.106 0-3.395-4.019.08-4.019.752zM57.898 8.873c0 3.396 4.018-.08 4.018-.752 0-.73-.493-1.353-1.19-1.353-.222 0-2.828 1.48-2.828 2.105zm1.042 4.963c0 1.557 1.732 1.203 3.423 1.203 1.428 0 1.428-2.256 0-2.256-1.324 0-3.423-.329-3.423 1.053zm-36.637-.77h1.575c.619 0 1.011.426 1.011 1.043 0 .63-.41 1.044-1.032 1.044h-1.554v1.375h1.805c.625 0 .988.456.988 1.065 0 .636-.44 1.022-1.054 1.022h-2.804c-.669 0-1.054-.478-1.054-1.132v-6.78c0-.62.332-1.132.988-1.132h2.935c.615 0 .99.437.99 1.043 0 .618-.393 1.044-1.011 1.044h-1.783v1.408zm7.873 2.534l-1.8 2.584a1.093 1.093 0 01-.928.497c-.596 0-1.01-.39-1.01-1 0-.246.1-.471.237-.67l2.229-3.208-1.796-2.552c-.172-.231-.288-.498-.288-.791 0-.602.436-.955 1.01-.955.407 0 .753.186.976.525l1.37 2.02 1.378-2.031c.225-.321.554-.514.947-.514.593 0 .989.4.989 1 0 .262-.086.507-.23.724l-.005.007-1.805 2.565 2.222 3.168c.156.21.243.463.243.734 0 .617-.444.977-1.033.977-.372 0-.682-.186-.898-.486L30.176 15.6zm6.353-6.095c.656 0 1.043.465 1.043 1.11v6.934c0 .648-.377 1.132-1.043 1.132-.662 0-1.076-.448-1.076-1.11v-6.957c0-.661.414-1.11 1.076-1.11v.001zm6.588 2.153v5.935c0 .653-.416 1.088-1.065 1.088-.647 0-1.054-.44-1.054-1.088v-5.935h-.91c-.622 0-1.033-.415-1.033-1.044 0-.64.429-1.043 1.055-1.043h3.895c.626 0 1.054.404 1.054 1.043 0 .618-.392 1.044-1.01 1.044h-.932z" fill="#EBA707"/></svg>