<svg width="69" height="69" fill="none" xmlns="http://www.w3.org/2000/svg"><g clip-path="url(#clip0_2761_12167)" fill-rule="evenodd" clip-rule="evenodd"><path d="M57.2 62.1H35.22c-1.226 0-1.867-.642-1.867-1.87V50.169c0-1.227.642-1.868 1.867-1.868H57.2c.743 0 7.438 4.726 8.654 5.573 2.325 1.619-.775 3.148-1.122 3.4l-4.888 3.304c-.531.354-2.046 1.523-2.644 1.523zM2.32 34.498c0-.21.159-.581.255-.75.364-.638 5.684-4.027 6.583-4.626.531-.355 2.046-1.524 2.644-1.524h21.98c1.227 0 1.868.643 1.868 1.869V39.53c0 1.227-.642 1.869-1.868 1.869h-21.98c-.634 0-4.298-2.628-5.057-3.134-.523-.348-3.815-2.472-4.115-2.925-.114-.171-.31-.604-.31-.841zm54.881-13.8H35.22c-1.226 0-1.867-.642-1.867-1.868V8.768c0-1.227.642-1.868 1.867-1.868H57.2c.597 0 2.05 1.127 2.558 1.466l2.5 1.668c.642.428 3.719 2.332 4.115 2.926 1.05 1.58-.904 2.376-1.641 2.914-.933.68-6.863 4.826-7.532 4.826zM31.053 8.05v11.5c0 1.668 1.781 3.45 3.448 3.45h6.896v23h-6.896c-1.667 0-3.448 1.782-3.448 3.45v11.5c0 1.668 1.781 3.45 3.448 3.45h6.896v2.3H27.605v-23h6.896c1.667 0 3.448-1.783 3.448-3.45v-11.5c0-1.669-1.78-3.45-3.448-3.45h-6.896V6.035c0-2.23 1.505-3.738 3.736-3.738h6.322c1.646 0 3.143.992 3.447 2.3-2.068 0-4.76-.151-6.75.001-1.574.122-3.306 1.769-3.306 3.449v.001zm-5.746-2.73V25.3H10.94c-.8 0-8.1 5.215-9.082 5.864-2.507 1.657-2.414 5.06-.087 6.617 1.038.695 1.979 1.316 3.02 2.01 1.043.695 1.97 1.361 2.989 2.041.598.4 2.552 1.868 3.16 1.868h14.367v23h-15.23c-1.11 0-1.11 2.3 0 2.3h48.847c1.11 0 1.11-2.3 0-2.3H43.695v-2.3h14.367c.609 0 2.468-1.406 3.075-1.81 1.068-.713 1.939-1.343 2.989-2.042 2.816-1.878 4.856-2.584 4.856-5.491 0-2.574-2.444-3.594-4.77-5.146l-4.453-3.02c-.428-.285-1.129-.89-1.696-.89H43.697V23h14.367c.565 0 1.188-.553 1.61-.834l7.472-5.03c2.507-1.656 2.414-5.06.088-6.617-1.039-.695-1.98-1.315-3.02-2.01-1.043-.694-1.97-1.36-2.99-2.04-.598-.4-2.551-1.869-3.16-1.869h-14.51C43.503 2.408 40.71 0 38.381 0h-7.758c-2.65 0-5.315 2.667-5.315 5.318h-.001z" fill="#797979"/><path d="M12.664 32.199c0 .695.454 1.15 1.15 1.15H31.34c1.11 0 1.11-2.3 0-2.3H13.814c-.695 0-1.15.455-1.15 1.151zM36.799 11.5c0 .695.454 1.15 1.15 1.15h17.527c1.11 0 1.11-2.3 0-2.3H37.949c-.695 0-1.15.455-1.15 1.15zm0 41.4c0 .526.396 1.15.862 1.15h17.527c1.543 0 1.543-2.299 0-2.299H37.661c-.466 0-.862.625-.862 1.15zM21.857 36.8c0 .525.396 1.15.862 1.15h8.62c1.11 0 1.11-2.3 0-2.3h-8.62c-.466 0-.862.625-.862 1.15zm14.942-20.7c0 .526.396 1.15.862 1.15h8.62c1.11 0 1.11-2.299 0-2.299h-8.62c-.466 0-.862.625-.862 1.15zm0 41.4c0 .525.396 1.15.862 1.15h8.62c1.11 0 1.11-2.3 0-2.3h-8.62c-.466 0-.862.626-.862 1.15z" fill="#EBA707"/></g><defs><clipPath id="clip0_2761_12167"><path fill="#fff" d="M0 0h69v69H0z"/></clipPath></defs></svg>