<svg width="142" height="162" fill="none" xmlns="http://www.w3.org/2000/svg"><g clip-path="url(#clip0_2761_12100)" fill-rule="evenodd" clip-rule="evenodd"><path d="M60.405 20.607c2.57 1.725 4.199 4.756 10.437 4.756 6.323 0 8.373-3.971 10.12-4.439.362 1.558 1.971 3.943 2.846 5.707l14.974 29.373c2.04 4.028 3.846 7.95 5.899 11.84l-20.89-.017c-2.434.008-4.094.75-4.094 3.504 0 3.275 3.657 3.175 6.957 3.17h30.361c.397 4.784 4.132 10.799 7.138 13.134 11.896 9.24 11.592 1.607 11.524 8.739-.13 13.608-.003 27.283-.003 40.899-4.262.355-9.299 3.125-12.258 6.099-3.59 3.608-5.069 6.558-6.401 12.288h-90.45c-.73-8.789-10.21-18.387-20.24-18.387V93.206c6.627 0 12.26-4.092 15.742-8.314 1.963-2.38 4.427-7.164 4.499-10.39 4.433 0 30.305.617 32.58-.628 2.42-1.324 2.135-5.873-1.886-6.048l-21.207.018 8.96-17.65c.597-1.112.987-1.642 1.584-2.85 1.892-3.832 13.437-25.14 13.808-26.737zM70.162.001h2.893c4.6 0 9.25 5.088 10.251 10.014.678 3.338.135 1.613 1.767 4.886l26.882 52.943c5.028 0 8.853-.805 10.753 2.536.826 1.454.52 12.015 11.023 15.58 1.878.638 8.268.543 8.268 5.027v48.505c0 1.516-1.299 3.044-2.42 3.597-1.537.759-12.886.46-15.935 12.558-.422 1.673-.268 6.354-5.048 6.354H24.984c-5.562 0-3.573-5.135-6.966-11.088-2.01-3.524-6.242-6.464-10.864-7.18-1.44-.223-7.154.278-7.154-4.875V90.987c0-1.754 1.569-3.307 2.862-3.788 1.165-.433 3.872-.465 5.491-.837 1.888-.433 3.288-1.083 4.683-1.964 1.156-.73 2.645-1.848 3.46-2.87.99-1.244 1.907-2.48 2.577-4.075 1.564-3.718.69-7.265 3.696-8.976 1.503-.856 3.394-.633 5.694-.633 1.534-2.907 3.107-6.092 4.73-8.891l3.497-6.64c.372-.717.642-1.298 1.05-2.117L57.467 12.59c.465-1.053.426-1.837.65-2.837.38-1.696 1.213-3.38 2.023-4.629C63.004.71 66.515.074 70.162 0zM64.2 12.68c0-8.833 12.967-8.812 12.967 0 0 8.237-12.967 8.337-12.967 0z" fill="#fff"/><path d="M13.599 97.961v34.873c0 2.642 4.48 2.492 5.363 2.549 4.098.265 7.725 4.214 8.19 7.959.2 1.62-.001 2.203.889 3.23.708.817 1.551 1.162 2.952 1.162h26.565c3.519 0 5.388-6.645-1.25-6.673l-23.102.016c-.228-2.745-2.097-5.34-3.842-7.245l-.617-.65c-.046-.045-.116-.108-.164-.152-1.991-1.866-5.014-4-8.66-4v-26.948c0-1.804 2.597.096 8.59-4.704 3.373-2.7 3.932-6.36 5.01-8.61h75.585c.442 5.324 7.048 11.922 12.334 12.363v27.899c-6.139 1.433-10.906 5.901-12.334 12.047l-24.676-.008c-6.652-.047-5.431 4.72-3.978 5.905.475.387 1.332.76 2.088.76h29.412c4.474 0 2.078-5.53 5.759-9.444 3.308-3.515 6.829-2.719 8.128-3.265.692-.291 1.926-1.203 1.926-2.191V97.961c0-5.355-10.973-.022-12.558-11.823-.225-1.671-.063-2.126-1.106-3.013-.701-.596-1.865-1.016-3.098-1.016H31.941c-8.292 0-1.265 7.183-9.747 11.788-3.255 1.767-8.596-.07-8.596 4.064z" fill="#EBA707"/><path d="M86.97 113.495h-.948v-4.438h2.846c1.022 0 1.582 1.151 1.582 2.219 0 2.016-1.52 2.219-3.48 2.219zm-6.64-7.292v18.388c0 1.172 1.617 1.902 2.846 1.902 1.534 0 1.959-.673 2.846-1.268v-7.292c1.477.123 1.136.392 1.847 1.636.501.878.877 1.601 1.315 2.485 1.672 3.371 1.627 4.439 4.111 4.439 1.529 0 4.029-1.643 2.165-4.706-.374-.616-.58-1.019-.898-1.636-.618-1.198-1.452-1.913-1.583-3.486 4.184-1.119 5.428-12.681-3.795-12.681-5.287 0-8.855-.886-8.855 2.22v-.001zM69.892 121.42l-2.214-.317c-.662-2.846-.316-6.799-.316-9.827 0-3.141 4.111-2.916 4.111 0 0 3.631.835 10.144-1.581 10.144zm-8.223-10.778c0 5.819-1.46 15.851 6.325 15.851 4.496 0 9.172-.558 9.172-7.292 0-8.045 1.466-15.217-8.223-15.217-2.09 0-3.98.793-5.15 1.812-1.132.985-2.124 2.867-2.124 4.846zm37.319-5.071v19.338c0 1.244 1.565 1.586 2.847 1.586h9.487c3.286 0 2.792-5.073.633-5.073h-7.274v-3.804h3.163c3.561 0 2.695-4.755.632-4.755h-3.795v-3.804h7.274c2.278 0 2.309-5.073 0-5.073h-10.753c-1.066 0-2.214.561-2.214 1.586v-.001zm-71.474 4.438c0 8.141 9.172 7.089 9.172 10.144 0 1.472-2.301 2.405-5.421.036-3.137-2.381-4.383 1.515-4.383 2.184 0 1.521 1.6 2.671 2.735 3.281 10.279 5.524 19.626-8.147 6.299-13.605-1.222-.501-2.377-.795-2.709-2.04 1.688-2.527 5.345 0 6.325 0 2.026 0 2.214-2.061 2.214-3.488 0-3.683-14.231-4.636-14.231 3.488zm16.13-3.805c0 3.422 2.002 2.854 5.376 2.854v15.534c0 2.478 5.693 2.478 5.693 0v-15.534c2.171 0 7.375.741 4.743-4.756-2.954-.69-10.157-.317-13.599-.317-1.476 0-2.213.74-2.213 2.22v-.001z" fill="#fff"/><path d="M66.73 71.015c0 4.549 6.642 4.354 6.642.317 0-4.856-6.641-4.275-6.641-.317z" fill="#EBA707"/><path d="M66.73 144.246c0 4.668 6.642 4.442 6.642.317 0-4.688-6.641-4.197-6.641-.317z" fill="#fff"/></g><defs><clipPath id="clip0_2761_12100"><path fill="#fff" d="M0 0h142v162H0z"/></clipPath></defs></svg>