<svg width="73" height="73" fill="none" xmlns="http://www.w3.org/2000/svg"><g clip-path="url(#clip0_2761_12154)" fill-rule="evenodd" clip-rule="evenodd"><path d="M63.875 43.772h5.275v9.98h-5.275v-9.98zM73 20.104v3.432c-.138.92-.511 1.625-1.426 1.7v11.692c.675.324 1.426.734 1.426 1.711v3.487c-.116.593-.398 1.052-1.029 1.473-.284.189-.397-.024-.397.458v9.696c1.844 0 1.96 2.423-.143 2.423H43.058c-.686 0-1.568-.39-1.568-.998 0-1.768 1.67-1.425 2.994-1.425v-9.696c0-.483-.113-.269-.396-.458-.296-.198-1.03-.74-1.03-1.252 0-2.557-.553-4.958 1.426-5.419v-11.69c-.806-.068-1.425-.765-1.425-1.57 0-2.471-.553-4.671 1.425-5.132v-5.418H25.38v27.945c0 1.538-2.424 1.874-2.424-.427V20.817h-2.139v7.272c0 .85-.837 1.853-1.71 1.853-1.598 0-5.276.605-5.276-1.71v-7.415H9.98v9.553c0 .484.245.377.682.459 1.857.348 3.334 1.56 4.089 3.325.521 1.22 1.075 5.759 1.075 7.337 0 .482-1.774 1.568-2.29-.133-.582-1.91-.23-5.186-1.276-6.852-1.467-2.337-5.301-1.546-5.788 1.195-.593 3.338-.863 6.64-1.348 10.06-.315 2.223-1.33 5.432.339 7.091 1.496 1.488 4.751.9 6.799.9-.418-.623-.758-.93-1.085-1.766-.607-1.543-.53-3.491.068-4.953.794-1.936 3.056-3.974 5.294-3.974h6.13c1.542 0 3.044 1.041 3.98 2.01l.136.148 1.115 1.737c1.173 2.5.447 4.707-.953 6.798h9.981c.638-.005 1.143-.063 1.581.13 1.392.61.586 2.294-.869 2.294H22.1c-.932 0-1.723-.897-1.23-1.789.456-.824 1.525-.582 2.497-.936 2.787-1.016 3.781-5.09 1.243-7.056-1.81-1.402-4.313-1.055-6.645-1.055-5.665 0-6.509 6.738-1.91 8.183 1.058.332 2.05.025 2.354 1.077.276.951-.465 1.576-1.585 1.576H1.567c-.686 0-1.568-.39-1.568-.998 0-1.694 1.423-1.426 3.137-1.426-1.338-2.527-1.005-3.262-.701-5.976a93.09 93.09 0 01.372-2.764c.352-2.419.966-9.128 1.669-10.878.556-1.386 1.714-2.7 3.222-3.051 0-.95-.208-11.525.135-12.127.163-.285.701-.563 1.148-.563h4.848V17.11c0-2.092 2.68-1.854 4.135-1.854 2.478 0 2.852.98 2.852 3.137h2.138c0-1.428-.346-5.96.543-7.014.87-1.033 2.93-.686 4.163-.686V8.555c-5.263 0-4.706-.381-4.706-6.131 0-1.17.53-2.424 1.854-2.424h20.389c.472 0 .978.348 1.226.628.304.343.484.778.484 1.368 0 6.028.863 6.559-4.562 6.559v2.139c3.263 0 2.564-.292 4.277.855.119-.103.153-.135.315-.255.21-.157.097-.076.338-.233l7.731-4.815c2.388-1.541 2.608-2.186 5.331-.428 1.769 1.142 9.48 5.681 10.494 6.616 1.138 1.047.742 4.5.742 6.101.651.152 1.426.784 1.426 1.569H73zM46.908 43.772h5.276v9.98h-5.276v-9.98zm-1.568-4.563h25.379v2.281H60.88c-.942 0-1.883 2.282.57 2.282v9.98h-6.843v-9.98c2.225 0 2.994.314 2.994-1.426 0-.462-.62-.855-1.14-.855H45.34V39.21zM16.11 17.68h2.281v9.98h-2.28v-9.98zm29.229 3.137h25.379v2.138h-2.994c-2.301 0-1.996 2.424-.428 2.424h1.853v11.406H46.908V25.38h15.684c1.51 0 1.87-2.424-.428-2.424H45.34v-2.138zm1.568-6.417c0-.539 2.203-1.676 2.627-1.935a253.977 253.977 0 002.819-1.744c.962-.605 1.834-1.16 2.796-1.766 3.628-2.283 2.24-2.074 5.738.02l7.025 4.382c1.656.976 1.238.43 1.238 5.035H46.908V14.4zM29.941 8.555h9.98v2.139h-9.98v-2.14zM25.38 2.28h19.105v3.85H25.38V2.28zM0 71.86C0 72.55.45 73 1.14 73h70.72c1.66 0 1.258-2.28.285-2.28H.855c-.461 0-.855.62-.855 1.14z" fill="#797979"/><path d="M0 5.418v.713c0 3.547 5.418 5.122 5.418 2.71 0-1.426-1.47-.98-2.295-1.556C1.72 6.303 2.25 3.85 4.42 3.85h7.271c.89 0 1.537.431 1.854.998.43.769.035 1.532.903 1.95.706.34 1.732.019 2.604.246 2.074.541 1.575 3.65-.37 3.65h-6.274c-2.742 0-1.106-2.995-3.136-2.995-1.919 0-1.13 3.019.173 4.248.642.605 1.756 1.17 2.964 1.17h5.845c5.857 0 6.252-8.554-.285-8.554-.546-2.342-2.832-3.137-5.133-3.137-3.015 0-7.255-.447-9.17.953C.886 2.948 0 4.16 0 5.419zm62.307 23.953h2.138v3.565h-2.138V29.37zm-2.424-1.14v5.845c0 .588.479 1.283.998 1.283h4.848c.69 0 1.14-.45 1.14-1.14v-6.274c0-.519-.695-.998-1.283-.998h-4.42a1.29 1.29 0 00-1.283 1.284zm-8.413 1.14h2.282v3.564h-2.281v-3.564zm-2.28-1.283v6.13c0 .69.45 1.141 1.14 1.141h4.848c.607 0 .998-.882.998-1.568v-5.275c0-.89-.408-1.569-1.283-1.569h-4.42c-.69 0-1.283.405-1.283 1.141zM0 63.162v.346c.007.261.048.438.261.676.099.11.537.404.737.404h16.967c1.672 0 1.864-2.424-.285-2.424H1.568c-.686 0-1.568.391-1.568.998zm53.752.143c0 .777.507 1.284 1.283 1.284h16.967c.176 0 .55-.232.664-.335.172-.155.292-.39.334-.648V63.2c-.089-.533-.544-1.035-1.568-1.035H55.32c-.797 0-1.569.42-1.569 1.14zm-25.663 1.284h16.824c1.67 0 1.563-2.424-.143-2.424H28.231c-1.705 0-1.812 2.424-.142 2.424zM58.03 14.686c-1.606 0-1.215-2.139-.285-2.139h.285c1.523 0 1.37 2.14 0 2.14zm-.143 2.424c1.782 0 3.565-1.403 3.565-3.137 0-5.549-7.07-4.619-6.934-.3.057 1.817 1.673 3.437 3.37 3.437z" fill="#EBA707"/><path d="M28.659 43.772h10.836c.99 0 1.836-1.298 1.603-2.169-.301-1.126-1.866-1.266-2.174-.112h-9.695c-.308-1.154-1.873-1.013-2.174.112-.233.87.613 2.169 1.603 2.169z" fill="#797979"/></g><defs><clipPath id="clip0_2761_12154"><path fill="#fff" d="M0 0h73v73H0z"/></clipPath></defs></svg>