<svg width="65" height="65" fill="none" xmlns="http://www.w3.org/2000/svg"><g clip-path="url(#clip0_2761_12209)" fill-rule="evenodd" clip-rule="evenodd"><path d="M22.666 10.045a24 24 0 1126.668 39.911 24 24 0 01-26.668-39.911zM38.4 46.8v2.232A19.2 19.2 0 0055.032 32.4H52.8a2.4 2.4 0 010-4.8h2.232A19.2 19.2 0 0038.4 10.968V13.2a2.4 2.4 0 11-4.8 0v-2.232A19.2 19.2 0 0016.968 27.6H19.2a2.4 2.4 0 010 4.8h-2.232A19.2 19.2 0 0033.6 49.032V46.8a2.4 2.4 0 014.8 0z" fill="#fff"/><path d="M43.536 19.32l-12 5.088a2.4 2.4 0 00-1.248 1.248l-5.088 12a2.4 2.4 0 00.504 2.64 2.4 2.4 0 001.68.72c.332 0 .66-.073.96-.216l12-5.088a2.4 2.4 0 001.248-1.248l5.088-12a2.4 2.4 0 00-3.144-3.144zM32.088 33.96l5.472-2.4 2.4-5.472-5.472 2.4-2.4 5.472z" fill="#EBA707"/></g><defs><clipPath id="clip0_2761_12209"><path fill="#fff" d="M0 0h65v65H0z"/></clipPath></defs></svg>