<svg width="80" height="80" fill="none" xmlns="http://www.w3.org/2000/svg"><g clip-path="url(#clip0_2761_12119)" fill-rule="evenodd" clip-rule="evenodd"><path d="M3.438 41.407c0-.72.878-.47 2.656-.47.36 0 .469.11.469.47v36.25H3.438v-36.25zM3.125 0h3.762c.978.132 1.705.509 1.956 1.47.167.642.063 8.432.063 9.468 1.345.359 1.094 1.67 1.094 2.968h1.563c0-1.976-.343-4.522.575-5.362.293-.268.802-.576 1.3-.576h64.688c.86 0 1.875.732 1.875 2.031V42.03c0 .99-.996 1.719-2.03 1.719H62.97c-1.796 0-1.377-2.344-.313-2.344h15V10.467h-63.75v30.938h43.75c.447 0 .568.077.786.308.708.751.134 2.036-.63 2.036H13.594c-2.676 0-2.03-2.891-2.03-5.938H10c0 1.08.15 1.837-.326 2.486-.227.308-.332.382-.767.483v36.094C8.913 77.921 8.952 80 7.033 80H3.21c-1.698-.128-2.122-.75-2.115-3.28V40.935c-.669-.447-.97-.863-1.094-1.483V35c0-.748.498-1.247 1.094-1.407 0-2.083.005-4.166 0-6.25-.003-1.186-.207-2.055.666-2.476.77-.372 1.678.129 1.678 1.07v7.5h3.125v-14.69c0-.759-1.137-.469-3.125-.469 0 1.159.333 3.438-.938 3.438-1.871 0-1.406-1.345-1.406-3.594-.679-.158-1.094-.605-1.094-1.407V12.34c0-.748.498-1.247 1.094-1.406 0-1.21-.175-8.92.144-9.7C1.541.5 2.094-.003 3.126-.003V0zm-.781 35.781h4.844c.36 0 .469.11.469.47v2.343H2.344V35.78zm6.562-17.656c.75-.2 1.094-.745 1.094-1.718h1.563v18.906H10c0-.973-.343-1.518-1.094-1.718v-15.47zm-6.562-5h5.313v2.812H2.344v-2.812zM3.438 2.344h3.125v8.437H3.438V2.344z" fill="#797979"/><path d="M18.281 14.687h55v22.5h-55v-22.5zm-2.5-.937v24.219c0 .785.777 1.563 1.563 1.563H74.22c.785 0 1.562-.777 1.562-1.563V14.062c0-1.208-.667-1.874-1.874-1.874h-56.25c-1.01 0-1.875.584-1.875 1.562h-.002z" fill="#797979"/><path d="M20.157 20.157c0 .91.92 5.301 1.159 6.497.347 1.733.713 5.847 1.966 5.847 1.825 0 1.708-.68 2.556-3.538L27.09 24.9c.012-.03.039-.083.049-.107.01-.024.03-.073.05-.106l1.89 6.39c.352 1.144.546 1.423 1.704 1.423 1.419 0 1.328-1.575 1.574-2.801l1.81-9.373c-.102-1.25-2.074-1.816-2.47.12-.144.707-.29 1.51-.432 2.222-.233 1.165-.769 3.21-.795 4.363l-1.962-6.32c-.348-1.23-.428-1.493-1.631-1.493-.97 0-1.977 4.288-2.344 5.624-.236.861-.382 1.74-.781 2.032l-1.1-6.244c-.067-.323-.15-.7-.317-.934-.683-.958-2.178-.365-2.178.459h.001zm19.218 3.437c.038.459 1.187 3.491 1.407 3.906h-2.969c.043-.511.471-1.476.67-1.986.25-.636.425-1.578.893-1.92zM34.687 32.5h.626c1.212 0 .981-2.656 1.874-2.656h4.063c.924 0 .72 2.656 1.874 2.656 2.726 0 1.122-2.33.45-4.357l-2.348-6.402c-.455-1.223-.587-2.523-2.007-2.523-1.379 0-1.617 1.768-2.031 2.812-.479 1.208-.868 2.383-1.36 3.639-.472 1.199-.887 2.35-1.315 3.53-.178.493-.56 1.302-.676 1.835-.137.626.239 1.465.85 1.465zm24.22-10.938c0 3.612 3.18 2.357 3.594 3.907-2.062.493-1.584-.782-2.656-.782-1.322 0-1.25 1.043-1.25 1.563 0 .999 3.397 2.838 5.496.965 1.237-1.104 1.225-2.982-.312-4.118-.427-.316-1.904-1.013-2.529-1.065.63-.908 1.013.156 2.813.156.877 0 1.948-2.226-1.404-2.822-2.005-.357-3.753.8-3.753 2.198l.001-.002zm-5.312-.782v10.47c0 1.795 2.16 1.25 5.313 1.25 1.104 0 1.438-2.344-.313-2.344h-2.5V20.47c0-1.557-2.5-1.958-2.5.313v-.001zm-7.5-.623v11.406c0 .344.348.938 1.094.938 4.044 0 5 .482 5-1.407 0-1.296-2.423-.937-3.75-.937v-10c0-1.246-2.343-1.246-2.343 0h-.001zm19.53.313c0 1.213.958 1.25 1.72 1.25v5.156c0 1.547 2.343 1.547 2.343 0v-5.157c2.316 0 1.907-1.789 1.145-2.239-.304-.179-5.208-1.036-5.208.99z" fill="#EBA707"/></g><defs><clipPath id="clip0_2761_12119"><path fill="#fff" d="M0 0h80v80H0z"/></clipPath></defs></svg>