<svg width="150" height="120" fill="none" xmlns="http://www.w3.org/2000/svg"><path fill-rule="evenodd" clip-rule="evenodd" d="M5.86 97.425V5.94h94.921v91.486c0 4.696-1.322 8.938-4.456 12.115-3.134 3.178-7.318 4.518-11.95 4.518h-62.11c-4.631 0-8.815-1.34-11.95-4.518-1.232-1.25-2.612-3.322-3.248-5.023-.744-1.991-1.208-4.398-1.208-7.093zm100.78-61.781v-7.425c5.747-1.358 8.463-2.173 15.063-.718 2.064.455 3.825 1.156 5.457 1.893 1.726.78 2.941 1.517 4.5 2.566l4.069 3.301c6.599 6.69 10.192 18.118 7.415 27.888-1.77 6.225-5.144 11.718-10.131 15.57-6.136 4.741-14.926 7.269-22.837 5.618-1.272-.266-2.378-.597-3.536-.87V76.04c11.174 5.436 25.781-2.532 25.781-8.02 0-1.938-2.546-4.513-6.081-.818-1.806 1.889-3.821 3.116-6.406 3.901-3.849 1.17-7.865.875-11.349-.896-.833-.424-1.113-.773-1.945-.998V42.475c7.261-3.895 14.345-3.673 20.176 2.415 4.24 4.427 10.33-2.131-.451-8.157-5.832-3.26-13.684-4.028-19.725-1.09zM0 2.673V100.1c0 9.997 9.768 19.9 19.629 19.9h67.383c9.86 0 19.629-9.903 19.629-19.901v-10.1c1.481 0 4.309.892 10.254.892 6.741 0 13.43-2.876 18.402-6.294l4.678-3.87c5.373-5.092 10.025-15.47 10.025-23.4 0-8.843-1.512-14.738-6.326-21.805-2.069-3.038-3.382-4.207-5.903-6.49-5.038-4.562-13.497-8.24-20.584-8.24-6.92 0-8.481.844-10.546.891V2.673c0-1.468-1.189-2.673-2.637-2.673H2.637C1.189 0 0 1.205 0 2.673z" fill="#fff"/><path fill-rule="evenodd" clip-rule="evenodd" d="M45.996 44.258c1.42.12 3.816 2.047 5.576-1.476.586-1.173 1.123-2.126 1.456-3.574h.586c.432 1.884 1.839 5.644 4.101 5.644 2.353 0 1.2-.448 2.93-.594-.038 1.71-1.057 4.697-1.392 6.311-.597 2.875-3.681 9.728 1.685 9.728 2.094 0 6.299-4.888 8.203-5.05.473 1.797 2.115 2.985 4.687 2.377-.845 3.68.002 3.135 2.051 6.238-.329.455-1.202 1.113-1.719 1.524l-10.638 8.819c-1.892 1.722-.753 3.552-.533 4.509H43.653c.22-.956 1.287-2.641-.379-4.37l-8.827-7.386c-.854-.686-2.876-2.58-3.685-2.799.783-2.971 3.175-1.645 2.051-6.535 2.602.632 4.229-.634 4.688-2.376 2.031.172 5.833 5.05 8.496 5.05 1.5 0 2.93-1.563 2.93-2.97 0-1.617-2.87-10.83-2.93-13.07zm1.172-6.535c-2.152-.508-7.036-4.342-8.569-.048-.467 1.31 1.008 6.215 1.423 7.888.319 1.289.547 3.096.994 4.041-1.435-.388-1.804-1.782-3.809-1.782-1.807 0-2.795 2.38-4.101 3.268-2.526-.597-9.669-4.974-9.669 1.188 0 1.236 2.611 5.658 3.223 6.831-1.618 2.451-3.223 2.757-3.223 5.347 0 2.061 4.958 5.387 6.536 6.74l3.718 3.062c.945.745 2.855 2.712 3.809 2.97-.058.7-3.288 7.426 1.758 7.426H50.39c0 4.017-.897 8.911 2.93 8.911 3.861 0 2.93-4.485 2.93-8.91h11.132c1.788 0 2.93-1.326 2.93-3.268 0-1.19-1.036-2.507-1.172-4.159.968-.262 2.717-2.105 3.64-2.845 1.367-1.096 2.409-2.003 3.722-3.057 1.59-1.276 6.7-4.845 6.7-6.87 0-2.59-1.604-2.896-3.222-5.346 1.126-2.157 3.222-5.247 3.222-7.426 0-5.333-8.084-.968-9.668-.594-1.306-.887-2.294-3.267-4.101-3.267-2.005 0-2.374 1.393-3.809 1.782.44-.93.638-2.59.935-3.805.93-3.798 3.574-10.156-1.52-10.156-1.317 0-3.876 1.68-5.567 2.08-2.331-4.468-3.31-8.911-6.152-8.911-.919 0-1.955.584-2.404 1.127-.539.65-.803 1.749-1.208 2.636-.803 1.76-1.686 3.51-2.54 5.147zm84.082 17.822c0 4.442 5.859 4.442 5.859 0 0-3.589-5.859-3.589-5.859 0z" fill="#EBA707"/></svg>