<svg width="45" height="59" fill="none" xmlns="http://www.w3.org/2000/svg"><path fill-rule="evenodd" clip-rule="evenodd" d="M42.982 0c.398 0 .884.004 1.22.245.393.283.455.77.455 1.22v54.484c0 .471-.005.99-.093 1.453-.07.37-.203.72-.486.98-.28.258-.641.367-1.01.424-.469.072-.98.072-1.454.072H2.836c-.468 0-.988-.002-1.448-.088-.366-.07-.71-.2-.958-.49-.242-.282-.333-.647-.378-1.009C-.006 56.82 0 56.313 0 55.838V1.302C.015.96.071.621.318.364c.292-.303.736-.36 1.137-.36l7.507.017c.156 0 .29.084.36.225l3.204 6.523c.07.145.2.225.361.225l18.84-.022c.16 0 .289-.08.36-.225L35.291.225A.394.394 0 0135.65 0h7.331zM10.856 9.44L7.652 2.919a.386.386 0 00-.36-.225H3.095a.403.403 0 00-.402.402v52.688c0 .22.181.401.402.401h38.467a.403.403 0 00.402-.401V3.094a.377.377 0 00-.118-.285.376.376 0 00-.286-.117l-4.152.022a.386.386 0 00-.359.225l-3.203 6.522a.393.393 0 01-.362.224l-22.267-.02a.394.394 0 01-.36-.225z" fill="#797979"/><path fill-rule="evenodd" clip-rule="evenodd" d="M37.261 13.988H7.396a.403.403 0 00-.402.402v23.104c0 .222.18.402.402.402h29.865c.221 0 .402-.18.402-.402V14.39a.403.403 0 00-.402-.402zm-27.172 2.693h24.48c.22 0 .401.181.401.402v17.718c0 .221-.18.402-.402.402H10.09a.403.403 0 01-.402-.402V17.083c0-.22.181-.402.402-.402z" fill="#EBA707"/><path fill-rule="evenodd" clip-rule="evenodd" d="M30.267 20.98H14.39a.403.403 0 00-.402.402v2.006c0 .221.18.402.402.402h15.877c.221 0 .402-.18.402-.402v-2.006a.403.403 0 00-.402-.402zm0 7.114H14.39a.403.403 0 00-.402.402V30.5c0 .222.18.402.402.402h15.877c.221 0 .402-.18.402-.402v-2.005a.403.403 0 00-.402-.402z" fill="#797979"/><path fill-rule="evenodd" clip-rule="evenodd" d="M33.169 42.195H11.488c-2.216 0-4.494 2.278-4.494 4.494v.7c0 2.216 2.278 4.493 4.494 4.493h21.681c2.216 0 4.494-2.277 4.494-4.494v-.699c0-2.216-2.278-4.494-4.494-4.494zm-20.982 2.693H32.47c.67 0 1.338.187 1.834.657a2.052 2.052 0 010 2.988c-.496.47-1.163.657-1.834.657H12.187c-.67 0-1.338-.188-1.834-.657a2.052 2.052 0 010-2.988c.496-.47 1.163-.657 1.834-.657z" fill="#EBA707"/></svg>