<svg width="49" height="63" fill="none" xmlns="http://www.w3.org/2000/svg"><g clip-path="url(#clip0_2761_9615)" fill-rule="evenodd" clip-rule="evenodd"><path d="M3.233 54.633c3.003 0 5.348 2.336 5.348 5.66v.615H2.24v-6.275h.994zM8.582 2.092c0 2.596-.679 4.66-3.023 5.745-1.228.568-2.003.53-3.32.53V2.092h6.343zm-3.233 8.12v42.575c-.378-.18-1.467-.326-1.99-.369V10.582c.523-.043 1.612-.19 1.99-.37zm4.228-2.83h29.848c.342 0 .735.776 1.534 1.436.284.234.456.172.456.534v44.296c0 .362-.172.3-.456.534-.864.713-1.134 1.435-1.534 1.435H9.576c-.353 0-.38-.208-.555-.435l-.98-1c-.283-.234-.455-.172-.455-.534V9.352c0-.362.172-.3.456-.534l.995-.985c.237-.28.173-.45.54-.45zm.87 50.45h28.107c-.213.905-.248.961-.248 1.969h-27.61c0-1.008-.035-1.064-.248-1.969zM38.306 3.199c0 1.008.035 1.064.248 1.969H10.447c.213-.905.248-.961.248-1.969h27.61zm7.337 7.383v41.836c-.523.043-1.611.19-1.99.37V10.212c.379.18 1.467.326 1.99.369zm.124 44.05h.995v6.276H40.42c0-1.97.212-3.355 1.46-4.585 1.041-1.029 2.214-1.69 3.888-1.69zM40.42 2.708v-.615h6.342v6.275c-2.103 0-3.29-.12-4.82-1.629-.957-.943-1.522-2.19-1.522-4.031zM46.886 0h-7.587c-.65 0-.944.379-.994.984h-27.61C10.645.38 10.351 0 9.701 0H2.114C.628 0 0 1.208 0 2.707v6.152c0 1.91 1.12 1.328 1.12 1.97v41.343c0 .641-1.12.058-1.12 1.969v6.152C0 61.792.628 63 2.114 63h7.587c.65 0 .944-.379.994-.984h27.61c.05.605.344.984.995.984h7.586C48.372 63 49 61.792 49 60.293v-6.398c0-1.535-1.12-1.09-1.12-1.723V10.828c0-.641 1.12-.058 1.12-1.969V2.707C49 1.208 48.372 0 46.886 0z" fill="#797979"/><path d="M26.41 10.653c0 1.106 1.374 2.102 2.461 3.178l7.258 7.18c.448.446 1.01 1.197 1.793 1.197.698 0 1.502-.795 1.502-1.485 0-.993-5.17-5.692-6.132-6.644-.793-.785-4.088-4.365-5.017-4.622-1.202-.332-1.865.998-1.865 1.196zm10.177-1.155c-1.129 0-1.501.368-1.501 1.486 0 .75 2.286 3.795 3.812 2.286 1.625-1.608-1.688-3.772-2.31-3.772z" fill="#EBA707"/></g><defs><clipPath id="clip0_2761_9615"><path fill="#fff" transform="rotate(90 24.5 24.5)" d="M0 0h63v49H0z"/></clipPath></defs></svg>