<svg width="104" height="106" fill="none" xmlns="http://www.w3.org/2000/svg"><path d="M20.368 55.898h14.514l-7.257-14.793L20.368 55.9zm15.996-10.869l5.332 10.869h5.374l-7.635-15.564-3.07 4.695zM94.86 0H9.343C4.296 0 0 4.171 0 9.316v3.106h11.007c3.38 0 6.376 1.743 7.822 4.546 1.06 2.056 4.345 2.056 5.404 0 1.446-2.803 4.442-4.546 7.823-4.546h39.853c3.377 0 6.597 1.75 8.073 4.564 1.066 2.032 4.317 2.03 5.377.003 1.479-2.817 4.495-4.567 7.873-4.567H104V9.316C104 4.171 99.907 0 94.86 0z" fill="#EBA707"/><path d="M90.735 19.915c-1.588 3.04-4.68 4.929-8.063 4.929-3.383 0-6.475-1.89-8.066-4.931-.405-.776-1.59-1.28-2.697-1.28H32.056c-1.075 0-2.05.494-2.431 1.228-1.587 3.072-4.687 4.983-8.094 4.983-3.407 0-6.507-1.911-8.093-4.983-.38-.734-1.357-1.228-2.431-1.228H0v46.582c0 5.145 4.296 9.316 9.344 9.316h9.14v9.317c0 1.716 1.363 3.105 3.047 3.105h24.375V99.79h-6.093c-1.684 0-3.047 1.389-3.047 3.106 0 1.716 1.363 3.105 3.047 3.105h24.374c1.684 0 3.047-1.389 3.047-3.105 0-1.717-1.363-3.106-3.046-3.106h-6.094V86.953h24.578c1.684 0 3.047-1.39 3.047-3.105V74.53h9.14c5.048 0 9.141-4.171 9.141-9.316V18.633H93.232c-1.107 0-2.09.504-2.497 1.282zM45.906 80.742H24.578v-6.21h21.328v6.21zm8.685-20.106A3.036 3.036 0 0152 62.109H15.437a3.036 3.036 0 01-2.59-1.473 3.153 3.153 0 01-.135-3.022L24.9 32.772c1.035-2.105 4.415-2.105 5.45 0l2.875 5.86 4.052-6.193c.604-.922 1.568-1.408 2.726-1.378 1.083.07 2.05.723 2.535 1.71l12.188 24.844a3.153 3.153 0 01-.135 3.022zm25.034 20.106H58.094v-6.21h21.531v6.21zm9.14-18.633H64.188c-1.683 0-3.046-1.389-3.046-3.105s1.363-3.106 3.047-3.106h24.578c1.683 0 3.046 1.39 3.046 3.106s-1.363 3.105-3.046 3.105zm0-12.422H64.188c-1.683 0-3.046-1.389-3.046-3.105s1.363-3.105 3.047-3.105h24.578c1.683 0 3.046 1.389 3.046 3.105s-1.363 3.105-3.046 3.105zm0-12.421H64.188c-1.683 0-3.046-1.39-3.046-3.106s1.363-3.105 3.047-3.105h24.578c1.683 0 3.046 1.39 3.046 3.105 0 1.716-1.363 3.106-3.046 3.106z" fill="#fff"/></svg>