<svg width="58" height="58" fill="none" xmlns="http://www.w3.org/2000/svg"><g clip-path="url(#clip0_2761_9586)" fill-rule="evenodd" clip-rule="evenodd"><path d="M24.242 51.09c0-.335.701-.871.935-1.105l1.02-1.02 2.095-2.095 4.22-4.163v9.855h-8.27V51.09zm27.98 1.472h-7.929V39.31h8.27v12.914c0 .26-.08.34-.34.34zm-18.011-.34v-11.1c0-.287 1.525-1.813 1.813-1.813h6.456v13.254h-7.93c-.26 0-.34-.078-.34-.34h.001zm5.55-16.652h13.934c.725 0 1.547.526 1.898.935.436.508.708 1.321.708 2.237v14.274c0 4.077-4.032 3.285-6.91 3.285H18.465c.192-.262 1.293-.887 2.068-1.67.483-.49 1.407-1.514 1.897-1.842 0 .634.22 1.473.793 1.473h30.133c.547 0 .906-.359.906-.907V38.402c0-1.242-1.663-.906-3.399-.906h-13.14c.212-.317 1.685-1.926 2.039-1.926zm-14.358 6.372c-.356-.248-.637-.539-.915-.84-.377-.407-.25-.723-.246-1.453V29.227l6.939 6.882-5.778 5.833zm-1.16-15.434c0-2.726-.406-1.69 2.293-4.39.595-.595 1.957-1.819 2.35-2.407l9.375 9.317-5.834 5.89-4.135-4.19c-.316-.317-4.05-3.859-4.05-4.22zm5.975-8.015l5.777-5.834 9.346 9.29-5.778 5.833-9.345-9.289zm-5.976 3.37c0-3.353-.575-2.2 1.728-4.503l3.115-3.115L32.2 11.13c.85-.85 2.196-2.634 3.71-2.634 1.753 0 3.042 1.739 3.993 2.69l6.797 6.797c1.396 1.396 4.374 3.638 1.814 6.176-2.71 2.687-24.008 24.148-24.612 24.552.403-1.729.34-3.202.34-5.324.747.5.285.68 1.36.68.387 0 5.164-4.995 5.522-5.353l15.01-15.01c1.683-1.684 1.885-1.57.113-3.342l-8.553-8.552c-2.045-2.045-1.602-1.74-4.814 1.472l-2.889 2.889c-.85.85-5.226 5.342-5.749 5.692zM0 4.305v42.14C0 52.403 5.598 58 11.555 58h42.14C55.87 58 58 55.868 58 53.695V38.062c0-1.452-.973-2.747-1.826-3.384-1.304-.976-2.116-.92-4.291-.92H41.46c.63-.942 8.147-7.907 9.065-9.287.688-1.032.677-1.657.677-2.834 0-1.95-1.817-3.46-2.86-4.503l-3.739-3.739-3.681-3.681c-2.068-2.068-2.575-2.917-5.466-2.917-2.005 0-4.373 2.957-5.919 4.503-.796.795-4.795 4.904-5.296 5.239v-3.285c0-1.55.254-2.719-.906-2.719-1.097 0-.907 1.482-.906 2.606v32.058c0 2.25-.15 3.908-1.31 5.827-1.033 1.707-1.856 2.545-3.493 3.644-6.155 4.134-15.928.103-15.928-9.244V4.984C1.7 2.914 2.914 1.7 4.984 1.7h14.274c1.472 0 2.455.573 2.984 1.774.459 1.04-.045 3.551.276 4.595.394 1.28 1.724.602 1.724-.025 0-2.719.388-4.893-1.27-6.66C22.393.77 21.096 0 19.936 0H4.306C2.12 0 0 2.12 0 4.305z" fill="#797979"/><path d="M5.438 25.488H18.69v8.27H5.438v-8.27zm0-2.039v-7.93H18.69v8.27H5.777c-.26 0-.34-.079-.34-.34zm0-17.672c0-.26.078-.34.34-.34h12.914v8.27H5.438v-7.93zm-1.7-1.132v30.132c0 .572.84.793 1.473.793h13.82c.815 0 1.473-.211 1.473-1.02V4.646c0-.548-.358-.907-.906-.907H4.645c-.548 0-.907.359-.907.907zm8.383 45.991c-5.077 0-6.625-6.973-1.932-9.069 1.25-.558 2.605-.617 3.861.004 1.108.547 1.859 1.224 2.376 2.382 1.507 3.375-1.091 6.683-4.305 6.683zm6.457-4.191c0-2.116-.257-3.522-1.88-5.144a6.515 6.515 0 00-1.705-1.24c-3.069-1.57-7.206-.395-8.876 3.325-2.2 4.904 2.714 10.712 8.337 8.563 2.21-.844 4.124-3.242 4.124-5.504z" fill="#EBA707"/><path d="M12.121 46.898c-.462 0-1.02-.446-1.02-.907 0-.922.945-1.436 1.656-.863.702.566.265 1.77-.636 1.77zm-2.719-1.473v.793c0 1.15 1.228 2.379 2.38 2.379.929 0 1.685-.036 2.35-.822 1.055-1.247.968-3.107-.388-4.086-.497-.358-.542-.147-.762-.71-.177-.454-.202-.71-.796-.774-.396-.043-.692.168-.855.504-.37.765.14.386-.704.882-.669.393-1.225 1.256-1.225 1.834z" fill="#EBA707"/></g><defs><clipPath id="clip0_2761_9586"><path fill="#fff" d="M0 0h58v58H0z"/></clipPath></defs></svg>