<svg width="60" height="45" fill="none" xmlns="http://www.w3.org/2000/svg"><g clip-path="url(#clip0_2761_9567)" fill-rule="evenodd" clip-rule="evenodd"><path d="M11.227 22.51c.687-1.027 3.234-3.553 4.147-4.59l4.298-4.687c.427-.511.754-.981 1.285-1.337 0 1.454-.502 5.62.873 5.62h16.34c.949 0 .877-1.74.874-2.373-.004-1.082 0-2.165 0-3.247l9.73 10.614-3.523 3.966c-.474.514-.819.765-1.27 1.35l-4.937 5.298c0-.7.07-4.281-.067-4.803-.103-.391-.407-.816-.806-.816H21.955c-1.083 0-1.003 1.155-.999 2.247.005 1.124 0 2.248 0 3.372L11.228 22.51zm-2.12-.125c0 .997.372 1.446 1.152 2.218l1.497 1.623c1.73 1.71 4.09 4.599 5.866 6.365l1.496 1.624c.16.162.217.227.36.39 1.417 1.597 3.6.528 3.6-1.356v-3.746h13.845c0 2.443-.58 5.869 1.996 5.869 1.429 0 2.317-1.648 3.399-2.717l6.562-7.167c1.204-1.51 3.424-2.543.86-5.07-.556-.548-.878-1.012-1.434-1.56-.549-.541-.877-1.009-1.434-1.561l-5.113-5.621c-.262-.284-.482-.463-.753-.745-.441-.46-.753-1.283-2.087-1.283-2.577 0-1.995 3.359-1.995 5.87H23.076c0-2.863.597-5.87-2.12-5.87-1.19 0-1.507.834-2.59 1.904l-8.107 8.867c-.519.515-1.153.992-1.153 1.966z" fill="#797979"/><path d="M4.99 42.864c-.541 0-1.084-.005-1.624.002-.577.008-1.245.167-1.245-.377V2.531c0-.815 2.345-.497 2.869-.374.065.28.124.287.124.624V42.24c0 .16-.08.526-.124.624zM0 2.781V42.24c0 3.11 2.898 2.747 4.49 2.747 1.523 0 2.62-1.071 2.62-2.373V2.406C7.11-.382 3.953.034 2.37.034 1.082.034 0 1.294 0 2.78zM54.886 42.24V2.78c0-.336.06-.343.124-.623.524-.123 2.87-.44 2.87.374V42.49c0 .618-1.676.375-2.87.375-.065-.28-.124-.287-.124-.624zM52.89 2.406v40.208c0 2.696 3.045 2.373 4.615 2.373 1.5 0 2.495-1.262 2.495-2.997V2.78c0-1.177-.472-1.898-1.316-2.428-.804-.505-2.11-.318-3.424-.318-1.275 0-2.37 1.096-2.37 2.372zM27.817 21.512h6.361c1.044 0 1.044-1.998 0-1.998h-6.361c-1.06 0-1.06 1.998 0 1.998zm-5.987 0c1.365 0 3.243.343 3.243-.999 0-1.327-1.795-.998-3.244-.998-1.043 0-1.043 1.997 0 1.997z" fill="#EBA707"/></g><defs><clipPath id="clip0_2761_9567"><path fill="#fff" d="M0 0h60v45H0z"/></clipPath></defs></svg>