<svg width="66" height="51" fill="none" xmlns="http://www.w3.org/2000/svg"><path fill-rule="evenodd" clip-rule="evenodd" d="M9.165 14.304c0 .522 1.409 2.23 2.213-.24l2.352-7.716c.159-.485.434-1.602.648-1.933 1.336-2.073 5.947-1.969 7.515-.775.974.742.888 1.085 1.294 2.32l11.12 36.252c.725 2.622 1.682 3.344-.786 4.58-.992.496-3.09 1.061-3.994.33-.429-.347-1.242-3.717-1.433-4.376l-1.259-4.42c-.165-.48-.336-.917-1.02-.917H11.23c-1.023 0-1.053 1.011-1.42 2.323a341.1 341.1 0 01-.859 3.014c-.295 1.022-.545 1.911-.834 2.909-.271.936-.222 1.822-2.05 1.822-1.39 0-4.13-1.02-4.13-2.194 0-.72.213-1.228.403-1.79l3.644-11.846c.352-1.195 4.084-12.601 4.084-13.858 0-.502-1.519-1.712-2.123.458l-4.8 15.595C2.707 35.175 0 43.907 0 44.379v.73c.02 1.237.239 2.3 2.236 3.359 1.591.844 3.736 1.426 5.498.805a3.199 3.199 0 001.276-.79c.967-.966 1.705-4.41 2.119-5.883.276-.984.631-2.078.875-3.126h13.037l1.762 6.24c.602 2.082 1.154 3.828 4.176 3.828 2.178 0 6.196-1.512 6.196-4.647 0-.61-4.031-13.59-4.468-14.894L26.349 9.253c-.262-.852-1.525-5.144-1.91-5.836-1.756-3.16-7.604-3.493-10.759-1.25-1.235.88-1.402 2.113-1.917 3.634l-1.936 6.325c-.088.258-.662 2.063-.662 2.178z" fill="#EBA707"/><path fill-rule="evenodd" clip-rule="evenodd" d="M40.143 22.563c0 2.349 1.294 5.034 4.002 5.034 1.809 0 2.286-1.936 7.228-1.936 2.71 0 4.389 1.956 4.389 4.647-4.523 0-8.113-.11-12.28 1.79-6.369 2.905-5.94 11.237-3.359 14.494 3.87 4.881 10.893 4.223 15.364.608.293-.237.552-.53.92-.628.08.952.906 1.726 1.6 2.143 3.244 1.95 7.952.085 7.952-2.66v-6.97c0-1.09-2.086-2.193-2.066 1.16l.005 5.04c.01.837.114.877-.346 1.333-.969.959-3.382 1.169-4.624.273-1.38-.995.288-3.89-1.617-3.885-1.454.004-3.013 4.986-10.069 4.986-6.654 0-8.685-7.903-5.148-12.377.927-1.173 2.668-2.005 4.27-2.442a22.752 22.752 0 015.912-.8c1.12.002 2.24-.005 3.358.002 2.28.014 2.193-.487 2.193-1.938 0-2.75-1.434-5.433-3.758-6.31-4.85-1.829-9.46 1.405-10.054 1.405-1.282 0-1.807-1.795-1.807-2.97 0-2.44 10.033-5.541 16.694-1.849 2.216 1.23 4.011 3.508 4.657 6.315.462 2.007.351 5.536.331 7.93-.023 2.743 2.069 1.827 2.069 1.03 0-5.254.62-10.488-2.938-14.49-7.087-7.972-22.878-4.109-22.878 1.065z" fill="#797979"/><path fill-rule="evenodd" clip-rule="evenodd" d="M18.587 16.37l2.01 7.284c.362 1.274.676 2.345 1.033 3.613l.958 3.689h-8.26c.278-1.198.678-2.478 1.017-3.63.37-1.258.702-2.492 1.048-3.728l1.533-5.437c.224-.763.307-1.532.66-1.791zm-6.583 15.49c0 .628.168 1.032.904 1.032h11.358c.339 0 .775-.57.775-.775 0-.735-4.57-16.473-5.118-18.374-.383-1.324-.436-2.278-1.465-2.278-1.007 0-1.095 1.187-1.336 2.02-.54 1.87-5.118 17.705-5.118 18.374z" fill="#EBA707"/><path fill-rule="evenodd" clip-rule="evenodd" d="M50.986 41.929c-2.256 0-2.323-1.459-2.323-2.84 0-2.885 6.492-2.29 7.1-2.582 0 1.75-.616 2.654-1.4 3.635-.575.72-2.117 1.787-3.377 1.787zm-4.388-2.711v.645c0 2.357 1.887 4.13 4.26 4.13 3.449 0 6.97-3.664 6.97-7.099 0-2.781.112-2.323-4.002-2.323-3.025 0-7.228 1.061-7.228 4.647z" fill="#797979"/></svg>