<svg width="70" height="51" fill="none" xmlns="http://www.w3.org/2000/svg"><g clip-path="url(#clip0_2761_9578)" fill-rule="evenodd" clip-rule="evenodd"><path d="M2.05 26.112c1.047-.242 2.007-.738 3.816-1.1 8.509-1.707 16.883.974 24.348 1.373.531.028 1.111-.021 1.646-.006.686.02.758.135 1.494.147 4.403.07 10.031-1.32 13.586-3.089 3.215-1.6 3.45-1.915 5.971-3.852.638-.49 1.16-1.223 1.776-1.633l.003 10.202c-.09 1.051-.895 1.494-2.053 1.494H4.238c-2.281 0-2.187-1.315-2.187-3.536zM41.153 2.04l11.216-.005c1.047-.001 2.32.242 2.32 1.501v11.016c0 .343-1.439 1.77-1.744 2.074-1.75 1.741-4.373 3.792-6.654 4.805-13.664 6.074-20.77.873-34.942.873-5.398 0-8.285 1.412-9.297 1.496v-4.624c.818 0 3.615-.56 5.069-.67 6.748-.514 8.347-.253 15.298.13 4.84.267 12.748 2.178 17.062-2.075 3.581-3.53 3.887-8.557 2.22-13.027-.069-.186-.2-.49-.277-.676-.096-.238-.181-.618-.27-.818zm-9.023 0h6.699c.603 2.574 1.64 2.283 1.64 7.48 0 4.403-3.769 7.616-8.34 7.616-4.085 0-5.626-.406-8.885-.545-2.75-.118-3.994-.423-7.112-.405-1.229.007-2.196-.242-3.546-.13l-8.836.73c-.636.098-1.014.214-1.698.214V4.488c2.407 0 6.84 2.267 9.025 3.398l4.052 2.225c4.964 2.506 14.621 6.016 18.14.135 1.73-2.889.149-5.785-1.14-8.206zM0 3.264v25.16c0 1.579 1.694 3.264 3.281 3.264h50.176c1.932 0 3.418-1.828 3.418-4.08V4.08c0-2.282-1.507-4.08-3.418-4.08H22.832c-1.13 0-1.335 1.334-.636 1.855.499.372 4.87.187 5.695.185 1.7-.005 1.658-.351 2.826 1.813.756 1.4 1.138 2.192 1.138 4.035 0 2.032-2.506 3.4-4.648 3.4-8.907 0-13.861-5.626-21.276-8.076a38.065 38.065 0 00-1.57-.478l-1.531-.38c-.022-.009-.066-.024-.096-.042 1.99-.461 2.402-.272 4.786-.272l10.254.001c.98.006 1.678.125 1.952-.656C19.956.727 19.558 0 18.73 0H3.281C1.694 0 0 1.685 0 3.264z" fill="#797979"/><path d="M58.789 20.264c0 1.606 3.434 1.088 5.059 1.088 4.137 0 4.101-.281 4.101 3.944-2.042 0-4.512-.427-4.512 1.224 0 1.34 3.04.952 4.512.952v10.88c-1.088.09-4.36 1.374-6.012 1.363l-18.734-.003c-2.569 0-3.008-.114-3.008 1.36 0 1.012 1.922.816 3.008.816 2.68 0 18.845-.117 19.492.058l4.698 1.99c.798.332.556.367.556 2.848 0 1.271-.507 2.04-1.777 2.04H16.816c-.798 0-1.503-.702-1.503-1.496v-9.384H27.07c1.425 0 1.693-2.176-.41-2.176H15.312c0-.886.12-2.04-1.093-2.04-.706 0-1.094.566-1.094 1.224v11.696c0 2.784 1.46 4.352 4.238 4.352h48.535C68.192 51 70 49.5 70 47.6v-4.215c-.178-.925-.832-1.001-2.91-1.867-.395-.165-.833-.281-1.055-.582.75-.017 1.666-.376 2.324-.544.768-.197 1.64-.254 1.64-1.224V22.576c0-1.829-1.7-3.4-3.964-3.4h-6.016c-.663 0-1.23.45-1.23 1.088z" fill="#EBA707"/></g><defs><clipPath id="clip0_2761_9578"><path fill="#fff" d="M0 0h70v51H0z"/></clipPath></defs></svg>