<svg width="170" height="170" fill="none" xmlns="http://www.w3.org/2000/svg"><g filter="url(#filter0_b_2761_10053)"><circle cx="85" cy="85" r="85" fill="#fff" fill-opacity=".05"/><circle cx="85" cy="85" r="83.5" stroke="#AAAAA9" stroke-width="3"/></g><g clip-path="url(#clip0_2761_10053)"><path d="M66.996 74.711c7.102 0 12.86-5.757 12.86-12.86 0-7.101-5.758-12.859-12.86-12.859-7.102 0-12.86 5.758-12.86 12.86 0 7.102 5.758 12.86 12.86 12.86z" fill="#EBA707"/><path d="M85 23.273c-34.038 0-61.727 27.691-61.727 61.727 0 34.035 27.689 61.726 61.727 61.726S146.726 119.035 146.726 85c0-34.036-27.688-61.727-61.726-61.727zm14.505 113.075c1.606-5.107.951-10.165.926-10.198 0-17.018 13.844-30.863 30.863-30.863 2.517 0 4.967.41 7.374 1.002l-39.163 40.059zm31.789-46.205c-2.081 0-4.108.216-6.094.557L99.678 65.178a2.57 2.57 0 00-3.637 0L73.738 87.48a2.57 2.57 0 000 3.637l6.43 6.43a2.571 2.571 0 010 3.637c-.975.969-2.663.969-3.637 0L58.527 83.181a2.57 2.57 0 00-3.637 0l-22.502 22.503c-2.532-6.416-3.97-13.38-3.97-20.684C28.417 53.8 53.8 28.417 85 28.417c31.199 0 56.582 25.383 56.582 56.583 0 2.21-.159 4.38-.407 6.525a35.948 35.948 0 00-9.881-1.382z" fill="#fff"/></g><defs><clipPath id="clip0_2761_10053"><path fill="#fff" transform="translate(23.273 23.273)" d="M0 0h123.452v123.452H0z"/></clipPath><filter id="filter0_b_2761_10053" x="-50" y="-50" width="270" height="270" filterUnits="userSpaceOnUse" color-interpolation-filters="sRGB"><feFlood flood-opacity="0" result="BackgroundImageFix"/><feGaussianBlur in="BackgroundImageFix" stdDeviation="25"/><feComposite in2="SourceAlpha" operator="in" result="effect1_backgroundBlur_2761_10053"/><feBlend in="SourceGraphic" in2="effect1_backgroundBlur_2761_10053" result="shape"/></filter></defs></svg>