<svg width="109" height="109" fill="none" xmlns="http://www.w3.org/2000/svg"><g clip-path="url(#clip0_2761_9941)"><path d="M38.604 45.417c6.27 0 11.354-5.083 11.354-11.354 0-6.27-5.083-11.354-11.354-11.354-6.27 0-11.354 5.083-11.354 11.354 0 6.27 5.083 11.354 11.354 11.354z" fill="#EBA707"/><path d="M54.5 0C24.447 0 0 24.45 0 54.5S24.447 109 54.5 109 109 84.55 109 54.5 84.553 0 54.5 0zm12.808 99.837c1.417-4.509.84-8.975.817-9.004 0-15.026 12.224-27.25 27.25-27.25 2.222 0 4.386.362 6.511.885l-34.578 35.37zm28.067-40.795c-1.837 0-3.627.19-5.38.491L67.46 37a2.27 2.27 0 00-3.211 0L44.556 56.69a2.27 2.27 0 000 3.211l5.678 5.677a2.27 2.27 0 010 3.211c-.861.856-2.351.856-3.212 0L31.127 52.894a2.27 2.27 0 00-3.211 0L8.047 72.763C5.812 67.098 4.542 60.95 4.542 54.5c0-27.547 22.41-49.958 49.958-49.958 27.547 0 49.958 22.41 49.958 49.958 0 1.951-.14 3.868-.359 5.761a31.736 31.736 0 00-8.724-1.22z" fill="#fff"/></g><defs><clipPath id="clip0_2761_9941"><path fill="#fff" d="M0 0h109v109H0z"/></clipPath></defs></svg>