<svg width="170" height="170" fill="none" xmlns="http://www.w3.org/2000/svg"><circle cx="85" cy="85" r="83.5" fill="url(#paint0_linear_2761_10045)" stroke="#AAAAA9" stroke-width="3"/><g clip-path="url(#clip0_2761_10045)"><path d="M66.996 74.711c7.102 0 12.86-5.757 12.86-12.86 0-7.101-5.758-12.859-12.86-12.859-7.102 0-12.86 5.758-12.86 12.86 0 7.102 5.758 12.86 12.86 12.86z" fill="#EBA707"/><path d="M85 23.273c-34.038 0-61.727 27.691-61.727 61.727 0 34.035 27.689 61.726 61.727 61.726S146.726 119.035 146.726 85c0-34.036-27.688-61.727-61.726-61.727zm14.505 113.075c1.606-5.107.951-10.165.926-10.198 0-17.018 13.844-30.863 30.863-30.863 2.517 0 4.967.41 7.374 1.002l-39.163 40.059zm31.789-46.205c-2.081 0-4.108.216-6.094.557L99.678 65.178a2.57 2.57 0 00-3.637 0L73.738 87.48a2.57 2.57 0 000 3.637l6.43 6.43a2.571 2.571 0 010 3.637c-.975.969-2.663.969-3.637 0L58.527 83.181a2.57 2.57 0 00-3.637 0l-22.502 22.503c-2.532-6.416-3.97-13.38-3.97-20.684C28.417 53.8 53.8 28.417 85 28.417c31.199 0 56.582 25.383 56.582 56.583 0 2.21-.159 4.38-.407 6.525a35.948 35.948 0 00-9.881-1.382z" fill="#797979"/></g><defs><linearGradient id="paint0_linear_2761_10045" x1="155.361" y1="0" x2="85" y2="170" gradientUnits="userSpaceOnUse"><stop stop-color="#E9E9E9"/><stop offset=".178" stop-color="#B4B4B4"/><stop offset=".503" stop-color="#F0F0F0"/><stop offset=".554" stop-color="#8A8A8A"/><stop offset=".653" stop-color="#fff"/><stop offset=".754" stop-color="#B6B6B6"/><stop offset=".8" stop-color="#D3D3D3"/><stop offset=".949" stop-color="#fff"/></linearGradient><clipPath id="clip0_2761_10045"><path fill="#fff" transform="translate(23.273 23.273)" d="M0 0h123.452v123.452H0z"/></clipPath></defs></svg>