<svg width="22" height="22" fill="none" xmlns="http://www.w3.org/2000/svg"><path d="M17.77 8.461h-1.69a2.541 2.541 0 00-2.538-2.538V4.23a4.233 4.233 0 014.23 4.231z" fill="#EBA707"/><path d="M21.154 8.461h-1.692a5.931 5.931 0 00-5.921-5.923V.846a7.62 7.62 0 017.613 7.615zM19.462 22h-.143C2.697 21.044.337 7.015.007 2.733A2.539 2.539 0 012.545 0h4.458a1.691 1.691 0 011.573 1.066l1.286 3.165a1.693 1.693 0 01-.372 1.827l-1.802 1.82a7.921 7.921 0 006.412 6.43l1.835-1.819a1.691 1.691 0 011.836-.347l3.188 1.278A1.692 1.692 0 0122 14.994v4.468A2.539 2.539 0 0119.462 22zM2.545 1.692a.845.845 0 00-.846.914c.39 5.01 2.885 16.856 17.713 17.702a.846.846 0 00.895-.794l.001-.052v-4.468l-3.189-1.278-2.427 2.412-.406-.051c-7.36-.922-8.357-8.284-8.357-8.36l-.051-.406L8.28 4.882l-1.269-3.19H2.545z" fill="#EBA707"/></svg>