<svg width="18" height="18" fill="none" xmlns="http://www.w3.org/2000/svg"><path d="M17 12.98v2.408a1.604 1.604 0 01-1.094 1.527 1.613 1.613 0 01-.66.079 15.94 15.94 0 01-6.943-2.465A15.672 15.672 0 013.476 9.71a15.869 15.869 0 01-2.47-6.96 1.603 1.603 0 01.953-1.614c.204-.09.425-.137.648-.137h2.414A1.61 1.61 0 016.63 2.381c.102.77.29 1.528.563 2.256a1.603 1.603 0 01-.362 1.694l-1.022 1.02a12.86 12.86 0 004.827 4.817l1.022-1.02a1.61 1.61 0 011.697-.36c.73.271 1.489.46 2.26.561A1.61 1.61 0 0117 12.98z" stroke="#fff" stroke-width="2" stroke-linecap="round" stroke-linejoin="round"/></svg>