<svg width="16" height="16" fill="none" xmlns="http://www.w3.org/2000/svg"><path d="M2.969 0A2.98 2.98 0 000 2.969V13.03A2.98 2.98 0 002.969 16H13.03A2.98 2.98 0 0016 13.031V2.97A2.98 2.98 0 0013.031 0H2.97zm0 1.455H13.03c.844 0 1.514.67 1.514 1.514V13.03c0 .844-.67 1.514-1.514 1.514H2.97a1.507 1.507 0 01-1.514-1.514V2.97c0-.844.67-1.514 1.514-1.514z" fill="#fff"/><path d="M10.987 4.446L3.9 7.413c-.286.138-.382.415-.07.565l1.819.628 4.396-2.95c.24-.185.486-.136.275.068L6.544 9.435l-.119 1.571c.11.243.311.244.44.123l1.044-1.073 1.79 1.455c.415.267.641.094.73-.395l1.174-6.033c.122-.602-.086-.868-.616-.637z" fill="#fff"/></svg>