<svg width="16" height="16" fill="none" xmlns="http://www.w3.org/2000/svg"><path d="M8.339 10.947c-2.59 0-4.067-1.896-4.128-5.052h1.297c.043 2.316.999 3.297 1.756 3.5v-3.5h1.222v1.997c.748-.086 1.533-.996 1.798-1.997h1.222c-.204 1.234-1.056 2.144-1.662 2.518.606.304 1.577 1.098 1.946 2.534h-1.345c-.288-.96-1.008-1.704-1.96-1.805v1.805H8.34z" fill="#fff"/><path d="M2.969 0A2.98 2.98 0 000 2.969V13.03A2.98 2.98 0 002.969 16H13.03A2.98 2.98 0 0016 13.031V2.97A2.98 2.98 0 0013.031 0H2.97zm0 1.455H13.03c.844 0 1.514.67 1.514 1.514V13.03c0 .844-.67 1.514-1.514 1.514H2.97a1.507 1.507 0 01-1.514-1.514V2.97c0-.844.67-1.514 1.514-1.514z" fill="#fff"/></svg>