<svg width="16" height="17" fill="none" xmlns="http://www.w3.org/2000/svg"><path d="M13.662 3.048a7.893 7.893 0 00-2.58-1.725A7.928 7.928 0 008.03.725C3.643.725.068 4.279.064 8.642c0 1.397.368 2.757 1.062 3.96L0 16.707l4.223-1.1a8.004 8.004 0 003.807.963h.004c4.388 0 7.962-3.554 7.966-7.921a7.85 7.85 0 00-.607-3.033 7.887 7.887 0 00-1.732-2.568h.002zM8.03 15.23a6.63 6.63 0 01-3.371-.918l-.241-.144-2.505.653.669-2.43-.157-.251a6.526 6.526 0 01-1.012-3.501c0-3.622 2.97-6.577 6.621-6.577a6.622 6.622 0 014.681 1.929 6.516 6.516 0 011.937 4.655c-.004 3.635-2.974 6.585-6.622 6.585zm3.632-4.928c-.198-.099-1.176-.577-1.36-.645-.182-.065-.316-.1-.447.099-.133.196-.515.645-.63.774-.114.133-.233.148-.431.05-.198-.1-.84-.308-1.6-.984-.592-.525-.99-1.174-1.108-1.37-.114-.198-.01-.304.089-.403.087-.088.198-.232.297-.346.1-.114.134-.198.199-.33.065-.133.034-.247-.015-.346-.05-.099-.447-1.075-.615-1.468-.16-.389-.324-.335-.447-.34-.114-.007-.248-.007-.382-.007a.736.736 0 00-.53.247c-.184.197-.695.676-.695 1.652 0 .976.713 1.914.814 2.047.098.132 1.4 2.13 3.398 2.988.472.205.844.326 1.134.418.477.152.908.129 1.252.08.381-.058 1.176-.48 1.344-.942.164-.464.164-.86.114-.942-.049-.084-.183-.133-.381-.232z" fill="#fff"/></svg>