<svg width="16" height="16" fill="none" xmlns="http://www.w3.org/2000/svg"><path d="M13.662 2.326A7.892 7.892 0 008.03 0C3.643 0 .068 3.558.064 7.926a7.93 7.93 0 001.062 3.965L0 16l4.223-1.102a7.997 7.997 0 003.807.965h.004c4.388 0 7.962-3.558 7.966-7.93a7.866 7.866 0 00-2.338-5.607zM8.03 14.521a6.625 6.625 0 01-3.371-.92l-.241-.144-2.505.654.669-2.433-.157-.251a6.538 6.538 0 01-1.012-3.505c0-3.626 2.97-6.584 6.621-6.584a6.616 6.616 0 016.118 4.068c.332.8.502 1.657.5 2.523-.004 3.639-2.974 6.592-6.622 6.592zm3.632-4.934c-.198-.099-1.176-.578-1.36-.646-.182-.065-.316-.099-.447.099a11.82 11.82 0 01-.63.775c-.114.133-.233.148-.431.05-.198-.1-.84-.308-1.6-.985-.592-.525-.99-1.175-1.108-1.372-.114-.198-.01-.304.089-.403.087-.088.198-.232.297-.346.1-.114.134-.198.199-.33.065-.134.034-.248-.015-.347-.05-.099-.447-1.076-.615-1.47-.16-.389-.324-.335-.447-.34-.114-.007-.248-.007-.382-.007a.735.735 0 00-.53.247c-.184.198-.695.677-.695 1.654 0 .977.713 1.916.814 2.049.098.133 1.4 2.132 3.398 2.992.472.205.844.326 1.134.418.477.152.908.129 1.252.08.381-.058 1.176-.48 1.344-.943.164-.464.164-.86.114-.943-.049-.084-.183-.133-.381-.232z" fill="#fff"/></svg>